<?xml version="1.0" standalone="no"?><!DOCTYPE svg PUBLIC "-//W3C//DTD SVG 1.1//EN" "http://www.w3.org/Graphics/SVG/1.1/DTD/svg11.dtd"><svg t="1530438142156" class="icon" style="" viewBox="0 0 1533 1024" version="1.1" xmlns="http://www.w3.org/2000/svg" p-id="1584" xmlns:xlink="http://www.w3.org/1999/xlink" width="299.4140625" height="200"><defs><style type="text/css"></style></defs><path d="M0 1024V0h1533.327368v1024z m1527.218494 0z m-1527.218494 0h1527.218494V6.108874H6.108874z" fill="#231F20" p-id="1585"></path><path d="M3.054437 3.054437h763.609247v509.327368h-763.609247z" fill="#FFFFFF" p-id="1586"></path><path d="M766.663684 3.054437h763.609247v509.327368h-763.609247z" fill="#D21034" p-id="1587"></path><path d="M766.663684 512.381805h763.609247v509.327367h-763.609247z" fill="#FFFFFF" p-id="1588"></path><path d="M3.054437 512.381805h763.609247v509.327367h-763.609247zM384.85906 144.322148l28.253543 86.287845H503.982103l-73.306488 53.452647L458.165548 370.350485l-73.306488-52.689038-73.306487 52.689038 28.253542-86.287845-73.306488-53.452647h90.105891l28.253542-86.287845z" fill="#0067C6" p-id="1589"></path><path d="M1148.468307 653.649515l28.253542 86.287845h90.869501l-73.306488 53.452647 27.489933 86.287845-73.306488-53.452647-73.306487 53.452647 28.253542-86.287845-73.306488-53.452647h90.8695l27.489933-86.287845z" fill="#D21034" p-id="1590"></path></svg>