<?xml version="1.0" standalone="no"?><!DOCTYPE svg PUBLIC "-//W3C//DTD SVG 1.1//EN" "http://www.w3.org/Graphics/SVG/1.1/DTD/svg11.dtd"><svg t="1530439033147" class="icon" style="" viewBox="0 0 1560 1024" version="1.1" xmlns="http://www.w3.org/2000/svg" p-id="2621" xmlns:xlink="http://www.w3.org/1999/xlink" width="304.6875" height="200"><defs><style type="text/css"></style></defs><path d="M141.409524 0h1275.123809C1496.990476 0 1560.380952 63.390476 1560.380952 138.971429v746.057142c0 78.019048-63.390476 138.971429-141.409523 138.971429H141.409524C63.390476 1024 0 960.609524 0 885.028571V138.971429C0 63.390476 63.390476 0 141.409524 0z" fill="#DA1F26" p-id="2622"></path><path d="M0 885.028571C0 960.609524 63.390476 1024 141.409524 1024h1277.561905c78.019048 0 141.409524-60.952381 141.409523-138.971429V341.333333H0v543.695238z" fill="#FFFFFF" p-id="2623"></path><path d="M0 341.333333h1560.380952v341.333334H0z" fill="#243E84" p-id="2624"></path><path d="M614.4 599.771429V341.333333H256v299.885715c2.438095 43.885714 21.942857 90.209524 51.2 121.904762v-2.438096c31.695238 34.133333 75.580952 53.638095 124.342857 53.638096 2.438095 4.87619 12.190476 0 17.066667 0 68.266667-7.314286 126.780952-56.07619 148.723809-119.466667 17.066667-31.695238 19.504762-63.390476 17.066667-95.085714z" fill="#DA1F26" p-id="2625"></path><path d="M346.209524 243.809524zM412.038095 265.752381zM348.647619 277.942857zM377.904762 275.504762zM370.590476 256zM385.219048 265.752381zM526.628571 243.809524zM463.238095 265.752381zM524.190476 277.942857zM494.933333 275.504762zM499.809524 248.685714zM541.257143 341.333333s0-2.438095-2.438095-2.438095v-2.438095c2.438095 0 2.438095-2.438095 4.87619-4.876191 0 0 2.438095 0 2.438095-2.438095 2.438095-2.438095 2.438095-2.438095 2.438096-4.87619s0-4.87619-2.438096-7.314286c0-2.438095 0-2.438095-2.438095-4.876191v-2.438095c2.438095 0 4.87619 0 4.876191-2.438095s0-2.438095-2.438096-4.87619h-2.438095c2.438095-2.438095 2.438095-7.314286 4.876191-9.752381 2.438095-2.438095 4.87619-2.438095 2.438095-4.876191 2.438095 0 2.438095-4.87619 4.87619-7.314286v-2.438095l2.438096-2.438095v-2.438095l2.438095-2.438096V268.190476v-2.438095c2.438095 0 2.438095-2.438095 2.438095-4.876191s2.438095-2.438095 2.438095-4.87619h4.876191l2.438095-2.438095V246.247619c0-2.438095 0-2.438095-2.438095-4.87619 14.628571 2.438095 14.628571 2.438095 17.066666 0v-4.876191c0-2.438095 0-2.438095-2.438095-4.87619 2.438095 0 4.87619-2.438095 4.876191-2.438096v-2.438095c0-2.438095 0-4.87619-2.438096-4.87619 2.438095 0 2.438095-2.438095 2.438096-2.438096v-4.87619c0-2.438095-2.438095-4.87619-2.438096-4.876191H580.266667v-4.87619c7.314286-4.87619 4.87619-7.314286 4.87619-9.752381h-4.87619c-2.438095 0-2.438095 0-4.876191 2.438095V195.047619c0-2.438095-2.438095-4.87619-2.438095-4.87619h-4.876191c-2.438095 0-4.87619 2.438095-4.87619 2.438095v-2.438095c0-2.438095-2.438095-4.87619-2.438095-4.876191h-4.876191c-2.438095 0-4.87619 0-4.87619 2.438095 0-2.438095-2.438095-4.87619-2.438095-4.87619h-4.876191c-2.438095 0-4.87619 0-4.87619 2.438095 0-2.438095-2.438095-4.87619-2.438096-4.87619H529.066667l-2.438096-2.438096h-9.752381c0-2.438095-2.438095-4.87619-2.438095-4.87619h-4.87619c-2.438095 0-4.87619 0-4.876191 2.438095 0-2.438095-2.438095-4.87619-2.438095-4.87619h-2.438095c-2.438095 0-4.87619 0-4.876191 2.438095 0-2.438095-2.438095-2.438095-2.438095-4.876191h-2.438095c-2.438095 0-4.87619 2.438095-4.876191 2.438096 0-2.438095-2.438095-2.438095-2.438095-4.876191h-4.87619c-2.438095 0-4.87619 2.438095-4.876191 2.438095V170.666667c0-2.438095-2.438095-2.438095-2.438095-4.876191h-4.876191c-2.438095 0-4.87619 2.438095-4.87619 2.438095v4.876191h-2.438095c2.438095-2.438095 2.438095-4.87619 2.438095-7.314286v-2.438095-2.438095c0-2.438095 0-2.438095-2.438095-4.876191-2.438095-4.87619-7.314286-9.752381-12.190476-9.752381v-17.066666h4.87619c0 2.438095 2.438095 2.438095 2.438095 2.438095 2.438095 0 2.438095-2.438095 4.876191-2.438095s2.438095-2.438095 2.438095-2.438096c0-2.438095-2.438095-2.438095-2.438095-4.87619s-2.438095-2.438095-2.438095-2.438095c-2.438095 0-2.438095 2.438095-4.876191 2.438095h-4.87619v-4.876191c2.438095 0 2.438095-2.438095 2.438095-2.438095 0-2.438095-2.438095-2.438095-2.438095-4.87619s-2.438095-2.438095-2.438096-2.438096c-2.438095 0-2.438095 2.438095-4.87619 2.438096s-2.438095 2.438095-2.438095 2.438095c0 2.438095 2.438095 2.438095 2.438095 4.87619V121.904762h-4.876191c0-2.438095-2.438095-2.438095-2.438095-2.438095-2.438095 0-2.438095 2.438095-4.87619 2.438095s-2.438095 2.438095-2.438096 2.438095c0 2.438095 2.438095 2.438095 2.438096 4.876191s2.438095 2.438095 2.438095 2.438095c2.438095 0 2.438095-2.438095 4.87619-2.438095h4.876191v7.314285c-2.438095 0-2.438095 0-4.876191 2.438096-4.87619 2.438095-9.752381 7.314286-9.752381 12.190476v2.438095c0 2.438095 0 4.87619 2.438096 4.87619v2.438096h-2.438096v-4.876191c-2.438095-2.438095-2.438095-2.438095-4.87619-2.438095H414.47619c-2.438095 0-2.438095 2.438095-2.438095 4.87619v-2.438095c-2.438095-2.438095-2.438095-2.438095-4.87619-2.438095h-4.876191c-2.438095 0-2.438095 2.438095-2.438095 4.87619-2.438095-2.438095-2.438095-2.438095-4.87619-2.438095h-2.438096c-2.438095 0-2.438095 2.438095-2.438095 4.876191-2.438095-2.438095-2.438095-2.438095-4.87619-2.438096h-2.438096c-2.438095 0-2.438095 2.438095-2.438095 4.876191-2.438095-2.438095-2.438095-2.438095-4.87619-2.438095h-4.876191c-2.438095 0-2.438095 2.438095-2.438095 4.87619h-9.752381s-2.438095 0-2.438095 2.438095H348.647619c-2.438095 2.438095-2.438095 2.438095-2.438095 4.876191-2.438095-2.438095-2.438095-2.438095-4.876191-2.438095h-4.87619c-2.438095 2.438095-2.438095 2.438095-2.438095 4.87619-2.438095-2.438095-2.438095-2.438095-4.876191-2.438095h-4.87619c-2.438095 2.438095-2.438095 2.438095-2.438096 4.87619v2.438096c-2.438095-2.438095-2.438095-2.438095-4.87619-2.438096h-4.876191c-2.438095 2.438095-2.438095 2.438095-2.438095 4.876191v2.438095c-12.190476 9.752381-14.628571 9.752381-17.066666 9.752381h-4.876191c-2.438095 2.438095-2.438095 2.438095-2.438095 4.876191v4.87619H277.942857c-2.438095 2.438095-2.438095 2.438095-2.438095 4.87619v4.876191c0 2.438095 2.438095 2.438095 2.438095 2.438095-2.438095 2.438095-2.438095 2.438095-2.438095 4.876191v2.438095c0 2.438095 2.438095 2.438095 4.87619 2.438095-2.438095 2.438095-2.438095 2.438095-2.438095 4.876191v4.87619c0 2.438095 2.438095 2.438095 4.876191 2.438095 0 2.438095-2.438095 2.438095-2.438096 4.876191V251.12381s0 2.438095 2.438096 2.438095h4.87619c0 2.438095 0 2.438095 2.438095 4.87619 0 2.438095 2.438095 2.438095 2.438096 4.876191v4.87619l2.438095 2.438095v2.438096l2.438095 2.438095v2.438095c0 2.438095 2.438095 4.87619 2.438095 4.876191l4.876191 4.87619c2.438095 2.438095 2.438095 4.87619 4.87619 7.314286v2.438095h-2.438095l-2.438095 2.438095s0 2.438095 4.87619 2.438096v2.438095c0 2.438095-2.438095 2.438095-2.438095 4.87619-2.438095 2.438095-2.438095 4.87619-2.438095 7.314286 0 2.438095 0 4.87619 2.438095 4.87619l2.438095 2.438096c0 2.438095 2.438095 2.438095 4.876191 4.87619v2.438095c-2.438095 0-2.438095 2.438095-2.438096 2.438096 21.942857 7.314286 229.180952 7.314286 229.180953 7.314285z m-148.72381-173.104762z m-80.457143 24.380953z m41.44762 95.085714c-4.87619 0-7.314286-4.87619-9.752381-7.314286l-4.876191-4.87619v-2.438095c2.438095 0 0-4.87619 0-2.438096h-2.438095V268.190476c0-2.438095 0-7.314286-2.438095-9.752381 0-2.438095-2.438095-4.87619-4.876191-4.87619 0 0 0-2.438095-2.438095-2.438095h-2.438095v4.87619s-2.438095 2.438095-2.438096 4.87619 0 4.87619 2.438096 7.314286c0 2.438095 2.438095 4.87619 2.438095 4.876191s-2.438095 0-2.438095 2.438095 2.438095 2.438095 2.438095 2.438095c0 2.438095 0 2.438095 2.438095 2.438095 0 4.87619 0 9.752381-4.87619 12.190477-4.87619 0-4.87619-4.87619-7.314286-7.314286 0 0 0-2.438095-2.438095-2.438095l2.438095 2.438095 2.438095 2.438095h2.438095v-2.438095l-2.438095-2.438095v-4.876191c0-2.438095 0-2.438095-2.438095-4.87619 0-2.438095-2.438095-2.438095-2.438095-2.438096h-2.438096c-2.438095 0-2.438095-2.438095-2.438095-2.438095s0-2.438095-2.438095-2.438095-2.438095 2.438095-2.438095 2.438095v2.438095c0-2.438095-2.438095-4.87619 0-7.314285v-4.876191-9.752381-4.87619-2.438095l-2.438095-2.438096v-2.438095s0-2.438095-2.438096-2.438095c0-2.438095-2.438095-2.438095-2.438095-4.876191s-2.438095-2.438095-2.438095-4.87619V216.990476l2.438095-2.438095h4.876191s2.438095 0 2.438095-2.438095H312.07619v2.438095c2.438095 7.314286 4.87619 17.066667 7.314286 24.380952 0 2.438095 2.438095 4.87619 2.438095 7.314286v2.438095c2.438095 2.438095 4.87619 2.438095 4.876191 4.876191v2.438095c0 2.438095 2.438095 2.438095 2.438095 4.87619 2.438095 2.438095 4.87619 2.438095 4.876191 4.876191v2.438095s-2.438095 0-2.438096-2.438095l-2.438095-2.438095-2.438095-2.438096s-2.438095 0-2.438095-2.438095h-2.438096v2.438095c0 2.438095 0 2.438095-2.438095 2.438096v2.438095c0 2.438095 0 4.87619 2.438095 4.87619h2.438096s2.438095 0 2.438095 2.438096c0 0 0 2.438095 2.438095 2.438095v2.438095c2.438095 0 2.438095-2.438095 2.438095-2.438095 0-2.438095 2.438095-2.438095 2.438096-4.876191v4.876191c24.380952 4.87619 24.380952 9.752381 19.504762 12.190476z m-24.380953-14.628571z m0 9.752381z m-17.066667-26.819048z m41.44762 4.87619z m-7.314286 12.190477z m-2.438095-2.438096zM341.333333 268.190476z m60.952381-4.87619z m26.819048-9.752381c-2.438095 0-2.438095-2.438095-2.438095-2.438095s-2.438095-2.438095-2.438096-4.876191l-2.438095-2.438095H414.47619l-2.438095 2.438095v12.190476h4.876191s2.438095 0 2.438095-2.438095c2.438095 0 2.438095-2.438095 2.438095-2.438095l2.438095-2.438095 2.438096-2.438096c0 7.314286 0 14.628571-4.876191 17.066667-7.314286 4.87619-17.066667 0-19.504762-7.314286-2.438095-2.438095-2.438095-4.87619-2.438095-4.87619l2.438095-2.438095 2.438096-2.438096c2.438095 0 2.438095-4.87619 0-2.438095l-2.438096-2.438095v-2.438095-9.752381c0-2.438095 0-4.87619-2.438095-4.876191v-2.438095h-2.438095l-2.438095 2.438095v2.438095c-2.438095 0-2.438095 2.438095-2.438096 4.876191v9.752381c0 2.438095 0 4.87619 2.438096 4.87619-2.438095 0-2.438095 0-2.438096 2.438096 0 0-2.438095 0 0 0 0 2.438095 2.438095 2.438095 2.438096 2.438095h2.438095c0 2.438095 0 2.438095 2.438095 2.438095 0 0-2.438095 2.438095-2.438095 4.87619-2.438095 4.87619-4.87619 9.752381-9.752381 9.752381-7.314286-2.438095-9.752381-7.314286-12.190476-14.628571 0 0 0-2.438095-2.438096-2.438095h2.438096l4.87619 4.87619h4.876191v-2.438095-2.438095-2.438095l-2.438096-2.438096c-2.438095 0-2.438095 2.438095-4.87619 2.438096-2.438095 2.438095-2.438095 4.87619-4.876191 7.314285 0 0-2.438095 0-2.438095 2.438095h-2.438095v-2.438095c0-2.438095 2.438095-4.87619 4.87619-7.314285v-2.438096-4.87619V236.495238v-2.438095-2.438095l-2.438095-2.438096s-2.438095-2.438095-2.438095-4.87619c-2.438095-2.438095-2.438095-4.87619-4.876191-7.314286 0-2.438095-2.438095-2.438095-2.438095-4.87619s-2.438095-4.87619-2.438095-4.876191v-7.314285-2.438096l4.87619-4.87619c2.438095-2.438095 4.87619-2.438095 7.314286-2.438095 2.438095 0 4.87619-2.438095 7.314286-2.438096h2.438095c4.87619 0 9.752381-2.438095 12.190476-2.438095H414.47619V219.428571c0 2.438095-2.438095 7.314286-2.438095 9.752381v4.876191s2.438095 0 2.438095 2.438095c2.438095 0 2.438095 2.438095 4.876191 2.438095 0 0-2.438095 0-2.438095 2.438096s0 2.438095 2.438095 4.87619 4.87619 2.438095 4.87619 4.876191c7.314286 0 7.314286 0 4.876191 2.438095 2.438095 0 2.438095 0 0 0z m-43.885714 2.438095z m177.980952-63.390476z m-82.895238-24.380953z m-7.314286 95.085715zM512 212.114286c-2.438095 2.438095-2.438095 4.87619-4.87619 7.314285 0 2.438095-2.438095 2.438095-2.438096 4.876191l-2.438095 2.438095V234.057143c0 2.438095 2.438095 4.87619 0 4.87619V246.247619c0 2.438095 2.438095 4.87619 4.876191 7.314286v2.438095h-2.438096s-2.438095 0-2.438095-2.438095c-2.438095-2.438095-2.438095-4.87619-4.87619-7.314286 0 0-2.438095-2.438095-4.876191-2.438095 0 0-2.438095 0-2.438095 2.438095V253.561905h4.87619l4.876191-4.876191h2.438095c-2.438095 7.314286-7.314286 14.628571-12.190476 17.066667-4.87619 0-7.314286-4.87619-9.752381-9.752381 0-2.438095-2.438095-4.87619-2.438095-4.87619 0-2.438095 2.438095-2.438095 2.438095-2.438096 2.438095 0 2.438095-4.87619 0-2.438095l-2.438095-2.438095c0-2.438095 2.438095-2.438095 2.438095-4.876191v-9.752381c0-2.438095 0-2.438095-2.438095-4.87619v-2.438095s0-2.438095-2.438096-2.438096h-2.438095v2.438096c-2.438095 2.438095-2.438095 2.438095-2.438095 4.87619v12.190476c-2.438095 0-4.87619 0-2.438095 2.438096 0 2.438095 2.438095 2.438095 2.438095 2.438095s2.438095 0 2.438095 2.438095c0 0 0 2.438095 2.438095 2.438095-2.438095 7.314286-7.314286 14.628571-17.066666 14.628572-7.314286 0-12.190476-9.752381-9.752381-17.066667V243.809524s2.438095 0 2.438095 2.438095l2.438095 2.438095c0 2.438095 2.438095 2.438095 2.438096 2.438096s2.438095 0 2.438095 2.438095c2.438095 0 2.438095 2.438095 4.87619 0v-2.438095-2.438096V241.371429s0-2.438095-2.438095-2.438096-2.438095 0-4.87619 2.438096c0 0-2.438095 0-2.438096 2.438095s-2.438095 2.438095-2.438095 4.87619h-2.438095-2.438095l-2.438096-2.438095s0-2.438095 2.438096-2.438095c2.438095-2.438095 4.87619-2.438095 4.87619-4.876191 0 0 0-2.438095 2.438095-2.438095v-4.87619c0-2.438095 2.438095-2.438095 4.876191-4.876191 0 0 2.438095 0 2.438095-2.438095v-2.438095-4.876191c0-2.438095-2.438095-4.87619-2.438095-7.314286v-2.438095V187.733333v-7.314285-7.314286H480.304762c4.87619 0 9.752381 0 12.190476 2.438095h2.438095c2.438095 0 4.87619 0 7.314286 2.438095 2.438095 0 4.87619 2.438095 7.314286 2.438096 2.438095 0 2.438095 2.438095 4.87619 4.87619V195.047619c0 2.438095-2.438095 4.87619-2.438095 4.876191v12.190476z m-21.942857 43.885714z m43.885714 14.628571s-2.438095 0-2.438095 2.438096c-2.438095 0 0 4.87619 2.438095 2.438095v2.438095l-2.438095 2.438095c-2.438095 2.438095-7.314286 7.314286-9.752381 7.314286-4.87619-2.438095-2.438095-7.314286-2.438095-12.190476v-4.876191c0 2.438095 0 2.438095 2.438095 4.876191l2.438095 2.438095v-2.438095s0-2.438095 2.438095-2.438095c0 0 0-2.438095 2.438096-2.438096h4.87619V263.314286l-2.438095-2.438096v-2.438095h-2.438095s-2.438095 0-2.438096 2.438095l-2.438095 2.438096-2.438095 2.438095s-2.438095 0-2.438095 2.438095v-2.438095c2.438095-2.438095 4.87619-2.438095 4.87619-4.876191 2.438095-2.438095 2.438095-2.438095 2.438095-4.87619v-2.438095c2.438095-2.438095 2.438095-4.87619 4.876191-4.876191v-2.438095c4.87619-14.628571 4.87619-17.066667 4.87619-19.504762 2.438095-7.314286 4.87619-17.066667 7.314286-24.380952v-2.438095H551.009524s2.438095 0 2.438095 2.438095h4.876191l2.438095 2.438095V212.114286c0 2.438095 0 2.438095-2.438095 4.87619 0 2.438095-2.438095 2.438095-2.438096 4.876191 0 0 0 2.438095-2.438095 2.438095v2.438095l-2.438095 2.438095v26.819048c0-2.438095 0-2.438095-2.438095-2.438095 0 0 0 2.438095-2.438096 2.438095 0 0 0 2.438095-2.438095 2.438095h-2.438095c-2.438095 0-2.438095 2.438095-2.438095 2.438095 0 2.438095 0 2.438095-2.438096 4.876191l-2.438095 4.87619c2.438095 2.438095 2.438095 2.438095 0 2.438096v2.438095h2.438095l2.438096-2.438095 2.438095-2.438096c-2.438095 4.87619-4.87619 7.314286-7.314286 12.190477-2.438095 2.438095-4.87619-2.438095-4.87619-4.876191v-4.87619s2.438095 0 2.438095-2.438096h2.438095c2.438095 0 2.438095-4.87619 0 0 0-2.438095 0-2.438095-2.438095-4.87619 2.438095-2.438095 2.438095-2.438095 2.438095-4.876191 2.438095-2.438095 2.438095-4.87619 2.438095-7.314285s0-2.438095-2.438095-4.876191V243.809524h-2.438095l-2.438095 2.438095c-2.438095 0-2.438095 2.438095-4.876191 4.876191 0 2.438095-2.438095 7.314286-2.438095 9.75238 12.190476 7.314286 12.190476 7.314286 12.190476 9.752381z m-14.628571-9.752381z m7.314285 12.190477z m2.438096-2.438096z m2.438095-2.438095z m29.257143-12.190476z m-17.066667 26.819048z" fill="#EDB92E" p-id="2626"></path></svg>