<?xml version="1.0" standalone="no"?><!DOCTYPE svg PUBLIC "-//W3C//DTD SVG 1.1//EN" "http://www.w3.org/Graphics/SVG/1.1/DTD/svg11.dtd"><svg t="1530439821171" class="icon" style="" viewBox="0 0 1541 1024" version="1.1" xmlns="http://www.w3.org/2000/svg" p-id="3569" xmlns:xlink="http://www.w3.org/1999/xlink" width="300.9765625" height="200"><defs><style type="text/css"></style></defs><path d="M6.296139 1017.710074h1520.904176V6.289926H6.296139v1011.420148z m1523.420147 3.773955v-3.773955 3.773955z m-1529.710074 2.515971V0h1533.48403v1024H0.006212z" fill="#353636" p-id="3570"></path><path d="M3.780168 681.82801h1527.194103v113.218673H3.780168zM3.780168 908.265356h1527.194103v113.218673H3.780168z" fill="#FFFFFF" p-id="3571"></path><path d="M3.780168 795.046683h1527.194103v113.218673H3.780168zM3.780168 568.609337h1527.194103v113.218673H3.780168zM3.780168 342.17199h1527.194103v113.218673H3.780168z" fill="#0053A3" p-id="3572"></path><path d="M3.780168 228.953317h1527.194103v113.218673H3.780168z" fill="#FFFFFF" p-id="3573"></path><path d="M3.780168 115.734644h1527.194103v113.218673H3.780168z" fill="#0053A3" p-id="3574"></path><path d="M3.780168 455.390663h1527.194103v113.218674H3.780168zM3.780168 3.773956h1527.194103v113.218673H3.780168z" fill="#FFFFFF" p-id="3575"></path><path d="M3.780168 3.773956h566.093366v566.093366H3.780168z" fill="#FFFFFF" p-id="3576"></path><path d="M280.536925 194.987715c79.253071-50.31941 35.223587-85.542998 90.574938-99.380835-38.997543 36.481572 21.385749 49.061425-38.997543 118.250614L303.180659 249.081081l-22.643734-54.093366z" fill="#FAD400" p-id="3577"></path><path d="M280.536925 194.987715c40.255528-23.90172 50.31941-45.287469 55.351351-62.899263 6.289926-16.353808 7.547912-28.933661 35.223587-35.223587v-1.257985l-1.257985-1.257986c-11.321867 10.063882-13.837838 18.869779-13.837838 27.675676 0 10.063882 3.773956 20.127764 3.773956 31.449631 0 13.837838-5.031941 32.707617-27.675676 59.125308l-27.675675 33.965602-23.90172-51.577396 22.643734 55.351351 1.257986 2.515971 30.191646-36.481573c22.643735-26.41769 28.933661-45.287469 28.933661-60.383292 0-12.579853-3.773956-22.643735-3.773956-31.449631 0-7.547912 2.515971-16.353808 13.837838-26.417691l3.773956-3.773956-5.031941 1.257986c-30.191646 6.289926-32.707617 18.869779-38.997543 36.481572-6.289926 16.353808-13.837838 37.739558-52.835381 62.899263h-1.257985 1.257985z" fill="#231815" p-id="3578"></path><path d="M301.922674 233.985258c51.577396-40.255528 33.965602-120.766585 69.189189-137.120393l-1.257985-2.515971c-37.739558 18.869779-17.611794 98.12285-69.189189 137.120393l1.257985 2.515971z" fill="#231815" p-id="3579"></path><path d="M345.952158 217.63145c91.832924 21.385749 85.542998-35.223587 134.604423-6.289927-52.835381-1.257985-20.127764 50.31941-110.702703 56.609337l-45.287469 5.031941 21.385749-55.351351z" fill="#FAD400" p-id="3580"></path><path d="M345.952158 217.63145c15.095823 5.031941 27.675676 6.289926 37.739558 6.289926 40.255528 0 52.835381-20.127764 71.70516-20.127764 6.289926 0 13.837838 2.515971 25.159705 8.805897l1.257985-1.257986v-1.257985H479.298596c-25.159705 0-30.191646 13.837838-40.255529 26.417691-10.063882 12.579853-23.90172 26.41769-67.931204 30.191646l-42.771498 5.031941 17.611793-54.093366-22.643734 55.351351-1.257986 2.51597 46.545455-5.031941c45.287469-3.773956 60.383292-17.611794 70.447174-31.449631 10.063882-13.837838 13.837838-25.159705 37.739558-25.159705H484.330537l-3.773956-2.515971c-10.063882-6.289926-18.869779-8.805897-26.417691-8.805896-21.385749 0-32.707617 20.127764-71.705159 20.127764-10.063882 0-22.643735-1.257985-37.739558-5.031941h-1.257985 2.51597z" fill="#231815" p-id="3581"></path><path d="M333.372306 260.402948l10.063882 1.257986c54.093366 0 93.090909-51.577396 125.798526-51.577396l10.063882 1.257985 1.257985-2.51597-10.063882-1.257985c-35.223587 0-72.963145 51.577396-125.798526 51.577395l-10.063882-1.257985-1.257985 2.51597z" fill="#231815" p-id="3582"></path><path d="M377.40179 280.530713c50.31941 79.253071 85.542998 35.223587 100.63882 90.574938-36.481572-37.739558-49.061425 21.385749-118.250614-37.739558l-35.223587-27.675675 52.835381-25.159705z" fill="#FAD400" p-id="3583"></path><path d="M377.40179 280.530713c23.90172 40.255528 46.545455 49.061425 62.899263 55.351351 17.611794 6.289926 28.933661 7.547912 35.223587 35.223587h1.257985l1.257985-1.257985c-10.063882-11.321867-18.869779-13.837838-27.675675-13.837838-10.063882 0-20.127764 3.773956-32.707617 3.773956-13.837838 0-32.707617-5.031941-57.867322-27.675676l-33.965602-26.41769 51.577396-25.159705-55.351352 22.643734-1.257985 1.257985 36.481573 28.933661c26.41769 22.643735 45.287469 27.675676 60.383292 27.675676 12.579853 0 22.643735-3.773956 32.707617-3.773956 7.547912 0 16.353808 2.515971 26.41769 13.837838l3.773956 3.773956-1.257985-5.031941c-7.547912-27.675676-20.127764-31.449631-37.739558-36.481573-17.611794-6.289926-38.997543-15.095823-64.157248-52.83538v-1.257986 1.257986z" fill="#231815" p-id="3584"></path><path d="M338.404247 303.174447c41.513514 51.577396 122.02457 32.707617 138.378378 67.931204l2.515971-1.257985c-18.869779-37.739558-99.380835-17.611794-138.378379-67.931204l-2.51597 1.257985z" fill="#231815" p-id="3585"></path><path d="M354.758055 344.687961c-20.127764 91.832924 36.481572 85.542998 7.547912 134.604422 1.257985-52.835381-50.31941-18.869779-57.867322-110.702702l-5.031941-45.28747 55.351351 21.38575z" fill="#FAD400" p-id="3586"></path><path d="M354.758055 344.687961c-5.031941 13.837838-6.289926 26.41769-6.289926 36.481572 0 41.513514 20.127764 52.835381 20.127764 72.963145 0 6.289926-2.515971 13.837838-7.547912 23.90172l1.257986 1.257985h1.257985v-1.257985c0-25.159705-13.837838-31.449631-26.417691-40.255528-13.837838-10.063882-27.675676-23.90172-31.449631-67.931204l-5.031941-42.771499 54.093366 17.611794-55.351351-22.643735-2.515971-1.257985 5.031941 46.545454c3.773956 45.287469 18.869779 60.383292 32.707617 70.447175 13.837838 10.063882 25.159705 13.837838 25.159705 37.739558v6.289926l2.515971-3.773956c6.289926-10.063882 8.805897-18.869779 8.805896-25.159705 0-21.385749-20.127764-32.707617-20.127764-72.963145 0-7.547912 1.257985-20.127764 3.773956-35.223587l1.257985-1.257986-1.257985 1.257986z" fill="#231815" p-id="3587"></path><path d="M310.728571 333.366093v10.063882c0 55.351351 52.835381 93.090909 52.835381 125.798526l-2.515971 10.063882 2.515971 1.257986 1.257985-10.063883c0-35.223587-52.835381-72.963145-52.835381-125.798525v-10.063882l-1.257985-1.257986z" fill="#231815" p-id="3588"></path><path d="M293.116777 374.879607c-79.253071 51.577396-33.965602 85.542998-89.316953 100.638821 37.739558-36.481572-21.385749-49.061425 36.481573-119.5086l27.675675-35.223587 25.159705 54.093366z" fill="#FAD400" p-id="3589"></path><path d="M293.116777 374.879607c-40.255528 23.90172-49.061425 46.545455-55.351351 62.899263-6.289926 17.611794-7.547912 28.933661-33.965602 36.481572v1.257986l1.257985 1.257985c11.321867-10.063882 13.837838-18.869779 13.837838-27.675676 0-10.063882-3.773956-20.127764-3.773956-32.707617 0-13.837838 5.031941-31.449631 26.417691-57.867321l26.41769-33.965602 25.159705 50.31941-23.90172-54.093366-1.257985-2.515971-28.933661 37.739558c-22.643735 26.41769-27.675676 45.287469-27.675675 60.383292 0 13.837838 5.031941 23.90172 3.773955 32.707617 0 7.547912-2.515971 16.353808-12.579852 26.417691l-2.515971 3.773955 5.031941-1.257985c27.675676-7.547912 31.449631-21.385749 36.481573-37.739558 5.031941-17.611794 13.837838-37.739558 51.577395-65.415233h1.257986-1.257986z" fill="#231815" p-id="3590"></path><path d="M270.473043 335.882064c-51.577396 41.513514-31.449631 122.02457-66.673219 138.378378l1.257985 2.515971c37.739558-18.869779 16.353808-99.380835 66.673219-138.378379l-1.257985-2.51597z" fill="#231815" p-id="3591"></path><path d="M227.701544 354.751843c-91.832924-18.869779-84.285012 36.481572-134.604423 8.805897 52.835381 1.257985 18.869779-50.31941 109.444718-59.125308l45.287469-5.031941-20.127764 55.351352z" fill="#FAD400" p-id="3592"></path><path d="M227.701544 354.751843V353.493857c-13.837838-2.515971-26.41769-3.773956-36.481573-3.773955-42.771499 0-54.093366 21.385749-74.22113 21.385749-6.289926 0-13.837838-2.515971-23.90172-7.547911v2.51597h1.257986c26.41769 0 31.449631-13.837838 40.255528-26.41769 10.063882-13.837838 22.643735-27.675676 67.931204-32.707617l42.771499-5.031941-17.611794 52.835381V353.493857v1.257986l21.385749-55.351352 1.257986-2.51597-47.80344 6.289926c-45.287469 3.773956-60.383292 18.869779-70.447175 32.707617-10.063882 13.837838-13.837838 25.159705-38.997543 25.159705h-5.031941l3.773956 2.515971c10.063882 6.289926 18.869779 8.805897 25.159705 8.805896 21.385749 0 32.707617-21.385749 74.22113-21.385749 10.063882 0 21.385749 1.257985 36.481573 3.773956l1.257985 1.257985-1.257985-1.257985z" fill="#231815" p-id="3593"></path><path d="M239.023411 310.722359h-8.805897c-55.351351 0-93.090909 54.093366-125.798525 52.835381l-8.805897-1.257986-1.257985 2.515971 8.805896 1.257985c35.223587 0 72.963145-54.093366 125.798526-52.835381h8.805897l1.257985-2.51597z" fill="#231815" p-id="3594"></path><path d="M194.993927 291.85258c-51.577396-77.995086-86.800983-33.965602-101.896806-88.058968 36.481572 37.739558 49.061425-22.643735 119.5086 35.223587l35.223587 27.675676-52.835381 25.159705z" fill="#FAD400" p-id="3595"></path><path d="M194.993927 291.85258c-25.159705-40.255528-46.545455-49.061425-64.157248-54.093366-17.611794-5.031941-28.933661-7.547912-36.481572-33.965602h-1.257986l-1.257985 1.257985c10.063882 10.063882 18.869779 13.837838 27.675676 13.837838 11.321867 0 20.127764-5.031941 33.965602-5.031941s31.449631 5.031941 57.867322 26.41769l33.965602 26.417691-50.319411 25.159705 54.093366-23.90172 2.515971-1.257985-37.739558-28.933661c-26.41769-21.385749-45.287469-26.41769-59.125307-26.417691s-23.90172 5.031941-33.965602 5.031941c-7.547912 0-16.353808-2.515971-26.41769-12.579852l-3.773956-3.773956 1.257985 5.031941c7.547912 27.675676 21.385749 30.191646 37.739558 36.481573 17.611794 3.773956 38.997543 12.579853 65.415233 50.31941v1.257985-1.257985z" fill="#231815" p-id="3596"></path><path d="M233.99147 269.208845c-41.513514-51.577396-122.02457-30.191646-139.636363-65.415233l-2.515971 1.257985c18.869779 37.739558 99.380835 16.353808 139.636364 65.415233l2.51597-1.257985z" fill="#231815" p-id="3597"></path><path d="M217.637662 227.695332c18.869779-91.832924-37.739558-84.285012-10.063882-134.604423 0 52.835381 50.31941 18.869779 60.383292 109.444718l6.289927 45.287469-56.609337-20.127764z" fill="#FAD400" p-id="3598"></path><path d="M217.637662 227.695332c3.773956-13.837838 5.031941-25.159705 5.031941-35.223588 0-42.771499-21.385749-55.351351-21.385749-74.22113 0-6.289926 2.515971-13.837838 7.547911-23.90172h-2.51597c0 26.41769 13.837838 31.449631 26.41769 41.513514 13.837838 8.805897 27.675676 22.643735 32.707617 67.931204l5.031941 42.771499-52.835381-18.869779 55.351351 21.385749 2.515971 1.257985-6.289927-47.803439c-5.031941-45.287469-20.127764-60.383292-33.965601-69.18919-13.837838-10.063882-25.159705-13.837838-26.417691-38.997543V89.316953l-2.51597 5.031941c-6.289926 10.063882-7.547912 17.611794-7.547912 25.159706 0 22.643735 21.385749 32.707617 21.385749 74.22113 0 8.805897-1.257985 20.127764-2.51597 33.965602l-1.257985 1.257985 1.257985-1.257985z" fill="#231815" p-id="3599"></path><path d="M261.667146 239.017199v-8.805897c0-55.351351-55.351351-94.348894-54.093366-127.056511l1.257985-8.805897-2.51597-1.257985-1.257986 10.063882c0 35.223587 54.093366 72.963145 54.093366 127.056511v8.805897h2.515971z" fill="#231815" p-id="3600"></path><path d="M311.986556 223.921376l116.992629-80.511057-81.769042 116.992629 140.894349 26.417691-140.894349 25.159705L428.979185 428.972973l-116.992629-81.769042-26.41769 140.894349-25.159705-140.894349-116.992629 81.769042 80.511056-118.250614-139.636363-25.159705 139.636363-25.159706-80.511056-118.250614 116.992629 81.769042 25.159705-140.894349z" fill="#FAD400" p-id="3601"></path><path d="M311.986556 223.921376v1.257985l111.960688-76.737101-77.995086 113.218674 135.862408 25.159705-135.862408 23.90172 77.995086 113.218673-113.218673-77.995086-25.159705 135.862408-23.90172-137.120393-113.218673 79.253071 77.995086-113.218673-135.862408-25.159705 135.862408-23.90172-77.995086-114.476659 113.218673 79.253071 23.90172-135.862407 25.159705 135.862407 1.257985-1.257985v-1.257985h1.257986L285.568866 76.737101l-26.417691 145.92629-120.766584-85.542998 84.285012 122.02457L76.743313 285.562654l145.92629 26.41769-84.285012 122.02457 120.766584-84.285012 26.417691 145.92629 26.41769-145.92629 122.02457 85.542997-84.285012-122.02457 145.92629-26.41769-145.92629-26.417691 84.285012-122.02457-123.282555 85.542998h2.515971z" fill="#231815" p-id="3602"></path><path d="M284.310881 84.285012h2.51597v402.555283h-2.51597z" fill="#231815" p-id="3603"></path><path d="M142.158546 143.410319l285.562654 286.820639 2.515971-1.257985-286.820639-288.078624z" fill="#231815" p-id="3604"></path><path d="M84.291225 286.820639l403.813267 1.257985v-2.51597l-403.813267-1.257986z" fill="#231815" p-id="3605"></path><path d="M143.416532 428.972973L428.979185 144.668305l-1.257985-1.257986-285.562654 284.304669z" fill="#231815" p-id="3606"></path><path d="M285.568866 288.078624m-66.673219 0a66.673219 66.673219 0 1 0 133.346438 0 66.673219 66.673219 0 1 0-133.346438 0Z" fill="#FAD400" p-id="3607"></path><path d="M352.242085 288.078624h-1.257986c0 36.481572-28.933661 65.415233-65.415233 65.415233-36.481572 0-65.415233-28.933661-65.415234-65.415233 0-36.481572 28.933661-65.415233 65.415234-65.415233 36.481572 0 65.415233 28.933661 65.415233 65.415233h1.257986c1.257985-37.739558-28.933661-67.931204-66.673219-67.931204s-67.931204 30.191646-67.931204 67.931204c0 37.739558 30.191646 67.931204 67.931204 67.931204 37.739558 0 67.931204-30.191646 66.673219-67.931204z" fill="#231815" p-id="3608"></path><path d="M236.507441 259.144963l2.51597 1.257985 20.127764-3.773955c7.547912 2.515971 16.353808 7.547912 17.611794 6.289926l-13.837838-11.321867h-15.095823l-11.321867 7.547911zM251.603264 313.238329c-1.257985 2.515971-3.773956 8.805897 0 0 6.289926-8.805897 2.515971-2.515971 0 0zM250.345279 262.918919v11.321867-11.321867zM266.699087 269.208845l-6.289926 6.289926-7.547912-5.031941c0-2.515971 3.773956-7.547912 11.321867-7.547911l2.515971 6.289926z" fill="#231815" p-id="3609"></path><path d="M240.281397 267.95086l18.869778-6.289926 13.837838 3.773955h-10.063882zM242.797367 270.46683l12.579853 5.031941 16.353808-1.257985-12.579853 3.773956zM334.630291 259.144963l-12.579853-7.547911h-15.095823l-13.837838 11.321867c1.257985 1.257985 10.063882-5.031941 17.611794-6.289926l20.127764 3.773955 3.773956-1.257985zM285.568866 303.174447l-11.321867-3.773956-13.837838 5.031941 7.547911-6.289926 7.547912-8.805897-2.515971 5.031941h6.289927l6.289926 5.031941 6.289926-5.031941h6.289926l-2.51597-5.031941 7.547911 8.805897 7.547912 6.289926-13.837838-5.031941zM319.534468 313.238329c-1.257985-2.515971-6.289926-8.805897 0 0 5.031941 8.805897 1.257985 2.515971 0 0zM322.050438 262.918919v11.321867-11.321867zM305.69663 269.208845l6.289926 6.289926 8.805897-5.031941c0-2.515971-3.773956-7.547912-11.321867-7.547911l-3.773956 6.289926z" fill="#231815" p-id="3610"></path><path d="M330.856335 267.95086l-18.869779-6.289926-13.837838 3.773955h10.063882zM328.340365 270.46683l-12.579853 5.031941-15.095823-1.257985 12.579853 3.773956zM285.568866 319.528256c-8.805897 0-13.837838-1.257985-18.869779-2.515971 3.773956 0 7.547912-1.257985 18.869779-1.257985 10.063882 0 15.095823 0 18.869779 1.257985-5.031941 1.257985-10.063882 2.515971-18.869779 2.515971z m10.063882-8.805897l-8.805897 2.51597-8.805897-2.51597c-3.773956 0-12.579853 3.773956-22.643734 3.773955 20.127764 8.805897 17.611794 10.063882 31.449631 10.063883 15.095823 0 12.579853-2.515971 31.449632-10.063883-11.321867 0-18.869779-3.773956-22.643735-3.773955zM290.600807 332.108108h-8.805897l3.773956-1.257985z" fill="#231815" p-id="3611"></path></svg>