<?xml version="1.0" standalone="no"?><!DOCTYPE svg PUBLIC "-//W3C//DTD SVG 1.1//EN" "http://www.w3.org/Graphics/SVG/1.1/DTD/svg11.dtd"><svg t="1530454333791" class="icon" style="" viewBox="0 0 1544 1024" version="1.1" xmlns="http://www.w3.org/2000/svg" p-id="2886" xmlns:xlink="http://www.w3.org/1999/xlink" width="301.5625" height="200"><defs><style type="text/css"></style></defs><path d="M10.01467 1017.740831h1513.466993V11.266504H10.01467v1006.474327z m1515.97066 3.755502v-3.755502 3.755502zM3.755501 1024V5.007335h1525.98533v1018.992665H3.755501z" fill="#353636" p-id="2887"></path><path d="M6.259169 683.501222h1519.726161v337.995111H6.259169z" fill="#D22E1D" p-id="2888"></path><path d="M6.259169 345.506112h1519.726161v337.99511H6.259169z" fill="#FFFFFF" p-id="2889"></path><path d="M6.259169 7.511002h1519.726161v337.99511H6.259169z" fill="#009E4B" p-id="2890"></path><path d="M96.391198 324.224939H76.361858v-21.281174h27.540342v-13.770171h7.511003v27.540342h7.511002v-27.540342h7.511003v27.540342h7.511002v-27.540342h7.511003v35.051345h-37.555013v-13.770171H82.621027v7.511002h13.770171v6.259169zM6.259169 296.684597h90.132029v-7.511003H6.259169v7.511003z m13.770171 27.540342h7.511002v-7.511003h-7.511002v7.511003z m-13.770171 0v-21.281174h35.051344v13.770171H62.591687v-7.511002H47.569682v-7.511002h21.281174v21.281173H33.799511v-13.770171H13.770171v13.770171H6.259169zM235.344743 324.224939h-21.281173v-21.281174h27.540342v-13.770171h7.511002v27.540342h7.511003v-27.540342h6.259169v27.540342h7.511002v-27.540342h7.511002v35.051345h-35.051344v-13.770171h-21.281174v7.511002h13.770171v6.259169z m-90.132029-27.540342h90.132029v-7.511003h-90.132029v7.511003z m13.770171 27.540342h7.511003v-7.511003h-7.511003v7.511003z m-13.770171 0v-21.281174h35.051345v13.770171H200.293399v-7.511002h-13.770172v-7.511002h21.281174v21.281173h-35.051345v-13.770171h-21.281173v13.770171h-6.259169zM374.298289 324.224939h-21.281174v-21.281174h27.540342v-13.770171h7.511003v27.540342h7.511002v-27.540342h7.511003v27.540342h7.511002v-27.540342h7.511002v35.051345h-35.051344v-13.770171h-21.281174v7.511002H375.550122v6.259169h-1.251833z m-90.13203-27.540342h90.13203v-7.511003h-90.13203v7.511003z m13.770171 27.540342h7.511003v-7.511003h-7.511003v7.511003z m-13.770171 0v-21.281174h35.051345v13.770171h21.281174v-7.511002H325.476773v-7.511002h21.281173v21.281173h-35.051345v-13.770171h-21.281173v13.770171h-6.259169zM513.251834 324.224939h-21.281174v-21.281174h27.540342v-13.770171h7.511003v27.540342h7.511002v-27.540342h7.511003v27.540342h7.511002v-27.540342h7.511003v35.051345h-35.051345v-13.770171H500.733496v7.511002h12.518338v6.259169z m-90.13203-27.540342H513.251834v-7.511003h-90.13203v7.511003z m13.770172 27.540342h7.511002v-7.511003h-7.511002v7.511003z m-13.770172 0v-21.281174h35.051345v13.770171h21.281174v-7.511002h-13.770171v-7.511002h21.281173v21.281173H450.660147v-13.770171h-21.281174v13.770171h-6.259169zM652.205379 324.224939h-21.281174v-21.281174h27.540343v-13.770171h7.511002v27.540342h7.511003v-27.540342h7.511002v27.540342h7.511002v-27.540342h7.511003v35.051345h-35.051345v-13.770171H638.435208v7.511002h13.770171v6.259169z m-90.132029-27.540342h90.132029v-7.511003h-90.132029v7.511003z m13.770171 27.540342h7.511002v-7.511003H575.843521v7.511003z m-13.770171 0v-21.281174h35.051344v13.770171h21.281174v-7.511002h-13.770171v-7.511002H625.91687v21.281173h-35.051344v-13.770171h-21.281174v13.770171h-7.511002zM791.158924 324.224939h-21.281173v-21.281174h27.540342v-13.770171h7.511002v27.540342h7.511003v-27.540342h7.511002v27.540342h7.511003v-27.540342h7.511002v35.051345h-35.051345v-13.770171H776.136919v7.511002h13.770171v6.259169h1.251834zM701.026895 296.684597h90.132029v-7.511003H701.026895v7.511003z m13.770171 27.540342h7.511002v-7.511003h-7.511002v7.511003z m-13.770171 0v-21.281174h35.051345v13.770171h21.281173v-7.511002h-13.770171v-7.511002h21.281174v21.281173h-35.051345v-13.770171h-21.281174v13.770171H701.026895zM928.860636 324.224939h-21.281174v-21.281174h27.540342v-13.770171h7.511003v27.540342h7.511002v-27.540342h7.511003v27.540342h6.259168v-27.540342h7.511003v35.051345h-35.051345v-13.770171h-21.281173v7.511002h13.770171v6.259169zM838.728606 296.684597h90.13203v-7.511003H838.728606v7.511003z m13.770172 27.540342h7.511002v-7.511003h-7.511002v7.511003z m-13.770172 0v-21.281174h35.051345v13.770171h21.281174v-7.511002h-13.770171v-7.511002H901.320293v21.281173h-35.051344v-13.770171h-21.281174v13.770171H838.728606zM1067.814181 324.224939h-21.281174v-21.281174h27.540343v-13.770171h7.511002v27.540342h7.511003v-27.540342h7.511002v27.540342h7.511002v-27.540342h7.511003v35.051345H1076.577017v-13.770171h-21.281173v7.511002h13.770171v6.259169h-1.251834z m-90.132029-27.540342h90.132029v-7.511003h-90.132029v7.511003z m13.770171 27.540342h7.511002v-7.511003h-7.511002v7.511003z m-13.770171 0v-21.281174h35.051344v13.770171h21.281174v-7.511002h-13.770171v-7.511002h21.281173v21.281173h-35.051344v-13.770171h-21.281174v13.770171h-7.511002zM1206.767726 324.224939h-21.281173v-21.281174H1214.278729v-13.770171h7.511002v27.540342h7.511002v-27.540342h7.511003v27.540342h7.511002v-27.540342h7.511003v35.051345h-37.555012v-13.770171h-21.281174v7.511002h13.770171v6.259169z m-90.132029-27.540342h90.132029v-7.511003h-90.132029v7.511003z m13.770171 27.540342h7.511002v-7.511003h-7.511002v7.511003z m-13.770171 0v-21.281174H1151.687042v13.770171h21.281173v-7.511002h-13.770171v-7.511002h21.281174v21.281173h-35.051345v-13.770171h-21.281174v13.770171h-7.511002zM1345.721271 324.224939h-21.281173v-21.281174h27.540342v-13.770171h7.511003v27.540342h7.511002v-27.540342h7.511002v27.540342h7.511003v-27.540342h7.511002v35.051345h-35.051344v-13.770171h-21.281174v7.511002h13.770171v6.259169h-1.251834z m-90.132029-27.540342h90.132029v-7.511003h-90.132029v7.511003z m13.770171 27.540342h7.511003v-7.511003h-7.511003v7.511003z m-13.770171 0v-21.281174h35.051345v13.770171h21.281173v-7.511002h-13.770171v-7.511002h21.281174v21.281173h-35.051345v-13.770171h-21.281174v13.770171h-7.511002zM1484.674817 324.224939h-21.281174v-21.281174h27.540342v-13.770171h7.511003v27.540342h7.511002v-27.540342h7.511003v27.540342h7.511002v-27.540342h7.511003v35.051345h-35.051345v-13.770171h-21.281174v7.511002h13.770171v6.259169h-1.251833z m-90.13203-27.540342h90.13203v-7.511003h-90.13203v7.511003z m13.770171 27.540342h6.259169v-7.511003h-6.259169v7.511003z m-13.770171 0v-21.281174h35.051345v13.770171h21.281174v-7.511002h-13.770172v-7.511002h21.281174v21.281173h-35.051345v-13.770171H1402.05379v13.770171h-7.511003zM76.361858 345.506112h62.591687v-13.770171h-62.591687v13.770171z m-70.102689 0h62.591687v-13.770171h-62.591687v13.770171zM214.06357 345.506112h62.591687v-13.770171h-62.591687v13.770171z m-68.850856 0h62.591687v-13.770171h-62.591687v13.770171zM353.017115 345.506112h62.591687v-13.770171h-62.591687v13.770171z m-68.850856 0h62.591687v-13.770171h-62.591687v13.770171zM491.97066 345.506112h62.591687v-13.770171h-62.591687v13.770171z m-68.850856 0h62.591687v-13.770171h-62.591687v13.770171zM630.924205 345.506112h62.591687v-13.770171h-62.591687v13.770171z m-68.850855 0h62.591687v-13.770171h-62.591687v13.770171zM769.877751 345.506112h62.591687v-13.770171h-62.591687v13.770171z m-68.850856 0h62.591687v-13.770171h-62.591687v13.770171zM908.831296 345.506112h62.591687v-13.770171h-62.591687v13.770171z m-70.10269 0h62.591687v-13.770171h-62.591687v13.770171zM1047.784841 345.506112h62.591687v-13.770171h-62.591687v13.770171z m-70.102689 0h62.591687v-13.770171h-62.591687v13.770171zM1186.738386 345.506112h62.591687v-13.770171h-62.591687v13.770171z m-70.102689 0h62.591687v-13.770171h-62.591687v13.770171zM1324.440098 345.506112h62.591687v-13.770171h-62.591687v13.770171z m-68.850856 0h62.591687v-13.770171h-62.591687v13.770171zM1463.393643 345.506112h62.591687v-13.770171h-62.591687v13.770171z m-68.850856 0h62.591687v-13.770171h-62.591687v13.770171zM96.391198 738.581907H76.361858v-21.281174h27.540342v-13.770171h7.511003v27.540343h7.511002v-27.540343h7.511003v27.540343h7.511002v-27.540343h7.511003V738.581907h-37.555013v-13.770171H82.621027v7.511002h13.770171v6.259169zM6.259169 711.041565h90.132029v-7.511003H6.259169v7.511003zM20.02934 738.581907h7.511002v-7.511002h-7.511002v7.511002zM6.259169 738.581907v-21.281174h35.051344v13.770172H62.591687v-7.511003H47.569682v-7.511002h21.281174V738.581907H33.799511v-13.770171H13.770171V738.581907H6.259169zM235.344743 738.581907h-21.281173v-21.281174h27.540342v-13.770171h7.511002v27.540343h7.511003v-27.540343h6.259169v27.540343h7.511002v-27.540343h7.511002V738.581907h-35.051344v-13.770171h-21.281174v7.511002h13.770171v6.259169z m-90.132029-27.540342h90.132029v-7.511003h-90.132029v7.511003z m13.770171 27.540342h7.511003v-7.511002h-7.511003v7.511002z m-13.770171 0v-21.281174h35.051345v13.770172H200.293399v-7.511003h-13.770172v-7.511002h21.281174V738.581907h-35.051345v-13.770171h-21.281173V738.581907h-6.259169zM374.298289 738.581907h-21.281174v-21.281174h27.540342v-13.770171h7.511003v27.540343h7.511002v-27.540343h7.511003v27.540343h7.511002v-27.540343h7.511002V738.581907h-35.051344v-13.770171h-21.281174v7.511002H375.550122v6.259169h-1.251833z m-90.13203-27.540342h90.13203v-7.511003h-90.13203v7.511003z m13.770171 27.540342h7.511003v-7.511002h-7.511003v7.511002z m-13.770171 0v-21.281174h35.051345v13.770172h21.281174v-7.511003H325.476773v-7.511002h21.281173V738.581907h-35.051345v-13.770171h-21.281173V738.581907h-6.259169zM513.251834 738.581907h-21.281174v-21.281174h27.540342v-13.770171h7.511003v27.540343h7.511002v-27.540343h7.511003v27.540343h7.511002v-27.540343h7.511003V738.581907h-35.051345v-13.770171H500.733496v7.511002h12.518338v6.259169z m-90.13203-27.540342H513.251834v-7.511003h-90.13203v7.511003z m13.770172 27.540342h7.511002v-7.511002h-7.511002v7.511002z m-13.770172 0v-21.281174h35.051345v13.770172h21.281174v-7.511003h-13.770171v-7.511002h21.281173V738.581907H450.660147v-13.770171h-21.281174V738.581907h-6.259169zM652.205379 738.581907h-21.281174v-21.281174h27.540343v-13.770171h7.511002v27.540343h7.511003v-27.540343h7.511002v27.540343h7.511002v-27.540343h7.511003V738.581907h-35.051345v-13.770171H638.435208v7.511002h13.770171v6.259169z m-90.132029-27.540342h90.132029v-7.511003h-90.132029v7.511003zM575.843521 738.581907h7.511002v-7.511002H575.843521v7.511002z m-13.770171 0v-21.281174h35.051344v13.770172h21.281174v-7.511003h-13.770171v-7.511002H625.91687V738.581907h-35.051344v-13.770171h-21.281174V738.581907h-7.511002zM791.158924 738.581907h-21.281173v-21.281174h27.540342v-13.770171h7.511002v27.540343h7.511003v-27.540343h7.511002v27.540343h7.511003v-27.540343h7.511002V738.581907h-35.051345v-13.770171H776.136919v7.511002h13.770171v6.259169h1.251834zM701.026895 711.041565h90.132029v-7.511003H701.026895v7.511003z m13.770171 27.540342h7.511002v-7.511002h-7.511002v7.511002zM701.026895 738.581907v-21.281174h35.051345v13.770172h21.281173v-7.511003h-13.770171v-7.511002h21.281174V738.581907h-35.051345v-13.770171h-21.281174V738.581907H701.026895zM928.860636 738.581907h-21.281174v-21.281174h27.540342v-13.770171h7.511003v27.540343h7.511002v-27.540343h7.511003v27.540343h6.259168v-27.540343h7.511003V738.581907h-35.051345v-13.770171h-21.281173v7.511002h13.770171v6.259169zM838.728606 711.041565h90.13203v-7.511003H838.728606v7.511003z m13.770172 27.540342h6.259168v-7.511002h-6.259168v7.511002zM838.728606 738.581907v-21.281174h35.051345v13.770172h21.281174v-7.511003h-13.770171v-7.511002H901.320293V738.581907h-35.051344v-13.770171h-21.281174V738.581907H838.728606zM1067.814181 738.581907h-21.281174v-21.281174h27.540343v-13.770171h7.511002v27.540343h7.511003v-27.540343h7.511002v27.540343h7.511002v-27.540343h7.511003V738.581907H1076.577017v-13.770171h-21.281173v7.511002h13.770171v6.259169h-1.251834z m-90.132029-27.540342h90.132029v-7.511003h-90.132029v7.511003z m13.770171 27.540342h7.511002v-7.511002h-7.511002v7.511002z m-13.770171 0v-21.281174h35.051344v13.770172h21.281174v-7.511003h-13.770171v-7.511002h21.281173V738.581907h-35.051344v-13.770171h-21.281174V738.581907h-7.511002zM1206.767726 738.581907h-21.281173v-21.281174H1214.278729v-13.770171h7.511002v27.540343h7.511002v-27.540343h7.511003v27.540343h7.511002v-27.540343h7.511003V738.581907h-37.555012v-13.770171h-21.281174v7.511002h13.770171v6.259169z m-90.132029-27.540342h90.132029v-7.511003h-90.132029v7.511003z m13.770171 27.540342h7.511002v-7.511002h-7.511002v7.511002z m-13.770171 0v-21.281174H1151.687042v13.770172h21.281173v-7.511003h-13.770171v-7.511002h21.281174V738.581907h-35.051345v-13.770171h-21.281174V738.581907h-7.511002zM1345.721271 738.581907h-21.281173v-21.281174h27.540342v-13.770171h7.511003v27.540343h7.511002v-27.540343h7.511002v27.540343h7.511003v-27.540343h7.511002V738.581907h-35.051344v-13.770171h-21.281174v7.511002h13.770171v6.259169h-1.251834z m-90.132029-27.540342h90.132029v-7.511003h-90.132029v7.511003z m13.770171 27.540342h7.511003v-7.511002h-7.511003v7.511002z m-13.770171 0v-21.281174h35.051345v13.770172h21.281173v-7.511003h-13.770171v-7.511002h21.281174V738.581907h-35.051345v-13.770171h-21.281174V738.581907h-7.511002zM1484.674817 738.581907h-21.281174v-21.281174h27.540342v-13.770171h7.511003v27.540343h7.511002v-27.540343h7.511003v27.540343h7.511002v-27.540343h7.511003V738.581907h-35.051345v-13.770171h-21.281174v7.511002h13.770171v6.259169h-1.251833z m-90.13203-27.540342h90.13203v-7.511003h-90.13203v7.511003z m13.770171 27.540342h7.511003v-7.511002h-7.511003v7.511002z m-13.770171 0v-21.281174h35.051345v13.770172h21.281174v-7.511003h-13.770172v-7.511002h21.281174V738.581907h-35.051345v-13.770171H1402.05379V738.581907h-7.511003zM76.361858 697.271394h62.591687v-13.770172h-62.591687v13.770172z m-70.102689 0h62.591687v-13.770172h-62.591687v13.770172zM214.06357 697.271394h62.591687v-13.770172h-62.591687v13.770172z m-68.850856 0h62.591687v-13.770172h-62.591687v13.770172zM353.017115 697.271394h62.591687v-13.770172h-62.591687v13.770172z m-68.850856 0h62.591687v-13.770172h-62.591687v13.770172zM491.97066 697.271394h62.591687v-13.770172h-62.591687v13.770172z m-68.850856 0h62.591687v-13.770172h-62.591687v13.770172zM630.924205 697.271394h62.591687v-13.770172h-62.591687v13.770172z m-68.850855 0h62.591687v-13.770172h-62.591687v13.770172zM769.877751 697.271394h62.591687v-13.770172h-62.591687v13.770172z m-68.850856 0h62.591687v-13.770172h-62.591687v13.770172zM908.831296 697.271394h62.591687v-13.770172h-62.591687v13.770172z m-70.10269 0h62.591687v-13.770172h-62.591687v13.770172zM1047.784841 697.271394h62.591687v-13.770172h-62.591687v13.770172z m-70.102689 0h62.591687v-13.770172h-62.591687v13.770172zM1185.486553 697.271394h62.591687v-13.770172h-62.591687v13.770172z m-68.850856 0h62.591687v-13.770172h-62.591687v13.770172zM1324.440098 697.271394h62.591687v-13.770172h-62.591687v13.770172z m-68.850856 0h62.591687v-13.770172h-62.591687v13.770172zM1463.393643 697.271394h62.591687v-13.770172h-62.591687v13.770172z m-68.850856 0h62.591687v-13.770172h-62.591687v13.770172z" fill="#FFFFFF" p-id="2891"></path><path d="M802.425428 366.787286v2.503668c1.251834 7.511002-2.503667 15.022005-8.762836 20.029339l-16.273839 3.755502-12.518337-6.259169-12.518338 6.259169-13.770171-3.755502c-7.511002-5.007335-11.266504-15.022005-8.762836-23.784841l3.755501 5.007335 16.273839 7.511003 17.525672-5.007335 7.511003 3.755501 18.777506-1.251834 8.762836-8.762836z" fill="#D22E1D" p-id="2892"></path><path d="M747.344743 406.845966l18.777506-15.022005 18.777507 15.022005c0 20.02934 0 40.05868-1.251834 58.836186v25.036674c0 22.533007-1.251834 45.066015-1.251834 67.599022v47.569683l5.007335-3.755502c10.01467-8.762836 20.02934-18.777506 27.540342-30.044009 12.518337-18.777506 21.281174-40.05868 23.784841-61.339854 3.755501-26.288509 1.251834-55.080685-10.01467-80.117359-5.007335-11.266504-10.01467-21.281174-17.525672-30.04401 13.770171 11.266504 26.288509 25.036675 33.799511 40.05868 11.266504 21.281174 17.525672 45.066015 17.525672 68.850856 0 33.799511-13.770171 68.850856-37.555012 93.88753-10.01467 10.01467-21.281174 18.777506-33.799511 26.288509 21.281174 7.511002 43.814181 10.01467 66.347188 7.511002-8.762836 3.755501-17.525672 6.259169-26.288508 7.511003-16.273839 2.503667-33.799511 2.503667-50.07335 0v2.503667L766.122249 663.471883 751.100244 645.94621v-2.503667l-5.007334 1.251834c-23.784841 3.755501-48.821516 1.251834-71.354524-8.762837 10.01467 1.251834 20.02934 1.251834 30.04401 0 12.518337-1.251834 23.784841-3.755501 35.051345-7.511002l-8.762836-5.007335c-18.777506-12.518337-35.051345-30.04401-46.317849-50.07335-11.266504-21.281174-17.525672-46.317848-16.273838-71.354523 1.251834-22.533007 6.259169-43.814181 17.525672-62.591687 8.762836-15.022005 20.02934-28.792176 33.799511-40.05868l-3.755501 5.007335c-13.770171 20.02934-22.533007 43.814181-25.036675 68.850856-2.503667 27.540342 2.503667 56.332518 15.022005 81.369193 10.01467 20.02934 25.036675 38.806846 43.814181 52.577017v-17.525672-23.784841c0-22.533007 0-45.066015-1.251834-68.850856v-25.036675c0-22.533007 0-43.814181-1.251834-65.095354z" fill="#D22E1D" p-id="2893"></path><path d="M650.953545 425.623472c15.022005-15.022005 32.547677-25.036675 52.577017-30.04401l-5.007335 3.755501c-16.273839 12.518337-30.04401 30.04401-40.058679 47.569682-10.01467 18.777506-16.273839 40.05868-16.273839 62.591688-1.251834 27.540342 5.007335 55.080685 18.777506 80.117359 5.007335 8.762836 10.01467 16.273839 16.273839 23.784841l-8.762836-5.007335c-20.02934-12.518337-35.051345-31.295844-43.814181-53.828851-5.007335-13.770171-8.762836-27.540342-8.762837-41.310513v-6.259169c0-10.01467 1.251834-20.02934 5.007335-28.792176 5.007335-20.02934 15.022005-38.806846 30.04401-52.577017zM828.713936 395.579462l6.259169 1.251834c12.518337 3.755501 23.784841 10.01467 33.799511 17.525672 15.022005 11.266504 27.540342 26.288509 36.303179 43.814181 7.511002 15.022005 11.266504 31.295844 11.266503 47.569682v5.007335l-1.251833 15.022005c-2.503667 13.770171-6.259169 26.288509-12.518338 38.806846-11.266504 20.02934-27.540342 36.303178-47.569682 47.569682 12.518337-13.770171 22.533007-31.295844 27.540342-48.821516 6.259169-17.525672 8.762836-36.303178 7.511003-55.080684-1.251834-21.281174-7.511002-43.814181-17.525673-62.591687-10.01467-20.02934-25.036675-37.555012-43.814181-50.07335z" fill="#D22E1D" p-id="2894"></path></svg>