<?xml version="1.0" standalone="no"?><!DOCTYPE svg PUBLIC "-//W3C//DTD SVG 1.1//EN" "http://www.w3.org/Graphics/SVG/1.1/DTD/svg11.dtd"><svg t="1530440475660" class="icon" style="" viewBox="0 0 1542 1024" version="1.1" xmlns="http://www.w3.org/2000/svg" p-id="4851" xmlns:xlink="http://www.w3.org/1999/xlink" width="301.171875" height="200"><defs><style type="text/css"></style></defs><path d="M7.547912 1017.710074h1520.904176V6.289926H7.547912v1011.420148z m1524.678132 3.773955v-3.773955 3.773955zM1.257985 1024V0H1534.742015v1024H1.257985z" fill="#353636" p-id="4852"></path><path d="M5.031941 681.82801h1527.194103v339.656019H5.031941z" fill="#0F3D95" p-id="4853"></path><path d="M5.031941 342.17199h1527.194103v339.65602H5.031941z" fill="#FFFFFF" p-id="4854"></path><path d="M5.031941 2.515971h1527.194103v339.656019H5.031941z" fill="#D1382C" p-id="4855"></path><path d="M592.511057 352.235872V574.899263c2.515971 17.611794 6.289926 33.965602 13.837837 49.061425 6.289926 13.837838 15.095823 26.41769 26.417691 37.739558 17.611794 18.869779 40.255528 35.223587 64.157248 46.545454 18.869779 8.805897 45.287469 13.837838 70.447174 15.095823 25.159705-1.257985 51.577396-7.547912 70.447175-15.095823 23.90172-11.321867 46.545455-26.41769 64.157248-46.545454 11.321867-11.321867 18.869779-25.159705 26.41769-37.739558 7.547912-15.095823 12.579853-31.449631 13.837838-49.061425V347.203931H592.511057v5.031941z m176.117936 377.395578c-26.41769-1.257985-52.835381-7.547912-72.963145-16.353809-25.159705-11.321867-47.80344-27.675676-65.415234-47.80344-11.321867-12.579853-20.127764-25.159705-26.41769-38.997543-7.547912-16.353808-12.579853-32.707617-15.095823-50.31941V342.17199H946.004914v2.515971H943.488943h2.515971v-2.515971h2.515971V576.157248c-2.515971 17.611794-7.547912 35.223587-15.095824 50.31941-6.289926 13.837838-16.353808 27.675676-26.41769 38.997543-17.611794 20.127764-40.255528 36.481572-65.415233 47.80344-20.127764 8.805897-46.545455 13.837838-72.963145 16.353809z" fill="#D1382B" p-id="4856"></path><path d="M768.628993 722.083538c-25.159705-1.257985-50.31941-6.289926-70.447175-15.095823-23.90172-11.321867-46.545455-26.41769-64.157248-46.545455-10.063882-11.321867-18.869779-23.90172-26.41769-37.739557-7.547912-15.095823-12.579853-31.449631-13.837838-49.061425v-226.437347h347.203931v226.437347c-2.515971 17.611794-6.289926 33.965602-13.837838 49.061425-6.289926 13.837838-15.095823 26.41769-26.41769 37.739557-17.611794 18.869779-38.997543 35.223587-64.157248 46.545455-17.611794 8.805897-42.771499 13.837838-67.931204 15.095823z" fill="#D1382B" p-id="4857"></path><path d="M802.594595 356.009828h67.931204v71.70516h-67.931204zM734.663391 427.714988h67.931204v71.705159h-67.931204zM869.267813 427.714988h66.673219v71.705159h-66.673219zM601.316953 427.714988h66.673219v71.705159h-66.673219zM734.663391 572.383292h67.931204v71.70516h-67.931204zM869.267813 644.088452h37.739558c5.031941-7.547912 10.063882-15.095823 15.095823-23.90172 7.547912-13.837838 11.321867-30.191646 13.837838-46.545454v-2.515971h-66.673219v72.963145zM667.990172 572.383292h-66.673219v2.515971c2.515971 16.353808 6.289926 31.449631 13.837838 46.545454 3.773956 8.805897 8.805897 16.353808 15.095823 23.90172h37.739558v-72.963145zM667.990172 356.009828h67.931204v71.70516h-67.931204z" fill="#FFFFFF" p-id="4858"></path><path d="M802.594595 499.420147h67.931204v71.70516h-67.931204zM667.990172 499.420147h67.931204v71.70516h-67.931204zM802.594595 644.088452v67.931204c12.579853-2.515971 23.90172-6.289926 33.965602-10.063882 12.579853-5.031941 23.90172-11.321867 33.965602-20.127764v-37.739558h-67.931204zM667.990172 644.088452v37.739558c10.063882 7.547912 21.385749 13.837838 33.965602 20.127764 10.063882 3.773956 21.385749 7.547912 33.965602 10.063882v-67.931204h-67.931204z" fill="#FFFFFF" p-id="4859"></path><path d="M946.004914 344.687961H589.995086v230.211302c2.515971 17.611794 7.547912 33.965602 15.095823 50.31941 6.289926 13.837838 16.353808 26.41769 26.417691 38.997543 17.611794 20.127764 40.255528 36.481572 65.415233 46.545455 20.127764 8.805897 45.287469 13.837838 70.447174 16.353808 25.159705-1.257985 51.577396-7.547912 71.70516-16.353808 25.159705-11.321867 47.80344-27.675676 65.415233-46.545455 11.321867-12.579853 20.127764-25.159705 26.417691-38.997543 7.547912-15.095823 12.579853-32.707617 15.095823-50.31941V344.687961z m-7.547912 7.547911V573.641278c-2.515971 16.353808-6.289926 32.707617-13.837837 47.803439-6.289926 13.837838-15.095823 26.41769-25.159706 36.481573-17.611794 18.869779-38.997543 33.965602-62.899262 45.287469-20.127764 8.805897-46.545455 13.837838-67.931204 15.095823-22.643735-1.257985-47.80344-6.289926-67.931204-15.095823-23.90172-10.063882-45.287469-26.41769-62.899263-45.287469-10.063882-11.321867-18.869779-23.90172-25.159705-36.481573-7.547912-15.095823-12.579853-31.449631-13.837838-47.803439V352.235872h339.656019z" fill="#FFFFFF" p-id="4860"></path><path d="M961.100737 187.439803l-10.063882 3.773956c-7.547912 3.773956-20.127764 7.547912-30.191646 12.579853l-12.579853 5.031941-3.773956 1.257985c-2.515971-2.515971-12.579853-13.837838-21.385749-22.643735l-12.579852-13.837837-3.773956-3.773956-1.257986-1.257985-1.257985-1.257986-50.31941 30.191647-47.80344-36.481573-44.029484 35.223587-51.577395-30.191646-37.739558 45.287469-56.609337-23.90172-31.449631 56.609337 45.287469 91.832924h1.257985c55.351351-20.127764 115.734644-30.191646 174.859951-30.191646h1.257985c59.125307 0 119.5086 8.805897 178.633907 30.191646h1.257985l45.28747-91.832924-31.449632-56.609337z" fill="#D1382C" p-id="4861"></path><path d="M589.995086 333.366093c55.351351-20.127764 115.734644-30.191646 176.117936-30.191646 59.125307 0 120.766585 8.805897 181.149877 30.191646l45.28747-90.574938-31.449632-55.351352-56.609337 22.643735-40.255528-42.771499-50.31941 30.191647-47.80344-36.481573-44.029484 35.223587-51.577395-30.191646-37.739558 45.287469-56.609337-21.385749-30.191646 54.093366 44.029484 89.316953z" fill="#FFFFFF" p-id="4862"></path><path d="M862.977887 177.375921l37.739558 41.513514-1.257986 5.031941c-7.547912 28.933661-16.353808 56.609337-23.901719 85.542997-8.805897-1.257985-17.611794-3.773956-25.159706-5.031941-15.095823-2.515971-30.191646-3.773956-45.287469-5.031941 2.515971-31.449631 5.031941-62.899263 8.805897-93.090909 16.353808-10.063882 32.707617-20.127764 49.061425-28.933661z" fill="#3B5AA1" p-id="4863"></path><path d="M841.592138 221.405405h6.289926l2.51597 1.257986h2.515971l3.773956 1.257985 3.773955 1.257985 5.031941-1.257985 1.257986-1.257985h2.51597v1.257985l-3.773956 3.773956-3.773955 1.257985H854.17199l3.773956 1.257985 5.031941 2.515971h10.063882l2.515971-1.257986h1.257985v1.257986l-7.547912 3.773956h-7.547911l-8.805897-1.257986-3.773956-1.257985-6.289926-1.257985h-3.773956l-10.063882-6.289927 3.773956-3.773955z" fill="#D1382B" p-id="4864"></path><path d="M841.592138 221.405405h1.257985v5.031941-2.51597zM849.140049 226.437346v-5.031941l1.257985 1.257986v2.51597zM831.528256 225.179361l1.257985-1.257985 2.51597 1.257985v2.515971l-1.257985-2.515971zM855.429975 225.179361h1.257986v3.773956zM862.977887 225.179361v2.515971z" fill="#A2584D" p-id="4865"></path><path d="M817.690418 227.695332l1.257985-1.257986 6.289926 2.515971 1.257985-1.257985 2.515971-1.257986 10.063882 6.289927v1.257985l7.547912-1.257985-2.515971 3.773956-6.289926 3.773955 5.031941 5.031941 1.257985 1.257986 1.257985 1.257985h11.321868l3.773955-1.257985H876.815725l2.51597-2.515971 1.257986-1.257985 1.257985 1.257985 1.257985 2.515971v3.773955l-2.51597 2.515971 1.257985 1.257985v2.515971l-1.257985 1.257985-1.257986 2.51597-1.257985 2.515971V278.014742l-5.031941 3.773956v5.031941l-3.773956 2.51597-5.031941-2.51597 1.257985-1.257985 2.515971-3.773956v-7.547912l-3.773956-2.51597-3.773956 5.031941-1.257985 1.257985-1.257985 2.515971-2.515971 1.257985v2.51597l-5.031941-1.257985 1.257986-2.51597V278.014742l3.773955-5.031941h-3.773955l-1.257986-1.257985-2.51597 1.257985-1.257985-1.257985-2.515971 1.257985H842.850123l-2.515971 5.031941-2.51597 2.515971V288.078624h-1.257985l-1.257986 1.257985h-1.257985l-5.031941-1.257985 2.515971-3.773956 1.257985-2.51597v-5.031941l1.257985-5.031941-2.51597-1.257986-2.515971 1.257986-3.773956 6.289926-1.257985 1.257985v2.515971l-1.257985 1.257985-5.031941-1.257985V278.014742l2.51597-2.515971 2.515971-3.773955 1.257985-3.773956v-6.289926h-1.257985l-1.257986-1.257986 1.257986-1.257985-1.257986-1.257985 1.257986-2.515971 5.031941-5.031941h-2.515971v-1.257985l-1.257985-1.257985v-2.515971H817.690418v-3.773955l2.51597-3.773956 1.257985-3.773956-3.773955-3.773956z" fill="#6F6A36" p-id="4866"></path><path d="M817.690418 227.695332l1.257985-1.257986 6.289926 3.773956 2.515971-2.51597h1.257985l10.063882 6.289926h7.547912l-2.515971 2.515971-6.289926 3.773955 5.031941 6.289927 2.51597 1.257985h3.773956l2.515971 1.257985 3.773955-1.257985h2.515971l2.51597-1.257985h16.353809l3.773956-2.515971 1.257985 1.257985v5.031941l-1.257985 2.515971 1.257985 1.257985-1.257985 2.515971-2.515971 5.031941v6.289926l-1.257985 1.257985v2.515971l1.257985 1.257985v3.773956l-5.031941 5.031941-1.257985 1.257985v3.773956l-2.515971 1.257985-5.031941-1.257985 1.257985-1.257985 2.515971-3.773956v-7.547912l-3.773956-2.51597-3.773956 5.031941-1.257985 1.257985-1.257985 2.515971-2.515971 1.257985-1.257985 1.257985h-3.773956l1.257986-2.51597v-1.257986l5.031941-7.547911-3.773956 1.257985-1.257985-1.257985h-1.257986l-2.51597 1.257985-1.257985-1.257985-2.515971 1.257985H842.850123l-2.515971 5.031941-2.51597 3.773956v6.289926h-2.515971v1.257985l-5.031941-1.257985 1.257986-3.773956 1.257985-1.257985v-6.289926l1.257985-5.031941-2.51597-1.257986-3.773956 1.257986-3.773956 6.289926v2.515971l-1.257985 2.51597-5.031941-1.257985 1.257985-3.773956 1.257985-2.515971 2.515971-2.51597 1.257985-1.257985v-10.063882h-1.257985v-1.257986l1.257985-2.51597h-2.515971l1.257986-2.515971 5.031941-5.031941h-2.515971l1.257985-2.51597h-2.51597l1.257985-2.515971h-6.289926l-1.257985-1.257985v-1.257985l2.51597-3.773956 1.257985-5.031941-2.51597-3.773956z" fill="#FBEA00" p-id="4867"></path><path d="M846.624079 226.437346l1.257985 2.515971-1.257985 3.773956 1.257985-2.515971zM837.818182 227.695332l2.51597 1.257985v2.51597l-1.257985 1.257986-1.257985-3.773956zM855.429975 228.953317v1.257985l1.257986 2.515971-1.257986 1.257985h-1.257985zM861.719902 232.727273h1.257985l1.257985 2.51597-1.257985 1.257986h-1.257985l1.257985-2.515971zM868.009828 232.727273h1.257985l1.257986 2.51597-1.257986 1.257986z" fill="#A2584D" p-id="4868"></path><path d="M837.818182 235.243243h6.289926l-2.51597 1.257986-1.257986 1.257985h-2.51597l-2.515971-1.257985zM826.496314 236.501229l3.773956-1.257986 2.515971 1.257986-2.515971 1.257985h-2.51597zM880.589681 244.04914v5.031941h-2.515971v-1.257985zM862.977887 252.855037h1.257985l1.257985 5.031941v1.257985h-1.257985v-3.773956zM829.012285 252.855037h1.257985v5.031941l1.257986 1.257985H830.27027l-1.257985-3.773956zM834.044226 265.434889h1.257985l1.257986 5.031941v1.257986h-1.257986v-3.773956zM866.751843 264.176904h1.257985l1.257985 6.289926H868.009828v-3.773955zM840.334152 254.113022h1.257986l1.257985 3.773956v1.257985h-1.257985l-1.257986-3.773956zM855.429975 251.597052h1.257986l1.257985 3.773955 1.257985 1.257986h-2.51597v-5.031941zM847.882064 251.597052h1.257985l1.257985 5.031941 1.257986 1.257985h-2.515971V252.855037zM869.267813 255.371007l1.257986 1.257986 1.257985 3.773955 3.773956 3.773956h-2.515971l-1.257985 1.257985-1.257985-5.031941zM855.429975 257.886978v6.289926l-1.257985 2.515971V265.434889l1.257985-2.51597zM847.882064 259.144963l-1.257985 7.547912-1.257986 2.51597v-1.257985l1.257986-2.515971z" fill="#6F6A36" p-id="4869"></path><path d="M817.690418 281.788698l5.031941 1.257985v2.515971l-1.257986 1.257985-1.257985 1.257985h-5.031941v-2.51597zM846.624079 285.562654l2.51597-2.515971 6.289926 1.257985-1.257985 2.515971v1.257985h-6.289926zM860.461916 289.336609l3.773956-1.257985 5.031941 1.257985v1.257986l-3.773956 2.51597-5.031941-1.257985zM826.496314 290.594595l2.515971-1.257986h5.031941v3.773956H826.496314z" fill="#D1382B" p-id="4870"></path><path d="M671.764128 176.117936l6.289926 3.773956c13.837838 7.547912 28.933661 16.353808 42.771499 23.90172h1.257985c-11.321867 0-23.90172 0-35.223587 1.257985l-17.611794 2.515971c-11.321867 2.515971-26.41769 7.547912-33.965602 11.321867 0 1.257985 23.90172-27.675676 36.481573-42.771499z" fill="#3B5AA1" p-id="4871"></path><path d="M685.601966 206.309582c11.321867-1.257985 23.90172-1.257985 35.223587-1.257985 0 7.547912 1.257985 15.095823 2.51597 23.90172h-12.579852l-17.611794 1.257985-20.127764 2.515971c-6.289926 1.257985-13.837838 2.515971-20.127764 5.031941l-12.579853 5.031941-3.773955-15.095823-1.257986-5.031941c10.063882-5.031941 21.385749-8.805897 33.965602-11.321868l16.353809-5.031941z" fill="#D1382B" p-id="4872"></path><path d="M712.019656 228.953317h12.579853v3.773956l1.257985 18.869779c-15.095823-1.257985-30.191646-1.257985-44.029484 1.257985-12.579853 1.257985-23.90172 5.031941-35.223587 8.805897l5.031941 17.611793V278.014742c-3.773956-12.579853-6.289926-23.90172-10.063882-36.481572l12.579852-5.031941c6.289926-2.515971 13.837838-3.773956 20.127764-5.031942l20.127764-2.51597h17.611794z" fill="#3B5AA1" p-id="4873"></path><path d="M681.82801 252.855037c15.095823-2.515971 30.191646-2.515971 44.029484-1.257985 1.257985 7.547912 1.257985 16.353808 2.51597 23.901719-11.321867 1.257985-22.643735 1.257985-33.965602 2.515971-13.837838 1.257985-27.675676 3.773956-41.513513 7.547912l-1.257985-6.289927-5.031941-17.611793c11.321867-3.773956 22.643735-7.547912 35.223587-8.805897z" fill="#D1382B" p-id="4874"></path><path d="M694.407862 278.014742c11.321867-1.257985 22.643735-2.515971 33.965602-2.515971 1.257985 7.547912 1.257985 16.353808 2.515971 23.90172-15.095823 1.257985-30.191646 2.515971-45.287469 5.031941-8.805897 1.257985-17.611794 2.515971-26.417691 5.031941l-7.547911-30.191646 1.257985 6.289927c13.837838-3.773956 27.675676-6.289926 41.513513-7.547912z" fill="#3B5AA1" p-id="4875"></path><path d="M577.415233 196.2457c18.869779 7.547912 37.739558 16.353808 56.609337 23.90172 7.547912 28.933661 16.353808 59.125307 23.90172 88.058968-7.547912 1.257985-13.837838 2.515971-21.385749 5.031941-7.547912 1.257985-13.837838 3.773956-21.38575 6.289927-7.547912 2.515971-16.353808 6.289926-23.90172 8.805896-13.837838-28.933661-26.41769-56.609337-40.255528-85.542997 8.805897-15.095823 17.611794-31.449631 26.41769-46.545455z" fill="#0183C7" p-id="4876"></path><path d="M634.02457 262.918919l1.257985-2.515971V278.014742l-7.547911 11.321867-6.289927 3.773956-3.773955 2.515971-17.611794 1.257985-13.837838-6.289926-6.289926-8.805897 18.869779 1.257985 13.837838-2.51597 12.579852-7.547912z" fill="#FFFFFF" p-id="4877"></path><path d="M605.090909 222.663391l-1.257985 10.063882 8.805897 7.547911-10.063882 5.031941-2.515971 10.063882-7.547911-6.289926-10.063883 5.031941 1.257986-11.321867-10.063882-7.547912 11.321867-5.031941 1.257985-10.063882 8.805897 6.289926z" fill="#F9CB00" p-id="4878"></path><path d="M605.090909 222.663391l-1.257985 10.063882-10.063882 5.031941zM586.22113 220.14742l7.547912 6.289926v11.321868zM582.447174 252.855037l10.063883-3.773956 1.257985-11.321867zM574.899263 236.501229l8.805897 5.031941 10.063882-3.773956zM612.638821 240.275184l-10.063882 3.773956-2.515971 10.063882-6.289926-16.353808z" fill="#FBEC00" p-id="4879"></path><path d="M766.113022 171.085995l45.287469 33.965602c-2.515971 31.449631-5.031941 61.641278-7.547911 93.090909h-1.257985c-8.805897 0-18.869779-1.257985-27.675676-1.257985-15.095823 0-28.933661 0-44.029484 1.257985-2.515971-31.449631-6.289926-61.641278-8.805897-93.090909 15.095823-11.321867 30.191646-22.643735 44.029484-33.965602z" fill="#0183C7" p-id="4880"></path><path d="M745.985258 211.341523l3.773956 1.257986v2.51597h1.257985v-2.51597h2.515971l1.257985-1.257986h2.51597l1.257986 1.257986-2.515971 3.773955v2.515971l1.257985 1.257985 1.257986 3.773956 3.773955 3.773956v2.51597l1.257986 1.257985v2.515971h-1.257986v3.773956h-2.51597v3.773956H754.791155v2.51597l-1.257985 1.257985-7.547912 1.257986-2.515971-1.257986h-3.773955v-1.257985l-1.257986-1.257985-1.257985-1.257985h-3.773956v-2.515971h-2.51597v-2.51597l-1.257985-1.257986 1.257985-2.51597-1.257985-1.257986 1.257985-5.031941h3.773956v-5.031941h2.51597v-2.51597l-3.773956-3.773956v-2.51597h2.515971l2.51597 1.257985 1.257986 1.257985 1.257985 1.257985h1.257985v-2.51597z" fill="#6F6A36" p-id="4881"></path><path d="M744.727273 211.341523h1.257985v2.515971h2.515971v1.257985h-1.257986l-1.257985-1.257985h-1.257985v1.257985H742.211302v-1.257985h2.515971z" fill="#FBE800" p-id="4882"></path><path d="M752.275184 215.115479l5.031941-3.773956v1.257986l-2.51597 2.51597v5.031941h-13.837838l-2.515971 1.257985h-1.257985v-2.51597l-2.51597-3.773956v-1.257985l2.51597 2.51597h2.515971v1.257986l3.773955-1.257986h8.805897z" fill="#FBE800" p-id="4883"></path><path d="M740.953317 221.405405l8.805897-1.257985h2.51597l1.257986 2.515971 1.257985 2.51597H747.243243v-2.51597l2.515971-1.257986h-5.031941l-1.257986 1.257986h2.515971v2.51597h-6.289926l-1.257986-1.257985v-1.257985zM752.275184 227.695332l2.515971-2.515971 1.257985 1.257985-1.257985 5.031941h-1.257985l-1.257986 3.773956-1.257985 1.257986h-3.773956v-1.257986l2.515971-1.257985v-1.257985h-6.289927l1.257986 1.257985 1.257985 1.257985v1.257986l-1.257985 1.257985h-1.257986v-2.515971l-2.51597-1.257985v-1.257985l-1.257985-1.257986-1.257986-1.257985V226.437346l1.257986 1.257986 2.51597 2.51597 1.257985 1.257985 1.257986-1.257985 1.257985-2.51597h1.257985l2.515971 2.51597h1.257985zM758.565111 230.211302l2.51597-1.257985 1.257985 2.51597 1.257986 1.257986h-1.257986l-1.257985-1.257986h-1.257985l1.257985 2.515971 1.257985 3.773956h-2.51597v-2.515971h-1.257985l1.257985 2.515971-1.257985 2.51597h-1.257986l-1.257985-2.51597v-5.031941zM732.14742 231.469287h2.515971v3.773956l-2.515971 2.515971-1.257985-1.257985 1.257985-2.515971z" fill="#FBE800" p-id="4884"></path><path d="M733.405405 239.017199l1.257986-3.773956h1.257985v6.289927h-1.257985zM744.727273 239.017199l2.51597-1.257985h3.773956l-1.257985 2.51597-1.257985 1.257986h-2.515971l-1.257985-1.257986zM752.275184 240.275184l2.515971-1.257985 1.257985 2.515971H754.791155v1.257985l-1.257985 2.51597-1.257986-1.257985v-1.257985zM738.437346 240.275184h2.515971v3.773956l-2.515971-2.51597zM748.501229 244.04914l1.257985-1.257985 1.257985 2.51597h-3.773956zM744.727273 244.04914h1.257985l1.257985 1.257985h-2.51597zM743.469287 227.695332l-1.257985 1.257985-1.257985-1.257985 1.257985-1.257986zM751.017199 227.695332l-1.257985 1.257985v-2.515971z" fill="#FBE800" p-id="4885"></path><path d="M786.240786 211.341523l3.773956 1.257986v2.51597h2.515971v-2.51597h2.51597l1.257985-1.257986h2.515971v1.257986l-2.515971 3.773955v2.515971l2.515971 1.257985 1.257985 3.773956 2.515971 3.773956v2.51597l1.257985 1.257985 1.257985 2.515971h-2.51597l1.257985 3.773956h-2.515971l-1.257985 3.773956h-3.773956v2.51597l-1.257985 1.257985-7.547912 1.257986-3.773955-1.257986h-2.515971v-1.257985l-2.51597-1.257985-1.257986-1.257985h-2.51597l-1.257985-2.515971h-1.257986l-1.257985-2.51597-1.257985-1.257986 1.257985-2.51597-1.257985-1.257986 2.51597-5.031941h2.515971v-5.031941h2.51597v-2.51597l-2.51597-3.773956v-2.51597h2.51597l2.515971 1.257985v1.257985l1.257985 1.257985h1.257985v-2.51597z" fill="#6F6A36" p-id="4886"></path><path d="M786.240786 211.341523h1.257985v2.515971h2.515971v1.257985h-2.515971v-1.257985h-1.257985v1.257985h-2.51597v-1.257985h2.51597z" fill="#FBE800" p-id="4887"></path><path d="M792.530713 215.115479l6.289926-3.773956v1.257986l-2.515971 2.51597V218.889435l-1.257985 1.257985h-13.837838l-1.257985 1.257985h-1.257985v-2.51597l-3.773956-3.773956v-1.257985l3.773956 2.51597h2.51597v1.257986l2.515971-1.257986h8.805897z" fill="#FBE800" p-id="4888"></path><path d="M781.208845 221.405405l10.063882-1.257985h2.515971l1.257985 2.515971v2.51597H787.498771v-2.51597l2.515971-1.257986h-3.773956l-1.257985 1.257986h1.257985v2.51597H779.95086v-1.257985l-1.257985-1.257985zM793.788698 227.695332l2.51597-2.515971v6.289926h-2.51597v3.773956l-2.515971 1.257986h-2.51597v-1.257986l1.257985-1.257985v-1.257985h-6.289926l1.257985 1.257985 2.51597 1.257985v1.257986l-2.51597 1.257985-1.257985-2.515971-1.257986-1.257985v-1.257985l-2.51597-1.257986v-1.257985l-1.257985-1.257985v-2.515971h1.257985l1.257985 1.257986 2.515971 2.51597 1.257985 1.257985v-1.257985l1.257985-2.51597h2.515971l2.51597 2.51597h1.257986zM798.820639 230.211302l3.773956-1.257985 1.257985 2.51597v1.257986h-1.257985l-1.257986-1.257986 1.257986 2.515971v3.773956h-1.257986l-1.257985-2.515971v5.031941h-1.257985l-1.257985-2.51597h-1.257986v-3.773956l1.257986-1.257985zM772.402948 231.469287h2.515971l1.257985 3.773956-3.773956 2.515971v-1.257985l1.257986-2.515971z" fill="#FBE800" p-id="4889"></path><path d="M774.918919 239.017199l1.257985-3.773956h1.257985v6.289927h-2.51597zM786.240786 239.017199l1.257985-1.257985h3.773956v2.51597l-1.257985 1.257986h-2.515971l-1.257985-1.257986zM792.530713 240.275184l2.51597-1.257985 1.257985 2.515971-1.257985 1.257985v2.51597l-1.257985-1.257985-1.257985-1.257985zM778.692875 240.275184h2.51597v3.773956l-2.51597-2.51597zM788.756757 244.04914l1.257985-1.257985 1.257985 2.51597h-2.51597zM786.240786 244.04914h1.257985l1.257986 1.257985H784.982801zM784.982801 227.695332l-1.257985 1.257985-1.257986-1.257985 1.257986-1.257986zM792.530713 227.695332l-1.257986 1.257985-1.257985-1.257985 1.257985-1.257986z" fill="#FBE800" p-id="4890"></path><path d="M766.113022 246.565111l3.773956 1.257985v3.773956h2.51597l-1.257985-2.515971 3.773956-1.257985 1.257985-1.257985h2.515971v2.51597l-2.515971 2.515971v2.51597l2.515971 1.257985v5.031941l3.773955 2.515971v2.51597l1.257986 2.515971 1.257985 1.257985h-2.515971v3.773956H779.95086v3.773956h-3.773956v2.51597l-1.257985 1.257986-8.805897 1.257985h-2.51597l-3.773956-1.257985v-1.257986l-1.257985-1.257985h-1.257986l-3.773955-1.257985v-2.515971h-1.257986l-1.257985-2.51597-1.257985-1.257986 1.257985-2.51597-1.257985-1.257985 2.51597-3.773956 2.515971-1.257985v-3.773956l2.51597-1.257985v-2.515971l-2.51597-3.773956v-2.51597l2.51597 1.257985h1.257986l1.257985 1.257985 1.257985 1.257986h1.257985v-2.515971z" fill="#6F6A36" p-id="4891"></path><path d="M766.113022 247.823096v-1.257985 1.257985l1.257985 1.257985h2.515971v1.257985H767.371007l-1.257985-1.257985-1.257985 1.257985h-2.515971v-1.257985h2.515971z" fill="#FBE800" p-id="4892"></path><path d="M772.402948 251.597052l5.031941-3.773956-1.257985 3.773956h-1.257985l1.257985 2.51597-1.257985 1.257985h-2.515971l-11.321867 1.257986H757.307125l1.257986-2.515971-3.773956-3.773956v-1.257985l3.773956 3.773956h2.51597l2.515971-1.257985h8.805896z" fill="#FBE800" p-id="4893"></path><path d="M761.081081 256.628993l8.805897-1.257986h2.51597l2.515971 2.515971v2.51597l-1.257985 1.257986H767.371007v-2.515971l2.515971-1.257985h-5.031941l1.257985 1.257985v2.515971h-6.289926l-1.257985-1.257986v-1.257985zM773.660934 262.918919l1.257985-1.257985h1.257985v5.031941l-2.51597 1.257985v2.51597l-2.515971 1.257986H767.371007v-1.257986l2.515971-1.257985v-1.257985l-1.257985 1.257985h-2.515971l-2.51597-1.257985 1.257985 2.51597h1.257985v1.257986l-1.257985 1.257985h-1.257985v-2.515971l-2.515971-1.257985v-1.257985l-1.257985-1.257985V265.434889h-1.257985v-3.773955h1.257985v2.51597l3.773956 2.515971h1.257985V265.434889l1.257985-2.51597h2.515971l2.51597 2.51597zM778.692875 265.434889h3.773955l1.257986 2.515971v1.257985h-1.257986l-1.257985-2.51597v1.257985l1.257985 1.257985v3.773956h-1.257985l-1.257985-2.515971v6.289927h-2.515971l-1.257985-2.515971v-6.289926zM752.275184 267.95086h2.515971v2.51597l-2.515971 2.515971v1.257985-1.257985l1.257986-3.773956zM754.791155 274.240786l1.257985-3.773956v6.289927H754.791155zM764.855037 274.240786l2.51597-1.257985 3.773956 1.257985-1.257985 1.257985v1.257986H767.371007l-2.51597-1.257986zM772.402948 275.498771l2.515971-1.257985 1.257985 2.515971h-1.257985V280.530713l-1.257985-1.257986-1.257986-1.257985zM758.565111 275.498771h2.51597v3.773956l-2.51597-1.257985zM768.628993 279.272727h1.257985l1.257985 1.257986-3.773956 1.257985zM764.855037 279.272727h2.51597v2.515971h-1.257985l-1.257985-1.257985z" fill="#FBE800" p-id="4894"></path><path d="M764.855037 262.918919l-1.257985 1.257985-1.257986-1.257985h1.257986zM772.402948 262.918919l-1.257985 1.257985-1.257985-1.257985h1.257985z" fill="#FBE800" p-id="4895"></path><path d="M890.653563 259.144963c10.063882 2.515971 18.869779 5.031941 27.675675 7.547912 11.321867 2.515971 21.385749 6.289926 31.449632 11.321867l16.353808 6.289926-7.547911 15.095823-5.031941 8.805897c-11.321867-5.031941-23.90172-8.805897-36.481573-12.579852-11.321867-3.773956-21.385749-6.289926-32.707617-10.063882h-2.51597v-1.257986l2.51597-6.289926v-1.257985l6.289927-17.611794z" fill="#D1382B" p-id="4896"></path><path d="M880.589681 295.626536l2.51597-10.063882s21.385749 3.773956 38.997543 10.063882c17.611794 6.289926 32.707617 13.837838 32.707617 13.837837l-5.031941 8.805897-69.189189-22.643734zM890.653563 259.144963l2.51597-10.063882s21.385749 3.773956 38.997543 10.063882c17.611794 6.289926 38.997543 15.095823 38.997543 15.095823l-5.031941 8.805897-75.479115-23.90172z" fill="#FFFFFF" p-id="4897"></path><path d="M901.97543 218.889435s36.481572-15.095823 55.351351-22.643735c8.805897 15.095823 17.611794 30.191646 27.675676 45.28747l1.257985 2.51597-1.257985 2.515971c-3.773956 8.805897-8.805897 17.611794-12.579853 26.41769-10.063882-5.031941-21.385749-8.805897-31.449631-12.579853-15.095823-5.031941-30.191646-8.805897-45.287469-12.579852l6.289926-28.933661zM880.589681 294.36855l26.41769 7.547912 16.353808 5.031941c8.805897 2.515971 26.41769 8.805897 26.417691 8.805897s-1.257985 3.773956-6.289927 12.579852l-7.547911-3.773955c-8.805897-3.773956-18.869779-6.289926-27.675676-8.805897-10.063882-2.515971-21.385749-5.031941-31.449631-7.547912l3.773956-13.837838z" fill="#0183C7" p-id="4898"></path><path d="M949.77887 217.63145l1.257985 10.063882 11.321867 3.773955-8.805896 7.547912 1.257985 10.063882-10.063882-2.51597-7.547912 7.547911-2.51597-11.321867-11.321868-3.773956 8.805897-7.547912-2.51597-11.321867 11.321867 3.773956z" fill="#F9CB00" p-id="4899"></path><path d="M949.77887 217.63145l1.257985 10.063882-8.805897 7.547911z" fill="#FBEC00" p-id="4900"></path><path d="M930.909091 221.405405l8.805897 2.515971 2.51597 11.321867zM937.199017 252.855037l7.547912-7.547912-2.515971-10.063882zM924.619165 239.017199l10.063882 2.515971 7.547911-6.289927zM961.100737 231.469287l-7.547911 7.547912 1.257985 10.063882-12.579853-13.837838z" fill="#FBEC00" p-id="4901"></path><path d="M896.943489 267.95086h6.289926l1.257985 2.51597 2.515971 2.515971 6.289926 2.51597h1.257986l13.837837 1.257986 7.547912 1.257985 2.51597 3.773956 1.257986 1.257985 16.353808 2.515971h3.773956v1.257985l-2.515971 2.51597h-7.547911l-5.031941-1.257985h-3.773956l1.257985 1.257985 2.515971 3.773956h1.257985v6.289926l-1.257985 1.257986H943.488943v-5.031941l-1.257985-1.257986-1.257985-1.257985-5.031941-2.51597h-2.515971l-2.51597 2.51597h-2.515971l-2.51597-1.257985-5.031941-1.257985v-1.257986h6.289926v-1.257985l-6.289926-1.257985-6.289926-2.515971h-13.837838l-3.773956 1.257986h-2.515971v-2.515971l7.547912-1.257985v-1.257985H893.169533l-2.51597-1.257986v-2.51597l1.257985 1.257985h8.805897v-2.515971l-1.257986-1.257985h-5.031941l-2.51597-1.257985v-2.515971l3.773956-1.257985z" fill="#4D220E" p-id="4902"></path><path d="M896.943489 267.95086h6.289926v2.51597l5.031941 2.515971 5.031941 2.51597h1.257986l13.837837 1.257986 5.031941 1.257985 5.031941 3.773956 1.257986 1.257985 17.611793 2.515971 2.515971 1.257985-1.257985 1.257985-6.289927 1.257985-7.547911-1.257985h-3.773956v1.257985l5.031941 3.773956v6.289926l-1.257985 1.257986H943.488943l1.257986-2.515971v-2.51597l-1.257986-2.515971h-2.51597l-6.289926-2.51597h-1.257986l-2.51597 1.257985h-3.773956l-6.289926-1.257985v-1.257986h2.51597l5.031941 1.257986v-2.515971h3.773956l-1.257985-5.031941-2.515971-1.257985h-15.095823v1.257985h-10.063882l-2.51597 1.257985-5.031941 1.257986-1.257986-1.257986 6.289927-1.257985 1.257985-1.257985v-1.257985h-6.289926l-2.515971-1.257986h-2.51597V278.014742h10.063882v-2.515971l-1.257986-1.257985-5.031941-1.257985H893.169533v-1.257985l2.515971-2.515971z" fill="#6B4927" p-id="4903"></path><path d="M913.297297 281.788698h12.579853l3.773956 1.257985 2.51597 3.773956-5.031941 1.257985-6.289926-2.51597-7.547912-2.515971z" fill="#FFFFFF" p-id="4904"></path></svg>