<?xml version="1.0" standalone="no"?><!DOCTYPE svg PUBLIC "-//W3C//DTD SVG 1.1//EN" "http://www.w3.org/Graphics/SVG/1.1/DTD/svg11.dtd"><svg t="1530454196875" class="icon" style="" viewBox="0 0 1548 1024" version="1.1" xmlns="http://www.w3.org/2000/svg" p-id="2678" xmlns:xlink="http://www.w3.org/1999/xlink" width="302.34375" height="200"><defs><style type="text/css"></style></defs><path d="M13.803922 1017.72549H1530.980392V8.784314H13.803922v1008.941176z m1519.686274 2.509804V1016.470588v3.764706zM7.529412 1024V1.254902h1529.72549v1021.490196H7.529412z" fill="#353636" p-id="2679"></path><path d="M10.039216 5.019608h1523.45098v1015.215686H10.039216z" fill="#DB2D27" p-id="2680"></path><path d="M710.27451 450.509804h-200.784314l228.392157 174.431372 33.882353-26.352941-138.039216-105.411764h62.745098z" fill="#009943" p-id="2681"></path><path d="M710.27451 450.509804H508.235294l229.647059 174.431372 33.882353-26.352941h1.254902l-138.039216-105.411764h62.745098l12.54902-42.666667h-1.254902l-12.54902 42.666667h-64l138.039216 105.411764-32.627451 25.09804L510.745098 451.764706h199.529412v-1.254902h-1.254902z" fill="#231815" p-id="2682"></path><path d="M834.509804 450.509804l-62.745098-199.529412-86.588235 281.098039 33.882353 26.352942 52.705882-170.666667 20.078431 62.745098z" fill="#009943" p-id="2683"></path><path d="M834.509804 450.509804l-62.745098-200.784314-87.843137 282.352941 35.137255 26.352942v1.254902l52.705882-169.411765 18.823529 60.235294v1.254902h43.921569v-1.254902h-42.666667l-20.078431-62.745098v-1.254902l-52.705882 170.666667-33.882353-25.09804 86.588235-278.588235 61.490196 197.019608h1.254902z" fill="#231815" p-id="2684"></path><path d="M872.156863 574.745098l161.882353-124.235294H751.686275l-12.54902 42.666667h170.666667l-50.196079 38.90196z" fill="#009943" p-id="2685"></path><path d="M872.156863 574.745098l163.137255-124.235294H751.686275l-12.54902 42.666667h-1.254902 170.666667l-50.196079 38.90196 13.803922 42.666667v1.254902-1.254902l-12.54902-42.666667 51.450981-38.90196h1.254901H740.392157l12.549019-41.411765h279.843138l-160.627451 121.72549v1.254902z" fill="#231815" p-id="2686"></path><path d="M771.764706 651.294118l161.882353 122.980392-86.588235-281.098039h-42.666667l52.705882 170.666666-51.45098-38.901961z" fill="#009943" p-id="2687"></path><path d="M771.764706 651.294118l163.137255 124.235294-87.843137-282.352941h-42.666667l51.45098 168.156862-48.941176-37.647058h-1.254902l-33.882353 26.352941-1.254902 1.254902h1.254902l33.882353-26.352942 51.45098 38.901961 1.254902 1.254902-52.705882-171.921568h41.411765l86.588235 279.843137-161.882353-122.980392v1.254902z" fill="#231815" p-id="2688"></path><path d="M671.372549 574.745098l-61.490196 199.529412 228.392157-174.431373-13.803922-41.411764-138.039215 105.411764 18.823529-62.745098z" fill="#009943" p-id="2689"></path><path d="M671.372549 574.745098l-62.745098 200.784314 229.647059-174.431373-12.54902-42.666666-1.254902-1.254902-136.784313 105.411764 18.823529-61.490196v-1.254902l-35.137255-26.352941v1.254902l33.882353 26.352941-18.823529 62.745098-1.254902 1.254902 139.294117-105.411764 12.54902 40.156862-225.882353 173.176471 61.490196-198.27451h-1.254902z" fill="#231815" p-id="2690"></path></svg>