<?xml version="1.0" standalone="no"?><!DOCTYPE svg PUBLIC "-//W3C//DTD SVG 1.1//EN" "http://www.w3.org/Graphics/SVG/1.1/DTD/svg11.dtd"><svg t="1530451223391" class="icon" style="" viewBox="0 0 1542 1024" version="1.1" xmlns="http://www.w3.org/2000/svg" p-id="688" xmlns:xlink="http://www.w3.org/1999/xlink" width="301.171875" height="200"><defs><style type="text/css"></style></defs><path d="M7.547912 1017.710074h1520.904176V6.289926H7.547912v1011.420148z m1523.420147 3.773955v-3.773955 3.773955zM1.257985 1024V0H1534.742015v1024H1.257985z" fill="#353636" p-id="689"></path><path d="M3.773956 3.773956h1527.194103v1017.710073H3.773956z" fill="#0064A7" p-id="690"></path><path d="M3.773956 3.773956H767.371007v509.484029H3.773956z" fill="#0064A7" p-id="691"></path><path d="M767.371007 181.149877H462.938575V3.773956H309.464373v177.375921H3.773956v153.474202h305.690417v177.375921h153.474202V334.624079H767.371007z" fill="#FFFFFF" p-id="692"></path><path d="M767.371007 454.132678L91.832924 3.773956h-88.058968v57.867322L679.312039 512h88.058968z" fill="#FFFFFF" p-id="693"></path><path d="M3.773956 454.132678L680.570025 3.773956H767.371007v57.867322L93.090909 512H3.773956z" fill="#FFFFFF" p-id="694"></path><path d="M767.371007 212.599509H430.230958V3.773956h-89.316953v208.825553H3.773956v89.316953h337.140049v210.083538h89.316953V301.916462H767.371007z" fill="#E25D55" p-id="695"></path><path d="M767.371007 510.742015v-40.255529L562.31941 334.624079h-60.383292zM767.371007 3.773956h-60.383292L462.938575 166.054054v15.095823h36.481572L767.371007 3.773956zM270.46683 334.624079L3.773956 510.742015v1.257985H62.899263l246.56511-163.538084v-13.837837zM3.773956 3.773956v40.255528l207.567567 137.120393h60.383293z" fill="#E25D55" p-id="696"></path><path d="M386.201474 649.120393l22.643735 72.963145 71.70516-26.41769-42.771499 62.899263 65.415233 38.997543-75.479115 6.289926 10.063882 75.479115-51.577396-55.351351-52.835381 55.351351 11.321868-75.479115-75.479116-6.289926 64.157248-38.997543-41.513513-62.899263 70.447174 26.41769zM1149.798526 795.046683l11.321867 35.223587 33.965602-13.837838-20.127764 31.449632 31.449631 18.869779-36.481572 2.51597 5.031941 37.739558-25.159705-27.675676-26.417691 27.675676 5.031941-37.739558-36.481572-2.51597 31.449631-18.869779-20.127764-31.449632 35.223587 13.837838zM958.584767 391.233415l11.321867 35.223587 35.223587-12.579852-21.385749 31.449631 32.707616 18.869779-37.739557 2.515971 5.031941 36.481572-25.159705-26.41769-25.159706 26.41769 5.031941-36.481572-36.481572-2.515971 31.449631-18.869779-20.127764-31.449631 33.965602 12.579852zM1149.798526 116.992629l11.321867 35.223587 33.965602-13.837838-20.127764 31.449632 31.449631 18.869779-36.481572 3.773955 5.031941 36.481573-25.159705-27.675676-26.417691 27.675676 5.031941-36.481573-36.481572-3.773955 31.449631-18.869779-20.127764-31.449632 35.223587 13.837838zM1319.626536 324.560197l11.321867 35.223587 33.965602-12.579853-20.127764 30.191646 31.449631 18.869779-36.481572 3.773956 5.031941 36.481573-25.159705-26.417691-26.417691 26.417691 5.031941-36.481573-36.481572-3.773956 31.449631-18.869779-20.127764-30.191646 35.223587 12.579853zM1226.535627 524.579853l8.805896 21.385749 22.643735 1.257985-17.611794 15.095823 5.031941 22.643735-18.869778-12.579853-20.127765 12.579853 6.289927-22.643735-17.611794-15.095823 22.643735-1.257985z" fill="#FFFFFF" p-id="697"></path></svg>