<?xml version="1.0" standalone="no"?><!DOCTYPE svg PUBLIC "-//W3C//DTD SVG 1.1//EN" "http://www.w3.org/Graphics/SVG/1.1/DTD/svg11.dtd"><svg t="1530411844059" class="icon" style="" viewBox="0 0 1536 1024" version="1.1" xmlns="http://www.w3.org/2000/svg" p-id="1635" xmlns:xlink="http://www.w3.org/1999/xlink" width="300" height="200"><defs><style type="text/css"></style></defs><path d="M0 0h1536v1024H0z" fill="#FF0000" p-id="1636"></path><path d="M0 0h614.4v1024H0z" fill="#006600" p-id="1637"></path><path d="M814.6944 670.8224c-77.3376-2.3296-431.9744-223.6928-434.4064-258.944l19.584-32.65792c35.1744 51.11296 397.7216 266.3936 433.3312 258.7648l-18.5088 32.82688" fill="#FFFF00" p-id="1638"></path><path d="M395.7504 374.784c-6.9376 18.67264 92.54144 80.17408 212.23168 152.97024 119.68512 72.79104 222.8864 117.77536 230.53568 111.32416 0.46848-0.832 3.7632-6.5024 3.46112-6.45888-1.4336 2.16064-4.92288 2.8416-10.368 1.27232-32.33792-9.32608-116.67456-48.0384-221.12-111.37536-104.44288-63.34208-195.31264-121.71264-209.4336-146.51392-0.98304-1.71776-1.68448-4.85376-1.54112-7.29088l-0.34304-0.00512-3.008 5.25568-0.41216 0.82432h-0.00256z m420.7616 297.0624c-1.31072 2.3808-3.75552 2.4576-8.40192 1.94816-28.928-3.2-116.70784-45.888-220.57472-108.06528-120.8576-72.3456-220.672-138.2656-209.8432-155.4944l2.94656-5.20704 0.58112 0.1792c-9.73824 29.1968 196.98688 147.39968 209.15712 154.93632 119.61344 74.10432 220.4544 117.37856 229.37856 106.13248l-3.24608 5.58336v-0.00512z" fill="#FFFF00" p-id="1639"></path><path d="M614.8352 433.2288c77.40672-0.61184 172.928-10.57792 227.89888-32.4864l-11.84512-19.24352c-32.49152 17.984-128.5376 29.80864-216.70912 31.5776-104.28416-0.96-177.8944-10.67008-214.77632-35.4176l-11.17952 20.4928c67.79904 28.68992 137.27488 34.78272 226.6112 35.07968" fill="#FFFF00" p-id="1640"></path><path d="M845.9264 401.1776c-1.89184 3.02592-37.74208 15.38816-90.55488 24.512-35.80928 5.46048-82.51904 10.12736-140.81024 10.18368-55.38048 0.0512-100.6208-3.8912-134.87104-8.53248-55.43936-8.69376-84.05248-20.7872-94.6304-25.0624 1.0112-2.0096 1.664-3.42272 2.6368-5.2992 30.4512 12.12416 59.19744 19.43296 92.8768 24.6144 34.0224 4.608 78.72 8.60672 133.824 8.55552 58.01984-0.05888 104.2176-5.07904 139.81696-10.37568 54.1568-8.73472 83.74016-19.97824 87.89504-25.19808l3.82464 6.60224h-0.00512z m-10.3936-19.51488c-5.87008 4.71552-35.11808 15.08864-86.5792 23.30624-34.33984 4.92032-78.00576 9.32608-133.79584 9.37984-53.00224 0.0512-96.3072-3.52-129.2416-8.31744-52.25984-6.82496-80.0768-19.136-90.10176-22.72512 0.9984-1.72544 2.01216-3.43808 3.05664-5.15584 7.80288 3.9296 34.64448 14.82496 87.61856 22.33088 32.5632 4.61568 75.9296 8.05632 128.67072 8.00256 55.5264-0.05632 98.69568-4.54656 132.82048-9.44128 51.7248-7.1168 79.55712-20.34688 83.78368-23.65696l3.77088 6.272v0.00768zM360.6528 526.4896c47.61088 25.60768 153.3568 38.51264 253.42464 39.40096 91.11296 0.14336 209.81248-14.08512 254.20032-37.6064l-1.22112-25.63072c-13.888 21.70112-141.08928 42.51904-253.96736 41.66656-112.87808-0.85248-217.69728-18.28608-252.63872-40.85504l0.2048 23.01696" fill="#FFFF00" p-id="1641"></path><path d="M870.7072 522.8032v6.11072c-6.6688 7.97696-48.4992 20.03456-100.95616 28.52352-39.9232 6.12096-91.97312 10.7392-156.83072 10.7392-61.6192 0-110.75328-4.39296-148.85888-10.24256-60.2368-8.77312-98.7648-24.13312-106.496-28.71552l0.03328-7.13216c23.232 15.44704 86.17216 26.74432 107.30752 30.20288 37.85728 5.8112 86.70208 10.17344 148.01152 10.17344 64.55296 0 116.31104-4.58752 155.98336-10.66752 37.63456-5.43488 91.24864-19.57376 101.80352-28.98944h0.00256z m0.0256-21.73952v6.11072c-6.6688 7.97184-48.4992 20.02944-100.95616 28.5184-39.9232 6.12096-91.97312 10.7392-156.83072 10.7392-61.6192 0-110.75328-4.3904-148.85888-10.24512-60.2368-8.76544-98.7648-24.12544-106.496-28.71296l0.03328-7.1296c23.232 15.44448 86.17216 26.74432 107.30752 30.19776 37.85728 5.81632 86.70208 10.17856 148.01152 10.17856 64.55296 0 116.31104-4.58752 155.98336-10.6752 37.63456-5.43488 91.24864-19.57376 101.80352-28.98688l0.00256 0.00512zM613.8624 666.4192c-109.49632-0.6528-203.31776-29.84704-223.1296-34.67264l14.44608 22.61504c34.9952 14.72 126.52544 36.6592 209.73312 34.22976 83.21024-2.42688 155.9296-8.87296 207.17568-33.8176l14.81472-23.43936c-34.92352 16.448-153.77408 34.91584-223.04 35.0848" fill="#FFFF00" p-id="1642"></path><path d="M827.648 649.5232a343.2448 343.2448 0 0 1-6.64576 9.8048c-24.17152 8.52224-62.2592 17.46944-78.32832 20.07808-32.82944 6.76608-83.6224 11.76064-128.70144 11.78368-96.9984-1.41824-176.3968-20.40832-213.74976-36.60544l-3.01568-5.18144 0.49408-0.77824 5.10976 1.98144c66.42688 23.76704 141.03296 33.24672 211.70688 34.94912 44.89728 0.15872 89.8432-5.1456 126.18752-11.64544 55.73376-11.16672 78.26944-19.584 85.184-23.3984l1.75872-0.98816z m12.84352-21.184l0.16896 0.19712a689.344 689.344 0 0 1-5.02528 8.35328c-12.8896 4.608-47.87712 14.84288-98.96704 21.98784-33.66144 4.58496-54.58432 9.02656-121.54624 10.32704-125.4784-3.19232-206.72-27.72736-226.01984-33.7792l-2.85952-5.48608c72.71936 18.9824 147.00032 32.23552 228.88448 33.5872 61.2608-1.30304 87.32672-5.81376 120.70912-10.368 59.5712-9.26208 89.58976-19.06944 98.5984-21.9008a6.82752 6.82752 0 0 0-0.39424-0.512l6.45888-2.41152-0.00512 0.00512z" fill="#FFFF00" p-id="1643"></path><path d="M841.8048 506.2656c0.35584 72.03072-36.5056 136.66816-66.19648 165.184-42.00448 40.34304-97.69728 66.29376-162.73664 67.48928-72.6272 1.33376-141.1072-46.01344-159.4752-66.81344-35.91168-40.6656-65.14944-92.30592-66.0864-161.90208 4.44928-78.61504 35.31008-133.376 80.04608-170.92864s104.30208-55.84128 153.90976-54.53312c57.23648 1.5104 124.096 29.58848 170.29376 85.32992 30.26688 36.52096 43.37408 76.15488 50.24512 136.17408z m-228.31616-246.63552c139.4816 0 254.19776 113.50528 254.19776 252.67968 0 139.17184-114.71616 252.68224-254.19776 252.68224s-253.24544-113.50784-253.24544-252.68224 113.76384-252.67968 253.24544-252.67968" fill="#FFFF00" p-id="1644"></path><path d="M614.1696 258.7648c139.60704 0 253.46816 113.87648 253.46816 253.49632 0 139.61728-113.86368 253.4912-253.46816 253.4912-139.60704 0-253.46816-113.87136-253.46816-253.4912s113.86368-253.49632 253.46816-253.49632z m-247.88992 253.49632c0 136.3456 111.96416 247.91552 247.88992 247.91552 135.92832 0 247.89248-111.56992 247.89248-247.91552 0-136.35072-111.96672-247.92064-247.89248-247.92064s-247.88992 111.57504-247.88992 247.92064z" fill="#FFFF00" p-id="1645"></path><path d="M614.3744 279.8336c127.31136 0 232.17408 104.50176 232.17408 232.20224 0 127.70304-104.86528 232.19968-232.17408 232.19968s-232.17408-104.49664-232.17408-232.19968c0-127.70048 104.86784-232.20224 232.17408-232.20224z m-226.5984 232.19968c0 124.6336 102.34624 226.62144 226.5984 226.62144s226.5984-101.98784 226.5984-226.62144c0-124.63616-102.34368-226.624-226.5984-226.624-124.25216 0-226.5984 101.9904-226.5984 226.624z" fill="#FFFF00" p-id="1646"></path><path d="M624.5888 257.7408h-21.7216l0.0256 509.3376h21.79584z" fill="#FFFF00" p-id="1647"></path><path d="M622.4128 254.83776h5.5296l0.04608 515.2h-5.53216l-0.04096-515.2z m-21.55776 0.00512h5.57056l0.00768 515.2h-5.57568V254.84288z" fill="#FFFF00" p-id="1648"></path><path d="M867.8144 522.0736v-18.8288L852.48 488.96l-87.04-23.04-125.44-12.8-151.04 7.68-107.52 25.6-21.7088 16.0768v18.83392L414.72 496.64l130.56-20.48h125.44l92.16 10.24 64 15.36z" fill="#FFFF00" p-id="1649"></path><path d="M614.272 473.0112c59.86048-0.11008 117.9392 5.6704 164.0064 14.6432 47.53664 9.50272 80.99072 21.3888 92.4288 34.7392l-0.0128 6.61248c-13.79328-16.6144-58.81088-28.79488-93.48608-35.75808-45.71648-8.89344-103.40608-14.63552-162.93632-14.52544-62.81728 0.11776-121.31072 6.0672-166.35904 14.85568-36.1472 7.17312-84.35456 21.42208-90.37312 35.47648v-6.88384c3.30496-9.728 39.20128-24.26624 89.55904-34.34752 45.38624-8.84992 103.9872-14.69696 167.17312-14.81216z m0.0256-21.73952c59.86048-0.10752 117.9392 5.67552 164.0064 14.6432 47.53664 9.50528 80.99072 21.3888 92.4288 34.7392l-0.0128 6.61248c-13.79328-16.61184-58.81088-28.79232-93.48608-35.75296-45.71648-8.89856-103.40608-14.64064-162.93632-14.52544-62.81728 0.11264-121.02656 6.0672-166.08 14.85056-34.88256 6.61504-85.05856 21.4272-90.65472 35.4816v-6.8864c3.30496-9.6256 39.92832-24.68352 89.5616-34.34752 45.38624-8.85248 103.9872-14.6944 167.17312-14.81472zM613.0688 340.3776c94.33344-0.47104 176.6144 13.18912 214.2592 32.4736l13.73184 23.75424c-32.71936-17.63328-121.48736-35.968-227.8528-33.22624-86.66624 0.53248-179.26912 9.54112-225.73056 34.3296l16.39168-27.41504c38.1312-19.77344 128.05632-29.80608 209.2032-29.91104" fill="#FFFF00" p-id="1650"></path><path d="M614.3232 359.9872c53.80352-0.14336 105.792 2.8928 147.13856 10.35264 38.50496 7.16544 75.2256 17.92 80.47616 23.7056l4.0704 7.1936c-12.76928-8.33792-44.544-17.62304-85.34784-25.35936-40.97536-7.70048-92.928-10.2528-146.432-10.112-60.72832-0.20736-107.90912 2.99776-148.40064 10.05824-42.82368 8.0128-72.53504 19.45856-79.86432 24.89856l3.98848-7.6032c14.24384-7.26528 36.8384-16.0256 74.81088-22.8608 41.87392-7.64928 89.55648-9.94304 149.56288-10.27328z m-0.02304-21.71904c51.48928-0.13568 102.32832 2.73408 141.95712 9.856 31.25504 6.08512 62.16448 15.58528 73.48224 24.0384l5.95456 9.4592c-10.12224-11.2512-48.22016-21.9136-81.85344-27.88352-39.32416-6.784-88.0512-9.46688-139.54048-9.89696-54.03648 0.1536-103.9744 3.46112-142.72512 10.51648-36.96896 7.03744-60.8256 15.36512-70.91968 21.87008l5.2352-7.90272c13.92896-7.33184 36.43392-14.0672 64.77568-19.57376 39.03744-7.10912 89.28256-10.33216 143.63648-10.4832zM740.224 617.6256c-46.63808-8.704-93.36064-9.9712-125.99552-9.5872-157.20192 1.8432-207.98464 32.2816-214.1824 41.4976l-11.7504-19.15392c40.0256-29.00992 125.62944-45.27872 226.78528-43.61472 52.52608 0.86016 97.85344 4.34688 135.98464 11.73248l-10.84416 19.13088" fill="#FFFF00" p-id="1651"></path><path d="M613.3248 605.3376c43.72992 0.6528 86.65344 2.4576 128.08448 10.18368l-3.00032 5.2992c-38.47936-7.104-79.5008-9.82272-124.93568-9.6-58.01728-0.45568-116.6976 4.96384-167.78496 19.62496-16.12032 4.48768-42.80576 14.848-45.52704 23.41376l-2.98496-4.92288c0.86016-5.06112 16.98816-15.5648 47.13984-24.0384 58.51648-16.7552 113.2544-19.58144 169.0112-19.96544v0.00512z m1.984-22.00576c45.30688 0.8448 92.096 2.94144 137.5744 11.95008l-3.1232 5.51168c-41.06752-8.15104-80.3072-10.86976-134.1824-11.6992-58.2016 0.10752-119.93856 4.25728-176.07168 20.57472-18.1248 5.28128-49.40032 16.6912-50.44224 25.728l-2.98496-5.2864c0.6784-8.20736 27.75552-18.91328 52.11648-25.99936 56.56576-16.44544 118.464-20.67456 177.11616-20.77952z" fill="#FFFF00" p-id="1652"></path><path d="M838.6048 633.2928l-18.89024 29.30944L765.44 614.4l-140.8-94.72-158.72-87.04-82.4064-28.1856 17.5616-32.5632L407.04 368.64l51.2 12.8 168.96 87.04 97.28 61.44 81.92 58.88 33.28 38.4z" fill="#FFFF00" p-id="1653"></path><path d="M380.544 405.2224c14.45376-9.8048 120.67584 37.5168 231.8208 104.53504 110.85056 67.21024 216.77312 143.15776 207.21152 157.37088l-3.14368 4.94592-1.44384 1.1392c0.3072-0.22272 1.90208-2.17088-0.1536-7.43936-4.72576-15.5392-79.86176-75.49696-204.5312-150.7712-121.536-72.4736-222.8224-116.14976-232.95232-103.66464l3.19232-6.1184z m461.9264 227.65312c9.1392-18.05312-89.38496-92.27264-211.53792-164.53632-124.96128-70.82496-215.02464-112.51456-231.4752-100.0832l-3.65568 6.656c-0.03072 0.36352 0.13312-0.45568 0.90624-1.05216 2.99008-2.6112 7.9488-2.432 10.18624-2.47552 28.3264 0.42496 109.22752 37.6576 222.73536 102.72768 49.73568 28.9664 210.10176 131.81696 209.48992 160.7424 0.04352 2.4832 0.2048 2.9952-0.7296 4.22656l4.08064-6.20288v-0.00512z" fill="#FFFF00" p-id="1654"></path><path d="M462.336 540.1856c0 41.65376 17.05728 79.32672 44.68992 106.85952 27.6864 27.59168 65.31072 45.00224 107.03104 45.00224 41.93536 0 79.99232-17.03168 107.56096-44.51584 27.56864-27.4816 44.65408-65.41312 44.66176-107.2128h-0.00512v-202.72384l-303.9744-0.36096 0.03072 202.95168h0.00512z" fill="#FFFFFF" p-id="1655"></path><path d="M468.0192 540.4672v0.1152c0 39.82592 16.48896 76.09344 42.944 102.42304 26.50624 26.3808 63.01184 42.78272 102.94784 42.78272 40.14336 0 76.57472-16.2816 102.96832-42.56256 26.38848-26.2784 42.74432-62.54848 42.74944-102.51264h-0.00512V344.0384l-291.4304-0.04864-0.1792 196.47488m233.01632-137.59232l0.01024 125.16096-0.10496 13.24032c0 3.48416-0.20736 7.45472-0.6144 10.83648-2.368 19.7888-11.4688 37.03552-24.9472 50.45248-15.77984 15.70816-37.55776 25.45152-61.56032 25.45152-23.87712 0-45.1584-10.08128-61.0048-25.856-16.25344-16.1792-25.6768-38.36416-25.6768-61.30432l-0.03072-138.29888 173.9264 0.31232 0.00512 0.00512z" fill="#FF0000" p-id="1656"></path><path d="M486.8864 395.3408c0.3456-14.13376 10.37312-17.47968 10.4448-17.52832 0.07424-0.04864 10.83392 3.60192 10.79808 17.65888l-21.24288-0.13056" fill="#FFFF00" p-id="1657"></path><path d="M478.2336 378.0864l-1.74592 16.2432 10.5984 0.02304c0.1024-13.44 10.176-15.67488 10.4192-15.62368 0.2304-0.0128 10.21184 2.9696 10.47808 15.62368h10.62656l-1.92-16.36864-38.45632 0.09728v0.00512zM475.776 394.3936h43.38176c0.91392 0 1.664 0.90368 1.664 2.00704 0 1.1008-0.75008 1.99936-1.664 1.99936H475.776c-0.91392 0-1.664-0.896-1.664-1.99936 0-1.10336 0.75008-2.00704 1.664-2.00704z" fill="#FFFF00" p-id="1658"></path><path d="M491.5456 394.3168c0.04608-8.48128 5.79072-10.88 5.82144-10.87488 0 0 5.99552 2.47296 6.0416 10.87488h-11.86304M476.6976 371.328h41.5872c0.87552 0 1.59488 0.81408 1.59488 1.8048 0 0.99072-0.7168 1.80224-1.59488 1.80224H476.6976c-0.87552 0-1.59488-0.8064-1.59488-1.80224 0-0.99072 0.7168-1.8048 1.59488-1.8048zM477.568 374.9632h39.77728c0.83712 0 1.5232 0.81152 1.5232 1.80224 0 0.99328-0.68608 1.80224-1.5232 1.80224H477.568c-0.83712 0-1.5232-0.80896-1.5232-1.80224 0-0.99072 0.68608-1.80224 1.5232-1.80224zM490.4192 347.8528l3.14112 0.00512v2.22976h2.2912v-2.2784l3.21792 0.01024v2.27072h2.29632v-2.2784h3.22048l-0.00512 5.1456c0 0.81152-0.65024 1.33376-1.40544 1.33376h-11.2896c-0.76032 0-1.4592-0.60672-1.46432-1.34656l-0.00768-5.08928h0.00256zM502.2464 354.7392l0.70912 16.51456-11.01568-0.0384 0.7296-16.51968 9.57696 0.04352" fill="#FFFF00" p-id="1659"></path><path d="M488.8064 362.3936l0.33536 8.90368-10.56 0.00256 0.29696-8.90624h9.93024-0.00256z" fill="#FFFF00" p-id="1660"></path><path d="M476.928 355.9424l3.072 0.00768v2.23232h2.24512v-2.28352l3.1488 0.01024v2.27584h2.25024v-2.28608l3.1488 0.00512-0.00512 5.15072c0 0.80384-0.63744 1.32608-1.37216 1.32608h-11.05152c-0.7424 0-1.43104-0.6016-1.4336-1.344l-0.00512-5.09184z" fill="#FFFF00" p-id="1661"></path><path d="M496.384 359.9616c-0.06656-1.60512 2.24512-1.62304 2.21696 0v3.93216h-2.21696v-3.93216" fill="#000000" p-id="1662"></path><path d="M482.7392 365.6704c-0.00768-1.55136 2.14272-1.58208 2.11456 0v3.03872h-2.11456v-3.03872" fill="#000000" p-id="1663"></path><path d="M595.54816 518.15936v0.0128c0 5.66272 2.176 10.82112 5.66272 14.5664 3.4944 3.75296 8.3072 6.08512 13.57312 6.08512 5.29152 0 10.09664-2.3168 13.57568-6.0544 3.47648-3.73504 5.63712-8.88832 5.63712-14.57408v-27.56608l-38.37952-0.03328-0.07168 27.56096" fill="#003399" p-id="1664"></path><path d="M604.34944 501.0816m-3.80416 0a3.80416 3.80416 0 1 0 7.60832 0 3.80416 3.80416 0 1 0-7.60832 0Z" fill="#FFFFFF" p-id="1665"></path><path d="M625.64352 501.09952m-3.80416 0a3.80416 3.80416 0 1 0 7.60832 0 3.80416 3.80416 0 1 0-7.60832 0Z" fill="#FFFFFF" p-id="1666"></path><path d="M614.976 511.3216m-3.80416 0a3.80416 3.80416 0 1 0 7.60832 0 3.80416 3.80416 0 1 0-7.60832 0Z" fill="#FFFFFF" p-id="1667"></path><path d="M604.34944 522.02496m-3.80416 0a3.80416 3.80416 0 1 0 7.60832 0 3.80416 3.80416 0 1 0-7.60832 0Z" fill="#FFFFFF" p-id="1668"></path><path d="M625.62048 521.9968m-3.80416 0a3.80416 3.80416 0 1 0 7.60832 0 3.80416 3.80416 0 1 0-7.60832 0Z" fill="#FFFFFF" p-id="1669"></path></svg>