<?xml version="1.0" standalone="no"?><!DOCTYPE svg PUBLIC "-//W3C//DTD SVG 1.1//EN" "http://www.w3.org/Graphics/SVG/1.1/DTD/svg11.dtd"><svg t="1530440027984" class="icon" style="" viewBox="0 0 1577 1024" version="1.1" xmlns="http://www.w3.org/2000/svg" p-id="4023" xmlns:xlink="http://www.w3.org/1999/xlink" width="308.0078125" height="200"><defs><style type="text/css"></style></defs><path d="M10.260249 768H1546.260249v256H10.260249zM10.260249 0H1546.260249v256H10.260249z" fill="#C60B1E" p-id="4024"></path><path d="M10.386172 256H1546.386172v512H10.386172z" fill="#FFC400" p-id="4025"></path><path d="M492.290746 592.716183c-1.63699-10.451549 0.377767-20.777177 1.133301-31.102804 0-0.755534 0.251845-1.511067 0.503689-2.266601 2.140679-3.903591 5.414658-6.925726 8.059026-10.577472 7.17757-5.162814 14.606985-9.570093 24.051156-9.192326 1.63699 0.125922 3.022135-0.881456 4.659124-1.385145 15.488441 4.155435 24.80669 14.103296 27.828825 29.843581 0.629611 2.896212 0.881456 6.170192 4.40728 7.429414 16.118052 1.385145 32.236104 0.503689 48.354156 0.503689 18.006886 0 14.984752 1.385145 15.110674 14.85883 0.125922 13.095917-0.629611 26.191835 0.125922 39.287752 1.007378 17.880964-2.014757 34.376783-12.844073 48.983768-0.251845 0.377767-0.755534 0.503689-1.259223 0.503689-7.303492 4.40728-14.35514 9.192327-22.66601 11.58485l0.125922-0.125923c-6.673881 3.399902-13.851451 1.511067-20.777177 1.888835-2.77029 0.125922-5.666503 0-8.436793 0-9.192327 0.629611-15.110674-5.414658-21.658632-10.199705-0.881456-0.629611-1.63699-1.385145-2.266601-2.140679-2.266601-3.273979-5.036891-6.170192-7.429415-9.318249-2.77029-4.40728-20.021643 11.333005-22.666011 6.925726-2.014757-9.318249-1.133301-24.554845-1.888834-33.873094-0.251845-2.77029-1.007378-36.643384-1.385145-39.413675l-11.081161-12.214461z" fill="#AA1518" p-id="4026"></path><path d="M559.911012 576.849975c-3.022135-1.385145-2.266601-4.155435-2.77029-6.547958-2.77029-12.466306-7.17757-23.799311-21.280866-27.451058-2.140679-0.503689-2.518446-4.40728-5.540581-2.518445-4.659124-0.125922-7.429415-2.140679-7.429414-7.177571 0-20.525332-0.251845-41.050664 0.125922-61.575996 0-1.133301 0.377767-2.266601 0.755534-3.399901 2.266601-4.029513 6.04427-4.659124 10.199705-4.785047 28.332514-0.755534 56.665027 1.133301 84.99754 0.629611 6.170192-0.125922 7.051648 3.399902 7.303493 8.562716 0.881456 18.76242 0.377767 37.398918 0.755533 56.161338 2.644368 8.81456 1.888834 17.503197-0.755533 26.065912 1.762912 6.296114-0.629611 12.466306-0.125923 18.76242 0.251845 2.896212-1.762912 3.903591-4.533202 3.903591-20.651254-0.503689-41.176586 0.377767-61.701918-0.629612z" fill="#DADADA" p-id="4027"></path><path d="M503.371907 418.1879z m84.242007 30.095425c-2.392523 2.140679 3.399902 6.547959 4.029513 8.81456 2.392523 8.184948-10.703394 4.40728-14.732907 6.044269-1.259223 0.503689 24.554845-1.007378 23.295622 0.251845 13.22184 0 3.273979-0.755534 16.495819-0.755534 10.829316 0 10.829316 0 10.955239 11.207083l0.377766 54.776193c-0.503689 0.503689-1.133301 0.503689-1.636989 0-0.377767-18.636498-1.007378-37.398918-1.007378-56.161338 0-5.666503-2.014757-7.303492-7.303493-7.303492-28.332514 0.125922-144.181013 0.125922-162.565666 0-13.725529-5.414658 1.762912-20.651254-1.762912-16.873586h133.855386" fill="#9F8504" p-id="4028"></path><path d="M515.586368 353.715691c1.511067-0.377767 3.148057-0.503689 4.659125-0.377767 4.659124-0.377767 8.688637 1.762912 13.095917 2.644368 5.288736-1.888834 10.703394-3.148057 16.243975-3.777668 11.081161-1.385145 18.76242 5.666503 27.576979 10.073782 1.007378 0.503689 1.007378 2.518446 3.148057 1.888835 11.962617-3.148057 23.295622-1.511067 34.250861 4.281357 10.703394 5.54058 16.999508 16.621741 16.118052 26.065913 0.125922 12.088539-23.043778 43.317265-43.06542 53.768814H453.632605c-10.073783-1.259223-54.272504-56.161338-41.806197-74.545991l103.75996-20.021643z" fill="#9F8504" p-id="4029"></path><path d="M410.819029 374.996557c10.073783-21.658633 48.983768-11.962617 52.005903-11.710772 4.155435 0.377767 7.933104-5.792425 10.703394-9.192327 0 0 10.829316-7.303492 17.503197-2.896213 7.555337 3.273979 17.12543 6.04427 24.680768 2.518446l-104.893262 21.280866z" fill="#9F8504" p-id="4030"></path><path d="M659.893304 548.643384c-1.63699-0.629611-2.644368-3.148057-4.785047-2.266601-7.051648 3.022135-14.732907 1.888834-22.036399 3.273979-3.525824 0.629611-5.288736 2.392523-6.673881 5.162814-0.755534-8.688637-0.881456-17.503197 0-26.191835h1.636989c9.696016-0.629611 19.392031-1.133301 28.962125-1.762912 1.007378-0.503689 2.140679-1.133301 3.27398-1.259223 3.148057-0.377767 6.296114-0.251845 9.444171 0.377767 7.303492 2.266601 15.236596-0.629611 22.414166 2.644368 5.036891 5.288736 12.592228 6.296114 18.510576 10.325627 4.910969 3.273979 6.925726 6.673881 4.533202 12.214462-0.881456 1.888834-1.385145 4.029513-1.888834 6.044269-2.77029 9.821938-8.81456 15.488441-19.392032 15.362519l-33.999016-23.925234z" fill="#AB2C16" p-id="4031"></path><path d="M693.010864 590.197737c2.014757 0.755534 4.029513 1.385145 5.918347 2.266601 16.999508 7.17757 14.858829 11.458928 11.081161 26.821447-1.133301 4.785047-7.429415 5.414658-8.688637 10.451549-0.125922 0.629611-2.014757-0.503689-2.518446-1.511067-1.511067-3.022135-2.896212-6.170192-0.881456-9.318249 3.148057-5.036891 0.755534-7.555337-3.777668-9.444171-0.629611 0.251845-1.259223 0.503689-2.014757 0.503689l-12.466306-4.155436c-5.54058-2.266601-11.081161-4.785047-16.621741-6.925725-3.777668-0.755534-4.281358-4.910969-7.17757-6.547959-1.385145-0.881456-2.896212-1.63699-4.155435-2.644368-8.436793-6.296114-10.703394-17.12543-5.288736-25.814068 1.385145-2.266601 3.903591-4.155435 6.925725-4.155435 2.518446 0 4.533202-0.881456 6.296114-2.644368l33.369405 33.11756z" fill="#AB1618" p-id="4032"></path><path d="M398.73049 587.553369c-4.40728 2.014757-23.799311 15.614363-28.206591 17.251353-4.029513 2.140679-8.436793 3.148057-12.466306 5.036891-1.511067 0.755534-3.148057 0.251845-4.785047 0.125923-4.155435 2.140679-3.651746 5.54058-2.392523 9.066404 1.133301 3.273979 1.762912 6.673881-1.63699 8.81456-3.777668 2.266601-11.081161-12.718151-13.347762-14.481063-7.681259-6.04427 6.296114-20.777177 14.984752-25.436301 11.333005-8.059026 36.013773-28.206591 38.784063-30.221348l9.066404 29.843581z" fill="#AA1718" p-id="4033"></path><path d="M388.908552 556.072799c5.036891 1.007378 13.473684 5.792425 14.229218 11.58485 1.007378 7.303492 4.281358 15.236596-5.162813 20.273487l-9.066405-31.858337z" fill="#AA1718" p-id="4034"></path><path d="M422.277957 545.243483c-31.858337-10.073783-58.050172 27.451058-65.605509 27.325135-10.199705-1.511067-28.962125-15.866208-27.199213-25.688146 1.007378-5.414658 20.903099-14.481062 25.562223-16.747663 1.762912-2.518446 61.324152-6.170192 67.116577-1.762912V545.243483z" fill="#A9221A" p-id="4035"></path><path d="M399.486024 676.580423c-1.259223 1.63699-3.148057 2.014757-5.036891 2.140679-14.481062 0.377767-29.088047 0.377767-43.56911 0-1.888834 0-3.777668-0.503689-5.036891-2.140679 0.881456-8.688637 6.296114-15.614363 8.688637-23.799311 0.881456-0.755534 2.014757-1.63699 3.022135-1.385145 10.829316 2.140679 21.53271 0 32.362027 0 1.762912 1.511067 2.896212 5.666503 2.896212 5.666502l6.673881 19.517954z" fill="#B8A203" p-id="4036"></path><path d="M433.48504 676.706345c2.140679-2.140679 1.259223-4.910969 1.259223-7.303492v-78.575504c0-1.888834-0.125922-3.777668 0-5.666503 0.377767-2.77029 0.881456-5.918347 4.029513-6.799803 3.777668-1.007378 2.266601 3.273979 3.903591 4.533202 0.503689 0.377767 1.259223 0.503689 2.014756 0.629611 2.014757 2.014757 1.888834 4.785047 1.888835 7.303493 0 28.332514 0.125922 56.790949-0.125923 85.123463 0 3.525824 1.63699 9.696016-6.044269 7.555337l-6.925726-6.799804z" fill="#A21417" p-id="4037"></path><path d="M539.133835 680.609936c6.673881 2.77029 10.577472 10.955239 19.266109 10.073783 4.910969 2.014757 10.199705 1.007378 15.110674 2.518445 2.266601 0.755534 5.918347 1.385145 1.63699 4.533202-7.933104 0.503689-15.110674 4.155435-22.791933 5.540581-23.421545 4.910969-46.717167 3.399902-69.635022-2.896213h0.125922c-1.888834-1.511067-4.40728-1.007378-6.422036-1.888834-2.266601-1.007378-4.533202-2.266601-3.525824-5.54058 1.133301-1.007378 10.451549-0.503689 11.962616-0.629612 3.022135-0.251845 13.22184-4.533202 16.118053-5.414658 1.259223-0.377767 19.769798-13.347762 24.051156-24.554845l14.103295 18.258731z" fill="#CECECA" p-id="4038"></path><path d="M692.129408 609.337924l2.014757 0.251845c0.125922 15.866208-1.762912 31.732415 1.1333 47.598623 0.503689 2.77029 1.63699 4.659124 3.022135 6.799803-0.755534 3.903591-4.029513 3.525824-6.673881 3.525824-10.829316 0.377767-21.53271 0.377767-32.362026 0-2.77029-0.125922-7.051648 0.503689-6.296115-4.910969 4.659124-3.777668 3.651746-9.696016 3.777669-14.229218 0.755534-17.377275 0.377767-34.75455 0.377767-52.005903 0-1.259223-0.881456-2.644368-1.385145-3.903591 3.525824-0.125922 3.903591 4.029513 6.799803 4.785047-0.755534 14.481062-0.377767 28.962125-0.377767 43.443188 0 7.933104 0.629611 8.436793 8.310871 8.562715 3.525824 0.125922 7.051648-0.125922 10.451549 0.125922 9.192327-0.503689 9.192327-0.629611 9.318249-9.696016v-22.288244c0.251845-2.896212 0-5.666503 1.888834-8.059026z" fill="#A89209" p-id="4039"></path><path d="M424.922325 578.109198c6.673881-1.259223 8.436793 1.63699 8.310871 8.059026-0.377767 24.303-0.251845 48.606001-0.125923 72.909002 0 5.162814-0.251845 10.199705-2.644368 14.858829-4.659124-2.392523-5.288736-7.17757-6.925725-11.458928 0.503689-0.755534 1.133301-1.63699 0.881456-2.644368-4.533202-25.184456-0.503689-50.620758-1.762912-75.931136 0-2.140679 0.629611-4.155435 2.266601-5.792425z" fill="#B8A000" p-id="4040"></path><path d="M357.050215 465.156911c0.629611-6.170192-6.673881-7.429415-7.681259-12.592228 3.273979-2.014757 7.555337 0.377767 10.703394-2.266601 9.318249 1.133301 8.059026-6.547959 9.696015-11.710773v-0.125922c2.644368-1.511067 3.777668 0 4.659125 2.266601 2.77029 7.303492 2.77029 7.303492 8.184948 1.762912l6.799803 0.755534c-1.63699 4.029513-2.518446 7.681259 3.525824 8.688637 0.881456 0.125922 1.385145 1.133301 0.881456 2.140679l-4.155435 5.666503c-4.533202 7.17757 2.77029 5.414658 5.414658 7.303492l0.125922 2.392524c-0.755534 1.385145-1.888834 2.140679-3.399901 1.762912-10.199705-2.014757-20.525332-0.629611-30.850959-1.133301-3.022135-0.125922-6.04427 0-8.184949-2.392523 0.881456-2.266601 3.273979-1.007378 4.281358-2.518446z" fill="#6C5603" p-id="4041"></path><path d="M674.122522 582.390556c-13.347762-4.785047-13.347762-4.785047-13.851451-18.258731-0.125922-2.266601-0.377767-4.659124-0.503689-6.925726 0-2.896212 0.125922-5.666503 0.125922-8.562715 1.63699-2.014757 3.148057-3.903591 5.918347-1.511067 3.022135 1.259223 6.04427 2.266601 9.444171 2.140679 4.785047-0.251845 7.429415 2.392523 7.933104 7.051647 0.629611 7.17757 0.629611 14.481062 0 21.658633-0.629611 5.918347-4.40728 6.170192-9.066404 4.40728z" fill="#D9D7D7" p-id="4042"></path><path d="M660.145148 526.984752l-3.273979-0.125923c0.503689-9.94786 1.762912-19.895721 1.385145-29.717658-0.251845-5.918347 0-12.340384-3.903591-17.62912 0.503689-3.651746 3.525824-3.399902 5.918348-3.525824 9.821938-0.377767 19.643876-0.503689 29.465814 0 2.644368 0.125922 6.673881-0.251845 5.54058 4.785047-3.022135 2.014757-0.377767 4.281358-0.377767 6.422036 0 2.518446-0.503689 5.54058-2.266601 7.807182-7.17757-0.881456-14.229218-1.259223-21.406788-0.755534-8.436793 0.503689-8.81456 0.881456-8.940482 9.570094-0.125922 5.414658 0 10.703394 0 16.118052-0.251845 2.392523-0.125922 5.036891-2.140679 7.051648z" fill="#A28F08" p-id="4043"></path><path d="M695.277465 480.771274c-0.125922-2.014757-1.259223-2.77029-3.148057-2.77029-11.836695 0-23.547467 0-35.384161 0.125922-0.755534 0-1.511067 0.881456-2.266601 1.259223-4.533202-2.014757-4.910969-5.918347-3.777669-9.94786 1.385145-5.036891 6.04427-4.029513 9.821938-4.281358 4.281358-2.140679 8.562715 0.629611 12.844073 0.251845 6.673881-0.629611 13.095917-1.007378 19.014265-4.533203 0.377767 1.511067 0 3.148057 1.762912 4.155436 7.303492 4.155435 7.681259 10.199705 1.1333 15.740285z" fill="#C1A900" p-id="4044"></path><path d="M653.093501 662.60305c0.251845 1.888834 1.385145 2.77029 3.273979 2.77029 13.22184 0 26.443679 0 39.665519-0.125922 0.755534 0 1.511067-0.881456 2.266601-1.385145 2.392523 3.903591 0.629611 9.192327 4.155435 12.71815-1.385145 1.511067-3.148057 2.014757-5.036891 2.014757-14.103296 0.251845-28.206591 0.503689-42.183965-0.125923-1.888834-0.125922-3.777668-0.377767-5.036891-2.140679 1.133301-4.533202-2.392523-10.073783 2.896213-13.725528z" fill="#C1AB01" p-id="4045"></path><path d="M392.938065 475.60846c-1.888834 5.54058-0.881456 16.999508-3.525824 22.414167-5.162814-3.903591-11.081161-3.903591-17.251352-4.029513-5.54058-0.125922-11.333005 1.63699-16.495819-1.63699-4.155435-2.896212-1.133301-13.22184-3.27398-16.621741H392.938065z" fill="#A38F07" p-id="4046"></path><path d="M355.161381 530.006886l0.629611-37.776684c9.570093-0.125922 19.140187 0 28.584358-0.377767 4.910969-0.251845 3.525824 4.029513 5.162814 6.170192 0 3.148057 0 6.422036-0.125923 9.570093-1.133301 4.281358-0.755534 8.688637-0.251844 12.969995 0.251845 2.266601 0.755534 4.533202-0.881456 6.547959l-33.11756 2.896212z" fill="#B7B1AB" p-id="4047"></path><path d="M392.434376 480.897196c-0.251845-2.392523-1.888834-2.896212-4.029513-2.896212h-31.606493c-2.140679 0-3.651746 0.503689-4.029513 2.896212-4.533202-2.644368-6.799803-6.422036-5.162813-11.58485 1.511067-4.659124 5.666503-4.029513 9.318249-4.155435l-2.896213 2.518446c13.851451 1.259223 27.57698-1.007378 41.050664 1.762912 2.266601 4.533202 0.881456 8.310871-2.644368 11.458927z" fill="#BCA600" p-id="4048"></path><path d="M674.122522 582.390556c5.288736 0.755534 7.681259-1.133301 7.17757-6.925726-0.503689-5.792425-0.251845-11.710772-0.125922-17.503197 0.125922-5.54058-2.140679-8.436793-7.807182-8.059026-2.896212 0.125922-5.666503-0.251845-7.681259-2.644368l19.895721 2.014757c0.881456-0.377767 1.762912-0.251845 2.518445 0.377766 7.555337 6.296114 3.525824 15.362518 5.666503 22.917856-1.511067 5.792425-1.133301 11.710772-0.881456 17.629119-6.799803-1.007378-12.466306-5.414658-18.76242-7.807181z" fill="#BDB7B0" p-id="4049"></path><path d="M671.478154 492.230202c5.414658 0 10.703394 0 16.118052-0.125923 2.392523 0 4.029513 0.755534 5.162814 2.896213l-0.629612 33.621249c-7.555337 1.133301-14.984752 0.377767-22.288244-1.1333 9.192327-2.392523 10.451549-9.192327 9.570094-17.125431-0.125922-2.140679-0.125922-4.155435 0-6.296114 0.251845-4.533202-0.251845-8.436793-5.918348-9.192326-1.259223-0.377767-2.140679-1.259223-2.014756-2.644368z" fill="#C3C3C0" p-id="4050"></path><path d="M645.790008 694.08362c-3.148057-5.918347-2.518446-7.429415 2.896213-9.696015 6.799803-2.77029 13.347762-2.896212 20.39941-0.755534 5.162814 1.63699 10.703394 1.385145 15.740285-0.629612 7.17757-2.77029 17.377275 0 21.154943 5.540581 1.007378 1.511067 0.881456 3.148057 0.503689 4.785047l-60.69454 0.755533z" fill="#1C5DA3" p-id="4051"></path><path d="M692.381253 460.875553c-9.444171 10.073783-20.777177 6.673881-31.858338 4.40728-0.251845-3.525824-2.014757-6.170192-4.785046-8.31087 9.821938-6.170192 20.651254-5.666503 31.48057-4.40728 2.644368 0.251845 5.162814 1.888834 6.799803 4.40728l-1.636989 3.90359z" fill="#685203" p-id="4052"></path><path d="M706.484548 696.602066c0.503689 4.785047 0.377767 8.184948-6.170191 5.288736-5.918347-2.518446-12.340384-2.014757-18.510576 0-3.651746 1.259223-7.303492 2.014757-10.955239 0.503689-7.051648-3.022135-14.103296-2.896212-21.154943-0.377767-2.77029 1.007378-5.036891 1.63699-5.792425-2.266601 0.125922-1.511067-0.377767-3.148057 1.259223-4.281358 8.059026-2.896212 16.243974-4.029513 24.680767-1.259222 4.910969 1.63699 9.821938 0.755534 14.481063-0.629612 7.933104-2.392523 15.110674-0.503689 22.162321 3.022135z" fill="#27629F" p-id="4053"></path><path d="M401.752625 677.839646c3.273979 7.429415 2.77029 16.243974 2.140679 25.310379-6.547959-2.266601-19.140187-3.777668-25.814068-1.007379-3.903591 1.63699-7.681259 1.133301-11.58485-0.125922-6.799803-2.140679-15.614363-2.518446-22.540088 0-7.17757 1.007378-2.014757-22.666011-2.392524-25.436301l60.190851 1.259223z" fill="#2C6397" p-id="4054"></path><path d="M669.715242 454.07575c-4.910969 0-8.81456 4.40728-13.977373 2.896213-1.385145-0.503689-2.266601-1.63699-2.644368-2.896213-0.251845-5.792425 2.896212-10.199705 8.814559-9.444171 9.696016 1.259223 19.266109-0.503689 28.836203 1.007378 3.022135 0.377767 6.296114 1.007378 7.555337 4.281358 1.511067 3.903591-2.266601 5.036891-4.281358 7.17757v-0.125922l-24.303-2.896213z" fill="#7D2E0E" p-id="4055"></path><path d="M694.144165 457.097885c5.036891-7.303492 4.029513-9.696016-5.036892-9.821938-4.029513 0-8.688637-3.022135-12.340383 1.385145-3.651746-3.273979-8.184948-1.133301-12.214462-2.140679-5.54058-1.385145-10.199705 2.014757-11.458927 7.681259-2.392523-6.04427-0.503689-9.444171 5.036891-11.458927 5.288736-2.014757 11.836695-0.881456 15.866208-6.296114 0.881456-1.133301 2.644368-1.007378 3.777668 0.125922 3.903591 4.533202 9.318249 5.666503 14.858829 6.170192 3.651746 0.377767 6.547959 1.385145 6.925726 5.54058 0.251845 4.029513 0.251845 8.184948-5.414658 8.81456z" fill="#976C02" p-id="4056"></path><path d="M644.908552 696.476144c-0.377767 1.133301-0.629611 2.140679-1.007378 3.273979-0.503689-7.051648-1.007378-13.977373 0.125922-21.029021 0.377767 0.125922 0.881456 0.629611 1.259223 0.503689 13.725529-3.903591 27.702902 3.651746 41.554353-0.629611 6.673881-2.014757 13.473684-0.251845 19.392032 3.777668 0.629611 2.140679 0.377767 4.155435-0.377767 6.170192-7.555337-2.644368-14.481062-7.933104-23.421545-2.518446-4.155435 2.518446-10.325627 1.888834-14.984751-0.629611-7.681259-4.155435-14.606985-0.125922-21.53271 1.888834-2.896212 0.881456-2.266601 4.029513-0.125923 6.296114 1.133301 1.385145-0.377767 2.014757-0.881456 2.896213z" fill="#AEB1B6" p-id="4057"></path><path d="M404.396993 696.224299c-2.77029 0.377767-5.414658-0.125922-8.184948-0.755534-5.918347-1.259223-11.962617-1.888834-17.62912 0.881456-2.644368 1.259223-5.414658 1.63699-8.184948 0.881456-7.933104-2.392523-15.740285-3.651746-23.799312-0.629611-1.385145 0.503689-3.273979-0.125922-4.785046-0.251845v-3.022134c9.066404-3.903591 18.132809-5.792425 27.451057-0.377767 2.014757 1.133301 4.785047 1.133301 6.799804 0 8.436793-5.162814 16.873586-3.651746 25.310378-0.251845 1.385145 0.629611 2.140679-0.251845 3.022135-1.007378v4.533202z" fill="#A3B1C1" p-id="4058"></path><path d="M538.126457 354.093458c-1.007378 0-3.777668 2.014757-4.785047 2.014756-2.266601-0.125922-2.77029-1.888834-5.036891-2.014756-0.629611-0.125922-3.777668 0.251845-4.281358 0-1.511067-0.503689-9.318249 0-10.577471-1.133301-0.377767-0.503689 0.881456-7.17757 0.755533-7.807181 0.503689-2.644368 5.162814-4.785047 3.399902-6.925726 2.014757-2.266601 0.503689-4.281358-0.377767-6.422036-1.888834-4.281358-1.133301-7.807182 3.148057-10.199705 2.644368-1.511067 5.036891-2.266601 7.17757 1.133301 2.014757 3.399902 6.799803 6.04427 1.133301 10.325627-2.140679 1.511067-0.503689 3.273979 0.503689 4.910969-0.125922 2.014757-1.888834 4.155435 0.251844 5.792425 1.385145 1.133301 2.518446-0.251845 3.777669-1.133301 1.762912 4.155435-0.251845 8.562715 4.910969 11.458928z" fill="#B79301" p-id="4059"></path><path d="M706.358626 682.49877c-2.77029-0.377767-5.54058-0.125922-8.184948-1.511067-4.155435-2.266601-8.436793-1.888834-12.844073 0-5.414658 2.392523-11.58485 2.518446-17.12543 0.503689-6.547959-2.266601-12.718151-2.896212-18.888343 0.629611-3.903591 2.266601-5.414658 0.881456-5.414658-3.273979 1.511067-2.140679 3.903591-1.888834 6.04427-2.266601l52.257747 0.125922c3.903591 0.251845 5.792425 1.888834 4.155435 5.792425z" fill="#1F5E9B" p-id="4060"></path><path d="M341.687696 682.121003c9.066404-1.888834 18.006886-4.029513 27.451058-0.125922 3.777668 1.511067 8.688637 0.629611 13.095917-0.881456 3.399902-1.259223 7.303492-2.392523 10.955239-0.881456 2.518446 1.007378 6.799803 2.014757 5.792425 4.910969-1.259223 3.777668-4.155435 0.125922-6.170192-0.629611-2.518446-0.881456-5.288736-1.511067-7.555337-0.377767-8.059026 3.903591-15.866208 3.273979-24.051156 0.125922-3.399902-1.259223-7.681259-1.511067-11.333005 1.259223-2.266601 1.762912-5.162814 2.014757-8.059026 1.511067l-0.125923-4.910969z" fill="#ABB4BD" p-id="4061"></path><path d="M644.908552 696.476144l1.133301-3.022135c6.547959-3.399902 13.22184-3.777668 20.273487-1.888834 5.036891 1.385145 10.325627 2.896212 15.614363 0.503689 8.310871-3.777668 16.495819-0.251845 24.554845 1.259223v3.273979c-20.525332-1.888834-41.050664-2.014757-61.575996-0.125922z" fill="#A8B7C5" p-id="4062"></path><path d="M396.589812 538.317757c-7.17757-4.029513-1.888834-6.170192 1.1333-8.688637 0.629611-0.503689 1.133301-1.511067 1.63699-2.266602l4.40728 0.125923c-1.511067 5.288736 0.755534 10.451549 0.125922 15.740285l-7.303492-4.910969z" fill="#B7600D" p-id="4063"></path><path d="M388.153019 548.517462c1.007378 3.022135-0.251845 6.296114 1.385145 9.192326v0.125923c-0.377767 5.036891-1.762912 10.073783-0.503689 15.110674 0.755534 3.022135-1.385145 3.525824-3.525824 3.777668-3.399902 0.125922-4.40728-2.392523-4.659125-5.036891-0.503689-6.296114-0.755534-12.592228 0.125923-18.76242 0.503689-3.903591 2.392523-6.673881 7.17757-4.40728z" fill="#CFCAC7" p-id="4064"></path><path d="M369.768365 438.587309c0 1.133301 0 2.266601 0.251845 3.399902 1.385145 8.059026-1.133301 10.451549-9.821938 9.192327-2.644368-1.888834-4.281358-4.659124-6.04427-7.17757 4.155435-4.785047 10.955239-2.140679 15.614363-5.414659z m12.969995 3.777669c-1.007378 3.148057-1.259223 7.807182-5.918347 6.925725-3.651746-0.629611-4.785047-3.903591-3.777668-7.681259 0.755534-2.644368-1.385145-2.896212-3.27398-3.273979-0.125922-2.140679-0.251845-4.533202 2.518446-5.036891 1.888834-0.251845 2.896212 1.511067 3.148057 3.148057 0.755534 4.281358 6.04427 2.644368 7.303492 5.918347z" fill="#935308" p-id="4065"></path><path d="M349.368956 452.564683c-1.259223-4.40728 0.251845-7.303492 4.659124-8.688638 4.281358 0.503689 5.288736 3.777668 6.04427 7.17757l-10.703394 1.511068z" fill="#9E2C11" p-id="4066"></path><path d="M393.819521 454.07575c-0.755534-0.503689-1.511067-1.133301-2.266601-1.259223-2.392523-0.377767-5.162814 0.125922-6.044269-3.273979-0.881456-3.525824 1.762912-4.785047 3.90359-6.422036 4.533202 2.518446 8.562715 5.036891 4.40728 10.955238z" fill="#9D400E" p-id="4067"></path><path d="M533.215488 342.760453c-0.125922 1.888834 0.125922 3.903591-2.644368 4.029513-2.014757 0-3.777668-0.755534-4.281358-2.896213-0.629611-2.644368-0.755534-5.162814 2.896213-5.918347 1.385145 1.63699 2.644368 3.273979 4.029513 4.785047z m-15.488441-4.533203c6.170192 0.377767 4.785047 3.777668 2.896213 7.303493-2.896212 2.140679-5.162814 1.511067-7.051648-1.385145-0.377767-3.148057 2.140679-4.281358 4.155435-5.918348z" fill="#7B7E43" p-id="4068"></path><path d="M395.078744 467.045745c-2.77029-0.125922-5.54058-0.251845-8.436793-0.377767 0-3.022135 1.133301-5.162814 3.022135-6.799803-1.762912 4.910969 3.399902 4.910969 5.414658 7.17757z" fill="#BCA600" p-id="4069"></path><path d="M568.599649 627.470733c-3.273979-3.903591-6.170192-7.555337-11.836694-9.192327-6.296114-1.762912-5.54058-9.066404-7.68126-14.103295-0.629611-1.511067 1.888834-3.022135 3.399902-1.762912 4.785047 4.029513 13.725529 3.777668 13.599607 13.221839 0 2.77029 2.896212 6.170192 5.414658 5.162814 2.77029-1.007378 2.014757-5.162814 0.503689-7.303492-3.022135-4.281358-4.533202-7.933104-1.133301-12.718151 1.511067-2.140679-0.755534-4.533202-2.392523-6.04427-1.888834-1.762912-3.399902 0-4.785047 1.259223-2.644368 2.266601-6.04427 3.022135-8.184948 0.755534-2.140679-2.392523-0.125922-6.04427 1.385145-8.436793 1.762912-3.022135 4.910969 0 7.051648-0.251844 7.429415-0.503689 14.858829 0.755534 22.162321-0.125923 1.385145-0.125922 2.644368-1.385145 3.903591-1.259223 6.547959 0.125922 12.466306 4.40728 19.895721 0.629612 3.273979-1.63699 6.547959 3.903591 3.651746 8.436793-2.77029 4.281358-3.022135 8.059026 0.503689 11.962617 1.259223 1.259223 1.385145 3.148057 0.881456 4.659124-3.399902 10.451549-0.125922 21.029021-0.755534 31.354648-0.503689 7.681259-4.155435 15.740285-8.184948 22.540089-2.266601 3.651746-8.059026 5.162814-9.570093 10.325627-0.125922 0.377767-0.629611 0.881456-1.007379 1.007378-8.562715 0.881456-16.369897 6.547959-25.310378 3.777669-0.251845 0-0.377767-0.377767-0.629612-0.377767-11.836695 1.63699-17.377275-8.436793-25.562223-13.473684-1.133301-0.755534-3.022135-2.014757-2.896213-2.896213 1.133301-8.688637-4.533202-15.99213-4.407279-24.932612 0.125922-7.429415 2.014757-15.110674 0.125922-22.288244-0.881456-3.399902-1.133301-5.036891 1.888834-5.036891 3.525824 0 4.533202-6.799803 7.807182-3.525824 3.022135 2.896212-1.762912 5.54058-2.644368 8.436793-0.881456 2.896212-1.385145 6.04427 0.755533 8.688638 1.511067 1.888834 4.40728 2.266601 5.792425 1.259222l18.258731 0.251845m-21.53271 14.35514z" fill="#C29C04" p-id="4070"></path><path d="M513.823456 599.767831c-9.94786-5.792425-13.977373-14.858829-13.599606-25.814068 0.377767-10.577472 4.281358-19.392031 14.732907-24.303001 9.94786-4.785047 22.917855 0.125922 28.332513 10.703394 7.555337 14.732907 2.392523 32.613871-10.955238 39.413675-6.170192 2.392523-12.340384 3.148057-18.510576 0z" fill="#0358B7" p-id="4071"></path><path d="M488.135311 566.524348c-18.258731 0-48.354156 0.881456-48.102312-4.40728 0.377767-4.029513 2.518446-72.657157 9.570093-82.605017 3.777668-5.918347 43.820954-4.910969 48.857846 1.259223 2.896212 3.651746 16.495819 50.117068 0.881456 66.361043l-11.207083 19.392031z" fill="#6C5F03" p-id="4072"></path><path d="M503.371907 684.13576c-2.266601 3.651746-6.422036 3.525824-9.696016 5.414658-3.525824-0.629611-2.644368-3.399902-2.644368-5.54058v-86.508608c0-2.266601-0.629611-4.910969 2.896213-5.414658 8.940482 11.58485 7.051648 25.058534 7.051648 38.280373v47.724545c0.125922 2.392523-0.251845 4.785047 2.392523 6.04427z" fill="#C2AB00" p-id="4073"></path><path d="M516.467824 669.654697c-1.762912-2.77029-2.644368-5.792425-2.644368-9.192326 0-13.473684-0.251845-27.073291-0.251844-40.546975 0-2.644368-1.511067-6.422036 3.777668-6.422036 4.533202 0 6.422036 2.266601 6.296114 6.422036-0.251845 10.451549 0.755534 20.903099-0.629611 31.480571-0.251845 2.266601 0.251845 4.533202 0.377767 6.925725 1.385145 5.288736-1.385145 8.940482-4.910969 12.214461-0.755534-0.125922-1.511067-0.377767-2.014757-0.881456z" fill="#BAA401" p-id="4074"></path><path d="M589.62867 507.844565c-0.881456-0.881456-1.133301-1.888834-1.259222-3.022135-0.251845-6.04427-1.762912-12.088539 0.503689-18.132809 2.644368-2.014757 5.918347-3.273979 8.059026-5.918347 2.014757 3.148057 4.029513 4.533202 7.807181 1.888834 2.014757-1.385145 5.666503-3.273979 7.681259-0.881456 2.266601 2.644368 1.63699 6.422036-0.881455 8.940482-9.192327 9.066404-7.303492 18.76242-3.27398 29.465814 1.888834 5.036891-0.503689 9.821938-5.666503 12.718151-8.184948 4.533202-8.184948 4.533202-3.022134 12.088539 2.266601 3.273979 0.881456 5.666503-1.385145 8.059026-3.148057-3.525824-4.785047-7.807182-7.051648-11.836694-2.896212-5.036891 2.140679-7.17757 4.785046-10.073783-5.414658-1.63699-5.414658-1.63699-5.792424-5.666503l-0.50369-17.629119z" fill="#B57D95" p-id="4075"></path><path d="M589.754593 525.851451c1.762912 5.036891 7.429415 1.385145 10.451549 4.533202-2.266601 1.511067-4.40728 2.518446-6.170192 4.281358-2.518446 2.644368-3.148057 4.40728-0.377767 7.555337 2.644368 2.896212 4.533202 6.422036 4.533203 10.703394l-0.50369 9.444171c-4.659124 1.259223-7.429415-3.148057-11.333005-4.029513-2.140679-5.288736 3.399902-4.533202 5.54058-7.051648-2.392523-3.022135-10.325627 2.77029-9.318248-5.54058-1.385145-2.140679-1.007378-4.533202-0.629612-6.673881 1.63699-9.570093 1.511067-9.821938-8.059026-10.45155-0.377767-1.259223-0.881456-2.644368-1.259223-3.90359-1.63699-2.77029-4.155435-5.54058-1.1333-8.81456 3.651746-4.029513 8.310871-3.651746 12.969995-2.392524 4.029513 3.273979 5.666503 7.429415 5.288736 12.340384z" fill="#E073A4" p-id="4076"></path><path d="M589.62867 486.563699v18.132809c-5.918347 8.310871-9.192327 8.940482-18.258731 3.525824-2.140679-1.259223-4.40728-2.518446-6.799803-3.651747-2.392523-1.133301-3.651746-2.896212-1.511067-5.414658 2.392523-0.503689 5.54058 0.503689 6.799803-2.77029 1.385145-3.777668 4.533202-6.547959 6.04427-10.703394 1.133301-3.022135 7.303492-2.644368 11.333005-3.148057 1.63699 0.881456 3.273979 1.762912 2.392523 4.029513z" fill="#E46EA4" p-id="4077"></path><path d="M554.496354 507.59272l-0.251845 0.125922c-4.029513 0.503689-6.673881-1.511067-8.436793-4.910969-0.503689-1.007378-1.007378-2.77029-1.762912-2.77029-5.918347-0.629611-6.799803-2.014757-5.288736-8.688637 1.007378-4.40728-0.377767-6.673881 5.162814-5.288736 1.259223 0.251845 2.140679-0.503689 3.022135-1.385145 1.259223-1.259223 2.392523-3.273979 4.533202-1.63699 1.385145 1.133301 1.762912 3.022135 0.755534 4.40728-2.392523 3.777668 1.259223 5.918347 2.266601 8.688637v11.458928z" fill="#AA7488" p-id="4078"></path><path d="M580.940033 539.828824c-1.888834 0.503689-2.266601 1.888834-2.518446 3.651747-1.259223 10.451549-1.259223 10.451549-11.333005 7.681259-2.392523-0.377767-4.659124-1.511067-5.792425-3.651746-1.259223-2.644368-2.266601-5.918347 3.022135-4.785047 5.036891 2.644368 5.666503-0.377767 5.036891-4.155435-0.377767-2.77029-2.014757-5.918347 1.259223-7.555337 3.148057-1.63699 7.051648-2.014757 10.199705-0.503689 5.792425 2.644368 0.881456 6.170192 0.125922 9.318248z" fill="#E073A4" p-id="4079"></path><path d="M586.732458 483.541564c-3.148057-0.125922-5.288736 4.40728-8.940482 1.888834-0.629611-0.377767-1.511067 0.251845-1.259223 1.007379 1.888834 6.170192-3.525824 7.17757-6.673881 9.821938-1.385145-3.148057-4.785047-3.525824-7.17757-5.162814-1.511067-1.007378-3.022135-2.392523-2.392523-4.659124 0.503689-2.014757 2.392523-1.511067 4.029513-1.888835 7.303492-1.63699 15.110674-2.77029 16.999508-12.088539 1.63699 3.903591 3.777668 7.429415 5.414658 11.081161z" fill="#A96470" p-id="4080"></path><path d="M552.985286 523.081161c-0.503689 1.63699-0.881456 3.148057-1.259223 4.785047-0.881456 3.148057-1.762912 3.148057-4.785046 1.385145-5.792425-3.273979-5.414658-8.436793-5.540581-13.599607-0.125922-2.77029 2.518446-2.392523 4.155436-2.266601 3.022135 0.251845 6.04427 0.755534 8.940482 1.133301 0.881456 2.014757-0.503689 3.022135-1.762912 3.90359-2.896212 1.762912-1.259223 3.148057 0.251844 4.659125z" fill="#A67B8D" p-id="4081"></path><path d="M564.318292 542.725037c-3.903591 1.133301-3.273979 3.148057-0.881456 5.162813 1.259223 1.007378 3.525824 0.881456 3.651746 3.27398-3.777668 6.925726-2.77029 5.666503-8.688638 1.259223-6.04427-4.533202-1.007378-8.310871-1.511067-12.340384-0.125922-1.511067 1.888834-1.63699 3.399902-1.63699 3.022135 0 4.533202 1.259223 4.029513 4.281358z" fill="#AC6985" p-id="4082"></path><path d="M552.985286 523.081161c-1.888834-0.377767-4.659124 1.007378-5.288736-1.888834-0.503689-2.644368 1.762912-3.399902 3.903591-3.903591 1.385145-0.377767 2.266601-1.385145 2.896213-2.77029l1.259222-1.133301c3.525824 1.888834 6.925726-3.399902 10.703394-0.251844 0.881456 0.755534 3.022135 0 2.896213 2.014756-0.125922 1.511067-1.63699 2.014757-3.022135 2.266601-4.40728 0.755534-8.688637 1.762912-11.836694 5.414658l-1.511068 0.251845z" fill="#DB6C9F" p-id="4083"></path><path d="M554.496354 507.59272c-3.777668-2.896212-3.903591-8.562715-8.184949-11.207083-1.133301-0.755534-1.762912-1.63699-0.881456-2.77029 1.007378-1.385145 2.140679-0.629611 2.896213 0.125922 1.762912 1.888834 3.651746 2.77029 6.170192 2.392523 1.007378 1.511067 3.903591-0.251845 4.155435 2.392524 0 1.133301-0.251845 2.392523 0.251844 3.399901 0.755534 1.762912 3.525824 2.77029 1.762912 5.288736-1.762912 2.896212-4.029513 0.125922-6.170191 0.377767z" fill="#DD6C9F" p-id="4084"></path><path d="M586.480613 558.3394c5.036891-2.392523 7.17757 3.651746 11.333006 4.029513 0 2.140679-0.629611 5.162814-3.022135 3.903591-3.399902-1.63699-10.325627-0.503689-8.310871-7.933104z" fill="#8A5664" p-id="4085"></path><path d="M503.120062 418.691589c-0.503689-0.629611-0.755534-1.762912-1.888834-1.511068-0.629611 0.251845-0.377767 1.133301-0.377767 1.888835-3.903591 7.933104-10.451549 9.318249-18.384653 4.029513-2.518446-5.414658 1.63699-6.422036 5.162814-7.933104 2.140679-1.133301 4.029513-2.518446 4.281357-5.162814-0.881456-3.273979-3.525824-2.896212-5.918347-3.022134-1.63699-0.125922-3.777668 0.629611-3.777668-2.266602-0.755534-4.029513-5.666503-6.04427-4.281358-11.710772 0.881456-3.651746 1.762912-6.547959 4.281358-9.192326 8.562715-6.04427 18.636498-6.422036 28.584358-7.303493 5.162814 0.377767 4.533202 3.777668 3.399901 6.925726-1.133301 3.273979-1.259223 5.666503 2.266601 7.555337 5.792425 3.022135-2.266601 6.296114-0.125922 9.444171-0.251845 3.903591-3.651746 2.392523-5.666503 3.399901-2.644368 1.385145-6.547959 1.888834-4.281357 6.547959 3.525824 2.77029 7.681259 2.266601 11.836694 2.266601 3.022135 1.888834 2.140679 4.785047 2.140679 7.429415l-1.385145 1.511067-15.866208-2.896212z" fill="#A91617" p-id="4086"></path><path d="M534.726555 404.714215c-6.296114-2.896212-7.555337-7.807182-3.022135-13.347761 1.63699-2.140679 1.762912-4.281358 1.511068-6.547959-0.629611-5.54058 2.014757-7.17757 6.925725-6.547959 7.807182-1.007378 15.362518-0.629611 21.406788 5.414658 1.007378 2.392523 4.155435 0.629611 5.288736 2.896213 3.273979 13.851451 3.273979 13.851451-9.696015 21.154943-4.029513 2.266601-4.659124 4.533202-0.251845 6.925726l1.888834 0.755533c3.148057 1.259223 9.066404-0.377767 6.673881 6.547959-2.77029 5.918347-8.059026 4.281358-12.71815 4.029513-4.029513-0.251845-4.910969-3.525824-5.414658-6.925725-0.251845-0.755534-0.125922-2.140679-1.007379-2.140679-0.755534 0-1.007378 1.385145-1.636989 2.014756-0.377767 3.148057-3.651746 4.40728-4.659125 7.17757-5.918347 0.755534-10.073783-1.762912-12.844073-6.925725-1.007378-2.266601-0.881456-4.155435 1.63699-5.414658 0.881456-0.251845 1.762912-0.503689 2.77029-0.503689 2.77029-0.377767 6.296114 0.125922 7.429415-2.770291 1.259223-3.399902-3.525824-3.273979-4.281358-5.792425z" fill="#AA1718" p-id="4087"></path><path d="M429.203683 403.32907c-0.503689-3.399902 0.251845-7.429415 3.90359-9.821938 3.148057-4.659124 7.555337-5.666503 12.718151-4.659124 2.77029 0.503689 5.414658 0 8.184948-0.629612 6.673881-1.385145 12.844073-1.133301 15.99213 6.422037 0.503689 0.503689 1.511067 1.133301 1.385145 1.511067-1.762912 5.162814-1.007378 11.207083-5.414658 15.362519-3.148057 4.029513-1.63699 5.918347 3.022135 6.296114 1.63699 0.125922 3.273979-0.503689 4.910969 0.125922 3.399902 2.518446 3.525824 5.162814 0.503689 8.059026-5.54058 6.04427-6.925726 5.918347-17.12543-1.259223-2.014757 2.266601-0.125922 6.925726-4.281358 7.807182-2.77029 0.629611-4.910969-0.503689-6.925725-2.392524l-0.881456-2.896212c-9.696016-1.259223-11.710772-5.414658-14.606985-13.725529l-1.385145-10.199705z" fill="#AA1618" p-id="4088"></path><path d="M588.49537 427.128382c-7.17757 4.533202-10.703394 4.155435-15.740285-1.259223-1.259223-7.681259-1.133301-7.933104 5.792425-6.04427 2.266601 0.629611 3.273979-1.007378 4.910969-1.636989 0.503689-0.377767 1.133301-0.629611 1.636989-0.881456 3.273979-1.762912 1.133301-4.029513-0.251844-4.659125-6.04427-2.644368-7.17757-8.436793-9.570094-13.473684-0.125922-0.629611-0.251845-1.259223-0.251844-2.014756 0.251845-1.133301 1.133301-1.63699 1.888834-2.140679 2.77029-6.925726 8.184948-8.059026 14.606985-6.673881 2.77029 0.629611 5.414658 1.007378 8.184948 0.629611 6.170192-0.881456 11.710772 0.251845 15.110674 6.170192 4.40728 3.651746 2.518446 9.192327 4.155435 13.599606 0.377767 1.259223-9.821938 8.059026-11.458928 7.807182-1.63699-0.125922-3.273979-0.629611-4.785046-0.503689-2.392523 0.125922-4.910969 0.629611-5.666503 3.273979-0.629611 2.518446 2.014757 3.399902 3.022135 5.162814 1.133301 1.762912 5.414658 0.755534 4.281357 3.399901-1.007378 2.518446-3.525824 4.910969-7.051647 4.910969-2.392523 0-5.288736 1.133301-6.422037-2.518445-0.377767-1.133301-1.007378-2.140679-1.511067-3.148057 0-0.377767-0.125922-1.007378-0.377767-1.007379-0.503689 0-0.251845 0.629611-0.503689 1.007379z" fill="#A91617" p-id="4089"></path><path d="M565.703437 450.927693c7.807182 0.377767 9.192327 4.155435-1.511068 6.422036-8.436793 0-39.539597 2.266601-39.539596 2.266602-16.495819 0-43.695032-1.888834-45.457944-2.392524-8.940482-2.518446-10.577472-5.288736 5.288736-8.436793 7.303492-0.251845 22.791933-2.392523 40.169208-2.392523l41.050664 4.533202z" fill="#921B13" p-id="4090"></path><path d="M474.032015 377.263158c-0.629611-5.54058 3.525824-12.592228 9.066405-14.35514 8.562715-2.644368 17.377275-2.896212 26.191834-0.881456 3.525824 0.755534 5.162814 2.77029 5.666503 6.044269 0.629611 3.777668-0.125922 6.799803-4.029513 8.310871l-36.895229 0.881456z" fill="#F9C100" p-id="4091"></path><path d="M561.799846 383.559272c-6.925726-3.022135-14.229218-3.777668-21.406788-5.414658-1.133301-3.399902-6.422036-1.511067-7.051648-5.918347-0.629611-5.666503-1.385145-9.94786 6.673881-11.333006 10.829316-1.888834 20.39941-1.511067 28.584358 6.422037 3.525824 3.399902 5.666503 7.807182 3.777669 12.71815-2.014757 4.785047-6.799803 3.273979-10.577472 3.525824z m53.013281 11.458928c-4.533202-3.273979-9.821938-4.785047-15.110674-6.170192-3.273979-1.762912-7.051648-2.644368-10.703394-2.392523-5.918347 0.377767-7.429415-4.155435-5.918347-7.68126 1.385145-3.273979 0.629611-10.451549 8.31087-8.688637 6.296114 1.511067 12.592228 2.392523 18.888343 4.659124 6.422036 2.392523 9.066404 7.17757 10.451549 12.844073 0.881456 4.281358-0.755534 7.555337-5.918347 7.429415z m-168.987703-6.170192c-4.155435 1.762912-8.940482 1.762912-12.718151 4.659124-2.140679-0.125922-4.785047 2.644368-6.044269-0.629611s-1.63699-6.925726 0.881456-9.94786c4.659124-5.666503 9.94786-10.577472 18.006886-10.703394 2.014757 0 4.029513-0.881456 6.170192-1.259223 10.703394-2.014757 13.347762 1.133301 11.081161 12.214461-0.755534 3.399902-2.896212 3.022135-5.162814 3.148057-4.40728 0.125922-8.688637-0.503689-12.214461 2.518446z" fill="#F8BE00" p-id="4092"></path><path d="M527.423063 384.818495c-0.503689 2.518446-0.125922 5.666503-4.40728 5.666503-3.273979 0-4.029513-1.888834-3.525824-4.533203 0.503689-3.022135 0.755534-6.547959 4.785047-6.547958 3.148057 0 3.148057 2.896212 3.148057 5.414658z" fill="#AFAA83" p-id="4093"></path><path d="M532.459954 437.202164c-1.259223 6.422036-15.866208 6.422036-16.873586 0.125923 2.140679-9.066404 15.362518-6.547959 16.873586-0.125923z" fill="#A71716" p-id="4094"></path><path d="M551.600141 442.742745c-1.888834-4.155435-2.77029-3.148057 0-5.918348 4.281358-0.755534 10.325627-1.385145 12.466306 3.399902l-1.259223 2.266601c-3.651746 2.014757-7.429415 2.518446-11.207083 0.251845z" fill="#208856" p-id="4095"></path><path d="M500.979384 419.069356c-1.385145-1.133301-3.399902-2.014757-2.140679-4.40728 0.377767-0.629611 1.63699-1.133301 2.392523-1.007379 2.644368 0.755534 2.644368 2.77029 2.014757 4.91097l-2.266601 0.503689z" fill="#B87875" p-id="4096"></path><path d="M544.92626 418.691589c-0.503689-2.014757-1.007378-4.155435 1.007378-5.666503 0.377767-0.251845 1.385145 0 1.762912 0.251845 1.762912 1.888834 1.385145 3.777668-0.125922 5.54058l-2.644368-0.125922z" fill="#B6827B" p-id="4097"></path><path d="M523.771317 377.515002c-1.63699-0.125922-2.266601-1.259223-2.266601-2.77029 0-0.629611 0.125922-1.133301 0.503689-1.511067 0.377767-0.377767 0.881456-0.629611 1.511067-0.755534 1.385145-0.125922 2.77029 0.251845 2.77029 2.140679-0.125922 1.385145-1.133301 2.644368-2.518445 2.896212z" fill="#AFAA83" p-id="4098"></path><path d="M588.49537 427.128382c-1.385145-1.762912-2.140679-3.651746 0.377767-5.036892 0.503689-0.251845 1.888834 0.125922 2.392523 0.629612 1.63699 2.266601-1.007378 3.022135-1.762912 4.40728h-1.007378z" fill="#A26E6E" p-id="4099"></path><path d="M671.478154 492.230202c9.821938 0.251845 11.081161 6.296114 9.821938 14.229218-0.377767 3.022135 0 6.04427 0 9.066404 0 10.703394-0.755534 11.458928-11.458928 11.836694l-9.570093-0.503689v-24.554845c-0.125922-10.955239-0.125922-10.955239 11.207083-10.073782z" fill="#DADADA" p-id="4100"></path><path d="M688.099895 549.650762l-2.518445-0.377766c-0.503689-1.63699-1.259223-3.148057-3.022135-3.399902-7.051648-1.007378-3.651746-5.54058-2.77029-8.81456 1.133301-4.785047 4.40728-3.525824 7.555336-2.266601 2.644368 1.007378 4.40728 2.140679 2.896213 5.666503-1.133301 2.77029-1.385145 6.04427-2.140679 9.192326z" fill="#C19305" p-id="4101"></path><path d="M705.603092 546.75455c-0.125922 1.888834-0.125922 3.777668-0.503689 5.54058-0.377767 1.133301-1.133301 2.014757-2.014756 2.518446-0.503689 0.251845-2.392523-0.503689-2.266601-0.755534 0.125922-4.659124-7.051648-4.785047-6.170192-8.688637 0.755534-3.273979 5.036891-5.162814 8.562715-4.785047 2.77029 0.377767 3.525824 3.273979 2.392523 6.170192z" fill="#C08E05" p-id="4102"></path><path d="M644.278941 543.98426c-4.910969-1.888834-7.303492-5.792425-9.192327-10.073783-0.377767-0.881456 0.125922-1.888834 1.133301-2.140679 1.63699-0.503689 3.399902-0.377767 4.40728 1.133301 2.014757 3.022135 3.903591 5.414658 6.925725 0.881456 0.503689-0.755534 1.888834-0.629611 2.266601 0.503689 0.629611 2.392523-0.755534 4.533202-1.636989 6.547959-0.629611 1.63699-1.888834 3.148057-3.903591 3.148057z" fill="#BE8206" p-id="4103"></path><path d="M676.263201 532.147565c-1.385145 2.896212-3.777668 4.40728-3.525824 7.303493 0.125922 1.385145-0.125922 3.148057-2.014757 2.896212-1.385145-0.125922-1.888834-1.63699-2.266601-3.148057-1.259223-6.04427 0.629611-7.933104 7.807182-7.051648z" fill="#C08D06" p-id="4104"></path><path d="M656.115635 531.769798c2.896212 3.525824 3.525824 6.547959 1.511068 9.696016-0.125922 0.251845-1.511067 0.377767-1.762912 0.125922-2.266601-3.022135-1.762912-5.918347 0.251844-9.821938z" fill="#C08906" p-id="4105"></path><path d="M681.17417 651.144122c-5.414658 0.125922-10.829316 0.377767-16.118053 0.503689-3.022135 0.125922-4.910969-0.755534-4.910969-4.281357 0.125922-15.488441 0-30.976881 0-46.465323 0-1.888834 0.881456-3.022135 2.518446-3.777668 6.04427 1.888834 11.962617 4.029513 17.377275 7.429415l1.133301 46.591244z" fill="#DADADA" p-id="4106"></path><path d="M692.507175 640.944417c0 11.207083 0 11.207083-11.333005 10.199705-0.503689-15.488441 1.385145-31.102804-1.133301-46.591244 4.281358 1.007378 8.688637 1.762912 12.088539 4.785046l0.377767 31.606493z" fill="#C2C0BD" p-id="4107"></path><path d="M378.205158 651.144122c-21.029021 0.881456-21.029021 0.881456-21.029021-19.769798 0-7.429415-0.125922-14.858829-0.251844-22.288244 3.525824-3.777668 9.066404-3.022135 13.095917-5.666503 9.318249-1.511067 10.451549-0.755534 10.577472 8.310871 0.251845 10.577472 0.125922 21.154943 0 31.606492-0.125922 2.77029-0.125922 5.666503-2.392524 7.807182z" fill="#D9D9D9" p-id="4108"></path><path d="M366.872153 586.168224c-9.94786 2.644368-10.199705 2.392523-10.073783-8.31087v-18.132809c0-5.918347 2.140679-9.94786 8.688638-10.199705 14.858829-1.762912 15.110674-1.63699 14.858829 13.22184-0.125922 5.918347 1.762912 12.214461-2.014756 17.755042-3.903591 2.014757-7.681259 3.777668-11.458928 5.666502z" fill="#D7D5D5" p-id="4109"></path><path d="M378.205158 651.144122c0-13.22184-0.377767-26.443679 0.251845-39.665519 0.377767-6.925726-2.140679-9.192327-8.562715-8.184948 4.533202-2.014757 8.940482-4.785047 13.977373-5.666503 2.140679 1.888834 2.140679 4.533202 2.140679 7.17757v39.16183c0 2.644368 0 5.162814-2.014757 7.17757h-5.792425z" fill="#ACACAC" p-id="4110"></path><path d="M494.053658 443.120512c-3.651746-0.125922-6.296114 1.133301-10.577472-2.644368 3.022135-5.036891 8.436793-5.036891 12.088539-3.777669 1.511067 1.259223-0.755534 5.162814-1.511067 6.422037z" fill="#1A885C" p-id="4111"></path><path d="M364.227785 528.747664c-4.155435 0.125922-5.792425-1.762912-5.666503-5.918348 0.125922-8.184948 0.125922-16.369897 0-24.554845-0.125922-3.651746 1.385145-4.785047 4.910969-4.910969 14.858829-0.881456 14.858829-0.881456 14.85883 13.851451 0 2.518446-0.251845 5.162814 0 7.681259 0.881456 6.04427-1.133301 10.325627-7.051648 12.466306-2.140679 1.63699-4.659124 1.385145-7.051648 1.385146z" fill="#D9D9D9" p-id="4112"></path><path d="M354.531769 535.1697c2.014757-0.125922 3.777668 0.629611 4.785047 2.266601 1.259223 2.014757 0.251845 3.525824-1.259223 4.910969-0.755534 0.629611-1.511067 1.133301-2.014756 1.888834-1.259223 1.762912 0.881456 6.673881-3.525824 5.162814-4.029513-1.385145-4.659124-6.422036-4.785047-10.199705 0-3.399902 4.281358-3.148057 6.799803-4.029513z" fill="#C08D06" p-id="4113"></path><path d="M389.034475 529.880964c1.762912 4.785047-1.259223 8.310871-3.525824 11.962617-1.259223 2.014757-3.273979 3.022135-5.162814 0.755534-2.266601-2.644368-5.162814-5.666503-4.029513-9.066405 1.259223-3.525824 3.525824-0.629611 5.414658 0.629612 4.910969 2.896212 3.903591-4.281358 7.303493-4.281358z" fill="#B8700E" p-id="4114"></path><path d="M373.294189 545.11756c-2.392523 0.881456-4.659124 1.007378-6.547958 0.125923-4.281358-1.888834-4.029513-5.918347-3.777669-9.696016 0-1.385145-0.251845-3.399902 1.511068-3.525824 4.029513-0.125922 2.77029 4.155435 4.533202 6.044269 1.63699 2.140679 2.77029 4.659124 4.281357 7.051648z" fill="#BC7B08" p-id="4115"></path><path d="M423.411258 469.564191c0.503689-3.525824 3.273979-2.77029 5.414658-2.77029 29.088047 0 58.302017 0 87.390064-0.125923 4.659124 0 5.918347 1.63699 5.918347 6.170192-0.125922 20.021643-0.125922 39.917364 0 59.939007 0 3.399902-0.503689 5.288736-4.533202 6.296114-5.792425 1.511067-11.207083 4.40728-16.747664 6.673881-3.651746 0.251845-5.666503-0.755534-5.54058-5.036892 0.251845-9.066404-0.125922-18.132809 2.392523-27.07329 1.259223-4.659124 2.644368-10.325627-3.651746-14.229218-3.022135-1.888834 3.022135-5.288736 1.259223-8.562715-1.888834-2.77029-4.910969-2.140679-7.681259-2.518446-3.399902-0.503689-6.170192-0.881456-5.918348-5.792425 0.377767-5.918347-4.659124-6.296114-8.814559-6.422036-4.40728-0.125922-7.17757 1.63699-6.547959 6.67388 0.251845 1.63699-0.377767 3.399902-1.762912 4.40728-4.029513 2.266601-8.940482-0.881456-12.844073 2.266601-0.125922 2.266601-0.503689 4.659124 0.629612 6.925726 1.259223 2.518446-0.125922 3.273979-2.140679 4.659124-4.281358 3.022135-5.918347 8.184948-2.518446 12.08854 4.40728 5.162814 3.903591 10.703394 3.903591 16.369896 0 5.414658 0 10.703394-0.125922 16.118052-9.696016-1.259223-6.296114 5.918347-6.925726 10.577472-0.755534 5.54058 2.014757 6.925726 6.925726 6.547959 4.659124-0.377767 9.318249-0.125922 14.103295-0.125922 6.296114 2.896212 12.844073 0.755534 19.266109 1.385145 2.644368 0.251845 5.918347-1.007378 6.296115 3.525824 0.377767 3.903591-1.259223 6.422036-4.910969 7.303492-3.777668 1.007378-7.681259 1.888834-11.710773 1.888834-14.35514-0.125922-28.584358-0.251845-42.939498 0.125922-6.04427 0.125922-8.436793-1.762912-8.184948-8.059026 0.377767-12.466306 0.125922-24.80669 0-37.272995-0.125922-20.651254 0-41.302509 0-61.953763z" fill="#AB1418" p-id="4116"></path><path d="M456.402896 657.062469l-0.629612-78.827348c9.570093 1.007378 9.821938 1.385145 9.947861 10.451549V687.031972c0 2.266601-0.881456 3.525824-3.27398 3.651747-2.77029 0.125922-3.651746-1.385145-3.651746-3.903591 0-7.933104 0-15.99213-0.125922-23.925234-0.125922-2.014757 1.133301-4.910969-2.266601-5.792425z" fill="#9E1616" p-id="4117"></path><path d="M489.646378 690.809641l-2.77029 1.511067c-7.681259 0.881456-7.681259 0.881456-7.681259-6.296114v-99.982292c0-2.77029-0.251845-5.666503 2.014756-7.933104 5.414658-1.007378 7.303492 1.007378 7.303493 6.673881-0.251845 31.606493-0.125922 63.212986-0.125923 94.819479-0.251845 3.903591 0.125922 7.555337 1.259223 11.207083z" fill="#9F2014" p-id="4118"></path><path d="M451.617849 687.913428c-3.022135-1.63699-4.40728-3.903591-4.40728-7.681259 0.251845-31.102804 0.125922-62.205607 0.125922-93.434333 0-1.133301 0-2.392523 0.125923-3.525824 0.125922-2.140679 1.259223-3.777668 3.525824-3.525824 2.266601 0.125922 2.014757 2.140679 2.014756 3.777668 0 5.666503-0.377767 11.333005 0.125922 16.873586 1.259223 15.866208-0.125922 31.606493-0.125922 47.472701 0 3.273979 0 6.547959 2.77029 8.940482 0 8.81456-0.125922 17.755042 0 26.569601 0 3.148057-0.377767 5.414658-4.155435 4.533202z" fill="#C4AC00" p-id="4119"></path><path d="M466.476678 561.235612c0.125922-1.63699 0.125922-3.273979 0.377767-4.910969 0.629611-3.273979-1.762912-8.310871 3.903591-8.814559 6.673881-0.629611 9.066404 2.140679 9.318249 9.570093 0 1.385145 0.251845 2.77029 0.377767 4.155435-4.659124 1.888834-9.318249 2.266601-13.977374 0z" fill="#133CC3" p-id="4120"></path><path d="M468.743279 692.068864c0-35.636006-0.125922-71.14609-0.125922-106.782096 0-3.148057-0.251845-6.170192 4.533202-6.044269 4.40728 0.125922 3.903591 3.148057 3.903591 5.918347 0 36.013773 0 72.153468-0.125922 108.167241-1.259223 0.251845-2.644368 0.377767-3.903591 0.629611l-4.281358-1.888834z" fill="#C3AF00" p-id="4121"></path><path d="M527.80083 690.431874c2.518446 6.170192 5.414658 1.133301 8.184948 0.251845 3.273979 0.125922 6.673881-0.125922 9.821938 0.503689s3.651746 2.77029 1.007378 4.910969c-2.014757 1.63699-4.533202 2.77029-7.051647 2.896212-5.288736 0-11.207083-2.518446-14.984752 4.029513-0.629611 1.007378-2.266601-3.651746-2.896213-5.036891-0.629611-0.881456-5.918347 2.896212-13.221839 2.77029-3.148057-0.881456-6.547959-6.673881-0.629612-9.192326 3.022135-0.251845 15.614363 2.140679 15.236597-0.881456 1.511067-1.133301 3.022135-1.259223 4.533202-0.251845z" fill="#2A6254" p-id="4122"></path><path d="M519.238115 353.967536c-2.014757-5.792425 2.896212-4.659124 5.54058-5.540581 0.503689 0 0.881456 0.125922 1.385145 0.125923 3.022135 3.273979 3.399902 5.666503-2.140679 5.666502-1.511067-0.125922-3.148057-0.251845-4.785046-0.251844z" fill="#1F62A4" p-id="4123"></path><path d="M445.06989 411.514019c0.629611 0 1.385145-0.125922 2.014757-0.125923 2.644368 0.251845 6.799803-0.755534 6.925725 2.644368 0.125922 3.022135-1.007378 7.429415-6.044269 7.555337-3.022135 0-5.666503-0.881456-6.673881-4.029513-1.259223-3.399902 2.392523-4.029513 3.777668-6.044269z" fill="#A68503" p-id="4124"></path><path d="M572.881007 644.218396c-0.125922 2.140679 0 4.281358-1.385145 6.170192-2.896212 3.777668-2.644368 7.681259 0 11.58485 1.259223 1.888834 1.259223 3.903591 1.259223 6.04427 0 2.140679 0.125922 4.40728-2.266602 5.414658-2.140679 0.881456-4.281358 0.503689-5.666502-1.385145-2.014757-2.518446-4.910969-3.525824-7.681259-4.533202-2.266601-0.881456-5.288736-0.755534-5.540581-4.281358-0.251845-3.777668 0.755534-7.807182 4.155435-8.940482 6.04427-2.014757 10.073783-4.785047 11.333006-11.458928 0.251845-1.385145 2.140679-4.155435 4.533202-3.399901 2.140679 0.629611 0.881456 3.148057 1.259223 4.785046z" fill="#AC1E16" p-id="4125"></path><path d="M579.68081 639.307427c4.910969 2.140679 1.385145 8.81456 5.288736 11.207084 3.777668 2.140679 8.688637 2.392523 11.710772 5.918347 3.399902 4.029513 1.888834 9.696016-3.148057 11.081161-3.148057 0.881456-6.170192 2.140679-8.81456 4.029513-4.785047 3.273979-8.940482 1.385145-7.17757-3.399902 3.777668-9.696016 0.377767-19.014265 1.385145-28.458436-0.125922-0.125922 0.251845-0.125922 0.755534-0.377767z" fill="#AC1D16" p-id="4126"></path><path d="M580.940033 626.337432c2.266601-3.273979 4.910969-6.170192 8.81456-7.555337 4.155435-1.511067 7.429415-3.903591 7.303492-9.066404-0.125922-2.392523 1.762912-3.777668 3.148057-5.288736 1.385145-1.63699 2.644368-4.910969 5.162814-3.273979 2.266601 1.385145-0.629611 3.651746-0.881456 5.54058-0.629611 3.903591-1.63699 7.807182 1.762912 11.081161 2.140679 2.014757 1.133301 4.40728-0.251845 6.296114-1.259223 2.014757-3.777668 4.533202-5.54058 3.148057-6.673881-5.288736-12.844073-0.377767-19.26611 0.125923l-0.503689-0.377767 0.251845-0.629612z" fill="#AC1F16" p-id="4127"></path><path d="M600.457987 595.738318c-2.140679 4.659124-4.281358 9.066404-9.444172 10.703394-4.40728 1.385145-7.17757 3.777668-7.303492 8.940482 0 2.518446-1.762912 5.54058-4.910969 4.281357-2.518446-1.007378-2.266601-4.155435-0.881456-6.170191 2.896212-4.155435 2.140679-8.184948 0.755534-12.592229-1.385145-4.281358 2.140679-7.555337 5.792425-5.288736 5.54058 3.399902 10.325627 2.266601 15.99213 0.125923z" fill="#AD2016" p-id="4128"></path><path d="M550.718685 633.263158c6.04427 1.63699 11.962617 1.511067 17.880964-0.251845l-0.125922-0.125922c-1.385145 2.77029-3.399902 5.414658-6.170192 6.422036-5.54058 2.266601-9.444171 5.162814-10.073782 11.710773-0.251845 2.014757-2.77029 4.785047-5.792425 3.651746-2.896212-1.007378-2.140679-3.903591-1.511068-6.04427 0.755534-2.644368 2.014757-5.288736-0.125922-7.933103l5.918347-7.429415z" fill="#AC1F16" p-id="4129"></path><path d="M606.628178 637.79636c-3.525824 4.659124-3.525824 9.94786-1.762911 15.488441 0.377767 1.133301-1.007378 2.014757-2.266602 2.140679-2.77029 0.125922-5.162814-1.511067-5.162813-3.651747-0.125922-7.681259-4.533202-11.081161-10.955239-13.221839-1.63699-0.629611-3.903591-2.140679-3.022134-4.029513 1.007378-2.518446 3.148057-0.377767 4.785046-0.125923 3.777668 0.629611 7.303492-0.377767 11.081161-1.1333 3.148057-0.881456 6.673881-0.503689 7.303492 4.533202z" fill="#AD2116" p-id="4130"></path><path d="M580.940033 626.337432c0 0.377767 0.125922 0.755534 0.377767 1.007379-0.881456 9.066404-3.777668 10.325627-12.718151 5.54058l0.125923 0.125922v-5.666502l-0.125923 0.125922c3.777668-3.777668 7.681259-5.792425 12.340384-1.133301z" fill="#368F52" p-id="4131"></path><path d="M462.824932 520.562715c1.511067 2.77029 3.273979 5.288736 3.399902 8.81456 0.125922 4.659124-1.385145 6.925726-6.170192 6.799803-7.303492-1.511067-3.651746-7.17757-4.029513-11.207083-0.377767-4.785047 3.399902-4.659124 6.799803-4.40728z" fill="#173A9F" p-id="4132"></path><path d="M486.876088 536.051156l-5.288736-0.503689c-0.125922-2.77029-0.377767-5.54058-0.503689-8.310871-0.125922-3.022135 0.629611-5.666503 4.40728-5.792425 3.273979-0.251845 5.918347 1.762912 6.044269 4.533202 0.125922 3.777668 0.881456 8.688637-4.659124 10.073783z" fill="#0B34AB" p-id="4133"></path><path d="M488.135311 510.111166c-2.896212 0-3.777668-2.140679-3.777669-4.155436 0-2.140679-0.125922-5.162814 2.518446-5.666502 3.022135-0.503689 4.40728 2.014757 4.910969 4.785046 0.503689 2.896212-1.385145 4.155435-3.651746 5.036892z" fill="#9F8D00" p-id="4134"></path><path d="M457.032507 499.659616c2.518446 0.755534 3.903591 2.140679 4.281358 4.40728 0.251845 2.014757 0.629611 4.40728-2.392524 4.785047-2.518446 0.377767-3.022135-1.63699-3.022134-3.525824 0-1.888834-0.503689-4.029513 1.1333-5.666503z" fill="#A08F00" p-id="4135"></path><path d="M472.520948 503.311363c1.63699 0 2.896212 0.629611 2.896212 2.266601 0 1.762912-0.629611 4.029513-2.77029 4.029513-1.762912 0-2.266601-2.014757-2.518446-3.651747-0.251845-1.63699 0.755534-2.518446 2.392524-2.644367z" fill="#AC9900" p-id="4136"></path><path d="M535.230244 559.724545c1.007378 0.881456 2.266601 1.511067 2.644368 2.392523 1.511067 3.022135 4.910969 7.303492 3.903591 9.066405-1.63699 2.77029-3.777668 5.162814-4.40728 8.562715-0.125922 0.503689-2.140679 1.259223-3.022135 1.007378-5.54058-1.133301-5.288736-7.051648-6.044269-10.451549-0.755534-3.273979 3.273979-7.555337 6.925725-10.577472z" fill="#918D1A" p-id="4137"></path><path d="M525.03054 577.983276c2.896212 1.888834 3.399902 5.918347 5.036891 8.688637 2.392523 4.155435-2.518446 8.059026-4.533202 11.962617-0.881456 1.762912-4.659124 0.503689-5.162814-1.511067-0.881456-3.903591-6.170192-8.184948-0.251844-12.214462 1.762912-1.133301 1.762912-2.518446 2.014756-4.155435 0.125922-1.259223 0.503689-2.644368 2.896213-2.77029z" fill="#888313" p-id="4138"></path><path d="M520.497337 556.072799c0 8.059026-0.125922 19.266109-6.296114 18.76242-3.022135-0.251845-2.644368-3.777668-3.903591-4.785047-7.555337-6.422036 6.296114-19.895721 10.199705-13.977373z" fill="#647134" p-id="4139"></path><path d="M535.104322 687.157895c-2.140679 2.644368-11.58485 2.392523-17.880964 1.636989-3.525824-0.503689-4.533202-8.184948-1.007378-9.318248 8.436793-2.77029 8.436793-2.77029 18.006886-1.63699 1.259223 3.903591 3.022135 5.54058 0.881456 9.318249z" fill="#D5B37B" p-id="4140"></path><path d="M522.386172 688.165273c-0.755534-3.903591-0.755534-7.807182 1.007378-11.458928 2.392523-0.629611 2.77029 1.63699 4.029513 2.644368 2.77029 3.525824 1.259223 7.303492 0.377767 10.955239l-4.533202 0.251844-0.881456-2.392523z" fill="#822C23" p-id="4141"></path><path d="M585.473235 514.644368c2.392523-1.762912 2.518446-4.910969 4.155435-7.17757 4.910969-1.511067 4.910969-5.036891 3.777669-8.940482-0.755534-2.518446-1.511067-5.036891-0.251845-7.555337 1.133301-2.266601 3.148057-3.777668 5.666503-3.022135 2.896212 0.881456 1.888834 3.148057 1.385145 5.288736-1.385145 6.925726-0.881456 13.851451 0.377767 20.903099 2.266601 12.214461 0.629611 13.725529-10.955239 11.710772-1.63699-3.651746-3.525824-7.051648-4.155435-11.207083z" fill="#D6D3D4" p-id="4142"></path><path d="M573.636541 415.165765c-0.755534 0-1.385145-0.125922-2.140679-0.125922-3.651746 0.125922-6.799803-0.377767-6.170192-5.162814 0.377767-3.022135 3.022135-4.029513 5.162813-2.896212 2.77029 1.511067 7.681259 2.77029 4.40728 8.059026-0.377767 0-0.881456 0-1.259222 0.125922z" fill="#AF8D03" p-id="4143"></path><path d="M519.364037 410.254796c0-0.881456 0.125922-1.762912 0.125922-2.644368 1.888834 0 3.903591-2.392523 5.792425-0.125922 0.881456 1.007378 0.755534 2.140679-0.251844 3.148057-2.014757 2.014757-3.903591 0.629611-5.666503-0.377767z" fill="#A91617" p-id="4144"></path></svg>