<?xml version="1.0" standalone="no"?><!DOCTYPE svg PUBLIC "-//W3C//DTD SVG 1.1//EN" "http://www.w3.org/Graphics/SVG/1.1/DTD/svg11.dtd"><svg t="1530104170225" class="icon" style="" viewBox="0 0 1536 1024" version="1.1" xmlns="http://www.w3.org/2000/svg" p-id="2825" xmlns:xlink="http://www.w3.org/1999/xlink" width="300" height="200"><defs><style type="text/css"></style></defs><path d="M14.628571 21.942857h1462.857143v972.8H14.628571z" fill="#01247D" p-id="2826"></path><path d="M1477.485714 365.714286h-585.142857V21.942857h-292.571428V365.714286h-585.142858v292.571428h585.142858v343.771429h292.571428V658.285714h585.142857z" fill="#FFFFFF" p-id="2827"></path><path d="M1477.485714 885.028571L175.542857 21.942857H14.628571v117.028572l1287.314286 863.085714h175.542857z" fill="#FFFFFF" p-id="2828"></path><path d="M14.628571 885.028571L1309.257143 21.942857h168.228571v117.028572L182.857143 1002.057143H14.628571z" fill="#FFFFFF" p-id="2829"></path><path d="M1477.485714 424.228571h-650.971428V21.942857H658.285714v402.285714H14.628571v175.542858H658.285714v402.285714h168.228572V599.771429h650.971428z" fill="#CF142B" p-id="2830"></path><path d="M1477.485714 994.742857v-73.142857L1082.514286 658.285714h-117.028572zM1477.485714 21.942857h-117.028571l-468.114286 314.514286V365.714286h65.828572zM519.314286 658.285714L14.628571 994.742857v7.314286h109.714286l475.428572-314.514286V658.285714zM14.628571 21.942857v80.457143L409.6 365.714286h117.028571z" fill="#CF142B" p-id="2831"></path></svg>