<?xml version="1.0" standalone="no"?><!DOCTYPE svg PUBLIC "-//W3C//DTD SVG 1.1//EN" "http://www.w3.org/Graphics/SVG/1.1/DTD/svg11.dtd"><svg t="1530103934971" class="icon" style="" viewBox="0 0 1560 1024" version="1.1" xmlns="http://www.w3.org/2000/svg" p-id="2390" xmlns:xlink="http://www.w3.org/1999/xlink" width="304.6875" height="200"><defs><style type="text/css"></style></defs><path d="M1416.533333 0H141.409524C63.390476 0 0 63.390476 0 138.971429v746.057142C0 960.609524 63.390476 1024 141.409524 1024h1277.561905c78.019048 0 141.409524-60.952381 141.409523-138.971429V138.971429C1560.380952 63.390476 1496.990476 0 1416.533333 0z" fill="#FFFFFF" p-id="2391"></path><path d="M1416.533333 0H780.190476v512h780.190476V138.971429C1560.380952 63.390476 1496.990476 0 1416.533333 0z" fill="#CF1033" p-id="2392"></path><path d="M0 512v373.028571C0 960.609524 63.390476 1024 141.409524 1024H780.190476V512H0zM392.533333 119.466667l31.695238 102.4h109.714286l-87.771428 63.390476 34.133333 104.838095-87.771429-65.828571-87.771428 65.828571 31.695238-104.838095-87.771429-63.390476h109.714286z" fill="#0063C0" p-id="2393"></path><path d="M1170.285714 594.895238l34.133334 102.4h107.27619l-87.771428 63.390476 34.133333 104.838096-87.771429-65.828572-87.771428 65.828572 34.133333-104.838096-87.771429-63.390476h107.276191z" fill="#CF1033" p-id="2394"></path></svg>