<?xml version="1.0" standalone="no"?><!DOCTYPE svg PUBLIC "-//W3C//DTD SVG 1.1//EN" "http://www.w3.org/Graphics/SVG/1.1/DTD/svg11.dtd"><svg t="1529997903703" class="icon" style="" viewBox="0 0 1543 1024" version="1.1" xmlns="http://www.w3.org/2000/svg" p-id="1396" xmlns:xlink="http://www.w3.org/1999/xlink" width="301.3671875" height="200"><defs><style type="text/css"></style></defs><path d="M8.762836 1017.740831h1513.466993V11.266504H8.762836v1006.474327z m1515.97066 3.755502v-3.755502 3.755502zM2.503667 1024V5.007335h1525.985331v1018.992665H2.503667z" fill="#353636" p-id="1397"></path><path d="M5.007335 7.511002h1519.726161v1012.733497H5.007335z" fill="#009945" p-id="1398"></path><path d="M604.635697 326.728606h-2.503668l-7.511002 10.01467-3.755501 13.770171 6.259168 8.762837 10.01467-2.503668 7.511003-13.770171-7.511003 6.259169-7.511002 1.251833-2.503668-7.511002 7.511003-16.273839zM413.105134 271.647922v15.022005l-2.503667 6.259168c3.755501-6.259169 7.511002-12.518337 8.762836-18.777506l-2.503667-12.518337-7.511003 2.503667-3.755501 7.511003h7.511002z m195.286064 10.01467l3.755501-5.007335-1.251833 10.01467h-1.251834l-1.251834-5.007335z m3.755501 20.02934c-8.762836 13.770171-22.533007 22.533007-36.303178 30.044009l-12.518338 3.755502v-2.503668l10.01467-7.511002c11.266504-8.762836 22.533007-17.525672 31.295844-30.04401-6.259169-5.007335-6.259169-13.770171-3.755501-20.02934l8.762836-10.01467 11.266503 1.251834 2.503668 12.518337-3.755501 12.518338 1.251833 6.259168-8.762836 3.755502z m-130.190709-20.02934l8.762836-3.755502 3.755502 3.755502h5.007335l3.755501-6.259169-2.503668-6.259169-5.007335 7.511003-3.755501-11.266504h-1.251834l-6.259168 10.01467h-3.755502l-1.251833-8.762836-1.251834-2.503668h-1.251834l-1.251833 10.01467 6.259168 7.511003z m-77.613692 88.880195l-10.01467-7.511002c-7.511002-13.770171-10.01467-30.04401-10.01467-45.066015 0-7.511002 1.251834-13.770171 3.755502-21.281173h2.503667v20.029339c1.251834 10.01467 2.503667 18.777506 5.007335 27.540343l6.259169 7.511002 5.007335-3.755501c5.007335-11.266504 3.755501-22.533007 6.259168-33.799511 2.503667-7.511002 5.007335-13.770171 10.01467-20.02934l8.762837-7.511002 6.259168 5.007335-1.251833 11.266503-3.755502 16.273839 1.251834 13.770171 1.251834 5.007335 7.511002 12.518337 7.511003 2.503668c-1.251834-8.762836-1.251834-16.273839-2.503668-23.784841-1.251834-7.511002-1.251834-15.022005-1.251834-22.533007-1.251834-7.511002-3.755501-13.770171-3.755501-20.02934V275.403423l6.259169-10.01467 6.259169 7.511003c3.755501 6.259169 7.511002 13.770171 7.511002 21.281173l-5.007335 5.007335 3.755501 37.555012 1.251834 7.511003v6.259168l10.01467-17.525672c-1.251834-8.762836-3.755501-18.777506-5.007335-27.540342-2.503667-7.511002-1.251834-15.022005 1.251834-21.281174l2.503667-1.251834c7.511002 6.259169 11.266504 16.273839 8.762836 25.036675-1.251834 10.01467 1.251834 18.777506 3.755502 28.792176l6.259168 10.01467 13.770172 2.503668 3.755501-6.259169c-1.251834-11.266504-5.007335-23.784841-8.762836-35.051345l-3.755502-12.518337 3.755502-6.259169 6.259168-6.259169 8.762836 8.762837 5.007335 7.511002v6.259169l-6.259168 1.251834c2.503667 10.01467 5.007335 18.777506 6.259168 28.792176 0 7.511002 1.251834 16.273839-3.755501 22.533007l-15.022005 10.01467-17.525672-5.007335-5.007335-12.518338h-1.251834l-3.755501 7.511003-7.511002 10.01467c0 8.762836 1.251834 17.525672 1.251833 26.288508 0 12.518337 2.503667 25.036675 1.251834 38.806846l-5.007335 12.518338h-1.251834l-1.251833-17.525673-1.251834-13.770171c-1.251834-12.518337-3.755501-26.288509-5.007335-40.058679-7.511002 0-15.022005-2.503667-20.02934-8.762837-6.259169-8.762836-7.511002-20.02934-7.511002-31.295843l1.251833-15.022005v-8.762836h-1.251833l-6.259169 20.02934-1.251834 8.762836c-1.251834 8.762836-2.503667 16.273839-7.511002 23.784841l-7.511003 7.511002z m737.330074-7.511002c-2.503667-21.281174-6.259169-41.310513-5.007335-62.591687l6.259168 2.503667-1.251833-7.511002-11.266504-26.288509-3.755501-6.259168-3.755501 2.503667-7.511003 10.01467 1.251834 11.266504c1.251834 8.762836 2.503667 18.777506 3.755501 27.540342l1.251834 11.266504 1.251834 15.022005c3.755501 27.540342 6.259169 56.332518 8.762836 85.124694 1.251834 13.770171 1.251834 28.792176-3.755502 41.310513-3.755501 11.266504-12.518337 21.281174-21.281173 28.792176-7.511002 6.259169-15.022005 11.266504-22.533007 16.273839l-6.259169 6.259169 17.525672-2.503668c12.518337-2.503667 25.036675-10.01467 32.547677-20.02934 7.511002-10.01467 12.518337-21.281174 15.022005-33.799511 2.503667-11.266504 2.503667-23.784841 2.503668-35.051344 0-20.02934-1.251834-42.562347-3.755501-63.843521z m-93.887531 145.212714l3.755501-11.266504v-2.503667l-13.770171-1.251834-2.503667 6.259169 6.259168 5.007335-8.762836 12.518337 6.259169 2.503667 16.273839-7.511002v-5.007335l-7.511003 1.251834z m-22.533007 246.611247c-7.511002 1.251834-16.273839 0-23.784841 0l-6.259169-3.755502-5.007335 2.503668v2.503667c-7.511002 1.251834-16.273839 0-23.784841 1.251834l-3.755501-6.259169v-6.259168c21.281174 0 42.562347-1.251834 63.84352-1.251834l-1.251833 11.266504z m20.02934-26.288509l-16.273839-5.007335c-22.533007 0-43.814181 1.251834-66.347188 1.251834v-7.511003l3.755501-8.762836-6.259169-8.762836h-3.755501l-5.007335 8.762836 5.007335 10.01467v5.007335c-81.369193 1.251834-162.738386 1.251834-242.855746 1.251834h-46.317848c-41.310513 0-82.621027-1.251834-123.93154-1.251834-21.281174 0-41.310513-1.251834-61.339854 0 5.007335 8.762836 13.770171 13.770171 22.533008 17.525673 15.022005 5.007335 31.295844 6.259169 46.317848 7.511002 16.273839 1.251834 33.799511 0 51.325183 1.251834H763.618582c48.821516 0 98.894866-1.251834 147.716381-2.503668 15.022005 0 31.295844-1.251834 46.317849-1.251833v5.007334l-5.007335 7.511003 7.511002 12.518337h1.251834l5.007335-7.511002c7.511002 0 16.273839-1.251834 23.784841 0l6.259169 5.007335 6.259168-5.007335h26.288509l6.259169 5.007335 11.266503-2.503668 5.007335-18.777506-6.259168-18.777506zM406.845966 500.733496l-6.259169-5.007335c-2.503667-8.762836 0-17.525672 2.503668-26.288508l1.251833-18.777506h-1.251833l-5.007335 16.273838c-2.503667 7.511002-3.755501 15.022005-3.755502 23.784841l1.251834 17.525673 10.01467 7.511002 11.266504-10.01467v-13.770171l-10.01467 8.762836z m25.036675-98.894865l12.518337-5.007335v-10.01467h-3.755501c-8.762836 2.503667-17.525672 6.259169-25.036675 11.266504-10.01467 6.259169-20.02934 15.022005-26.288509 25.036674l11.266504-7.511002c10.01467-3.755501 21.281174-8.762836 31.295844-13.770171z m65.095354 8.762836l13.770171-2.503667-6.259168-7.511003-6.259169-2.503667-1.251834 1.251833v11.266504z m32.547677 86.376528c-7.511002 7.511002-17.525672 11.266504-27.540342 15.022005-13.770171 5.007335-27.540342 8.762836-41.310513 8.762836-8.762836 0-17.525672-1.251834-23.784841-6.259169l-7.511003-10.014669c-6.259169-12.518337-7.511002-26.288509-6.259169-40.05868 1.251834-11.266504 2.503667-23.784841 8.762837-33.799511v35.051345c1.251834 10.01467 2.503667 20.02934 10.01467 27.540342 5.007335 6.259169 13.770171 8.762836 22.533007 8.762836 7.511002 0 15.022005-1.251834 22.533007-3.755501 12.518337-3.755501 25.036675-10.01467 35.051345-18.777506 6.259169-5.007335 11.266504-11.266504 13.770171-18.777506l1.251834-18.777506v-26.288509l-7.511003 5.007335c0 7.511002 1.251834 16.273839-1.251833 23.784841-5.007335 15.022005-17.525672 26.288509-30.04401 33.799511-10.01467 5.007335-21.281174 11.266504-33.799511 8.762836-10.01467-1.251834-17.525672-8.762836-21.281174-17.525672-5.007335-7.511002-5.007335-15.022005-5.007335-22.533008 0-7.511002 1.251834-13.770171 2.503668-21.281173l5.007335-7.511003v11.266504c-1.251834 11.266504 1.251834 23.784841 8.762836 33.799511l16.273839 5.007335c8.762836-1.251834 16.273839-5.007335 22.533007-10.01467l18.777506-16.273838 3.755501-6.259169 1.251834-11.266504-16.273839 3.755501-15.022005-2.503667-2.503667-5.007335v-17.525672l6.259169-16.273839 10.01467-8.762836 11.266503 5.007335 13.770171 17.525672 10.01467-6.259169c0-18.777506-3.755501-38.806846-5.007335-57.584352l-2.503667-18.777506v-6.259169l-1.251834-18.777506V287.92176l-2.503667-8.762836 6.259168-7.511002 6.259169-5.007335 5.007335 12.518337c2.503667 7.511002 5.007335 15.022005 8.762836 22.533008l1.251834 10.014669-3.755501 2.503668-5.007335-2.503668c1.251834 13.770171 2.503667 28.792176 2.503667 42.562348 1.251834 11.266504 1.251834 23.784841 2.503668 35.051344l10.01467-8.762836 3.755501 3.755501 1.251834 16.273839 7.511002 5.007335 11.266504-7.511002 7.511002-17.525673h1.251834l3.755501 17.525673 7.511003 5.007335 5.007335-7.511003-1.251834-10.01467v-3.755501l7.511002-5.007335 2.503668 12.518337-1.251834 18.777507-7.511002 6.259168-13.770172-2.503667-5.007335-5.007335h-2.503667l-6.259169 6.259168-16.273838 3.755502-12.518338-8.762836h-1.251834v21.281173c1.251834 13.770171 1.251834 27.540342-2.503667 41.310514-2.503667 10.01467-8.762836 20.02934-16.273839 26.288508z m524.518338-111.413203c1.251834 20.02934 2.503667 40.05868 2.503667 60.08802 0 11.266504-1.251834 22.533007-7.511002 31.295843-2.503667 6.259169-10.01467 11.266504-17.525673 11.266504-8.762836 0-17.525672-3.755501-23.784841-10.01467l-7.511002-10.01467-5.007335 2.503668-10.01467 17.525672c-5.007335 10.01467-10.01467 20.02934-16.273839 28.792176l-6.259168 3.755501-11.266504-3.755501c-5.007335-5.007335-12.518337-8.762836-15.022005-16.273839-3.755501-11.266504-1.251834-22.533007 1.251834-33.799511l5.007335-16.273838h1.251834l1.251833 18.777506 2.503668 16.273838 2.503667-11.266503c2.503667-17.525672-2.503667-35.051345-3.755501-52.577017-1.251834-12.518337-3.755501-25.036675-5.007335-37.555013-2.503667-18.777506-5.007335-38.806846-7.511002-57.584352-1.251834-7.511002-1.251834-15.022005-3.755502-22.533007-2.503667-7.511002-3.755501-16.273839-2.503667-25.036675l8.762836-17.525672 8.762836-3.755501 6.259169 5.007335 5.007335 13.770171c2.503667 8.762836 6.259169 16.273839 11.266504 23.784841l1.251833 12.518337-10.01467 5.007335c0 10.01467 2.503667 21.281174 2.503668 31.295844 1.251834 13.770171 3.755501 27.540342 5.007335 41.310513 1.251834 8.762836 2.503667 17.525672 2.503667 26.288509 2.503667 13.770171 6.259169 27.540342 3.755502 41.310513-1.251834 10.01467-3.755501 18.777506-8.762837 27.540342l-8.762836 6.259169-6.259168-2.503667 6.259168 10.01467h7.511003l6.259168-8.762837c5.007335-11.266504 11.266504-22.533007 17.525673-32.547677l8.762836-12.518337h7.511002l13.770172 16.273838 11.266503 5.007335 8.762836-5.007335 5.007335-13.770171c1.251834-23.784841-1.251834-48.821516-2.503667-72.606357 0-6.259169-1.251834-13.770171-1.251834-20.02934l-1.251834-13.770171c-11.266504-13.770171-21.281174-26.288509-31.295843-40.058679l-7.511003-15.022005v-20.02934l7.511003 3.755501c5.007335 7.511002 12.518337 12.518337 18.777506 18.777506l2.503667 3.755501v2.503668h-3.755501l11.266504 16.273838c0-6.259169-1.251834-13.770171-2.503668-20.029339l-2.503667-12.518338 7.511002-13.770171 3.755502 3.755501c3.755501 10.01467 7.511002 21.281174 11.266503 31.295844v5.007335l-5.007335-2.503668c0 11.266504 1.251834 22.533007 2.503668 32.547678 7.511002 10.01467 15.022005 21.281174 22.533007 31.295843-1.251834-10.01467-3.755501-20.02934-5.007335-30.04401-2.503667-16.273839-3.755501-33.799511-5.007335-50.073349l-1.251834-8.762837 6.259169-12.518337 3.755501-2.503667 5.007335 12.518337c2.503667 8.762836 3.755501 16.273839 6.259169 25.036675v7.511002l-2.503667 1.251834-2.503668-1.251834v11.266504s2.503667 27.540342 3.755501 40.05868c1.251834 8.762836 1.251834 18.777506 2.503668 27.540342 5.007335 7.511002 10.01467 15.022005 15.022005 23.784841 7.511002 11.266504 17.525672 22.533007 21.281173 36.303178l1.251834 18.777507h-1.251834l-7.511002-12.518338c-8.762836-12.518337-17.525672-25.036675-26.288509-36.303178 1.251834 7.511002 0 16.273839 1.251834 23.784841l-1.251834 15.022005-3.755501 12.518337-2.503667-5.007335c0-10.01467 1.251834-20.02934 0-30.04401-1.251834-8.762836-2.503667-16.273839-3.755502-25.036674l2.503668-7.511003c-8.762836-12.518337-17.525672-23.784841-25.036675-35.051345 0 6.259169 1.251834 12.518337 1.251834 20.02934z m-37.555012-2.503667c-8.762836 8.762836-20.02934 15.022005-28.792176 23.784841l-2.503668 6.259168 8.762836-5.007334c7.511002-6.259169 15.022005-10.01467 22.533008-15.022005l10.014669-5.007335v-10.01467l-10.014669 5.007335zM901.320293 294.180929c1.251834 12.518337 3.755501 23.784841 5.007335 36.303179 2.503667 18.777506 3.755501 37.555012 5.007335 56.332518 1.251834 18.777506 1.251834 37.555012 2.503668 55.080685 1.251834 7.511002 1.251834 15.022005 0 21.281173-1.251834 10.01467-6.259169 20.02934-12.518338 27.540342-8.762836 10.01467-18.777506 18.777506-30.044009 25.036675l-18.777506 7.511003v2.503667l13.770171 1.251834c7.511002-1.251834 16.273839-1.251834 23.784841-5.007335 8.762836-5.007335 15.022005-13.770171 21.281173-21.281174 8.762836-10.01467 12.518337-22.533007 13.770171-35.051344 1.251834-12.518337 1.251834-25.036675 1.251834-37.555013 0-20.02934-1.251834-40.05868-3.755501-60.088019-2.503667-21.281174-5.007335-41.310513-3.755501-62.591687l6.259168 1.251834V300.440098l-5.007334-17.525673-1.251834-5.007335-3.755501-10.014669-3.755502 1.251833-8.762836 10.01467-1.251834 10.01467v5.007335zM582.102689 463.178484l2.503668-1.251834 5.007335-12.518337v-13.770171l-11.266504-2.503668v10.01467l7.511003 1.251834v11.266504l-3.755502 7.511002z m297.936431-141.457213l1.251834 1.251834 3.755501 8.762836 5.007335-10.01467 1.251833-2.503667h1.251834l1.251834 15.022005-1.251834 2.503667-5.007335 1.251834-6.259168-3.755501-8.762837 3.755501-1.251833-13.770171h1.251833l2.503668 7.511002 2.503667-1.251833 2.503668-8.762837z m101.398533 30.04401h3.755501l2.503668-2.503667 10.014669 16.273838 3.755502 6.259169 2.503667-5.007335v-23.784841l2.503668-5.007335 7.511002 1.251834v-5.007335l-3.755501-7.511003-2.503668-1.251833-8.762836 8.762836 1.251834 16.273838-1.251834 7.511003-5.007335-10.01467-7.511002-13.770171-3.755501 1.251834-1.251834 5.007335V351.765281z m38.806846 83.872861l6.259168-7.511003c2.503667-7.511002-1.251834-16.273839-6.259168-22.533007l-5.007335-1.251834-5.007335 8.762836 10.01467 10.01467v12.518338z m82.621027-120.176039c-1.251834-7.511002-3.755501-15.022005-7.511003-22.533008l-1.251834-6.259168 6.259169-6.259169c6.259169 8.762836 7.511002 20.02934 8.762836 30.04401l-2.503667 16.273838h-1.251834l-2.503667-11.266503z m-363.031785 71.354523h-2.503668l-3.755501-7.511003-3.755501-3.755501-1.251834 10.01467-1.251834 5.007335h-2.503667l-5.007335-12.518337-1.251834-2.503668 1.251834 18.777506 6.259169 2.503668 5.007335-6.259169h1.251833l5.007335 3.755501 7.511003-6.259168-3.755501-16.273839-1.251834 11.266504v3.755501z m36.303178 0l13.770171 6.259169 3.755502 3.755501-17.525673 3.755501-1.251833-12.518337 1.251833-1.251834z m-141.457212 12.518337c2.503667 7.511002 7.511002 13.770171 10.01467 21.281174l2.503667 13.770171-8.762836 13.770171c-7.511002 6.259169-16.273839 13.770171-23.784841 20.02934V444.400978H613.398533c-5.007335 7.511002-7.511002 15.022005-10.01467 23.784841l-2.503667 10.01467-1.251834 1.251834c-15.022005 10.01467-30.04401 18.777506-45.066015 27.540342l-20.02934 10.01467v2.503667h5.007335c21.281174-6.259169 41.310513-12.518337 60.08802-21.281173 1.251834 7.511002 2.503667 15.022005 7.511002 20.02934 6.259169 6.259169 15.022005 7.511002 23.784841 6.259168 13.770171-2.503667 25.036675-10.01467 35.051345-20.029339 10.01467-8.762836 17.525672-20.02934 25.036675-30.04401 3.755501 11.266504 10.01467 21.281174 18.777506 28.792176 13.770171 12.518337 32.547677 17.525672 50.07335 20.02934l10.01467-2.503668 2.503667-13.770171-11.266504-5.007335-13.770171-10.01467v-10.01467l15.022005-8.762836c16.273839-6.259169 32.547677-11.266504 50.07335-15.022005l13.770171-3.755501 6.259169-11.266504 1.251833-7.511002h-13.770171c-18.777506 1.251834-38.806846 1.251834-57.584352 1.251834H738.581907c12.518337-6.259169 26.288509-11.266504 40.05868-16.273839l8.762836 1.251834v-3.755502c7.511002-2.503667 15.022005-5.007335 20.02934-11.266503l7.511002-16.273839-13.770171-16.273838c-6.259169-5.007335-13.770171-8.762836-22.533007-8.762837l-11.266504 6.259169-8.762836 17.525672 3.755501 15.022005-33.799511 11.266504-15.022005 7.511002-7.511002 13.770172-2.503668 11.266503 7.511003 2.503668c7.511002 0 15.022005 0 22.533007 1.251833 7.511002 0 15.022005 1.251834 20.02934 6.259169l2.503667 2.503668c-10.01467 3.755501-18.777506 10.01467-22.533007 20.029339v16.273839c-10.01467-2.503667-21.281174-8.762836-27.540342-18.777506-6.259169-11.266504-7.511002-25.036675-10.01467-37.555012-1.251834-8.762836-3.755501-16.273839-5.007335-25.036675v1.251834c-2.503667-16.273839-8.762836-31.295844-15.022005-46.317849l-5.007335-8.762836-6.259169 10.01467-1.251833 13.770171c5.007335 12.518337 8.762836 25.036675 12.518337 37.555012l5.007335 16.273839 3.755501 12.518337c-7.511002 13.770171-16.273839 25.036675-26.288508 36.303179-8.762836 7.511002-17.525672 13.770171-28.792176 16.273839l-15.022005-2.503668-3.755501-12.518337c11.266504-6.259169 21.281174-13.770171 30.044009-23.784841 7.511002-7.511002 13.770171-15.022005 16.273839-25.036675 1.251834-7.511002 1.251834-16.273839 0-23.784841l-1.251834-3.755502-5.007335-13.770171 5.007335-1.251833-5.007335-11.266504-10.01467-11.266504h-5.007335l-5.007335 8.762836-2.503667 10.01467 6.259169 5.007335z m161.486552 116.420538l1.251834-15.022005-10.01467 2.503668 6.259169-5.007335 12.518337-5.007335-2.503667 16.273839 1.251833 2.503667c7.511002-1.251834 13.770171-6.259169 21.281174-8.762836h5.007335l-5.007335 5.007335c-6.259169 5.007335-12.518337 11.266504-21.281174 10.01467l-8.762836-2.503668zM652.205379 358.02445l-12.518337-8.762836c-8.762836-11.266504-12.518337-26.288509-11.266504-40.05868 1.251834-8.762836 2.503667-17.525672 7.511002-25.036675h1.251834l-2.503667 13.770171c0 7.511002 0 16.273839 1.251833 23.784841l1.251834 6.259169 10.01467 12.518338 7.511002-6.259169c3.755501-11.266504 8.762836-21.281174 13.770172-32.547677 3.755501-7.511002 7.511002-15.022005 12.518337-21.281174l6.259169-2.503668 3.755501 5.007335-1.251834 11.266504c-2.503667 12.518337-1.251834 25.036675-1.251834 37.555012l6.259169 13.770171h13.770171l13.770171-11.266503 5.007335-17.525673c0-12.518337-2.503667-23.784841-5.007335-36.303178l-1.251833-11.266504 6.259168-12.518337h2.503668c3.755501 6.259169 5.007335 13.770171 6.259169 20.02934 1.251834 8.762836 2.503667 18.777506 2.503667 28.792176 1.251834 10.01467 3.755501 20.02934 10.01467 27.540342l10.01467 7.511003 7.511002-5.007335v-20.02934c-1.251834-8.762836-3.755501-16.273839-6.259168-25.036675l-5.007335-13.770171 5.007335-8.762836 3.755501-7.511003 7.511002 3.755501 11.266504 18.777506 1.251834 7.511003h-5.007335l-6.259169-3.755501 3.755501 10.01467c2.503667 7.511002 2.503667 13.770171 3.755502 21.281173 1.251834 10.01467-1.251834 21.281174-6.259169 30.04401l-17.525673 8.762836c-10.01467-2.503667-16.273839-10.01467-21.281173-16.273838-5.007335 10.01467-13.770171 17.525672-23.784841 21.281173l-20.02934 1.251834-10.01467-16.273839c-2.503667-8.762836-2.503667-18.777506-1.251834-28.792176v-6.259169h-1.251833l-5.007335 10.01467c-3.755501 10.01467-6.259169 18.777506-10.01467 28.792176l-11.266504 7.511003z m216.567237-77.613692l-3.755501-3.755501 3.755501-10.01467 7.511003 6.259169c5.007335 8.762836 7.511002 20.02934 2.503667 30.044009l-5.007335 6.259169v-18.777506l-5.007335-10.01467zM788.655257 287.92176v-22.533007l1.251833-2.503667 6.259169 1.251833c8.762836 7.511002 17.525672 15.022005 25.036675 22.533008l5.007335 8.762836h-10.01467c5.007335 8.762836 11.266504 16.273839 17.525672 25.036675l1.251834 1.251833c-1.251834-10.01467-3.755501-20.02934-2.503667-31.295843l-3.755502-8.762836 3.755502-10.01467 5.007335-5.007335 5.007335 5.007335c3.755501 10.01467 8.762836 18.777506 11.266503 28.792176l2.503668 11.266503-1.251834 2.503668-7.511002-1.251834c0 8.762836 0 16.273839 1.251833 25.036675l1.251834 11.266504c8.762836 13.770171 17.525672 26.288509 25.036675 40.058679 8.762836 15.022005 17.525672 30.04401 23.784841 46.317849 3.755501 10.01467 7.511002 20.02934 7.511002 30.04401h-2.503667l-8.762836-17.525673c-12.518337-26.288509-28.792176-52.577017-45.066015-77.613692 0 7.511002 1.251834 16.273839 1.251834 23.784841 1.251834 16.273839 3.755501 31.295844 3.755501 47.569683 0 16.273839-1.251834 33.799511-7.511002 50.073349l-5.007335 5.007335 1.251833-11.266504c3.755501-10.01467 2.503667-21.281174 2.503668-32.547677-1.251834-25.036675-5.007335-50.07335-8.762836-73.858191l-1.251834-11.266503c-1.251834-7.511002-1.251834-15.022005-2.503668-21.281174-11.266504-17.525672-23.784841-33.799511-36.303178-51.325183L788.655257 287.92176z m-80.11736 5.007335v16.273839h1.251834l2.503668-8.762836c0-8.762836 1.251834-17.525672-1.251834-26.288509l-5.007335-7.511002-5.007335 5.007335 1.251834 6.259168 6.259168 15.022005z" fill="#FFFFFF" p-id="1399"></path></svg>