<?xml version="1.0" standalone="no"?><!DOCTYPE svg PUBLIC "-//W3C//DTD SVG 1.1//EN" "http://www.w3.org/Graphics/SVG/1.1/DTD/svg11.dtd"><svg t="1530104019402" class="icon" style="" viewBox="0 0 1544 1024" version="1.1" xmlns="http://www.w3.org/2000/svg" p-id="2564" xmlns:xlink="http://www.w3.org/1999/xlink" width="301.5625" height="200"><defs><style type="text/css"></style></defs><path d="M10.01467 1017.740831h1513.466993V11.266504H10.01467v1006.474327z m1517.222494 3.755502v-3.755502 3.755502zM3.755501 1024V5.007335h1525.98533v1018.992665H3.755501z" fill="#353636" p-id="2565"></path><path d="M7.511002 7.511002H1527.237164v1012.733497H7.511002z" fill="#DB2D27" p-id="2566"></path><path d="M514.503667 514.503667a252.870416 252.870416 0 1 0 505.740832 0 252.870416 252.870416 0 1 0-505.740832 0Z" fill="#FFFFFF" p-id="2567"></path><path d="M838.728606 673.486553c-87.628362 0-158.982885-71.354523-158.982885-158.982886 0-87.628362 71.354523-158.982885 158.982885-158.982885 41.310513 0 78.865526 16.273839 107.657702 42.562348-36.303178-50.07335-95.139364-82.621027-160.234719-82.621027C677.242054 315.462103 588.361858 404.342298 588.361858 513.251834c0 108.909535 88.880196 197.789731 197.789731 197.789731 66.347188 0 125.183374-32.547677 160.234719-82.621027-28.792176 28.792176-66.347188 45.066015-107.657702 45.066015z" fill="#DB2D27" p-id="2568"></path><path d="M812.440098 400.586797l51.325183 70.10269 82.621027-26.288509-51.325183 70.102689 50.073349 71.354524-82.621027-27.540343-51.325183 70.10269v-86.376528l-82.621027-27.540343 83.872861-27.540342z" fill="#DB2D27" p-id="2569"></path></svg>