<?xml version="1.0" standalone="no"?><!DOCTYPE svg PUBLIC "-//W3C//DTD SVG 1.1//EN" "http://www.w3.org/Graphics/SVG/1.1/DTD/svg11.dtd"><svg t="1529379070743" class="icon" style="" viewBox="0 0 1024 1024" version="1.1" xmlns="http://www.w3.org/2000/svg" p-id="2818" xmlns:xlink="http://www.w3.org/1999/xlink" width="200" height="200"><defs><style type="text/css"></style></defs><path d="M0 160h1024v704H0z" fill="#FFFFFF" p-id="2819"></path><path d="M0 160h1024v46.72H0V160z m0 94.08h1024V300.8H0v-46.72z m0 93.44h1024v46.72H0v-46.72zM0 441.6h1024v46.72H0V441.6z m0 94.08h1024V582.4H0v-46.72z m0 93.44h1024v46.72H0v-46.72zM0 723.2h1024v46.72H0V723.2z m0 94.08h1024v46.72H0v-46.72z" fill="#D02F44" p-id="2820"></path><path d="M0 160h448v328.32H0z" fill="#46467F" p-id="2821"></path><path d="M64.64 225.92l-16 12.16 5.76-19.84-16-12.8h19.84l6.4-19.84 6.4 19.84h19.84l-16 12.8 5.76 19.84-16-12.16z m104.96 0L153.6 238.08l5.76-19.84-16-12.8h19.84l6.4-19.84 6.4 19.84h19.84l-16 12.8 5.76 19.84-16-12.16z m105.6 0l-16 12.16 5.76-19.84-16-12.8H268.8l6.4-19.84 6.4 19.84h19.84l-16 12.8 5.76 19.84-16-12.16z m104.96 1.92l-16 12.16 5.76-20.48-16-12.8 19.84-0.64 6.4-20.48 6.4 20.48 19.84 0.64-16 12.8 5.76 20.48-16-12.16z m-274.56 53.12L89.6 293.12l5.76-19.84-16-12.8h19.84l6.4-19.84 6.4 19.84h19.84l-16 12.8 5.76 19.84-16-12.16z m118.4 0l-16 12.16 5.76-19.84-16-12.8H217.6l6.4-19.84 6.4 19.84h19.84l-16 12.8 5.76 19.84-16-12.16z m117.76 0l-16 12.16 5.76-19.84-16-12.8h19.84l6.4-19.84 6.4 19.84h19.84l-16 12.8 5.76 19.84-16-12.16z m-277.12 55.68l-16 12.16 5.76-19.84-16-12.8h19.84l6.4-19.84 6.4 19.84h19.84l-16 12.8 5.76 19.84-16-12.16z m104.96 0L153.6 348.16l5.76-19.84-16-12.8h19.84l6.4-19.84 6.4 19.84h19.84l-16 12.8 5.76 19.84-16-11.52z m105.6 0l-16 12.16 5.76-19.84-16-12.8H268.8l6.4-19.84 6.4 19.84h19.84l-16 12.8 5.76 19.84-16-12.16z m104.96 1.28l-16 12.16 5.76-20.48-16-12.8 19.84-0.64 6.4-20.48 6.4 20.48 19.84 0.64-16 12.8 5.76 20.48-16-12.16z m-315.52 108.8l-16 12.16 5.76-19.84-16-12.8h19.84l6.4-19.84 6.4 19.84h19.84l-16 12.8 5.76 19.84-16-12.16z m104.96 0L153.6 458.88l5.76-19.84-16-12.8h19.84l6.4-19.84 6.4 19.84h19.84l-16 12.8 5.76 19.84-16-12.16z m105.6 0l-16 12.16 5.76-19.84-16-12.8H268.8l6.4-19.84 6.4 19.84h19.84l-16 12.8 5.76 19.84-16-12.16z m104.96 1.92L364.16 460.8l5.76-20.48-16-12.8 19.84-0.64 6.4-20.48 6.4 20.48 19.84 0.64-16 12.8 5.76 20.48-16-12.16z m-274.56-56.96L89.6 403.84l5.76-19.84-16-12.8h19.84l6.4-19.84 6.4 19.84h19.84l-16 12.8 5.76 19.84-16-12.16z m118.4 0l-16 12.16 5.76-19.84-16-12.8H217.6l6.4-19.84 6.4 19.84h19.84l-16 12.8 5.76 19.84-16-12.16z m117.76 0l-16 12.16 5.76-19.84-16-12.8h19.84l6.4-19.84 6.4 19.84h19.84L352 384l5.76 19.84-16-12.16z" fill="#FFFFFF" p-id="2822"></path></svg>