<?xml version="1.0" standalone="no"?><!DOCTYPE svg PUBLIC "-//W3C//DTD SVG 1.1//EN" "http://www.w3.org/Graphics/SVG/1.1/DTD/svg11.dtd"><svg t="1529379839763" class="icon" style="" viewBox="0 0 1024 1024" version="1.1" xmlns="http://www.w3.org/2000/svg" p-id="3188" xmlns:xlink="http://www.w3.org/1999/xlink" width="200" height="200"><defs><style type="text/css"></style></defs><path d="M510.328 0c281.813 0 510.295 228.448 510.295 510.296 0 281.812-228.482 510.294-510.295 510.294C228.479 1020.591 0 792.108 0 510.296 0 228.448 228.479 0 510.328 0" fill="#F0F0F0" p-id="3189"></path><path d="M988.891 687.787c20.511-55.295 31.732-115.059 31.732-177.491 0-62.434-11.222-122.199-31.732-177.494H31.763C11.252 388.098 0 447.862 0 510.296c0 62.432 11.252 122.196 31.763 177.491l478.53 44.367 478.598-44.367z" fill="#0A4FA2" p-id="3190"></path><path d="M510.328 1020.591c219.38 0 406.454-138.464 478.563-332.804H31.763c72.076 194.34 259.118 332.804 478.565 332.804" fill="#CB1428" p-id="3191"></path></svg>