<?xml version="1.0" standalone="no"?><!DOCTYPE svg PUBLIC "-//W3C//DTD SVG 1.1//EN" "http://www.w3.org/Graphics/SVG/1.1/DTD/svg11.dtd"><svg t="1529379821088" class="icon" style="" viewBox="0 0 1024 1024" version="1.1" xmlns="http://www.w3.org/2000/svg" p-id="2900" xmlns:xlink="http://www.w3.org/1999/xlink" width="200" height="200"><defs><style type="text/css"></style></defs><path d="M1022.772011 512.048873c0 282.11994-228.664925 510.78004-510.775216 510.78004-282.115115 0-510.765567-228.6601-510.765567-510.78004C1.231228 229.928933 229.88168 1.268833 511.996795 1.268833c282.110291 0 510.775216 228.6601 510.775216 510.78004z" fill="" p-id="2901"></path><path d="M21.585625 628.347303h980.817516a502.226273 502.226273 0 0 0 12.022554-77.52907H9.57272a507.576599 507.576599 0 0 0 12.012905 77.52907zM87.357486 783.472985h849.283443a506.481446 506.481446 0 0 0 40.757037-77.577314H46.63422a506.293292 506.293292 0 0 0 40.718442 77.577314zM243.515603 938.526301H780.506934a504.252546 504.252546 0 0 0 94.998439-77.52907H148.493042a504.402104 504.402104 0 0 0 95.022561 77.52907zM780.564827 85.595567H243.45771a502.197326 502.197326 0 0 0-94.988791 77.52907h727.060576a502.057417 502.057417 0 0 0-94.964668-77.52907z" fill="#FFFFFF" p-id="2902"></path><path d="M46.63422 705.900495h930.763746a499.915356 499.915356 0 0 0 25.005175-77.553192H21.585625a504.783236 504.783236 0 0 0 25.048595 77.553192zM148.493042 860.997231H875.500549a504.985864 504.985864 0 0 0 61.135555-77.52907H87.357486a508.536666 508.536666 0 0 0 61.135556 77.52907zM511.996795 1016.098792c98.737396 0 190.74467-28.512558 268.510139-77.577315H243.515603c77.760644 49.064757 169.777567 77.577315 268.481192 77.577315zM21.585625 395.750443h980.836814a502.288991 502.288991 0 0 0-25.024473-77.553192H46.600449A502.250395 502.250395 0 0 0 21.585625 395.750443zM7.937228 512.048873c0 13.035691 0.656127 25.941121 1.635492 38.774184h1004.852975c0.979365-12.833063 1.635492-25.738493 1.635492-38.774184 0-13.083935-0.656127-25.984541-1.635492-38.754886H9.57272c-0.979365 12.770345-1.635492 25.670951-1.635492 38.754886zM148.468919 163.119813a503.466159 503.466159 0 0 0-61.111433 77.52907h849.307565a501.656986 501.656986 0 0 0-61.135556-77.52907H148.468919zM511.996795 7.998954c-98.722922 0-190.773617 28.507733-268.539085 77.596613h537.107117C702.775236 36.506688 610.734191 7.998954 511.996795 7.998954z" fill="#BF0A30" p-id="2903"></path><path d="M9.57272 473.293987h1004.852975a503.774924 503.774924 0 0 0-12.003256-77.548368H21.585625a505.473134 505.473134 0 0 0-12.012905 77.548368zM46.600449 318.197251H977.393141a504.102988 504.102988 0 0 0-40.732915-77.548368H87.357486a503.398616 503.398616 0 0 0-40.757037 77.548368z" fill="#FFFFFF" p-id="2904"></path><path d="M511.663907 7.998954c-278.226601 0.159207-503.721855 225.7606-503.721855 504.006499 0 13.281738 0.651302 26.365673 1.688561 39.382066h502.033294V7.998954z" fill="#002868" p-id="2905"></path><path d="M38.664213 338.281477c-0.665775 1.847768-1.239886 3.763079-1.900838 5.630145h0.077192l1.823646-5.630145zM33.149855 354.515785a704.950077 704.950077 0 0 0-5.002965 16.282552l5.200768-16.123345-0.202627-0.159207zM57.513377 522.315324l-14.907581-10.830913-14.941352 10.830913 5.683214-17.541737-14.868986-10.80679h18.361895l5.765229-17.474193 5.639794 17.474193h18.439086l-14.893108 10.80679zM125.007571 446.677442l-14.922054-10.869508-14.902757 10.869508 5.692863-17.536912-14.946177-10.830912h18.448735l5.707336-17.450072 5.678389 17.450072h18.439085l-14.926878 10.830912zM120.651084 275.462185l5.692862 17.51279L111.450839 282.086169l-14.91723 10.89363 5.683213-17.512789-14.883458-10.835737h18.463208l5.654267-17.450071 5.683213 17.450071h18.410139zM195.261356 522.315324l-14.849688-10.830913-14.975123 10.830913 5.716985-17.541737-14.893108-10.80679h18.405314l5.741108-17.474193 5.678389 17.474193h18.439086l-14.960651 10.80679zM196.264843 349.831234l-6.705999 4.843758 5.702512 17.561034-14.849688-10.874333-14.975123 10.874333 5.716985-17.561034-6.662579-4.843758-8.230529-5.919612h18.405314l5.741108-17.561034 5.678389 17.561034h18.439086zM189.558844 197.436196l5.702512 17.450071-14.849688-10.758545-14.975123 10.758545 5.716985-17.450071-14.893108-10.874333h18.405314l5.741108-17.474193 5.678389 17.474193h18.439086zM262.813443 452.196624l-14.897932-10.874333-14.907581 10.874333 5.688038-17.609279-14.87381-10.739247h18.376368l5.716985-17.609279 5.663916 17.609279h18.453559L257.101282 434.587345zM258.534147 280.952421l5.673565 17.474193-14.926879-10.855034-14.897932 10.855034 5.707336-17.474193-14.91723-10.830913h18.386016l5.72181-17.512789 5.673565 17.512789h18.429436zM259.909118 125.45043l5.659091 17.474194-14.859336-10.76337-14.941352 10.758545 5.663916-17.469369-14.840039-10.830912h18.342596l5.774879-17.517614 5.606022 17.512789h18.439086zM333.076876 522.315324l-14.849687-10.830913-14.931703 10.830913 5.688038-17.541737-14.883459-10.80679h18.410139l5.716985-17.474193 5.630144 17.474193h18.429437l-14.87381 10.80679zM334.080364 349.831234l-6.667404 4.843758 5.663916 17.561034-14.849687-10.874333-14.931703 10.874333 5.688038-17.561034-6.662579-4.843758-8.22088-5.919612h18.410139l5.716985-17.561034 5.630144 17.561034h18.429437zM327.41296 197.436196l5.663916 17.450071-14.849687-10.758545-14.931703 10.758545 5.688038-17.450071-14.883459-10.874333h18.410139l5.716985-17.474193 5.630144 17.474193h18.429437zM400.677208 452.196624l-14.965475-10.874333-14.849687 10.874333 5.683214-17.609279-14.951001-10.739247h18.463208l5.654266-17.609279 5.731459 17.609279h18.405314l-14.91723 10.739247zM396.325545 280.952421l5.688038 17.474193-14.907581-10.855034-14.907581 10.855034 5.688039-17.474193-14.883459-10.830913h18.453559l5.649442-17.512789 5.688039 17.512789h18.381192zM397.724639 125.45043l5.663915 17.474194-14.849687-10.76337-14.955826 10.758545 5.692863-17.469369-14.868985-10.830912h18.342596l5.789352-17.517614 5.615671 17.512789h18.419788zM470.969588 522.315324l-14.893107-10.830913-14.96065 10.830913 5.716985-17.541737-14.907581-10.80679h18.376367l5.774879-17.474193 5.620495 17.474193h18.405315l-14.859337 10.80679zM471.920007 349.831234l-6.677053 4.843758 5.731459 17.561034-14.897932-10.874333-14.96065 10.874333 5.716985-17.561034-6.652931-4.843758-8.249826-5.919612h18.371543l5.774879-17.561034 5.620495 17.561034h18.405315zM465.242954 197.436196l5.731459 17.450071-14.897932-10.758545-14.96065 10.758545 5.716985-17.450071-14.907581-10.874333h18.376367l5.774879-17.474193 5.620495 17.474193h18.405315zM465.242954 43.661362l5.731459 17.498316-14.897932-10.80679-14.96065 10.80679 5.716985-17.493492-14.907581-10.855034h18.376367l5.774879-17.46937L461.696976 32.806327h18.405315zM318.227189 50.352888l14.849687 10.830912-5.663916-17.493491 2.060045-1.485934a469.130478 469.130478 0 0 0-23.18153 9.658569l-2.991165 9.320856 14.926879-10.830912z" fill="#FFFFFF" p-id="2906"></path><path d="M318.227189 169.08767l-5.716985 17.474193h-18.410139l14.883459 10.874333-5.688038 17.450071 14.931703-10.758545 14.849687 10.758545-5.663916-17.450071 14.87381-10.874333h-18.429437zM318.227189 326.350588l-5.716985 17.561034h-18.410139l8.22088 5.919612 6.657754 4.843758-5.683213 17.561034 14.931703-10.874333 14.849687 10.874333-5.663916-17.561034 6.667404-4.843758 8.206406-5.919612h-18.429437zM323.857333 493.966797l-5.630144-17.474193-5.716985 17.474193h-18.410139l14.883459 10.80679-5.688038 17.541737 14.931703-10.830913 14.849687 10.830913-5.663916-17.541737 14.87381-10.80679zM180.411668 169.08767l-5.741107 17.474193h-18.410139l14.893108 10.874333-5.716985 17.450071 14.975123-10.758545 14.849688 10.758545-5.697688-17.450071 14.960651-10.874333H186.085233zM180.411668 326.350588l-5.741107 17.561034h-18.410139l8.230529 5.919612 6.662579 4.843758-5.716985 17.561034 14.975123-10.874333 14.849688 10.874333-5.697688-17.561034 6.701175-4.843758 8.259476-5.919612H186.085233zM186.085233 493.966797l-5.673565-17.474193-5.741107 17.474193h-18.410139l14.893108 10.80679-5.716985 17.541737 14.975123-10.830913 14.849688 10.830913-5.697688-17.541737 14.960651-10.80679zM27.664444 372.236026l0.08684-0.062718c0.139909-0.434201 0.274994-0.882876 0.395606-1.374971l-0.482446 1.437689zM42.605796 326.350588l-3.941583 11.930889c1.3412-3.647292 2.880203-7.251163 4.313067-10.80679l-0.371484-1.124099z" fill="#FFFFFF" p-id="2907"></path><path d="M57.513377 372.236026l-5.721809-17.561034 6.657755-4.843758 8.235353-5.919612H48.250414l-5.26831-16.436935c-1.432865 3.555627-2.971867 7.159498-4.313067 10.80679l-1.823646 5.630145h-0.077191c-1.25436 3.555627-2.436352 7.072658-3.618345 10.604163l0.202627 0.159207-5.200767 16.123345a21.459198 21.459198 0 0 1-0.395606 1.374971l14.854512-10.811615 14.907581 10.874333zM48.24559 493.966797l-5.644618-17.474193-5.760405 17.474193H18.478672l14.868986 10.80679-5.683214 17.541737 14.941352-10.830913 14.907581 10.830913-5.721809-17.541737 14.893108-10.80679zM387.106002 252.608719l-5.649442 17.512789H362.998176l14.883459 10.830913-5.688038 17.474193 14.907581-10.855034 14.907581 10.855034-5.688038-17.474193 14.854512-10.830913h-18.386017zM391.443192 423.848098l-5.731459-17.609279-5.654266 17.609279H361.599083l14.955826 10.739247-5.692863 17.609279 14.854512-10.874333 14.96065 10.874333-5.741107-17.609279 14.91723-10.739247zM249.280833 252.608719l-5.72181 17.512789h-18.381192l14.912406 10.830913-5.707336 17.474193 14.897932-10.855034 14.926879 10.855034-5.673565-17.474193 14.849687-10.830913h-18.429436zM253.579427 423.848098l-5.663916-17.609279-5.716985 17.609279h-18.376368l14.87381 10.739247-5.688038 17.609279 14.907581-10.874333 14.897932 10.874333-5.712161-17.609279 14.931704-10.739247zM111.450839 247.176377l-5.654267 17.450071h-18.463208l14.883458 10.835737-5.683213 17.51279L111.450839 282.086169l14.893107 10.89363-5.692862-17.512789 14.893107-10.835737h-18.410139zM115.763906 418.309618l-5.678389-17.450072-5.707336 17.450072H85.929446l14.946177 10.830912-5.692863 17.536912 14.907581-10.869508 14.91723 10.869508-5.731458-17.536912 14.926878-10.830912zM456.076481 169.08767l-5.774879 17.474193h-18.371543l14.907581 10.874333-5.721809 17.450071 14.96065-10.758545 14.897932 10.758545-5.731459-17.450071 14.859337-10.874333h-18.405315zM250.708873 97.101904l-5.774879 17.512789h-18.342596l14.840039 10.835737-5.663916 17.474194 14.941352-10.76337 14.859336 10.758545-5.659091-17.469369 14.844863-10.830912h-18.439086zM388.538867 97.101904l-5.789352 17.512789h-18.342596l14.864161 10.835737-5.683214 17.474194 14.951001-10.76337 14.849687 10.758545-5.663915-17.469369 14.849687-10.830912h-18.419788zM456.076481 15.341782L450.301602 32.806327h-18.371543l14.907581 10.855035-5.721809 17.493491 14.96065-10.80679 14.897932 10.80679-5.731459-17.493491 14.859337-10.855035h-18.405315zM456.076481 326.350588l-5.774879 17.561034h-18.371543l8.249826 5.919612 6.657755 4.843758-5.721809 17.561034 14.96065-10.874333 14.897932 10.874333-5.731459-17.561034 6.677053-4.843758 8.182284-5.919612h-18.405315zM461.696976 493.966797l-5.620495-17.474193-5.774879 17.474193h-18.371543l14.907581 10.80679-5.721809 17.541737 14.96065-10.830913 14.897932 10.830913-5.731459-17.541737 14.859337-10.80679z" fill="#FFFFFF" p-id="2908"></path></svg>