<?xml version="1.0" standalone="no"?><!DOCTYPE svg PUBLIC "-//W3C//DTD SVG 1.1//EN" "http://www.w3.org/Graphics/SVG/1.1/DTD/svg11.dtd"><svg t="1530431670497" class="icon" style="" viewBox="0 0 1542 1024" version="1.1" xmlns="http://www.w3.org/2000/svg" p-id="2635" xmlns:xlink="http://www.w3.org/1999/xlink" width="301.171875" height="200"><defs><style type="text/css"></style></defs><path d="M7.547912 1017.710074h1520.904176V6.289926H7.547912v1011.420148z m1524.678132 3.773955v-3.773955 3.773955zM1.257985 1024V0H1534.742015v1024H1.257985z" fill="#353636" p-id="2636"></path><path d="M5.031941 3.773956h1527.194103v1017.710073H5.031941z" fill="#D8312B" p-id="2637"></path><path d="M579.931204 718.309582c-113.218673 0-206.309582-91.832924-206.309582-206.309582 0-113.218673 91.832924-206.309582 206.309582-206.309582 56.609337 0 108.186732 22.643735 144.668305 60.383292-46.545455-65.415233-122.02457-109.444717-208.825553-109.444717-140.894349 0-254.113022 114.476658-254.113022 254.113022C260.402948 652.894349 374.879607 767.371007 515.773956 767.371007c86.800983 0 162.280098-42.771499 208.825553-109.444717-37.739558 37.739558-88.058968 60.383292-144.668305 60.383292zM825.238329 402.555283l47.80344 69.189189 80.511057-23.90172-50.319411 66.673219 46.545455 67.931203-77.995086-27.675675-50.319411 66.673218 1.257986-83.027027-79.253072-27.675675 80.511057-23.90172z" fill="#FFFFFF" p-id="2638"></path></svg>