<?xml version="1.0" standalone="no"?><!DOCTYPE svg PUBLIC "-//W3C//DTD SVG 1.1//EN" "http://www.w3.org/Graphics/SVG/1.1/DTD/svg11.dtd"><svg t="1530412881889" class="icon" style="" viewBox="0 0 1568 1024" version="1.1" xmlns="http://www.w3.org/2000/svg" p-id="1948" xmlns:xlink="http://www.w3.org/1999/xlink" width="306.25" height="200"><defs><style type="text/css"></style></defs><path d="M141.824 0h1268.64c80.704 0 144.288 63.392 144.288 138.976v746.016c0 78.016-63.584 138.976-141.824 138.976H141.824C63.584 1023.968 0 960.576 0 884.992V138.976C0 63.392 63.584 0 141.824 0z" fill="#FFFFFF" p-id="1949"></path><path d="M520.864 1023.936V0H0v1023.936z" fill="#006847" p-id="1950"></path><path d="M1556.48 1023.936H1044.128V0H1556.48z" fill="#CE1126" p-id="1951"></path><path d="M611.328 511.968c0 94.24 76.64 170.656 171.168 170.656s171.168-76.416 171.168-170.656c0-94.24-76.64-170.656-171.168-170.656s-171.168 76.416-171.168 170.656z" fill="#EABC28" p-id="1952"></path></svg>