<?xml version="1.0" standalone="no"?><!DOCTYPE svg PUBLIC "-//W3C//DTD SVG 1.1//EN" "http://www.w3.org/Graphics/SVG/1.1/DTD/svg11.dtd"><svg t="1530433490084" class="icon" style="" viewBox="0 0 1568 1024" version="1.1" xmlns="http://www.w3.org/2000/svg" p-id="683" xmlns:xlink="http://www.w3.org/1999/xlink" width="306.25" height="200"><defs><style type="text/css"></style></defs><path d="M0 0h1556.48v1024H0V0z" fill="#00227D" p-id="684"></path><path d="M384.096 736.32l46.176-70.72-77.792 29.248-26.752-80.448-26.752 80.448-77.792-29.248 46.176 70.72-72.928 43.872 85.088 7.328-12.16 82.88 58.336-60.96 58.336 60.96-12.16-82.88 85.088-7.328-72.928-43.872z m867.872 82.88l21.888-34.144-38.912 14.624-12.16-39.008-12.16 39.008-36.48-14.624 21.888 34.144-34.048 19.52 38.912 4.864-4.864 39.008 26.752-29.248 29.184 29.248-7.296-39.008 41.312-4.864-34.048-19.52z m-226.08-355.968l24.32-34.144-38.912 14.624-12.16-39.008-12.16 39.008-38.912-14.624 24.32 34.144-36.48 19.52 41.312 2.432-4.864 41.44 26.752-29.248 26.752 29.248-4.864-41.44 41.344-2.432-36.48-19.52z m175.04-221.856l-4.864 41.44 26.752-29.248 29.184 29.248-7.296-41.44 41.312-2.432-34.048-19.52 21.888-34.144-38.912 14.624-12.16-39.008-12.16 39.008-36.48-14.624 21.888 34.144-34.048 19.52 38.912 2.432z m284.448 180.416l-34.048-19.52 21.888-34.144-38.912 14.624-12.16-39.008-12.16 39.008-36.48-14.624 21.888 34.144-34.048 19.52 38.912 4.864-4.864 39.008 26.752-29.248 29.184 29.248-7.296-39.008 41.312-4.864z m-162.88 126.784l-9.728-24.384-9.728 24.384-24.32 2.432 19.456 17.056-7.296 24.384 21.888-14.624 21.888 14.624-4.864-24.384 19.456-17.056-26.752-2.432z" fill="#FFFFFF" p-id="685"></path><path d="M0 0h768v501.76H0V0z" fill="#00237A" p-id="686"></path><path d="M768 176.16h-309.856V0H307.52v176.16H0v149.568h307.52v176.032h150.624v-176.032H768z" fill="#FFFFFF" p-id="687"></path><path d="M768 444.512L86.144 0H0v57.856L681.216 501.76H768z" fill="#FFFFFF" p-id="688"></path><path d="M0 444.512L681.856 0H768v57.856L86.784 501.76H0z" fill="#FFFFFF" p-id="689"></path><path d="M768 207.552H426.528V0h-87.392v207.552H0v86.784h339.136v207.424h87.392V294.336H768z" fill="#CF142B" p-id="690"></path><path d="M768 501.76v-39.392l-211.328-136.64h-59.488L768 501.76zM768 0h-59.488l-250.368 161.376v14.784h37.184L768 0zM268.48 325.728L0 500.544v1.216h57.024l250.496-162.496v-13.536H268.48zM0 0v39.392l210.208 136.768h60.128L0 0z" fill="#CF142B" p-id="691"></path></svg>