<?xml version="1.0" standalone="no"?><!DOCTYPE svg PUBLIC "-//W3C//DTD SVG 1.1//EN" "http://www.w3.org/Graphics/SVG/1.1/DTD/svg11.dtd"><svg t="1530371285498" class="icon" style="" viewBox="0 0 1546 1024" version="1.1" xmlns="http://www.w3.org/2000/svg" p-id="1452" xmlns:xlink="http://www.w3.org/1999/xlink" width="301.953125" height="200"><defs><style type="text/css"></style></defs><path d="M11.266504 1017.740831h1513.466992V11.266504H11.266504v1006.474327z m1517.222494 3.755502v-3.755502 3.755502zM5.007335 1024V5.007335h1525.98533v1018.992665H5.007335z" fill="#353636" p-id="1453"></path><path d="M8.762836 683.501222h1519.726162v337.995111H8.762836z" fill="#75B3E0" p-id="1454"></path><path d="M8.762836 345.506112h1519.726162v337.99511H8.762836z" fill="#FFFFFF" p-id="1455"></path><path d="M8.762836 8.762836h1519.726162v337.99511H8.762836z" fill="#75B3E0" p-id="1456"></path><path d="M766.122249 363.031785h3.755502l1.251833 6.259169c1.251834 27.540342 2.503667 56.332518 3.755502 83.87286l2.503667-17.525672c0-7.511002 2.503667-13.770171 5.007335-20.02934l6.259169-17.525672v-12.518338l5.007335-16.273838 5.007335-3.755502 2.503667 2.503668-3.755501 5.007335-1.251834 8.762836 1.251834 16.273839-5.007335 17.525672-3.755501 11.266504c-1.251834 8.762836-1.251834 18.777506-2.503668 28.792176 12.518337-26.288509 23.784841-52.577017 36.303179-77.613692l3.755501-2.503668 1.251834 5.007335-30.04401 82.621027c6.259169-7.511002 8.762836-17.525672 15.022005-25.036675l15.022005-15.022005 7.511002-11.266503 6.259169-13.770171 11.266504-7.511003 3.755501 2.503668-6.259169 3.755501-6.259169 12.518337c-2.503667 7.511002-5.007335 13.770171-10.01467 18.777506l-11.266503 11.266504c-6.259169 8.762836-8.762836 18.777506-15.022005 27.540342 20.02934-18.777506 41.310513-37.555012 61.339853-56.332518l5.007335-3.755501 2.503668 2.503667-3.755502 5.007335c-18.777506 21.281174-38.806846 41.310513-57.584352 62.591687 7.511002-3.755501 13.770171-10.01467 20.02934-15.022005l13.770171-6.259168 17.525673-8.762837 12.518337-11.266503 13.770171-2.503668 3.755501 2.503668-3.755501 1.251834-8.762836 3.755501-10.01467 11.266503-16.273839 11.266504-11.266503 5.007335c-7.511002 5.007335-13.770171 12.518337-21.281174 17.525672 27.540342-10.01467 53.828851-20.02934 81.369193-30.044009l5.007335 1.251833-2.503667 3.755502c-26.288509 12.518337-53.828851 25.036675-80.11736 36.303178 7.511002 0 13.770171-2.503667 20.02934-5.007335l18.777506-1.251834c7.511002 0 13.770171 0 21.281174-1.251833l13.770171-5.007335 12.518338 1.251833 3.755501 3.755502-1.251834 2.503667-7.511002-3.755501-8.762837 2.503667-15.022004 7.511003-17.525673 2.503667-12.518337 1.251834c-8.762836 2.503667-17.525672 6.259169-26.288509 8.762836 13.770171 0 26.288509 1.251834 40.05868 1.251834 16.273839 0 31.295844 1.251834 47.569682 1.251834l3.755501 2.503667-3.755501 2.503668c-28.792176 1.251834-58.836186 2.503667-88.880196 3.755501l18.777507 2.503667 18.777506 5.007335 18.777506 6.259169 17.525672 1.251834 10.01467 5.007335 2.503668 5.007335-1.251834 1.251833-6.259169-3.755501h-12.518337c-7.511002 1.251834-15.022005 1.251834-21.281174-1.251833l-13.770171-6.259169c-10.01467-2.503667-21.281174-1.251834-31.295844-3.755501 25.036675 11.266504 51.325183 23.784841 76.361859 35.051344l5.007335 3.755502-3.755502 2.503667c-27.540342-10.01467-55.080685-20.02934-82.621027-31.295843l18.777507 11.266503 13.770171 11.266504 13.770171 12.518337 11.266504 5.007335 12.518337 11.266504 1.251834 6.259169h-2.503668l-3.755501-6.259169-11.266504-5.007335c-7.511002-2.503667-13.770171-5.007335-18.777506-10.01467l-11.266503-11.266504c-8.762836-6.259169-18.777506-8.762836-27.540343-15.022005 20.02934 21.281174 38.806846 42.562347 58.836186 62.591687l1.251834 5.007335-5.007335-1.251833c-18.777506-17.525672-37.555012-35.051345-55.080685-51.325184l-8.762836-7.511002c3.755501 7.511002 8.762836 12.518337 13.770171 18.777506l7.511003 15.022005 8.762836 16.273839 8.762836 8.762836 7.511002 15.022005-1.251833 6.259168-2.503668-1.251833-1.251833-7.511003-8.762837-8.762836-13.770171-16.273839-6.259169-15.022005c-5.007335-8.762836-13.770171-15.022005-20.029339-23.784841 10.01467 27.540342 20.02934 53.828851 30.044009 80.11736l-7.511002 7.511002-3.755501-2.503667c-11.266504-23.784841-22.533007-48.821516-33.799511-72.606357l-3.755501-7.511003c0 7.511002 2.503667 13.770171 5.007334 20.02934l2.503668 18.777506 1.251834 18.777506 5.007335 11.266504 1.251833 17.525672-5.007335 3.755502-2.503667-2.503668 1.251834-7.511002-5.007335-11.266504c-3.755501-6.259169-6.259169-12.518337-7.511003-20.02934v-16.273838c-1.251834-11.266504-7.511002-20.02934-8.762836-31.295844-1.251834 28.792176-2.503667 57.584352-2.503667 86.376528l-2.503668 5.007335-1.251834-2.503667c-1.251834-28.792176-2.503667-58.836186-3.755501-87.628362l-2.503667 17.525672c0 7.511002-2.503667 13.770171-5.007335 20.02934l-6.259169 18.777506-2.503667 18.777506-7.511003 11.266504-3.755501-1.251834 3.755501-6.259169 1.251834-10.014669c-1.251834-7.511002-1.251834-16.273839 1.251834-23.784842l6.259168-16.273838c2.503667-10.01467 1.251834-20.02934 2.503668-30.04401C738.581907 600.880196 726.06357 625.91687 714.797066 652.205379l-3.755501 3.755501-2.503668-5.007335 30.04401-82.621027c-6.259169 6.259169-8.762836 16.273839-13.770171 22.533008l-10.01467 10.01467-12.518337 16.273838-6.259169 13.770171-11.266504 7.511003-5.007335-2.503668 3.755501-2.503667 6.259169-8.762836c2.503667-7.511002 3.755501-13.770171 7.511003-20.02934l11.266503-11.266504c8.762836-8.762836 11.266504-21.281174 18.777506-31.295843-20.02934 18.777506-41.310513 37.555012-61.339853 56.332518l-5.007335 3.755501-2.503667-2.503667 3.755501-5.007335c16.273839-17.525672 32.547677-36.303178 50.07335-53.828851l8.762836-8.762836c-7.511002 3.755501-13.770171 11.266504-21.281174 15.022005l-13.770171 6.259168-17.525672 10.01467-10.01467 10.01467-12.518338 3.755501-5.007335-1.251833 1.251834-2.503668 7.511002-1.251834 7.511003-7.511002 12.518337-12.518337 15.022005-6.259169c11.266504-5.007335 18.777506-15.022005 28.792176-21.281174-25.036675 8.762836-51.325183 18.777506-76.361858 28.792176l-6.259169 1.251834-2.503667-2.503667 2.503667-2.503668c26.288509-12.518337 52.577017-23.784841 80.11736-36.303178-8.762836 0-16.273839 5.007335-25.036675 6.259168-10.01467 2.503667-21.281174-1.251834-31.295844 1.251834l-16.273838 6.259169-15.022005-1.251834-1.251834-5.007335h12.518338l11.266503-5.007335 17.525673-5.007335h12.518337c11.266504-1.251834 20.02934-7.511002 31.295844-8.762836-28.792176-1.251834-56.332518-2.503667-85.124695-2.503668l-5.007335-1.251833V513.251834l2.503668-1.251834c28.792176-1.251834 58.836186-2.503667 87.628362-3.755501-8.762836-3.755501-18.777506-2.503667-27.540343-5.007335-7.511002-1.251834-13.770171-6.259169-21.281173-8.762836l-12.518338-2.503668-13.770171-1.251834-11.266504-7.511002 1.251834-3.755501 5.007335 3.755501 7.511003 1.251834 16.273838-1.251834 17.525673 5.007335 11.266503 3.755501c8.762836 1.251834 18.777506 1.251834 27.540343 2.503668-26.288509-11.266504-51.325183-23.784841-77.613692-35.051345l-3.755502-2.503668 2.503668-2.503667 6.259169 2.503667c26.288509 10.01467 52.577017 20.02934 78.865525 28.792176-7.511002-6.259169-16.273839-8.762836-23.784841-15.022004l-10.01467-8.762837-15.022005-12.518337-13.770171-7.511002-7.511002-11.266504 2.503667-3.755501 3.755501 6.259168 12.518338 6.259169c7.511002 2.503667 13.770171 5.007335 18.777506 10.01467l11.266504 11.266504c8.762836 6.259169 18.777506 8.762836 27.540342 15.022005-20.02934-21.281174-38.806846-41.310513-58.836186-62.591688l-2.503667-3.755501 3.755501-1.251833 5.007335 3.755501c20.02934 18.777506 41.310513 38.806846 61.339853 57.584352-3.755501-7.511002-11.266504-13.770171-15.022005-21.281174l-6.259168-13.770171-10.01467-17.525672-8.762837-12.518338-3.755501-12.518337 3.755501-3.755501 1.251834 3.755501 5.007335 10.01467 15.022005 13.770171 7.511002 15.022005c3.755501 11.266504 15.022005 20.02934 22.533008 28.792176-10.01467-26.288509-20.02934-53.828851-30.04401-80.11736V375.550122l3.755501-1.251833 2.503668 5.007334c12.518337 25.036675 23.784841 51.325183 35.051344 76.361859 0-8.762836-5.007335-17.525672-6.259168-26.288509-1.251834-10.01467 1.251834-20.02934-1.251834-30.04401l-6.259169-16.273838 1.251834-16.273839h5.007335l-1.251834 6.259169 1.251834 7.511002 7.511002 16.273839 2.503668 17.525672 1.251834 13.770171c2.503667 8.762836 6.259169 16.273839 7.511002 25.036675 1.251834-28.792176 2.503667-57.584352 2.503668-85.124694l1.251833-5.007335z" fill="#985524" p-id="1457"></path><path d="M767.374083 365.535452l1.251834-2.503667 1.251834 2.503667c1.251834 28.792176 2.503667 58.836186 3.755501 87.628362h-2.503668c0-12.518337-1.251834-26.288509-1.251833-40.05868 0 13.770171-1.251834 26.288509-1.251834 40.05868h-2.503668c-1.251834-28.792176 0-57.584352 1.251834-87.628362zM739.833741 368.03912l2.503667-1.251834-1.251833 8.762836 3.755501 11.266504 7.511002 18.777506v16.273839c1.251834 11.266504 7.511002 21.281174 10.01467 32.547677h-3.755501c-1.251834-10.01467-7.511002-18.777506-8.762836-28.792176l-1.251834-10.01467v13.770171c2.503667 8.762836 6.259169 17.525672 6.259169 26.288509h-2.503668c0-8.762836-5.007335-17.525672-6.259168-27.540343v-13.770171l-2.503668-20.02934-5.007335-13.770171 1.251834-12.518337zM798.669927 368.03912h2.503667l-5.007335 7.511002v12.518338l-1.251834 20.02934-6.259168 15.022004c-3.755501 11.266504-1.251834 22.533007-3.755501 33.799511l-2.503668-1.251833c2.503667-10.01467 1.251834-18.777506 2.503668-28.792176l3.755501-10.01467-5.007335 12.518337c-1.251834 8.762836-1.251834 17.525672-3.755501 26.288509h-2.503668c2.503667-7.511002 2.503667-15.022005 2.503668-21.281174l5.007335-16.273839c2.503667-6.259169 6.259169-12.518337 6.259168-20.029339l1.251834-17.525673 6.259169-12.518337zM709.789731 375.550122l2.503668 2.503668c12.518337 26.288509 23.784841 52.577017 36.303178 78.865525l-2.503667 1.251834c-5.007335-11.266504-11.266504-22.533007-16.273839-35.051345l2.503667 7.511003c3.755501 8.762836 7.511002 18.777506 10.01467 27.540342l-2.503667 1.251834c-10.01467-27.540342-20.02934-55.080685-30.04401-81.369193V375.550122zM824.958435 375.550122l1.251834 2.503668-30.04401 82.621027-2.503667-1.251834c3.755501-8.762836 7.511002-18.777506 10.01467-27.540342l2.503667-8.762837c-5.007335 11.266504-10.01467 22.533007-16.273839 35.051345l-2.503667-1.251834c11.266504-23.784841 21.281174-47.569682 32.547677-71.354523l5.007335-10.01467zM686.00489 390.572127l1.251834-2.503667 2.503667 8.762836 7.511003 7.511002 15.022005 16.273839 6.259168 13.770171c5.007335 10.01467 15.022005 17.525672 21.281174 26.288509l-3.755501 2.503667c-5.007335-8.762836-13.770171-15.022005-18.777507-22.533007l-5.007334-10.01467 7.511002 15.022005c5.007335 6.259169 10.01467 12.518337 13.770171 18.777506l-2.503667 1.251834c-3.755501-8.762836-11.266504-13.770171-16.273839-22.533008l-5.007335-11.266503-11.266504-18.777507-10.01467-10.014669-2.503667-12.518338zM841.232274 398.08313l10.01467-7.511003h2.503667l-6.259168 5.007335-5.007335 11.266504-8.762837 18.777506-11.266503 12.518337c-7.511002 8.762836-10.01467 20.02934-16.273839 28.792176l-2.503667-1.251833c5.007335-7.511002 7.511002-16.273839 12.518337-23.784841l8.762836-10.01467-11.266503 11.266503c-3.755501 7.511002-7.511002 13.770171-12.518338 20.02934l-2.503667-1.251834c6.259169-7.511002 8.762836-17.525672 15.022005-25.036674l10.014669-10.01467 11.266504-15.022005 6.259169-13.770171zM660.968215 409.349633h2.503668l63.84352 60.08802-1.251833 1.251834c-10.01467-8.762836-18.777506-17.525672-28.792176-26.288509 8.762836 10.01467 17.525672 18.777506 26.288508 27.540342l-2.503667 2.503668c-18.777506-20.02934-37.555012-41.310513-57.584352-61.339854l-2.503668-3.755501zM872.528117 409.349633l2.503668-1.251833-1.251834 2.503667c-20.02934 21.281174-40.05868 42.562347-58.836186 63.843521l-2.503667-2.503668c8.762836-10.01467 17.525672-18.777506 26.288508-28.792176-10.01467 8.762836-18.777506 17.525672-27.540342 26.288509l-2.503667-2.503668c21.281174-18.777506 42.562347-38.806846 63.84352-57.584352zM644.694377 428.127139l5.007334 7.511003 11.266504 5.007335 18.777506 8.762836 11.266504 11.266504c8.762836 7.511002 20.02934 10.01467 28.792176 16.273838l-1.251834 2.503668c-7.511002-5.007335-16.273839-7.511002-23.784841-11.266504l-11.266504-8.762836 13.770172 11.266504 18.777506 11.266503-1.251834 2.503668c-7.511002-6.259169-16.273839-8.762836-25.036675-15.022005l-10.01467-10.01467-15.022005-11.266504-13.770171-6.259168-7.511002-10.01467 1.251834-3.755502zM880.03912 435.638142l12.518337-2.503668 2.503668 1.251834-8.762836 1.251834-6.259169 5.007335-11.266504 12.518337-15.022005 7.511003-17.525672 11.266503-15.022005 12.518338-1.251834-2.503668c7.511002-5.007335 12.518337-11.266504 20.02934-17.525672l12.518338-6.259169-12.518338 5.007335c-7.511002 5.007335-13.770171 11.266504-21.281173 16.273839l-1.251834-2.503668c8.762836-3.755501 13.770171-11.266504 22.533007-16.273838l12.518338-5.007335 18.777506-10.01467 8.762836-10.01467z" fill="#F6CA5F" p-id="1458"></path><path d="M764.870416 454.415648c12.518337-1.251834 25.036675 2.503667 35.051344 8.762836 12.518337 7.511002 22.533007 21.281174 26.288509 35.051345 3.755501 15.022005 2.503667 31.295844-5.007335 45.066015-6.259169 11.266504-16.273839 21.281174-28.792176 26.288508a62.591687 62.591687 0 0 1-47.569682 0c-12.518337-5.007335-23.784841-15.022005-30.04401-27.540342-7.511002-12.518337-8.762836-28.792176-5.007335-42.562347 3.755501-13.770171 12.518337-26.288509 23.784841-35.051345 10.01467-5.007335 20.02934-8.762836 31.295844-10.01467zM628.420538 456.919315l5.007335 1.251834c26.288509 10.01467 53.828851 20.02934 80.117359 30.04401l-1.251833 2.503667c-11.266504-3.755501-21.281174-7.511002-32.547678-12.518337l-3.755501-1.251834c11.266504 5.007335 22.533007 10.01467 35.051345 16.273839l-1.251834 2.503667c-26.288509-12.518337-52.577017-23.784841-78.865526-36.303178l-2.503667-2.503668zM905.075795 456.919315h2.503667l-2.503667 2.503668c-26.288509 12.518337-52.577017 23.784841-78.865526 36.303178l-1.251834-2.503667c11.266504-5.007335 22.533007-10.01467 35.051345-16.273839l-7.511002 2.503668c-8.762836 3.755501-18.777506 7.511002-27.540343 10.01467l-1.251834-2.503668c26.288509-10.01467 53.828851-20.02934 81.369194-30.04401z" fill="#F6CA5F" p-id="1459"></path><path d="M622.161369 481.95599l7.511003 5.007335h12.518337c7.511002-1.251834 13.770171-1.251834 21.281174 1.251834l13.770171 6.259169c11.266504 3.755501 22.533007 1.251834 33.799511 3.755501l-2.503668 2.503667c-10.01467-2.503667-20.02934-1.251834-28.792176-2.503667l-10.01467-3.755501 13.770171 5.007335c8.762836 1.251834 16.273839 1.251834 25.036675 3.755501v2.503667c-10.01467-3.755501-20.02934-1.251834-28.792176-5.007335-7.511002-2.503667-12.518337-6.259169-20.02934-7.511002l-16.273838-2.503668-18.777506-2.503667-2.503668-6.259169zM887.550122 489.466993l13.770171-5.007335 12.518338 2.503667 1.251834 2.503668-8.762837-1.251834-10.01467 3.755501-17.525672 7.511003H863.765281c-12.518337 0-23.784841 7.511002-36.303178 10.01467v-3.755502c10.01467-1.251834 18.777506-7.511002 28.792176-8.762836l10.01467-1.251834h-13.770171c-8.762836 2.503667-17.525672 6.259169-26.288509 6.259169v-2.503667c7.511002 0 13.770171-3.755501 21.281174-5.007335l17.525672-1.251834c8.762836-1.251834 16.273839-1.251834 22.533007-3.755501zM622.161369 513.251834c28.792176-1.251834 56.332518-2.503667 85.124695-3.755501v2.503667c-12.518337 0-26.288509 1.251834-38.806846 1.251834 12.518337 0 26.288509 1.251834 38.806846 1.251833v2.503668c-28.792176-1.251834-58.836186-2.503667-87.628362-3.755501l-2.503668-1.251834 5.007335 1.251834zM828.713936 510.748166c27.540342 1.251834 56.332518 2.503667 83.872861 3.755501h5.007335l1.251834 1.251834-2.503668 1.251834c-28.792176 1.251834-58.836186 2.503667-87.628362 3.755501v-2.503667c12.518337 0 25.036675-1.251834 38.806846-1.251834-12.518337-1.251834-26.288509-1.251834-38.806846-1.251834v-5.007335zM672.234719 530.777506c12.518337 0 23.784841-7.511002 36.303178-10.01467v3.755501c-10.01467 1.251834-20.02934 7.511002-30.044009 8.762837h-8.762837 13.770171c8.762836-2.503667 16.273839-6.259169 25.036675-6.259169l1.251834 2.503667c-8.762836 0-17.525672 5.007335-27.540342 6.259169h-13.770171c-7.511002 0-13.770171 0-21.281174 2.503668l-13.770171 5.007335-12.518338-2.503668-1.251833-2.503667 8.762836 1.251833 10.01467-3.755501 17.525672-6.259169 16.273839 1.251834zM828.713936 524.518337v-2.503667c7.511002 2.503667 16.273839 2.503667 23.784842 3.755501l13.770171 5.007335c6.259169 3.755501 12.518337 6.259169 20.02934 6.259169l16.273838 1.251834 10.01467 6.259168v2.503668l-7.511002-5.007335-8.762837-1.251834-17.525672 1.251834-12.518337-3.755501-16.273839-5.007335c-7.511002 0-15.022005 0-23.784841-1.251834l1.251834-3.755501c8.762836 2.503667 17.525672 1.251834 26.288508 2.503667l12.518338 3.755501-12.518338-5.007335c-7.511002-1.251834-16.273839-1.251834-25.036675-5.007335zM702.278729 538.288509l8.762836-3.755502 1.251834 2.503668c-11.266504 5.007335-23.784841 10.01467-35.051345 16.273838l8.762836-2.503667c8.762836-3.755501 18.777506-7.511002 27.540342-10.01467l1.251834 2.503668c-26.288509 10.01467-53.828851 20.02934-80.117359 30.044009l-5.007335 1.251834 2.503667-2.503667c22.533007-12.518337 46.317848-23.784841 70.10269-33.799511zM824.958435 537.036675l1.251834-2.503668c26.288509 12.518337 53.828851 25.036675 80.117359 36.303179l1.251834 2.503667h-2.503667c-27.540342-10.01467-55.080685-20.02934-81.369194-30.044009l2.503668-2.503668c10.01467 3.755501 21.281174 7.511002 32.547677 12.518337l2.503668 1.251834c-12.518337-7.511002-23.784841-12.518337-36.303179-17.525672zM689.760391 564.577017c10.01467-5.007335 16.273839-15.022005 25.036675-20.02934l1.251834 2.503668c-8.762836 5.007335-13.770171 13.770171-22.533008 18.777506l-10.01467 5.007335 13.770172-6.259169c6.259169-5.007335 12.518337-11.266504 20.029339-15.022005l1.251834 2.503668c-8.762836 3.755501-15.022005 11.266504-22.533007 16.273838l-11.266504 5.007335-18.777506 10.01467-11.266504 10.01467-12.518337 2.503668-2.503667-1.251834 8.762836-2.503668 7.511002-6.259168 16.273839-15.022005 17.525672-6.259169zM819.9511 547.051345l1.251834-2.503668c7.511002 6.259169 17.525672 8.762836 25.036675 16.273839l12.518337 12.518337 12.518338 8.762836 12.518337 6.259169 7.511002 10.01467v2.503668l-5.007334-7.511003-8.762837-3.755501-17.525672-6.259169-11.266504-8.762836-10.01467-10.01467c-7.511002-3.755501-16.273839-7.511002-22.533007-11.266504l1.251834-2.503667c7.511002 5.007335 16.273839 7.511002 23.784841 12.518337l10.01467 8.762837-11.266504-10.01467c-6.259169-6.259169-13.770171-8.762836-20.02934-15.022005zM662.220049 618.405868l60.088019-63.843521 2.503668 2.503668c-6.259169 7.511002-12.518337 13.770171-20.02934 21.281173l-5.007335 5.007335 5.007335-5.007335c7.511002-6.259169 13.770171-13.770171 21.281174-20.02934l2.503667 1.251834c-20.02934 18.777506-41.310513 37.555012-61.339853 57.584352l-3.755501 3.755501-1.251834-2.503667zM812.440098 557.066015l2.503667-2.503668c20.02934 21.281174 40.05868 42.562347 58.836186 63.843521l1.251834 2.503667-2.503668-1.251833c-21.281174-20.02934-42.562347-40.05868-63.84352-58.836186l2.503667-2.503668c7.511002 6.259169 15.022005 13.770171 22.533007 20.02934l5.007335 3.755501c-10.01467-7.511002-17.525672-16.273839-26.288508-25.036674zM714.797066 592.117359c6.259169-8.762836 10.01467-20.02934 16.273839-28.792176l2.503667 1.251834c-5.007335 7.511002-7.511002 16.273839-12.518337 23.784841l-8.762836 10.01467 10.014669-10.01467c5.007335-7.511002 7.511002-16.273839 13.770172-22.533007l2.503667 1.251834c-6.259169 7.511002-8.762836 17.525672-16.273839 25.036674l-12.518337 12.518338-8.762836 12.518337-6.259169 12.518338-10.01467 8.762836h-2.503667l6.259168-5.007335 5.007335-11.266504 8.762837-18.777506 12.518337-11.266504zM803.677262 564.577017l2.503667-1.251834 13.770171 17.525673 7.511003 15.022005 8.762836 17.525672 8.762836 8.762836 7.511003 13.770171-1.251834 6.259169-2.503668-10.01467-10.01467-8.762836-13.770171-15.022005-6.259168-13.770171c-5.007335-10.01467-15.022005-16.273839-21.281174-26.288509l2.503667-1.251833c5.007335 7.511002 11.266504 13.770171 17.525673 20.029339l6.259168 12.518338c0-8.762836-6.259169-15.022005-11.266503-20.02934l-8.762836-15.022005zM728.567237 602.132029c3.755501-11.266504 7.511002-22.533007 12.518338-32.547677l2.503667 1.251834c-3.755501 11.266504-7.511002 21.281174-12.518337 32.547677l-1.251834 3.755501c5.007335-11.266504 10.01467-22.533007 16.273839-35.051344l2.503667 1.251833c-12.518337 26.288509-23.784841 52.577017-36.303178 78.865526l-2.503668 2.503667v-2.503667c6.259169-17.525672 12.518337-33.799511 18.777506-50.07335zM793.662592 570.836186l2.503667-1.251834c10.01467 26.288509 20.02934 53.828851 30.04401 80.117359l1.251834 5.007335-2.503668-2.503667c-11.266504-25.036675-22.533007-48.821516-33.799511-73.858191l-2.503667-6.259168 2.503667-1.251834c5.007335 11.266504 10.01467 23.784841 16.273839 35.051345l-2.503668-8.762837c-5.007335-8.762836-8.762836-17.525672-11.266503-26.288508zM751.100244 573.339853l2.503668 1.251834c-2.503667 8.762836-1.251834 17.525672-2.503668 26.288509l-3.755501 12.518337 5.007335-11.266504c1.251834-8.762836 1.251834-17.525672 3.755501-26.288508h2.503668c-2.503667 10.01467-1.251834 20.02934-5.007335 28.792176-2.503667 7.511002-6.259169 12.518337-8.762836 20.02934l-2.503668 16.273838-3.755501 16.273839-6.259169 3.755501 5.007335-7.511002 1.251834-7.511003-1.251834-17.525672 5.007335-15.022005 5.007335-16.273839c2.503667-7.511002 2.503667-16.273839 3.755501-23.784841zM781.144254 574.591687l2.503668-1.251834c0 7.511002 3.755501 13.770171 5.007335 20.02934l1.251833 18.777506c0 7.511002 0 13.770171 1.251834 21.281174l6.259169 16.273838-2.503668 12.518338-2.503667 1.251834 1.251834-11.266504-6.259169-12.518337-5.007335-16.273839v-15.022005c-1.251834-11.266504-7.511002-21.281174-8.762836-31.295843h3.755501c1.251834 10.01467 7.511002 18.777506 8.762836 28.792176v10.014669-13.770171c0-11.266504-3.755501-18.777506-5.007335-27.540342zM763.618582 575.843521h2.503667c0 13.770171 1.251834 26.288509 1.251834 40.058679 0-12.518337 1.251834-26.288509 1.251834-40.058679h2.503667c-1.251834 28.792176-2.503667 56.332518-3.755501 85.124694l-1.251834 5.007335h-1.251833l-1.251834-5.007335c2.503667-28.792176 1.251834-57.584352 0-85.124694z" fill="#F6CA5F" p-id="1460"></path><path d="M776.136919 503.237164z m23.784841-6.259169l-11.266503-2.503667-8.762836 3.755501-5.007335 3.755501 2.503667 1.251834 5.007335-2.503668 3.755501-2.503667 7.511003-1.251834 13.770171 6.259169-7.511003-6.259169z m-17.525672 45.066015l-7.511002 3.755501-6.259169 2.503667-6.259169-2.503667-7.511002-3.755501 7.511002 6.259168 5.007335 1.251834-5.007335 2.503668-2.503667 5.007335 3.755501-5.007335 5.007335-1.251834 5.007335 1.251834 3.755501 5.007335-2.503667-5.007335-5.007335-2.503668 5.007335-1.251834 7.511002-6.259168z m6.259169-32.547677l-12.518338-5.007335s10.01467 12.518337 26.288509 2.503667l-13.770171 2.503668z m-13.770171 26.288508h-12.518338l-8.762836 6.259169 7.511002-3.755501h12.518338l7.511002 3.755501-6.259168-6.259169z m18.777506-28.792176l1.251833-7.511002 5.007335 3.755501-6.259168 3.755501z m-12.518338-2.503667l5.007335-3.755502 1.251834 7.511003-6.259169-3.755501z m12.518338-6.259169l8.762836 6.259169-11.266504 3.755501-6.259168-1.251834-5.007335-2.503667 5.007335-5.007335 8.762836-1.251834zM776.136919 520.762836s-7.511002-10.01467-5.007335-20.02934c2.503667-10.01467 10.01467-11.266504 13.770172-11.266503 3.755501 0 16.273839 1.251834 23.784841 7.511002l-11.266504-8.762836-10.01467-1.251834-13.770171 6.259169c-5.007335 5.007335-3.755501 22.533007 1.251834 28.792176l1.251833-1.251834z m-25.036675-23.784841l3.755502 2.503668 3.755501 2.503667 2.503667-1.251834-6.259168-3.755501-8.762836-3.755501-11.266504 2.503667-6.259169 6.259169 13.770171-6.259169 8.762836 1.251834z m11.266504 28.792176c-1.251834 0-6.259169 6.259169-6.259169-3.755501l-1.251833 6.259169 2.503667 1.251833 6.259169-1.251833 5.007335 1.251833 5.007335-1.251833 5.007335 1.251833 2.503667-1.251833-1.251833-6.259169c0 8.762836-5.007335 3.755501-6.259169 3.755501l-6.259169 2.503668-5.007335-2.503668z m6.259169 15.022005l12.518337 1.251834-12.518337 1.251834-12.518338-1.251834 12.518338-1.251834zM751.100244 489.466993c-3.755501 0-16.273839 1.251834-23.784841 7.511002l11.266504-8.762836 10.01467-1.251834 13.770171 6.259169c5.007335 5.007335 3.755501 21.281174-1.251834 28.792176h-2.503667s7.511002-10.01467 5.007335-20.02934c-1.251834-10.01467-8.762836-12.518337-12.518338-12.518337z m8.762837 13.770171z m-22.533008 0l5.007335-3.755501 1.251834 7.511002-6.259169-3.755501z m13.770171-3.755501l5.007335 3.755501-6.259168 2.503667 1.251833-6.259168z m1.251834 7.511002l-6.259168 1.251834-11.266504-3.755501 8.762836-6.259169 10.01467 1.251834 5.007335 5.007335-6.259169 2.503667z m7.511003-2.503667l-12.518338 5.007335-12.518337-2.503668c16.273839 11.266504 25.036675-2.503667 25.036675-2.503667z" fill="#985524" p-id="1461"></path></svg>