<?xml version="1.0" standalone="no"?><!DOCTYPE svg PUBLIC "-//W3C//DTD SVG 1.1//EN" "http://www.w3.org/Graphics/SVG/1.1/DTD/svg11.dtd"><svg t="1529328345249" class="icon" style="" viewBox="0 0 3126 1024" version="1.1" xmlns="http://www.w3.org/2000/svg" p-id="3367" xmlns:xlink="http://www.w3.org/1999/xlink" width="610.546875" height="200"><defs><style type="text/css"></style></defs><path d="M1200.553103 893.041407c-116.35375-74.969195-274.090056-88.164053-528.787319-17.392813-271.491084 63.774315-361.856113 104.757875-480.807835 22.590757-45.58151-40.383566-61.974334-105.15787-49.779466-198.719865 28.388695-152.338364 104.957873-299.079787 241.10341-461.815039C458.251077 153.138355 528.622321 80.369137 621.785321 51.17945c71.371233-18.392802 64.574306 37.784594 55.977398 45.781508-9.195901 0-24.389738 1.399985-36.185611 9.196902-9.595897 7.396921-35.985613 31.386663-37.384598 63.774315-1.999979 49.37947 49.179472 39.183579 71.171235 11.994871 23.789744-30.587671 58.976366-89.164042 31.387663-143.942454C695.155533 18.5928 675.162747 5.197944 650.173016 0.599994c-85.166085-4.797948-164.534233 35.785616-237.704447 80.567134-160.13628 111.155806-288.284903 265.29415-360.656126 434.025338C9.831894 616.953373-27.9527 762.894805 28.624693 881.647529c43.78253 82.366115 134.745553 126.148645 243.302386 116.952744 76.169182-7.996914 168.132194-32.58665 230.107528-47.381491 61.975334-14.793841 378.84793-123.749671 483.005812 65.774293 0 0 34.586628-67.173278 121.151698-68.572263 71.171235-6.597929 173.730134 20.590779 248.500331 75.569188-24.789734-37.784594-95.361976-92.963001-154.138345-130.947593z" fill="#d81e06" p-id="3368"></path><path d="M703.952438 256.697243c-59.376362-38.984581-178.328084 35.38562-273.890058 162.934249C342.896317 533.985264 305.112722 666.932836 346.096282 728.508174c60.975345 72.370223 174.330127-32.787648 222.310612-89.165042l6.196933-6.596929c32.787648-35.185622 57.977377-77.569167 82.567114-118.152731 0 0 22.590757-37.184601 23.590746-38.984581 13.99485-2.598972 30.587671-6.596929 49.579468-11.994871-0.199998 0.799991-72.170225 121.750692-64.973303 181.927045 2.199976 18.392802 0.599994 85.166085 65.773294 105.557867 87.165064 14.593843 156.538318-52.979431 217.912659-112.954787 0 0 10.395888-9.995893 16.393824-15.79383-1.399985 5.997936-3.398963 13.99385-3.398964 13.993849-25.589725 88.565049 8.796906 107.157849 30.387674 114.154774 64.974302 18.791798 142.543469-75.569188 142.742467-75.569188-1.998979 29.78768-7.995914 54.377416 23.390748 73.969205 29.588682 10.595886 59.57636-5.59694 82.367116-20.790776 81.967119-57.777379 147.940411-148.141409 201.319837-226.309569h-33.986635c-0.399996 0-83.966098 121.151699-138.144516 147.340417 0 0-9.995893 4.997946-15.593832 0.999989-6.996925-5.997936-4.198955-18.5928 0-27.389706 0.199998-0.598994 209.515749-363.453096 209.515749-363.453095h-98.559941s-10.795884 17.392813-11.595876 18.5918c-0.599994-0.599994-2.199976-3.597961-3.398963-4.997946-61.175343-84.566092-199.719855 45.58251-304.076734 196.521888-40.184568 57.976377-91.364019 123.349675-144.342449 170.531169 0 0-78.569156 71.971227-112.155795 20.191783-12.194869-21.790766-8.39591-53.578424-1.598983-74.369201 38.984581-111.155806 106.356857-212.115721 183.126033-273.091067 21.591768-16.79382 45.182515-21.791766 56.77739-14.593843 11.19588 6.596929 12.99486 22.789755 5.797937 33.985635-17.792809-0.599994-32.186654 4.797948-43.782529 16.793819-22.989753 23.989742-30.787669 47.180493-23.589747 68.97226 35.38462 50.379459 105.956862-49.180472 102.558898-109.755821-1.199987-21.791766-12.795863-42.383545-30.188675-52.379438-25.789723-15.393835-65.1733-11.394878-90.564027 0.799992-34.185633 12.794863-87.964055 57.776379-119.551716 92.563005-39.583575 43.78253-107.756842 92.363008-128.948615 86.965066 6.997925-17.792809 64.574306-135.345546 3.998957-179.328073z m476.208884 173.930131c19.191794-26.589714 75.169193-97.76095 88.764047-109.755821 45.781508-40.384566 64.174311-22.591757 65.774293-9.995892-42.78354 76.569177-93.362997 164.533233-140.743488 243.302386 0-0.199998-14.794841 22.589757-14.794841 22.589757-20.991775 31.987656-42.182547 59.57636-76.569177 78.569156-4.997946 1.399985-12.99486 1.999979-18.392803-1.999978-6.396931-4.197955-8.995903-11.394878-8.395909-18.791798 1.998979-24.589736 27.189708-99.758928 104.357878-203.91781z m-537.184229 45.981506s-0.799991 2.598972-1.199987 3.397964c-0.199998 0-42.982538 69.972248-42.982538 69.972248-25.989721 34.586628-58.376373 78.16916-98.759939 98.960937-11.995871 3.997957-28.589693 6.596929-36.985603-3.998957-17.992807-21.39177-8.596908-51.17945-1.199987-75.169193l2.599972-8.596907c21.590768-58.376373 55.577403-109.755821 88.764046-157.537308 0.399996-0.199998 1.399985-0.599994 1.599983-0.599994 0 0.199998 0.199998 0.199998 0.199998 0.799992 20.790777 39.98457 59.975356 58.576371 89.163042 67.173278 0.199998 0 0.399996 0.199998 0.399996 0.799992 0 0.999989-0.599994 2.198976-1.599983 4.797948z m40.583564-82.567113c-0.199998 0.599994-19.192794 43.982528-19.192794 43.982528-2.79897 2.198976-6.996925 1.199987-11.994871 0l-8.596908-1.399985c-26.789712-8.195912-46.780497-25.989721-52.97843-47.180493-8.596908-41.183558 26.589714-73.57021 42.183546-85.166086 14.793841-10.395888 37.984592-15.79383 51.379448-5.197944 8.195912 9.795895 11.394878 22.390759 11.394878 35.985614 0 18.5928-5.59794 39.384577-12.194869 58.976366zM1932.259243 526.588343c-9.595897-20.591779-32.186654-33.786637-56.177396-32.386652-78.16916 7.196923-154.738338 71.571231-194.921906 163.934239-20.991775 47.380491-32.58665 86.56507-40.183569 148.9404 24.389738-27.989699 73.970205-73.970205 130.3476-99.160935 0 0 7.596918-59.775358 46.781498-112.953786 14.793841-21.991764 44.381523-57.577381 77.569166-47.981485 28.987689 9.796895 18.791798 90.164031-19.792787 167.933196-28.588693 57.176386-72.171225 114.353772-116.35275 153.938347-38.984581 33.186644-96.961958 73.170214-147.541415 42.382544-31.786659-18.792798-48.180482-58.376373-44.581521-109.155827 15.193837-144.342449 80.96713-267.293129 175.129118-407.436623 96.960958-130.148602 203.917809-263.694167 348.060261-334.866403 29.388684-14.793841 56.577392-18.391802 80.168139-9.195901 0 0-135.145548 74.370201-199.719854 211.914723-16.393824 34.986624-39.184579 81.967119-16.193826 123.750671 11.995871 21.791766 33.386641 23.390749 50.379458 22.390759 78.969152-18.391802 130.148602-92.16301 171.732156-159.535286 24.18974-51.17945 45.58151-102.158903 45.58151-158.736295 0-6.797927-0.399996-15.993828-0.999989-22.790755 37.784594-19.992785 115.153763 15.393835 115.153763 15.393835 60.575349 19.991785 189.323966 118.751724 232.7075 137.544522 21.190772-24.589736 55.976399-61.775336 75.569188-80.368136l-28.389695-17.392814c-45.380513-27.789701-93.561995-53.97842-140.742488-80.168138-107.356847-58.576371-194.721908-37.984592-239.304429-21.990764-17.392813 6.197933-33.386641 11.794873-33.386642 11.794873-32.986646-35.985613-87.165064-32.58665-126.948636-22.789755-143.542458 41.182558-276.689028 141.54248-419.431494 315.672609-104.958873 136.345535-170.132172 254.297268-204.917799 370.651018-26.789712 78.369158-34.986624 193.522921 30.387673 261.895187 55.577403 57.976377 129.148613 45.381513 181.128055 24.589736 112.553791-55.577403 213.913702-174.929121 264.293161-312.474644 11.994871-41.383555 25.389727-99.159935 4.59795-143.34246zM2191.156462 95.761971c-14.993839 170.931164-147.940411 271.491084-180.728058 279.486998-19.991785 3.998957-53.97742-4.797948-23.589747-76.569177 44.781519-96.760961 120.951701-178.72808 202.91782-220.71063 1.999979 6.796927 1.999979 11.394878 1.399985 17.792809z m788.48353 21.590768c-71.571231 40.583564-145.541437 66.973281-235.305472 57.77738-24.789734 27.988699-48.980474 56.976388-71.371233 86.56507 125.948647 31.986656 259.495212-39.184579 333.866413-106.956851C3085.596854 86.365072 3125.97942 0.399996 3125.97942 0.399996s-58.976366 67.572274-146.341428 116.952743zM1628.381508 259.895208h-93.762993l-52.978431 85.966077h93.762993z" fill="#d81e06" p-id="3369"></path><path d="M2743.933524 901.038321c-9.995893 6.796927-24.18974 1.599983-18.992796-14.193848 13.194858-39.98457 65.574296-121.551694 65.574296-121.551694l146.14143-259.096217h-100.159924c-4.797948 7.796916-14.993839 25.789723-14.993839 25.789723-4.597951-7.796916-18.392802-24.789734-24.18974-28.588693-24.390738-15.393835-60.376351-8.195912-85.167085 5.797938-107.556845 62.974324-186.125001 187.324988-248.100335 284.285946 0 0-65.1733 107.756842-101.358911 115.753757-28.188697 2.198976-25.389727-35.785616-24.189741-44.582521 10.994882-63.974313 36.184611-124.948658 61.774337-180.128065 51.979442-35.984613 111.355804-83.166107 165.134226-134.945551 116.952744-111.7548 215.513685-238.504438 230.107528-266.892133 0 0-15.593832 3.197966-33.986635 3.79796-89.964034 125.549651-274.090056 308.076691-330.066454 335.0664 24.789734-59.57736 184.525018-343.46331 320.470557-479.208852l21.39177-20.591779c33.186644-32.386652 67.372276-65.573296 94.161989-70.971237 2.79897-0.199998 6.396931 0 9.595897 6.597929 1.199987 25.189729-8.196912 43.78153-18.992796 64.973302l-14.993839 30.987667s21.39177-3.997957 35.38562-8.596908c16.193826-30.587671 34.186633-64.973302 27.589703-105.756864-2.199976-13.194858-11.795873-23.190751-24.18974-25.389727-40.584564-7.796916-84.767089 22.389759-120.352707 46.5805l-1.399985 0.799991C2577.201315 204.317805 2422.862973 410.635589 2287.917423 692.722559c-9.795895 7.397921-47.580489 16.393824-53.97842 11.995871 13.394856-27.389706 30.187676-64.374308 38.584585-104.358879 1.399985-11.394878 2.79997-23.189751 2.79997-34.585629 0-24.589736-5.998936-47.780487-27.989699-63.774315-25.789723-12.794863-57.776379-6.796927-79.368148 2.79897-96.560963 39.98357-168.732187 138.944507-220.711629 220.511632-27.988699 51.779444-55.977399 107.156849-63.574317 170.731166-5.397942 49.779465 5.59794 81.767122 33.986635 97.760949 29.187686 14.793841 65.773293-0.599994 80.168139-7.996914 97.75995-51.379448 166.133215-154.738338 219.911638-249.100324 2.198976-0.199998 31.586661-1.199987 53.778422-6.796927 0.199998 0 0.399996 0 0.999989 0.399996-1.199987 4.197955-12.795863 38.584586-12.795862 38.584585-34.185633 100.158924-49.979463 168.132194-17.592811 208.51576 45.981506 56.977388 122.350686-1.998979 184.326019-79.768143-13.394856 93.162999 34.985624 107.756842 71.77123 100.759918 42.382545-11.395878 89.36404-56.577392 111.355803-79.768143-6.997925 27.189708-5.197944 75.769186 33.385642 80.568134 26.389717 4.797948 46.181504-9.396899 68.973259-21.791766 81.967119-44.581521 179.928067-193.321923 205.517792-236.304461h-33.387641c-35.985613 54.177418-82.167117 125.748649-140.143495 159.935282z m-735.305101-9.995893c-5.197944-7.796916-6.996925-16.193826-6.996925-25.389727-0.999989-55.977399 59.376362-156.537318 101.958905-211.115732 17.792809 38.984581 58.176375 64.174311 82.567113 74.770197-30.387674 67.573274-134.346557 212.114721-177.528093 161.735262z m194.52191-191.922938c-2.79897 1.999979-53.778422-15.193837-63.774315-62.37533-8.39691-40.583564 19.59279-72.370223 46.781498-88.364051 11.594875-9.196901 29.188686-12.194869 41.983549-7.796916 11.994871 7.996914 15.193837 22.390759 15.193837 37.784594 0 9.395899-1.199987 19.192794-2.399975 27.989699 0 0-0.199998 1.797981-0.199997 1.997979-8.595908 31.787659-21.589768 62.975324-37.584597 90.764025z m408.835609 173.930132l-9.595897 8.596907c-13.793852 12.194869-27.988699 25.389727-44.981517 18.791798-4.797948-1.798981-7.996914-7.996914-8.796906-12.794862-0.799991-35.185622 14.993839-67.772272 30.387674-99.558931l3.998957-8.39791c44.182525-73.769208 95.561973-160.735273 170.931164-221.110624 12.794863-9.196901 26.589714-16.79382 40.98356-10.795884 3.398963 3.198966 7.196923 8.596908 7.196922 13.994849 0 1.798981-1.598983 6.196933-2.398974 7.796917-20.991775 33.985635-41.183558 69.771251-60.575349 104.157881-38.18459 67.772272-77.769165 137.74452-127.148634 199.319859z" fill="#d81e06" p-id="3370"></path></svg>