<?xml version="1.0" standalone="no"?><!DOCTYPE svg PUBLIC "-//W3C//DTD SVG 1.1//EN" "http://www.w3.org/Graphics/SVG/1.1/DTD/svg11.dtd"><svg t="1529377250393" class="icon" style="" viewBox="0 0 1024 1024" version="1.1" xmlns="http://www.w3.org/2000/svg" p-id="2476" xmlns:xlink="http://www.w3.org/1999/xlink" width="200" height="200"><defs><style type="text/css"></style></defs><path d="M511.442 511.032m-448.478 0a448.478 448.478 0 1 0 896.956 0 448.478 448.478 0 1 0-896.956 0Z" fill="#F95858" p-id="2477"></path><path d="M103.843 508.632l116.998-34.123c-4.884 4.872-9.758 9.758-9.758 24.378-4.871 24.352 0 97.482 0 97.482l82.878-107.252c9.758-14.607-4.874-29.226-19.491-29.226l126.733-39.007L293.96 571.991l121.872 121.874-116.988 29.249-87.762-82.875s-4.871 78.004 4.874 97.507c4.884 0 4.884 4.874 9.758 4.874l-121.872 34.123c4.884-4.874 9.758-9.748 9.758-19.493V532.997c0-4.887-4.874-14.607-9.758-19.493v-4.872z m326.608-92.622l219.369-63.375v63.375c4.874-19.503-117 4.874-112.126 14.632v73.117l43.881-19.491 38.997-9.758v58.488s-14.619 0-29.251-4.887c-19.491-4.871-48.755 19.506-48.755 19.506s-4.871 73.13 0 92.623c4.887 9.758 4.887 14.629 14.632 14.629l-121.859 34.123c0-4.871 4.871-4.871 4.871-9.746V425.755c-0.001-4.871-4.872-9.745-9.759-9.745z m321.737-92.623c48.755-24.377 82.878-34.135 146.249-43.881v63.372s-155.995 0-155.995 92.636c0 87.726 19.503 82.878 43.868 92.598 24.377 9.758 87.762 4.887 107.255-4.871 14.629-9.735 19.491-9.735 24.365-24.352v58.475l-136.49 34.133c-19.494 0-48.755 0-63.362-4.874-48.755-14.632-63.384-34.135-68.258-126.733 0-58.512 58.5-107.255 102.368-136.503zM888.692 620.746l14.619 14.619h4.884l-14.629-14.619h9.745c0-4.884 4.884-4.884 4.884-9.758s-4.884-4.874-4.884-9.745H878.947v34.123h4.874v-14.619h4.871z m9.745-4.884s-4.871 4.884-9.745 4.884h-4.871v-14.632h14.616v9.748z" fill="#FFFFFF" p-id="2478"></path></svg>