<?xml version="1.0" standalone="no"?><!DOCTYPE svg PUBLIC "-//W3C//DTD SVG 1.1//EN" "http://www.w3.org/Graphics/SVG/1.1/DTD/svg11.dtd"><svg t="1529378039625" class="icon" style="" viewBox="0 0 1024 1024" version="1.1" xmlns="http://www.w3.org/2000/svg" p-id="9691" xmlns:xlink="http://www.w3.org/1999/xlink" width="200" height="200"><defs><style type="text/css"></style></defs><path d="M847.758641 356.009977c-34.54282-42.935265-81.126975-85.748901-152.645207-85.748901-50.111415 0-91.830384 48.773489-161.037653 48.773489-54.854971 0-77.599715-46.462525-137.198242-46.462526-124.06224 0-246.908184 110.804609-246.908184 254.814111 0 76.140159 25.055707 194.120917 81.126975 296.53308 40.502673 75.045492 90.614087 123.818981 146.685354 123.818981 40.502673 0 88.181494-36.975413 145.469058-36.975413 50.111415 0 96.57394 33.326523 141.941799 33.326524 108.493645 0 208.716475-140.482243 208.716474-234.62359 0-4.743556-1.216296-8.392446-1.216296-11.919705v-5.959853c-70.301936-38.191709-108.493645-94.141347-108.493645-175.025062 0-65.55838 28.582967-122.724314 81.126974-159.578097l2.432593-0.973038z" fill="#ffffff" p-id="9692"></path><path d="M531.521558 303.587599C612.648533 278.531892 687.815655 217.838698 687.815655 111.899275c0-8.270816-1.216296-19.095855-2.432593-31.01556l-1.216296-4.743556c-82.343271 22.623114-156.294097 86.965198-156.294097 188.161064 0 9.487112 1.216296 21.406818 3.52726 34.54282l0.121629 4.743556z" fill="#ffffff" p-id="9693"></path></svg>