<?xml version="1.0" encoding="utf-8"?>
<!-- Generator: Adobe Illustrator 16.0.0, SVG Export Plug-In . SVG Version: 6.00 Build 0)  -->
<!DOCTYPE svg PUBLIC "-//W3C//DTD SVG 1.1//EN" "http://www.w3.org/Graphics/SVG/1.1/DTD/svg11.dtd">
<svg version="1.1" xmlns="http://www.w3.org/2000/svg" xmlns:xlink="http://www.w3.org/1999/xlink" x="0px" y="0px" width="200px"
	 height="200px" viewBox="0 0 200 200" enable-background="new 0 0 200 200" xml:space="preserve">
<g id="图层_2">
</g>
<g id="图层_1">
	<path fill="#9E7F2F" d="M88.32,26.82c9.3-1.76,18.87-1.07,28.241-0.21c5.789,0.79,11.709,1.32,17.219,3.4
		c5.391,2.19,11.021,3.71,16.371,6c0.3,4.73,0.34,9.47,0.039,14.21c-12.199-3.21-24.59-7.63-37.41-6.47
		c-4.67-0.05-9.35-0.11-14.029,0c-0.13,3.8-0.12,7.6,0.03,11.4c17.31,0.33,34.64,0.21,51.96,0.05c-7.2,1.05-14.49,0.23-21.73,0.44
		c-8.34-0.12-16.66,0.88-25,0.48c-1.91-0.13-3.81-0.32-5.71-0.5c-0.19-3.74-0.41-7.49-0.64-11.23c-8.28,0.26-16.62,0.72-24.66,2.83
		c-3.74,1-7.55,1.71-11.41,2.01c5.13-2.42,10.72-3.49,16.11-5.16c-0.04-2.09,1.36-3.46,3.11-4.34c1.4,0.97,2.56,3.12,4.52,2.58
		c2.58-0.7,4.72-2.42,7.03-3.7c0.04,0.47,0.12,1.4,0.15,1.86c3.77,0.06,7.79,0.81,11.37-0.7c1.72-1.48,0.511-3.98,0.63-5.93
		c-3.41-0.2-6.8-0.69-10.1-1.55c3.12-0.41,6.27-0.66,9.42-0.81c0-0.54-0.01-1.6-0.02-2.13c-3.61-0.06-7.221-0.07-10.831-0.14
		c-2.74-0.06-5.48-0.21-8.21-0.38C85.94,28.15,87.11,27.46,88.32,26.82 M108.471,29.52c-3.301,1.56-2.271,6.16-1.98,9.09
		c2.189,3.02,6.59,1.87,9.779,1.9c-1.99-1.6-4.42-2.42-6.84-3.1c0.131-1.77,0.28-3.52,0.43-5.28c2.98,0.03,5.971,0.14,8.951,0.35
		l-0.08-1.97C115.33,30.05,111.91,29.19,108.471,29.52 M138.76,34.18c-1.949,3.33-1.71,7.26-1.699,10.98
		c1.67,0.1,3.34,0.19,5.02,0.29c-0.551-1.06-1.1-2.12-1.65-3.17c1.883-0.101,3.763-0.23,5.641-0.39c-1.711-1.4-3.49-2.71-5.301-3.98
		c2.541,0.33,5.08,0.59,7.641,0.68C145.971,35.77,142.13,35.27,138.76,34.18z"/>
	<path fill="#F3E69A" d="M44.28,36.29c12.56-4.47,25.6-8.44,38.98-9.09c-12.71,3.55-25.95,5.47-38.11,10.81
		c0.01,4.66,0.07,9.32,0.24,13.98c4.85-1.74,9.75-3.39,14.86-4.17c-4.71,2.34-9.71,4.02-14.64,5.85
		c-0.18,5.18-0.43,10.37-0.87,15.54C43.76,58.27,44.6,47.26,44.28,36.29z"/>
	<path fill="#A58831" d="M83.26,27.2c1.67-0.31,3.37-0.33,5.06-0.38c-1.21,0.64-2.38,1.33-3.55,2.01c2.73,0.17,5.47,0.32,8.21,0.38
		c-0.27,2.09-0.52,4.18-0.78,6.27c3.45,0.1,6.9,0.37,10.319,0.86c-2.979,2.02-6.79,1.49-10.16,2.27c-2.31,1.28-4.45,3-7.03,3.7
		c-1.96,0.54-3.12-1.61-4.52-2.58c-1.75,0.88-3.15,2.25-3.11,4.34c-5.39,1.67-10.98,2.74-16.11,5.16c3.86-0.3,7.67-1.01,11.41-2.01
		c8.04-2.11,16.38-2.57,24.66-2.83c0.23,3.74,0.45,7.49,0.64,11.23c1.9,0.18,3.8,0.37,5.71,0.5l-0.05,1.07
		c-1.649,0.03-3.31,0.08-4.96,0.12c-0.31,4.44-0.35,8.91,0.07,13.35l-0.79-0.1c-0.34-1.5-0.63-3-0.92-4.51
		c-0.19,1.56-0.37,3.11-0.56,4.67c-6.17,0.01-12.35-0.34-18.51,0.12c1.27-1.27,2.59-2.49,3.86-3.75c-4.01,0.97-7.19,4-11.38,4.38
		c1.16-2.35,2.45-4.63,3.72-6.93c-2.75,2-5.04,4.52-6.89,7.36l-3.56,0.27c0.82-2.21,1.65-4.43,2.39-6.67
		c-3.72,2.46-4.24,7.5-8.03,9.86c-0.03-2.38-0.01-4.76-0.02-7.14c-1.97,2.48-3.1,5.46-3.82,8.52c-1.47-0.37-2.95-0.75-4.42-1.13
		c-0.52,1.13-1.04,2.27-1.56,3.4c-1.28-0.35-2.57-0.7-3.85-1.04c-0.12-2.92-0.18-5.85,0.01-8.76c0.44-5.17,0.69-10.36,0.87-15.54
		c4.93-1.83,9.93-3.51,14.64-5.85c-5.11,0.78-10.01,2.43-14.86,4.17c-0.17-4.66-0.23-9.32-0.24-13.98
		C57.31,32.67,70.55,30.75,83.26,27.2 M62.56,36.46c-1.54,2.87-0.63,6.2-0.22,9.24c4.35-0.69,8.94-1.21,12.74-3.6
		c2.54-3.06,2.6-10.05-2.35-10.73C68.83,31.29,64.5,32.87,62.56,36.46 M47.49,38.63c-0.28,3.5-0.23,7.08,1.03,10.4
		c2.03-2.271,3.13-5.12,1.65-8.01c3.26-1.94,6.58-3.78,9.76-5.85C55.72,36.09,51.59,37.34,47.49,38.63 M75.73,50.66
		c-1.43,1.68-2.17,3.81-3.44,5.61c-1.63,1.13-3.87,0.62-5.74,0.92c0.81-2.58,1.99-5.02,3.32-7.37c-1.3,0.68-2.67,1.26-3.84,2.16
		c-0.88,1.99-1.31,4.13-2.17,6.12c-1.79,1.13-3.94,1.42-5.96,1.9c0.53-2.85,1.67-5.53,3.04-8.07c-1.4,0.88-2.96,1.58-4.09,2.82
		c-0.99,2.34-0.95,4.95-1.3,7.43c-1.14-0.13-2.27-0.27-3.41-0.37c-3.19-0.91-3.11,3.46-4.14,5.36c2.38,0.27,4.77,0.38,7.15,0.4
		c0.11-1.13,0.21-2.26,0.32-3.4c10.28-4.96,22.51-8.7,33.68-4.45c-1.68-1.56-3.4-3.09-5.14-4.59c1.7-1.03,3.39-2.08,5.04-3.18
		c-5.27-0.78-8.18,5.37-13.57,4.12c0.73-2.84,2.55-5.11,4.43-7.27C78.49,49.36,77.02,49.84,75.73,50.66z"/>
	<path fill="#E9C36B" d="M92.98,29.21c3.61,0.07,7.22,0.08,10.831,0.14c0.01,0.53,0.02,1.59,0.02,2.13c-3.15,0.15-6.3,0.4-9.42,0.81
		c3.3,0.86,6.689,1.35,10.1,1.55c-0.119,1.95,1.09,4.45-0.63,5.93c-3.58,1.51-7.6,0.76-11.37,0.7c-0.03-0.46-0.11-1.39-0.15-1.86
		c3.37-0.78,7.18-0.25,10.16-2.27c-3.419-0.49-6.87-0.76-10.319-0.86C92.46,33.39,92.71,31.3,92.98,29.21z"/>
	<path fill="#F3DE8B" d="M108.471,29.52c3.439-0.33,6.859,0.53,10.26,0.99l0.08,1.97c-2.98-0.21-5.971-0.32-8.951-0.35
		c-0.149,1.76-0.299,3.51-0.43,5.28c2.42,0.68,4.85,1.5,6.84,3.1c-3.189-0.03-7.59,1.12-9.779-1.9
		C106.2,35.68,105.17,31.08,108.471,29.52z M133.779,30.01c6.33-0.1,12.111,2.76,18.171,4.15l-0.03,0.78
		c-0.391,8.77,0.35,17.64-1.5,26.29c-0.08-1.35-0.17-2.7-0.29-4.05c-15.39,0.13-30.78-0.03-46.17,0.01l0.05-1.07
		c8.34,0.4,16.66-0.6,25-0.48c7.24-0.21,14.53,0.61,21.73-0.44c-0.5-1.74-1.5-3.25-3.36-3.67c-11.17-3.94-22.87-6.22-34.601-7.78
		c12.82-1.16,25.211,3.26,37.41,6.47c0.301-4.74,0.261-9.479-0.039-14.21C144.8,33.72,139.17,32.2,133.779,30.01L133.779,30.01z
		 M97.36,66.05c0.29,1.51,0.58,3.01,0.92,4.51l0.79,0.1c6.38,0.32,12.77,0.2,19.161,0.24c-0.311,0.22-0.931,0.67-1.24,0.89
		c-12.62,0.86-25.32,0.2-37.97,0.43l0.04,0.81c0.14,9.01-0.48,18.03-0.14,27.03c0.12,5.68,3.23,10.69,7.04,14.68
		c-0.39,0.02-1.16,0.07-1.55,0.09c-11.6,0.65-23.24,0.08-34.85,0.3l-0.36-0.851c10.35,0.221,20.69-0.469,31.01-0.979
		c0.44-0.021,1.33-0.05,1.77-0.06c-2.04-4.07-3.72-8.311-4.88-12.71c-7.1-0.38-14.22-0.36-21.33-0.57
		c7.18-1.21,14.54,0.23,21.65-1.26c0.5-3.98-0.11-7.99-0.1-11.98c0-1.53,0.02-3.06,0.01-4.58c-0.05-2.82-0.23-5.63-0.24-8.45
		c0.36-0.97,0.76-1.92,1.2-2.85c6.16-0.46,12.34-0.11,18.51-0.12C96.99,69.16,97.17,67.61,97.36,66.05z M119.04,70.85
		c10.271-0.47,20.55-0.15,30.819,0.1v1.01c-10.02,0.2-20.06,0.52-30.069,0.08L119.04,70.85z M119.55,83.62
		c7.58,0.12,15.14,0.59,22.69,1.28c-7.57,0.18-15.141,0.23-22.711,0.4C119.54,84.88,119.55,84.04,119.55,83.62z"/>
	<path fill="#8A661D" d="M62.56,36.46c1.94-3.59,6.27-5.17,10.17-5.09c4.95,0.68,4.89,7.67,2.35,10.73
		c-3.8,2.39-8.39,2.91-12.74,3.6C61.93,42.66,61.02,39.33,62.56,36.46 M65.71,36.69c-0.37,1.6-0.52,3.25-0.71,4.88
		c3.3-0.36,6.61-0.52,9.92-0.57c-0.71-1.88-1.44-3.75-2.16-5.63C70.39,35.63,67.92,35.68,65.71,36.69z"/>
	<path fill="#BF9847" d="M138.76,34.18c3.37,1.09,7.211,1.59,9.65,4.41c-2.561-0.09-5.1-0.35-7.641-0.68
		c1.811,1.27,3.59,2.58,5.301,3.98c-1.878,0.16-3.758,0.29-5.641,0.39c0.551,1.05,1.1,2.11,1.65,3.17c-1.68-0.1-3.35-0.19-5.02-0.29
		C137.05,41.44,136.811,37.51,138.76,34.18z"/>
	<path fill="#DBC574" d="M47.49,38.63c4.1-1.29,8.23-2.54,12.44-3.46c-3.18,2.07-6.5,3.91-9.76,5.85c1.48,2.89,0.38,5.74-1.65,8.01
		C47.26,45.71,47.21,42.13,47.49,38.63z M126.99,107.9c1.6-1.51,3.31-2.91,5.15-4.141c-1.44,1.891-2.891,3.76-4.32,5.641
		l-2.631-0.521c0-0.36-0.01-1.069-0.02-1.43C125.63,107.561,126.529,107.79,126.99,107.9z M50.38,121.43
		c0.31,0.291,0.95,0.851,1.26,1.131c1.2,1.77,2.34,3.58,3.46,5.399c13.9,0.31,27.83-0.58,41.69,0.729
		c-5.3,0.701-10.65,0.881-15.99,1c-8.3,0.281-16.6-0.049-24.89,0.19c2.53,4.49,5.55,8.67,8.84,12.63
		c7.83,0.561,15.69,0.221,23.52,0.561c-7.29,1.029-14.7,0.59-21.97,1.74l0.81,0.719c1.36,1.32,2.67,2.691,4.04,4.011l-1.52,0.08
		c-3.44-1.39-5.33-4.979-7.71-7.64C57.29,135.689,51.82,129.34,50.38,121.43z"/>
	<path fill="#A99139" d="M65.71,36.69c2.21-1.01,4.68-1.06,7.05-1.32c0.72,1.88,1.45,3.75,2.16,5.63c-3.31,0.05-6.62,0.21-9.92,0.57
		C65.19,39.94,65.34,38.29,65.71,36.69z"/>
	<path fill="#917728" d="M151.92,34.94c0.41,1.31,0.83,2.64,0.811,4.02c-0.09,20.03-0.11,40.05-0.141,60.08
		c-0.029,2.46-0.41,4.91-0.89,7.319c-0.39-4.56-1.11-9.08-1.49-13.64c-0.14-2.44-0.34-4.88-0.53-7.32
		c-2.479-0.18-4.959-0.37-7.439-0.5c-7.551-0.69-15.11-1.16-22.69-1.28c0,0.42-0.01,1.26-0.021,1.68
		c-0.079,4.41-0.139,8.82-0.139,13.23c8.139,0.37,16.299,0.13,24.439,0.57c1.93,0.39,3.84,0.92,5.76,1.39
		c-0.04,5.619-1.449,11.08-3.22,16.369c1.13-0.439,2.25-0.89,3.37-1.34c-7.03,18.961-20.301,36.301-38.43,45.74
		c2.109-2.38,4.479-4.5,6.89-6.56c-6.479,2.86-12.58,6.5-19.09,9.31c-0.17-4.05-0.35-8.1-0.66-12.14c-0.35,1.43-0.72,2.85-1.01,4.29
		c0.03-3.77-0.16-7.54-0.33-11.311c-10-0.17-20.07-0.84-30,0.68l-0.81-0.719c7.27-1.15,14.68-0.711,21.97-1.74
		c2.94-0.16,5.88-0.32,8.82-0.471c0.3-4.229,0.31-8.47,0.06-12.689c-2.46-0.07-4.91-0.141-7.37-0.19c-3-0.05-5.99-0.06-8.98-0.03
		c5.34-0.119,10.69-0.299,15.99-1c0.12-2.67,0.18-5.34,0.16-8c-4.58-0.959-9.1-2.58-12.54-5.859c0.39-0.02,1.16-0.07,1.55-0.09
		c4.42,1.89,8.89,4.529,13.89,3.949c8.02-0.72,15.86-6.92,17.08-15.1c0.59-3.16,0.85-6.37,0.82-9.58
		c-0.09-7.41,0.311-14.86-0.76-22.22c0.31-0.22,0.93-0.67,1.24-0.89l0.81-0.05l0.75,1.19l-0.021,0.75
		c-0.22,3.41-0.49,6.82-0.619,10.23c9.18,0.53,18.369,0.27,27.55,0.23l3.229-0.12c0.041-3.73,0-7.45-0.07-11.17v-1.01
		c0.021-3.25,0.261-6.49,0.561-9.72C152.27,52.58,151.529,43.71,151.92,34.94 M121.221,108.3c-1.281,2.341-4.141,2.7-6.371,3.67
		c-0.25,0.47-0.76,1.421-1.02,1.89c4.609-1.14,9.22-2.819,14.04-2.549c4.351,0.209,8.39,2.02,12.33,3.709
		c-0.64-1.289-1.28-2.58-1.91-3.869c1.25-1.17,2.479-2.381,3.69-3.601c-3.53,0.431-6.98,3.511-10.48,1.49
		c1.35-1.71,2.79-3.36,4.3-4.94c-1.22-0.109-2.44-0.22-3.659-0.34c-1.841,1.23-3.551,2.631-5.15,4.141
		c-0.461-0.11-1.36-0.34-1.82-0.45c0.46-1.57,1.16-3.04,1.78-4.54C124.46,104.029,122.55,105.939,121.221,108.3 M115.85,123.92
		c-0.439,1.939-2.58,2.34-4.08,3.18c0.16-2.459,0.4-4.91,0.601-7.359c-3.19,1.869-2.761,5.74-3.99,8.74
		c-2.021,1.279-4.13-0.73-6.1-1.261c-0.011,2.14-0.03,4.28-0.07,6.421c1.75,0.25,3.511,0.52,5.261,0.81
		c0.68-1.841,0.959-4.22,3.119-4.92c6.961-3.23,15.92-4.45,22.53,0.26c-0.75-1.5-1.64-2.97-2.04-4.61
		c0.45-1.25,1.09-2.43,1.67-3.609c-2.63,1.6-5.43,3.59-8.689,2.699c0.93-1.93,1.89-3.84,2.77-5.789c-3.68,1.66-4.38,7.149-9.07,6.72
		c0.62-2.64,1.631-5.15,2.75-7.601C118.08,118.98,116.73,121.359,115.85,123.92 M100.71,121.641c1.729,0.079,3.47,0.149,5.21,0.189
		l-1.02-2.88C103.359,119.6,101.93,120.49,100.71,121.641 M108.28,144.47c-0.351-1.93-0.671-3.85-1.03-5.77
		c-0.96,2.62-1.05,5.42-1.05,8.18c-1.32-0.54-2.64-1.069-3.95-1.59c0.05,2.05,0.09,4.11,0.1,6.17c2.03-0.39,4.08-0.7,6.131-0.91
		c-0.391-1.1-0.791-2.19-1.181-3.29c2.521-1.6,5.07-3.4,8.101-3.82c3.1-0.56,6.16,0.461,9.05,1.48
		c-0.82-2.029-0.53-4.16,0.271-6.141c-2.011,1.541-4.141,3.381-6.861,2.591c0.611-1.67,1.24-3.341,1.861-5.011
		c-2.16,2.391-3.891,5.74-7.521,5.891c0.47-2.15,0.989-4.28,1.45-6.43C110.4,137.91,111.82,142.91,108.28,144.47z"/>
	<path d="M98.75,43.75c4.68-0.11,9.359-0.05,14.029,0c11.73,1.56,23.431,3.84,34.601,7.78c1.86,0.42,2.86,1.93,3.36,3.67
		c-17.32,0.16-34.65,0.28-51.96-0.05C98.63,51.35,98.62,47.55,98.75,43.75z M119.15,83.02c0.129-3.41,0.399-6.82,0.619-10.23
		c9.19-0.27,18.381-0.12,27.58,0.07c-0.899,1.65-1.92,3.27-2.43,5.1c0.34,1.84,1.109,3.55,1.78,5.29
		C137.52,83.29,128.33,83.55,119.15,83.02z M97.35,82.05c0.07,0.19,0.22,0.58,0.3,0.78c1.52,0.4,3.11,0.58,4.581,1.16
		c0.74,1.91,1.549,4.24,0.68,6.24c-1.35,1.46-5.87,2.62-3.45,4.93c3.729,1.05,7.64,1.14,11.47,1.63
		c-0.979-1.92-1.959-3.83-2.949-5.74c1.379-1.15,2.76-2.31,4.129-3.47c-0.139,3.52,0.041,7.05,0.5,10.54
		c-4.909,1.36-3.189,6.88-4,10.61c-1.359,2.34-3.739,3.83-5.789,5.51c1.52-2.66,3.17-5.24,4.75-7.87
		c-1.01-0.19-2.01-0.46-3.041-0.49c-2.889,2.03-5.469,4.53-8.619,6.21c1.86-2.189,3.86-4.25,5.9-6.279l-1.17-3.48
		c-4.451-0.99-8.98-1.641-13.551-1.721c0.57,2.371,1.2,4.73,1.67,7.121c-2.74-1.521-2.92-4.59-2.99-7.4c1.28-0.6,2.55-1.2,3.82-1.81
		c-1.042-1.44-2.076-2.887-3.1-4.34c-1.4,2.32-2.77,4.67-4.17,7c-0.23-0.38-0.69-1.14-0.92-1.51c0.45-1.12,0.9-2.24,1.36-3.35
		c1.03-1.17,2.09-2.31,3.16-3.44c1.05,0.53,2.1,1.07,3.15,1.6c1.24-1.7,2.5-3.38,3.76-5.05c-1.41-0.52-2.81-1.03-4.21-1.56
		C91.386,85.723,94.304,83.777,97.35,82.05 M96.37,84.17c0.24,2.42,0.64,4.81,1.17,7.18C99.74,89.02,98.66,85.96,96.37,84.17z
		 M46.82,100.83c10.09-0.41,20.19,0.02,30.28-0.301c1.16,4.4,2.84,8.641,4.88,12.711c-0.44,0.01-1.33,0.039-1.77,0.06
		c-10.41-0.09-20.82,0.091-31.23-0.1c-0.75-2.341-1.5-4.681-2.18-7.04C46.76,104.38,46.8,102.6,46.82,100.83L46.82,100.83z
		 M55.91,129.88c8.29-0.239,16.59,0.091,24.89-0.19c2.99-0.029,5.98-0.02,8.98,0.031c-2.01,3.889-1.8,8.27-0.43,12.319
		c-8.2,0.5-16.4,0.17-24.6,0.47C61.46,138.55,58.44,134.37,55.91,129.88z"/>
	<path fill="#020201" d="M75.73,50.66c1.29-0.82,2.76-1.3,4.18-1.86c-1.88,2.16-3.7,4.43-4.43,7.27c5.39,1.25,8.3-4.9,13.57-4.12
		c-1.65,1.1-3.34,2.15-5.04,3.18c1.74,1.5,3.46,3.03,5.14,4.59c-11.17-4.25-23.4-0.51-33.68,4.45c-0.11,1.14-0.21,2.27-0.32,3.4
		c-2.38-0.02-4.77-0.13-7.15-0.4c1.03-1.9,0.95-6.27,4.14-5.36c1.14,0.1,2.27,0.24,3.41,0.37c0.35-2.48,0.31-5.09,1.3-7.43
		c1.13-1.24,2.69-1.94,4.09-2.82c-1.37,2.54-2.51,5.22-3.04,8.07c2.02-0.48,4.17-0.77,5.96-1.9c0.86-1.99,1.29-4.13,2.17-6.12
		c1.17-0.9,2.54-1.48,3.84-2.16c-1.33,2.35-2.51,4.79-3.32,7.37c1.87-0.3,4.11,0.21,5.74-0.92C73.56,54.47,74.3,52.34,75.73,50.66z
		 M79.06,73.03c0.48,0.18,1.46,0.53,1.94,0.71c-0.63,8.33-0.59,16.71-0.14,25.04c-0.47,6.34,2.89,12.2,7.99,15.77
		c5.67,3.28,13.1,3.601,18.69-0.04c4.72-2.729,7.25-7.79,9.14-12.68c0.07,0.439,0.19,1.32,0.25,1.76
		c-1.22,8.18-9.06,14.381-17.08,15.1c-5,0.58-9.47-2.06-13.89-3.949c-3.81-3.99-6.92-9-7.04-14.68
		C78.58,91.06,79.2,82.04,79.06,73.03L79.06,73.03z"/>
	<path fill="#020201" d="M82.84,75.86c0.47-0.28,0.94-0.56,1.42-0.85c0.43,1.34,0.88,2.68,1.33,4.021c-0.9,0.44-1.79,0.89-2.69,1.33
		C82.93,78.86,82.92,77.36,82.84,75.86z M100.71,121.641c1.22-1.15,2.649-2.041,4.19-2.69l1.02,2.88
		C104.18,121.79,102.439,121.721,100.71,121.641z M34.91,175.38c5.08,0.091,10.15,0.07,15.22,0.04c0.08,2.09,0.1,4.189,0.07,6.29
		c-5.19,0.41-11.08-1.431-15.57,1.99C34.68,180.92,34.75,178.15,34.91,175.38 M36.17,177.2c0.01,0.68,0.03,2.06,0.03,2.75
		c4.21,0.28,8.43,0.28,12.64,0.01c0-0.69-0.01-2.069-0.01-2.76C44.61,177.08,40.39,177.09,36.17,177.2z"/>
	<path fill="#880C10" d="M99,57.31c1.65-0.04,3.311-0.09,4.96-0.12c15.39-0.04,30.78,0.12,46.17-0.01c0.12,1.35,0.21,2.7,0.29,4.05
		c-0.3,3.23-0.54,6.47-0.561,9.72c-10.27-0.25-20.549-0.57-30.819-0.1l-0.81,0.05c-6.391-0.04-12.78,0.08-19.161-0.24
		C98.65,66.22,98.69,61.75,99,57.31z"/>
	<path fill="#010101" d="M67.6,71.9c1.85-2.84,4.14-5.36,6.89-7.36c-1.27,2.3-2.56,4.58-3.72,6.93c4.19-0.38,7.37-3.41,11.38-4.38
		c-1.27,1.26-2.59,2.48-3.86,3.75c-0.44,0.93-0.84,1.88-1.2,2.85c-6.18-0.26-12.66,0.11-18.22,3.09
		c-2.24,1.229-3.56,3.52-5.42,5.189c-1.96,0.35-3.92-0.41-5.84-0.729c0.24-0.56,0.73-1.67,0.97-2.23c0.52-1.13,1.04-2.27,1.56-3.4
		c1.47,0.38,2.95,0.76,4.42,1.13c0.72-3.06,1.85-6.04,3.82-8.52c0.01,2.38-0.01,4.76,0.02,7.14c3.79-2.36,4.31-7.4,8.03-9.86
		c-0.74,2.24-1.57,4.46-2.39,6.67L67.6,71.9z M115.85,123.92c0.881-2.561,2.23-4.939,4.66-6.32c-1.119,2.45-2.13,4.961-2.75,7.601
		c4.69,0.43,5.391-5.06,9.07-6.72c-0.88,1.949-1.84,3.859-2.77,5.789c3.26,0.891,6.06-1.1,8.689-2.699
		c-0.58,1.18-1.221,2.359-1.67,3.609c0.4,1.641,1.29,3.11,2.04,4.61c-6.61-4.71-15.57-3.49-22.53-0.26
		c-2.16,0.7-2.439,3.079-3.119,4.92c-1.75-0.29-3.511-0.56-5.261-0.81c0.04-2.141,0.06-4.281,0.069-6.421
		c1.971,0.53,4.08,2.54,6.101,1.261c1.229-3,0.8-6.871,3.99-8.74c-0.2,2.449-0.44,4.9-0.601,7.359
		C113.27,126.26,115.41,125.859,115.85,123.92L115.85,123.92z M52.86,175.4c5.04,0.069,10.09,0.05,15.13,0.01
		c0.21,2.75,0.22,5.5,0.05,8.25c-5.08,0.06-10.16,0.029-15.24,0.029C52.53,180.93,52.54,178.15,52.86,175.4 M54.13,177.17
		c-0.01,1.6-0.01,3.21-0.02,4.811c4.21,0.22,8.44,0.22,12.64-0.08c0-1.57,0-3.131,0.01-4.681
		C62.55,177.08,58.34,177.08,54.13,177.17z M89.08,175.42c4.87,0.03,9.73,0.04,14.6-0.02c0.03,0.359,0.08,1.1,0.1,1.459
		c-4.519,0.16-9.039,0.131-13.569,0.261c0.01,0.409,0.02,1.25,0.03,1.67c4.5,0.021,9.02-0.04,13.51,0.41
		c-0.1,1.43-0.2,2.86-0.29,4.29c-4.62,0.1-9.31,0.66-13.89-0.051c-0.29-0.289-0.86-0.879-1.15-1.18c4.66-0.29,9.34,0.01,14-0.33
		c-0.25-0.35-0.76-1.05-1.01-1.4c-4.19-0.549-8.45-0.029-12.67-0.369C88.84,178.57,88.95,177,89.08,175.42L89.08,175.42z
		 M141.061,175.38c5.049,0.34,10.199-0.42,15.199,0.33c0.27,0.25,0.83,0.75,1.1,1c-5.139,0.87-10.619-0.76-15.539,1.32
		c5.06,1.649,10.449,0.21,15.6,1.29c-4.92,2.64-11.109-0.87-15.75,2.35c5.02,0.74,10.09,0.41,15.141,0.46
		c-0.021,0.399-0.051,1.2-0.061,1.601c-5.25-0.041-10.49-0.03-15.73-0.03C140.91,180.92,140.93,178.15,141.061,175.38
		L141.061,175.38z"/>
	<path fill="#1A181A" d="M79.02,72.22c12.65-0.229,25.35,0.43,37.97-0.43c1.07,7.36,0.67,14.81,0.76,22.22
		c0.029,3.21-0.23,6.42-0.82,9.58c-0.06-0.439-0.18-1.32-0.25-1.76c-0.26-2-0.51-3.99-0.619-5.99c0-6.64,0.64-13.28,0.119-19.9
		c-0.07-0.5-0.199-1.49-0.26-1.98c-11.63-0.4-23.29,0.3-34.92-0.22c-0.48-0.18-1.46-0.53-1.94-0.71L79.02,72.22L79.02,72.22z
		 M119.79,72.04c10.01,0.44,20.05,0.12,30.069-0.08c0.07,3.72,0.111,7.44,0.07,11.17l-3.229,0.12c-0.671-1.74-1.44-3.45-1.78-5.29
		c0.51-1.83,1.53-3.45,2.43-5.1c-9.199-0.19-18.39-0.34-27.58-0.07L119.79,72.04z M89.78,129.72c2.46,0.05,4.91,0.12,7.37,0.19
		c0.25,4.22,0.24,8.46-0.06,12.689c-2.94,0.15-5.88,0.311-8.82,0.471c-7.83-0.34-15.69,0-23.52-0.561c8.2-0.3,16.4,0.03,24.6-0.47
		C87.98,137.99,87.77,133.609,89.78,129.72z"/>
	<path fill="#A3852E" d="M58.87,76.78c5.56-2.98,12.04-3.35,18.22-3.09c0.01,2.82,0.19,5.63,0.24,8.45
		c-2.04,1.82-4.61,2.71-7.29,3.07c0.79-2.34,1.64-4.66,2.42-7.01c-2.51,2.06-4.25,4.81-5.46,7.8c-1.08,0.28-2.16,0.57-3.24,0.85
		c0.46-2.54,0.95-5.07,1.38-7.61c-2.07,2.4-3.29,5.35-3.95,8.42c-1.03,0.2-2.05,0.39-3.08,0.58c0.12-2.29,0.22-4.58,0.25-6.87
		c-2.54,2.58-2.01,6.23-2.53,9.5c-1.46-0.34-2.88-0.8-4.31-1.24c-0.55,2.34-1.09,4.69-1.6,7.05c1.82-0.33,3.79-0.28,5.46-1.13
		c1.44-1.58,2.23-3.82,4.22-4.84c5.41-2.95,11.66-3.68,17.72-3.99c-0.01,3.99,0.6,8,0.1,11.98c-7.11,1.49-14.47,0.05-21.65,1.26
		c-3.09,0.15-6.18,0.27-9.27,0.35c0.94-6.32-0.13-12.79,1.11-19.07c1.92,0.32,3.88,1.08,5.84,0.73
		C55.31,80.3,56.63,78.01,58.87,76.78L58.87,76.78z"/>
	<path fill="#DDBF69" d="M81,73.74c11.63,0.52,23.29-0.18,34.92,0.22c0.061,0.49,0.189,1.48,0.26,1.98l-0.83-0.22
		c-1.209-0.27-2.41-0.53-3.619-0.78l-1.59-0.36c-0.891,0.98-1.781,1.96-2.66,2.95c-0.631-0.74-1.26-1.47-1.891-2.21
		c-0.439,0.47-0.869,0.93-1.3,1.4l-0.38,0.39c-3.29-2.78-7.69-2.15-11.67-2.05c-0.68,1.29-1.33,2.61-2.02,3.9
		c-0.13-1.28-0.27-2.56-0.4-3.83c-1.36-0.04-2.71-0.09-4.06-0.13c0.51,1.76,1.01,3.52,1.53,5.27l0.96-3.4
		c0.81,1.23,1.63,2.46,2.46,3.69c-2.64,2.7-6.33,4.5-8.1,7.96c-0.61,2.56,0.04,5.21,0.15,7.8c-0.46,1.11-0.91,2.23-1.36,3.35
		l-0.54-0.89C80.41,90.45,80.37,82.07,81,73.74 M82.84,75.86c0.08,1.5,0.09,3,0.06,4.5c0.9-0.44,1.79-0.89,2.69-1.33
		c-0.45-1.34-0.9-2.68-1.33-4.021C83.78,75.3,83.31,75.58,82.84,75.86z"/>
	<path fill="#6E5929" d="M85.76,75c1.35,0.04,2.7,0.09,4.06,0.13c0.13,1.27,0.27,2.55,0.4,3.83c0.69-1.29,1.34-2.61,2.02-3.9
		c3.98-0.1,8.38-0.73,11.67,2.05c-1.09,1.11-2.16,2.26-3.46,3.12c-2.44,0.42-3.14-2.14-4.19-3.78c-0.66,1.2-1.32,2.39-1.98,3.58
		c-0.11-1.28-0.22-2.57-0.31-3.85c-1.04,1.49-2.09,2.98-3.26,4.38c-0.83-1.23-1.65-2.46-2.46-3.69l-0.96,3.4
		C86.77,78.52,86.27,76.76,85.76,75L85.76,75z"/>
	<path fill="#050303" d="M104.29,76.72c0.431-0.47,0.86-0.93,1.3-1.4c0.631,0.74,1.26,1.47,1.891,2.21
		c0.879-0.99,1.77-1.97,2.66-2.95l0.75,4.95c-2.271-0.03-4.551-0.04-6.83-0.06C104.12,78.78,104.23,77.4,104.29,76.72L104.29,76.72z
		 M121.221,108.3c1.329-2.36,3.239-4.271,5.729-5.39c-0.62,1.5-1.32,2.97-1.78,4.54c0.01,0.36,0.02,1.069,0.02,1.43l2.631,0.521
		c1.43-1.881,2.88-3.75,4.32-5.641c1.219,0.12,2.439,0.23,3.659,0.34c-1.511,1.578-2.944,3.227-4.3,4.94
		c3.5,2.021,6.95-1.06,10.48-1.49c-1.211,1.22-2.44,2.431-3.69,3.601c0.63,1.289,1.271,2.58,1.91,3.869
		c-3.94-1.689-7.979-3.5-12.33-3.709c-4.82-0.271-9.431,1.409-14.04,2.549c0.26-0.469,0.77-1.42,1.02-1.889
		C117.08,111,119.939,110.641,121.221,108.3z M108.279,144.47c3.541-1.56,2.121-6.56,5.371-8.649c-0.461,2.149-0.98,4.279-1.45,6.43
		c3.63-0.15,5.36-3.5,7.521-5.891c-0.621,1.67-1.25,3.341-1.861,5.011c2.721,0.79,4.851-1.05,6.861-2.591
		c-0.801,1.98-1.091,4.111-0.271,6.141c-2.89-1.02-5.95-2.04-9.05-1.48c-3.03,0.42-5.58,2.221-8.101,3.82
		c0.39,1.1,0.79,2.19,1.181,3.29c-2.051,0.21-4.101,0.521-6.131,0.91c-0.01-2.06-0.05-4.12-0.1-6.17
		c1.311,0.521,2.63,1.05,3.95,1.59c0-2.76,0.09-5.56,1.05-8.18C107.609,140.62,107.93,142.54,108.279,144.47z M70.33,175.4
		c5.23,0.09,10.48-0.19,15.7,0.369c-0.12,2.67-0.28,5.34-0.34,8.011c-4.52-3-11.05-3.181-15.5,0.03
		C70.28,181.01,70.3,178.2,70.33,175.4 M71.94,177.141l-0.04,2.939c4.14,0.09,8.28,0.09,12.43,0.029
		c-0.03-0.75-0.08-2.239-0.1-2.989C80.13,177.109,76.04,177.109,71.94,177.141z M106.51,175.55c4.61,0.05,9.29-0.569,13.86,0.14
		l1.19,1.19c-4.49,0.38-8.99,0.229-13.49,0.28c-0.01,1.609-0.01,3.22-0.01,4.83c4.5,0.18,9,0.01,13.5,0.26
		c-0.881,1.73-2.891,1.45-4.511,1.51c-3.47-0.029-6.989,0.19-10.42-0.42C106.221,180.76,106.41,178.141,106.51,175.55z"/>
	<path fill="#B48C40" d="M110.141,74.58l1.59,0.36c0.34,1.77,0.609,3.56,0.899,5.35c0.91-1.52,1.81-3.04,2.72-4.57l0.83,0.22
		c0.521,6.62-0.119,13.26-0.119,19.9c-1.11,0.81-2.271,1.56-3.451,2.28c-0.459-3.49-0.639-7.02-0.5-10.54
		c-1.369,1.16-2.75,2.32-4.129,3.47c0.99,1.91,1.97,3.82,2.949,5.74c-3.83-0.49-7.74-0.58-11.47-1.63
		c-2.42-2.31,2.101-3.47,3.45-4.93c0.869-2,0.061-4.33-0.68-6.24c-1.471-0.58-3.061-0.76-4.581-1.16c-0.08-0.2-0.23-0.59-0.3-0.78
		c1.02-0.62,2.07-1.2,3.1-1.82c1.3-0.86,2.37-2.01,3.46-3.12l0.38-0.39c-0.06,0.68-0.17,2.061-0.229,2.75
		c2.279,0.021,4.56,0.03,6.83,0.06L110.141,74.58L110.141,74.58z"/>
	<path fill="#4E4027" d="M111.73,74.94c1.209,0.25,2.41,0.51,3.619,0.78c-0.91,1.53-1.81,3.05-2.72,4.57
		C112.34,78.5,112.07,76.71,111.73,74.94L111.73,74.94z"/>
	<path fill="#D5AF56" d="M90.71,80.56c1.17-1.4,2.22-2.89,3.26-4.38c0.09,1.28,0.2,2.57,0.31,3.85c0.66-1.19,1.32-2.38,1.98-3.58
		c1.05,1.64,1.75,4.2,4.19,3.78c-1.03,0.62-2.08,1.2-3.1,1.82c-3.046,1.728-5.964,3.673-8.73,5.82c1.4,0.53,2.8,1.04,4.21,1.56
		c-1.26,1.67-2.52,3.35-3.76,5.05c-1.05-0.53-2.1-1.07-3.15-1.6c-1.07,1.13-2.13,2.27-3.16,3.44c-0.11-2.59-0.76-5.24-0.15-7.8
		C84.38,85.06,88.07,83.26,90.71,80.56z"/>
	<path fill="#735416" d="M44.73,77.97c1.28,0.34,2.57,0.69,3.85,1.04c-0.24,0.56-0.73,1.67-0.97,2.23
		c-1.24,6.28-0.17,12.75-1.11,19.07c3.09-0.08,6.18-0.2,9.27-0.35c7.11,0.21,14.23,0.19,21.33,0.569
		c-10.09,0.32-20.19-0.109-30.28,0.301c-0.02,1.77-0.06,3.55-0.02,5.33c-0.58-1.83-1.21-3.641-1.74-5.48
		C44.04,93.17,44.75,85.53,44.73,77.97z"/>
	<path fill="#010000" d="M67,86c1.21-2.99,2.95-5.74,5.46-7.8c-0.78,2.35-1.63,4.67-2.42,7.01c2.68-0.36,5.25-1.25,7.29-3.07
		c0.01,1.52-0.01,3.05-0.01,4.58c-6.06,0.31-12.31,1.04-17.72,3.99c-1.99,1.02-2.78,3.26-4.22,4.84c-1.67,0.85-3.64,0.8-5.46,1.13
		c0.51-2.36,1.05-4.71,1.6-7.05c1.43,0.44,2.85,0.9,4.31,1.24c0.52-3.27-0.01-6.92,2.53-9.5c-0.03,2.29-0.13,4.58-0.25,6.87
		c1.03-0.19,2.05-0.38,3.08-0.58c0.66-3.07,1.88-6.02,3.95-8.42c-0.43,2.54-0.92,5.07-1.38,7.61C64.84,86.57,65.92,86.28,67,86z"/>
	<path fill="#8D7032" d="M96.37,84.17c2.29,1.79,3.37,4.85,1.17,7.18C97.01,88.98,96.61,86.59,96.37,84.17z"/>
	<path fill="#8A0D11" d="M119.529,85.3c7.57-0.17,15.141-0.22,22.711-0.4c2.48,0.13,4.96,0.32,7.439,0.5
		c0.19,2.44,0.391,4.88,0.53,7.32c-0.08,2.04-0.239,4.08-0.39,6.12c-2,0.09-3.99,0.22-5.99,0.26c-8.141-0.44-16.301-0.2-24.439-0.57
		C119.391,94.12,119.45,89.71,119.529,85.3L119.529,85.3z"/>
	<path fill="#B69246" d="M150.21,92.72c0.38,4.56,1.101,9.08,1.49,13.639c0.05,3.16-1.07,6.171-1.96,9.16
		c-1.12,0.451-2.24,0.9-3.37,1.34c1.771-5.289,3.18-10.75,3.22-16.369c-1.92-0.47-3.83-1-5.76-1.39c2-0.04,3.99-0.17,5.99-0.26
		C149.971,96.8,150.13,94.76,150.21,92.72L150.21,92.72z"/>
	<path fill="#C79942" d="M82.32,101.18c1.4-2.33,2.77-4.68,4.17-7c1.024,1.453,2.058,2.899,3.1,4.34c-1.27,0.61-2.54,1.21-3.82,1.81
		c0.07,2.811,0.25,5.88,2.99,7.4c0.34,2.26,0.2,4.55,0.09,6.819c-5.1-3.569-8.46-9.43-7.99-15.77l0.54,0.89
		C81.63,100.04,82.09,100.8,82.32,101.18z"/>
	<path fill="#A5823D" d="M112.609,98.12c1.181-0.72,2.341-1.47,3.451-2.28c0.109,2,0.359,3.99,0.619,5.99
		c-1.89,4.89-4.42,9.95-9.14,12.68c-5.59,3.641-13.02,3.32-18.69,0.04c0.11-2.271,0.25-4.56-0.09-6.819
		c-0.47-2.391-1.1-4.75-1.67-7.121c4.57,0.08,9.1,0.73,13.551,1.721l1.17,3.48c-2.041,2.029-4.041,4.09-5.9,6.279
		c3.15-1.68,5.73-4.18,8.619-6.21c1.031,0.03,2.031,0.3,3.041,0.49c-1.58,2.63-3.23,5.21-4.75,7.87c2.05-1.68,4.43-3.17,5.789-5.51
		C109.42,105,107.7,99.48,112.609,98.12z"/>
	<path fill="#B18628" d="M45.06,100.68c0.53,1.84,1.16,3.65,1.74,5.48c0.68,2.359,1.43,4.699,2.18,7.04
		c10.41,0.19,20.82,0.01,31.23,0.1c-10.32,0.511-20.66,1.2-31.01,0.98l0.36,0.85c0.84,2.44,1.42,4.95,2.08,7.431
		c-0.31-0.28-0.95-0.84-1.26-1.131c-1.2-0.89-1.64-2.359-2.17-3.689C46.32,112.26,44.61,106.55,45.06,100.68z M71.15,149.54
		c7.72,6.3,16.06,12.24,25.96,14.44c0.11-2.61,0.2-5.221,0.33-7.82c0.29-1.44,0.66-2.86,1.01-4.29c0.31,4.04,0.49,8.09,0.66,12.14
		c6.51-2.81,12.611-6.449,19.09-9.31c-2.41,2.06-4.78,4.18-6.89,6.56c-0.16,0.18-0.5,0.551-0.66,0.73
		c-3.721,1.85-7.461,4.02-11.641,4.59c-5.12-0.52-9.81-2.96-14.36-5.24c-5.52-3.13-11.11-6.6-15.02-11.72L71.15,149.54z"/>
	<path fill="#890D11" d="M49.56,115.13c11.61-0.22,23.25,0.351,34.85-0.3c3.44,3.279,7.96,4.9,12.54,5.859
		c0.02,2.66-0.04,5.33-0.16,8c-13.86-1.31-27.79-0.42-41.69-0.729c-1.12-1.819-2.26-3.63-3.46-5.399
		C50.98,120.08,50.4,117.57,49.56,115.13z"/>
	<path fill="#870D11" d="M67.11,145.529c9.93-1.52,20-0.85,30-0.68c0.17,3.771,0.36,7.541,0.33,11.311
		c-0.13,2.6-0.22,5.21-0.33,7.82c-9.9-2.2-18.24-8.141-25.96-14.44C69.78,148.22,68.47,146.85,67.11,145.529z"/>
	<path fill="#030303" d="M123.85,175.4c0.631,1.08,1.26,2.17,1.871,3.279c3.529,0.11,7.069,0.12,10.6,0
		c0.63-1.1,1.27-2.199,1.93-3.279c0.21,2.75,0.21,5.51,0.01,8.27c-0.68-1.09-1.33-2.18-1.97-3.279c-3.54-0.07-7.069-0.07-10.601,0
		c-0.549,1.289-1.119,2.579-1.719,3.859C123.561,181.311,123.55,178.34,123.85,175.4z"/>
</g>
</svg>
