<?xml version="1.0" standalone="no"?><!DOCTYPE svg PUBLIC "-//W3C//DTD SVG 1.1//EN" "http://www.w3.org/Graphics/SVG/1.1/DTD/svg11.dtd"><svg t="1529328292597" class="icon" style="" viewBox="0 0 5587 1024" version="1.1" xmlns="http://www.w3.org/2000/svg" p-id="1325" xmlns:xlink="http://www.w3.org/1999/xlink" width="1091.2109375" height="200"><defs><style type="text/css"></style></defs><path d="M4337.159 730.548h-452.261c-143.163-0.339-259.505-117.845-259.764-262.621v-22.24c0.253-144.783 116.599-262.201 259.764-262.546h452.261c143.076 0.347 259.333 117.76 259.638 262.546l0.037 22.24c-0.339 144.775-116.605 262.279-259.676 262.621zM4337.159 15.008h-452.261c-236.464 0.091-428.701 193.275-428.701 430.679v22.236c0 237.479 192.246 430.673 428.701 430.756h452.261c236.246-0.085 428.576-193.275 428.576-430.756v-22.24c0-237.399-192.331-430.586-428.576-430.676z" fill="#1296DB" p-id="1326"></path><path d="M1124.779 902.781h1.923c88.423 0.339 159.197-39.771 223.766-132.041l407.83-599.998c9.829-14.289 15.694-31.964 15.694-51.013 0-0.006 0-0.033 0-0.048 0-28.647-13.557-56.784-38.701-74.409-14.102-9.899-31.631-15.82-50.541-15.82-0.001 0-0.001 0-0.002 0-30.591 0.031-57.579 15.435-73.663 38.891l-407.933 600.193c-24.798 38.054-52.086 53.711-78.203 53.711l-0.551 0.080c-31.086-0.422-53.711-17.186-78.765-53.793l-407.84-599.908c-16.209-23.771-43.158-39.17-73.703-39.17-0.023 0-0.037 0-0.062 0-17.444 0-35.145 5.132-50.585 15.82-23.542 16.594-38.736 43.674-38.736 74.295 0 0.037 0 0.079 0 0.117-0.045 17.61 5.132 35.396 15.735 51.050l407.795 599.908c56.487 83.3 138.97 132.131 226.164 132.131h0.381z" fill="#1296DB" p-id="1327"></path><path d="M2812.442 902.781h1.927c88.341 0.339 159.101-39.771 223.715-132.041l407.886-599.998c9.799-14.304 15.651-31.983 15.651-51.029 0-0.004 0-0.007 0-0.029 0-28.649-13.507-56.784-38.701-74.409-14.132-9.899-31.69-15.82-50.621-15.82-0.001 0-0.003 0-0.004 0-0.006 0-0.033 0-0.051 0-30.537 0-57.471 15.404-73.466 38.863l-407.954 600.215c-24.885 38.054-52.078 53.711-78.163 53.711l-0.677 0.080c-31.046-0.422-53.664-17.271-78.765-53.793l-407.71-599.908c-16.265-23.763-43.243-39.161-73.819-39.17-17.471 0-35.088 5.218-50.569 15.82-23.571 16.553-38.78 43.617-38.78 74.233 0 0.065 0 0.125 0 0.187-0.042 17.607 5.132 35.395 15.694 51.045l407.83 599.908c56.528 83.382 138.932 132.131 226.112 132.131h0.478z" fill="#1296DB" p-id="1328"></path><path d="M2088.188-183.99l-94.322-94.411c-6.406-6.475-15.262-10.514-25.067-10.61l-1.23 0.002c-9.151 0.17-18.173 3.681-25.055 10.601l-94.331 94.413c-6.551 6.555-10.601 15.615-10.601 25.615s4.054 19.060 10.608 25.615l94.331 94.411c6.625 6.547 15.723 10.591 25.774 10.601 9.119 0 18.483-3.597 25.456-10.518l94.457-94.495c6.551-6.531 10.601-15.562 10.601-25.547 0-0.035 0-0.075 0-0.112-0.002-9.231-3.551-18.638-10.613-25.559zM1968.254 29.465c-49.686 0-90.045 39.683-90.045 89.026v695.261c0 49.26 40.363 88.941 90.045 89.026 49.563-0.085 89.879-39.771 89.879-89.026l0.085-695.261c0-49.354-40.447-89.026-89.968-89.026z" fill="#1296DB" p-id="1329"></path></svg>