<?xml version="1.0" standalone="no"?><!DOCTYPE svg PUBLIC "-//W3C//DTD SVG 1.1//EN" "http://www.w3.org/Graphics/SVG/1.1/DTD/svg11.dtd"><svg t="1529363189815" class="icon" style="" viewBox="0 0 1024 1024" version="1.1" xmlns="http://www.w3.org/2000/svg" p-id="4713" xmlns:xlink="http://www.w3.org/1999/xlink" width="200" height="200"><defs><style type="text/css"></style></defs><path d="M305.77664 788.5824H14.63936V235.4176h994.72128v553.1648H332.46336c1.3504-0.7488 2.62656-1.92896 4.06528-2.18496 46.32832-8.14592 80.63232-52.53888 72.52736-101.07648-8.72704-52.26368-54.816-84.1728-106.88768-75.92192-35.38432 5.61152-68.7168 39.0464-73.82656 74.0544-5.82144 39.89888 14.0864 78.47168 49.49632 94.87744 8.97152 4.15616 18.60864 6.87232 27.93856 10.25152z m148.8256-362.60864l-3.59168 2.30016c-3.01696-2.49728-7.54432-4.4096-8.78208-7.59936-4.5696-11.75424-9.51808-23.08736-16.37632-33.84064-5.21472-8.17664-8.74752-17.72928-11.46496-27.11936-3.47776-12.01408-12.68736-22.07744-5.23904-37.54624 6.35904-13.20832-11.29728-27.17056-25.0624-20.56576-5.4208 2.60224-11.93728 10.14912-11.8848 15.38304 0.1024 10.06848 4.67968 19.50464 16.57472 23.23072 4.1088 1.28896 7.9552 6.00448 10.17216 10.10176 2.93888 5.42592 4.34944 11.72736 6.08256 17.75104 4.91776 17.09184 9.86624 34.18112 14.43712 51.37024 6.8352 25.71008 12.43264 51.79136 20.352 77.15584 4.87936 15.62496 14.44736 27.80672 31.31008 34.8864 16.78848 7.05152 33.47456 7.26016 50.7392 7.34592 33.65248 0.17024 58.21184-19.79648 65.31072-52.35712 4.45056-20.40448 9.89952-40.59776 15.18336-60.8128 3.90016-14.92864 6.9952-30.24512 12.73344-44.46848 7.00032-17.34528 4.76416-39.872 28.33152-48.84352 7.90528-3.00928 8.50688-13.49504 3.57376-22.27968-5.71136-10.1696-15.54048-11.10144-24.04736-8.256-4.31232 1.44256-7.48288 10.21824-8.60672 16.16512-1.1328 5.99296 1.0624 12.576 1.4976 18.92096 0.25088 3.56608 0.95232 7.63008-0.35968 10.69184-7.11424 16.59904-14.7392 32.97536-22.29248 49.3824-5.4464 11.82848-11.0528 23.58144-16.70144 35.60704-9.27872-4.38144-2.78656-8.48768-2.5216-13.0496 1.33632-23.07712 0.86784-46.25664 1.01376-69.40288 0.08576-13.73824 0.32768-27.48288 0.15744-41.21856-0.11008-8.61568 1.52064-15.12064 10.70464-19.21024 8.54528-3.80544 11.8336-18.4256 7.20384-25.12384-5.4208-7.83872-20.02688-9.81504-28.62464-3.86688-7.14624 4.94592-9.92896 18.17728-3.12704 24.62208 8.9856 8.51328 6.51648 16.99456 4.00896 26.46528-2.72 10.29376-4.98048 20.70784-7.42144 31.07456-4.98048 21.14176-9.70112 42.3488-15.11808 63.3792-1.13792 4.43264-4.82048 8.2112-7.33184 12.29184l-4.31232-1.58336c-1.5552-15.42144-3.03872-30.85056-4.67328-46.26432-2.18368-20.60672-5.30688-41.15456-6.43072-61.81504-0.69632-12.74112-5.66144-26.752 4.8064-38.12608 7.46368-8.11392 6.92352-16.6272 1.18016-24.62464-6.20928-8.64384-16.44672-9.44-25.09312-3.22048-7.05408 5.07264-8.48768 16.65536-4.04992 25.26464 2.60864 5.05856 4.84096 10.78912 5.30816 16.37632 0.84608 10.144 0.76544 20.44288 0.15616 30.61888-1.48608 24.82176-3.44064 49.61408-5.33632 74.41024-0.49024 6.42176-0.86272 12.96-2.45504 19.14368-0.832 3.22944-4.1984 5.80608-6.4192 8.67968-2.35008-2.64448-5.94944-4.94592-6.78144-8-1.59232-5.85472-0.93568-12.3072-2.40256-18.21696-7.2704-29.32608-14.94272-58.55232-22.44096-87.8208-1.5168-5.92128-1.99936-10.5728 4.29184-15.48032 9.04064-7.0592 8.48-16.52096 0.77056-24.84992-6.84672-7.39328-17.92-8.5184-25.04448-2.54208-7.80032 6.54464-10.09664 19.32672-2.2592 25.82912 12.83456 10.64832 13.14176 24.85888 14.59072 38.95424 1.21728 11.82848 1.25568 23.776 1.93152 35.66464 1.23264 21.68064 2.54976 43.35744 3.82976 65.03808zM104.98944 769.11872c-8.14592-0.50688-14.912-0.92416-22.73536-1.408v-31.86176-31.0464c39.53408-8.82944 61.90976 4.91392 69.02144 31.69024 3.9936 15.0336 8.54656 29.90848 12.77312 44.6016h54.84672l-0.87296-11.616c-18.272-2.74816-18.47424-2.68288-24.04096-19.7952-6.07488-18.66752-13.0624-36.70528-30.36928-49.29792 3.35744-2.75328 5.40288-4.6016 7.61856-6.22208 16.29696-11.90528 22.92352-31.264 17.1072-50.1632-4.94976-16.08448-21.78304-29.50144-40.19968-29.75744-40.80384-0.57344-81.6256-0.32768-122.432 0.1472-2.67008 0.032-5.2864 4.81024-7.92704 7.37408 2.57152 2.17984 4.86784 5.62048 7.77472 6.25152 4.82176 1.04192 10.0352 0.28416 15.3664 0.28416v138.34624c-23.81184 4.672-23.81184 4.672-21.94816 14.61504h86.01728v-12.14208z m676.02944-154.98496h-91.91168c-21.83424 0-43.67104-0.256-65.49504 0.28928-3.0144 0.07168-7.72096 3.58272-8.53632 6.40256-1.96096 6.76736 3.17184 7.75936 8.6592 7.67744 4.64896-0.06656 9.30304 0.3648 13.89952 0.57344v138.74816c-7.64416 0.66432-14.69568 1.28-22.31296 1.94304v12.37504h165.32608v-60.38784c-12.34048-3.24992-13.64352 3.0336-13.57696 12.30336 0.16128 21.96096-6.72512 32.77952-24.032 34.0032-20.7808 1.4592-41.74208 0.3456-62.95552 0.3456v-67.06432c30.23104-2.86208 33.12256-0.7808 39.83744 28.10752 7.40224 2.34112 11.30752 0.59776 11.10912-8.17024-0.39424-17.37856-0.5504-34.7712-0.17024-52.14976 0.22272-10.33088-3.89632-11.90912-12.20352-8.19328-1.72544 23.65312-12.95232 30.47808-39.40096 23.7248 0-15.09504 0.31232-30.41664-0.12416-45.7152-0.23296-8.128 3.25632-10.6624 10.82368-10.51648 14.14784 0.26624 28.30208 0.01024 42.45376 0.01024 25.09312-0.01024 34.52544 8.72448 34.60608 33.80352 0.03712 11.08096 4.97152 11.89632 14.0032 9.46048l0.00128-57.57056z m98.46144 155.0848c-4.53504 0-8.58752 0.42624-12.4928-0.13696-2.85312-0.41728-7.11936-1.52576-7.84384-3.43168-0.82816-2.18496 0.86272-6.1568 2.66368-8.37504 11.15648-13.71008 22.64832-27.14496 34.99904-41.82272 9.8816 12.36352 19.07968 23.51488 27.82848 35.008 3.52512 4.62592 6.06592 10.00064 9.05088 15.02848-5.62944 1.3312-11.26528 2.63552-16.88064 4.0192-0.70144 0.17536-1.29792 0.77696-2.21696 1.36064v12.33664c27.71968 0 54.69056-0.09984 81.66144 0.04736 11.72864 0.06144 9.10336-6.66368 8.11264-10.73024-9.6384-4.13696-19.4304-5.37856-24.29696-10.93376-21.21728-24.2112-41.00352-49.68064-61.41952-74.82624 9.83936-11.94752 18.84928-22.75712 27.71456-33.6768 10.976-13.52576 21.11744-28.30208 42.624-24.768v-14.22592c-19.79008 0-39.0784 0.03712-58.37184-0.02816-5.52576-0.0192-10.91456-0.3072-10.30912 7.79648 0.53632 7.14112 4.73984 7.59168 10.66368 7.05152 3.31264-0.30208 6.8288 1.61664 12.07552 3.02336-10.2784 12.42624-18.96576 22.9568-27.6864 33.4592-4.62464 5.56928-8.96128 5.94304-13.7152-0.19456-4.93312-6.36416-10.86208-11.98976-15.51616-18.53312-3.2832-4.61568-5.16992-10.21824-7.68128-15.38432 5.29792-1.0944 10.60096-2.16064 15.8848-3.31264 0.73472-0.16128 1.37856-0.7296 5.15072-2.81472-2.8288-3.77728-5.41568-10.37824-8.22656-10.47424-24.62976-0.84352-49.29792-0.6592-73.94944-0.28928-2.03904 0.032-5.68704 3.72864-5.63456 5.6384 0.07552 2.81088 2.1888 6.36032 4.53504 8.16128 8.07168 6.19392 18.01856 10.49216 24.69632 17.83424 13.8048 15.18848 25.89824 31.93216 38.84672 47.91808 4.90496 6.0608 4.53504 11.49696-0.45952 17.29408-10.54336 12.23168-21.00864 24.52992-31.25504 37.00736-10.19392 12.41216-20.2688 24.72832-39.63264 20.54912v14.38336c20.85632 0 41.36192-0.39424 61.8496 0.1664 10.08896 0.27264 11.91296-4.11136 9.23136-14.1248zM453.7536 628.94848c0.71808 15.07456 1.79968 29.07904 1.96224 43.09248 0.29184 25.04192 0 50.09792 0.00768 75.14496 0.0064 20.75264 0.04224 20.7424-20.73984 22.02752-0.71296 0.04736-1.39008 0.66432-2.72 1.3312-0.15104 1.58208-0.52992 3.52128-0.45952 5.44128 0.06784 1.83936 0.6016 3.65824 0.95232 5.6064h155.87584v-64.64256c-10.65856-3.12704-14.59712 0.61568-13.45024 10.51648 0.36992 3.18848-0.31232 6.51136 0.12288 9.68192 2.74048 19.95648-13.696 31.88864-31.03616 31.59168-11.70944-0.20352-23.45344-0.512-35.13728 0.128-9.25568 0.50688-12.66688-2.23744-12.5376-12.11776 0.5184-38.78144 0.14976-77.56672 0.19968-116.352 0.00384-3.8336 0.62592-7.6672 0.95744-11.45344 8.19456-0.384 14.90944-0.70144 21.6192-1.01888 3.17952-10.10816 0.92928-14.92352-9.62176-13.94304-4.40448 0.41088-8.88064 0.0704-13.32736 0.0704h-64.01536v13.87648c7.0144 0.33664 13.35424 0.63872 21.34784 1.01888z" fill="#FFFFFF" p-id="4714"></path><path d="M305.77664 788.5824c-9.32992-3.3792-18.96704-6.09536-27.93728-10.25152-35.4112-16.40576-55.31904-54.97856-49.49632-94.87744 5.10976-35.00928 38.44352-68.44416 73.82656-74.0544 52.07168-8.2496 98.16064 23.65824 106.88768 75.92192 8.10496 48.5376-26.19904 92.93056-72.52736 101.07648-1.43872 0.256-2.71488 1.43616-4.06528 2.18496h-26.688z m-39.05024-90.68416c0.23424 18.94656 4.08192 35.91808 14.75712 50.93632 18.98752 26.72 53.64096 27.392 73.54112 1.3888 21.30944-27.84768 20.97792-78.15936-0.69376-105.248-17.37472-21.7152-48.9088-23.32672-67.88736-3.05792-14.89664 15.91168-19.16544 35.77728-19.71712 55.9808zM454.60224 425.97376c-1.28-21.67936-2.59712-43.35616-3.82848-65.03808-0.67584-11.88864-0.71424-23.83616-1.93152-35.66464-1.44896-14.09408-1.75616-28.30464-14.59072-38.95424-7.83744-6.5024-5.54112-19.2832 2.2592-25.82912 7.12448-5.97504 18.19776-4.8512 25.04448 2.54208 7.70944 8.32896 8.27008 17.79072-0.77056 24.84992-6.28992 4.90752-5.80736 9.55904-4.29184 15.48032 7.49824 29.26976 15.17184 58.496 22.44096 87.8208 1.46688 5.90976 0.81024 12.36224 2.40256 18.21696 0.83072 3.05408 4.43008 5.35552 6.78144 8 2.2208-2.87488 5.5872-5.45024 6.4192-8.67968 1.59232-6.18496 1.9648-12.72192 2.45504-19.14368 1.89568-24.79616 3.85024-49.58848 5.33632-74.41024 0.60928-10.17728 0.68992-20.47616-0.15616-30.61888-0.4672-5.5872-2.69952-11.31776-5.30816-16.37632-4.43776-8.60928-3.00416-20.19072 4.04992-25.26464 8.6464-6.2208 18.88384-5.42464 25.09312 3.22048 5.74336 7.99744 6.28352 16.51072-1.18016 24.62464-10.46784 11.37408-5.50272 25.38496-4.8064 38.12608 1.12384 20.66048 4.24704 41.2096 6.43072 61.81504 1.63456 15.41376 3.11936 30.84288 4.67328 46.26432l4.31232 1.58336c2.51136-4.08064 6.19392-7.85792 7.33184-12.29184 5.41568-21.0304 10.1376-42.23872 15.11808-63.3792 2.44096-10.36672 4.70144-20.7808 7.42144-31.07456 2.50752-9.47072 4.97664-17.952-4.00896-26.46528-6.80064-6.44608-4.0192-19.67744 3.12704-24.62208 8.59776-5.94688 23.20384-3.97184 28.62464 3.86688 4.62976 6.69824 1.34144 21.3184-7.20384 25.12384-9.184 4.0896-10.81472 10.59456-10.70464 19.21024 0.17024 13.73568-0.07168 27.48032-0.15744 41.21856-0.14592 23.14624 0.32256 46.32448-1.01376 69.40288-0.26496 4.56192-6.75712 8.66816 2.5216 13.0496 5.64864-12.0256 11.25504-23.77856 16.70144-35.60704 7.55328-16.40704 15.17824-32.78336 22.29248-49.3824 1.312-3.06176 0.61184-7.12448 0.35968-10.69184-0.4352-6.34624-2.6304-12.92928-1.4976-18.92096 1.12384-5.94688 4.29312-14.72256 8.60672-16.16512 8.50688-2.84544 18.336-1.91488 24.04736 8.256 4.93312 8.78464 4.33152 19.2704-3.57376 22.27968-23.56736 8.97152-21.3312 31.49824-28.33152 48.84352-5.73824 14.22208-8.83328 29.53984-12.73344 44.46848-5.28384 20.21504-10.73408 40.40832-15.18336 60.8128-7.10016 32.56064-31.65824 52.52736-65.31072 52.35712-17.26336-0.08576-33.94944-0.2944-50.7392-7.34592-16.86272-7.07968-26.43072-19.26144-31.31008-34.8864-7.91936-25.36448-13.5168-51.44576-20.352-77.15584-4.5696-17.18912-9.51936-34.2784-14.43712-51.37024-1.73312-6.02368-3.14496-12.32384-6.08256-17.75104-2.21696-4.09728-6.06336-8.8128-10.17216-10.10176-11.89504-3.72736-16.4736-13.16224-16.57472-23.23072-0.05376-5.23392 6.46272-12.7808 11.8848-15.38304 13.76512-6.6048 31.42016 7.35744 25.0624 20.56576-7.44704 15.4688 1.76128 25.53216 5.23904 37.54624 2.71744 9.39008 6.25024 18.94272 11.46496 27.11936 6.85824 10.75328 11.80672 22.0864 16.37632 33.84064 1.23776 3.18976 5.76384 5.1008 8.78208 7.59936l3.5904-2.30016z m61.76256 66.784c-0.0896 1.05216-0.17664 2.10432-0.26112 3.15392-18.1952-3.66592-34.95936 0.28672-50.78912 8.82944-1.72032 0.92928-3.54176 2.76736-4.01536 4.53504-0.3456 1.29408 1.13664 4.27008 2.32576 4.59648 12.89088 3.55328 25.78816 8.86656 38.8736 9.45408 15.58144 0.69632 31.424-2.2464 46.97344-4.75392 3.97568-0.64 8.56832-4.97536 10.2976-8.78208 0.85376-1.87648-3.5776-8.544-6.63424-9.39008-12.03712-3.3344-24.47744-5.21984-36.77056-7.64288zM104.98944 769.11872v12.1408H18.97216c-1.86368-9.94304-1.86368-9.94304 21.94816-14.61504V628.29824c-5.3312 0-10.54592 0.75904-15.3664-0.28416-2.90688-0.63104-5.2032-4.07168-7.77472-6.25152 2.64064-2.56384 5.25696-7.3408 7.92704-7.37408 40.8064-0.47488 81.62688-0.72064 122.432-0.1472 18.41792 0.256 35.24992 13.67296 40.19968 29.75744 5.81632 18.90048-0.81024 38.2592-17.1072 50.1632-2.21568 1.62176-4.26112 3.4688-7.61856 6.22208 17.30688 12.59264 24.2944 30.6304 30.36928 49.29792 5.56672 17.11232 5.76896 17.04576 24.04096 19.7952l0.87296 11.616h-54.84672c-4.22784-14.69312-8.7808-29.568-12.77312-44.6016-7.11168-26.77632-29.48736-40.51968-69.02144-31.69024v62.90816c7.82336 0.48512 14.58944 0.9024 22.73536 1.40928zM82.42432 627.6352c0 18.13248 0.2432 33.44512-0.1024 48.7424-0.17408 7.75936 2.944 11.1616 10.61632 10.98112 10.45632-0.24576 20.93696 0.08064 31.37664-0.4544 13.81376-0.70656 26.31808-11.488 27.45216-22.99904 1.75872-17.82528-5.12128-30.42176-21.48736-33.3312-15.17952-2.70208-30.95552-2.04288-47.85536-2.93888zM781.01888 614.13376v57.57184c-9.03296 2.43584-13.96608 1.62176-14.0032-9.46048-0.08064-25.07904-9.51296-33.81376-34.60608-33.80352-14.15168 0-28.30592 0.256-42.45376-0.01024-7.56736-0.14592-11.05664 2.38848-10.82368 10.51648 0.43648 15.29856 0.12416 30.62016 0.12416 45.7152 26.44864 6.752 37.6768-0.07168 39.40096-23.7248 8.3072-3.71456 12.42624-2.1376 12.20352 8.19328-0.38016 17.37856-0.224 34.7712 0.17024 52.14976 0.1984 8.768-3.70688 10.51136-11.10912 8.17024-6.71488-28.88832-9.6064-30.9696-39.83744-28.10752v67.06432c21.21216 0 42.17344 1.1136 62.95552-0.3456 17.30688-1.22368 24.19328-12.04224 24.032-34.0032-0.06656-9.26976 1.23776-15.55328 13.57696-12.30336v60.38784H615.32288v-12.37504c7.616-0.66304 14.6688-1.27872 22.31296-1.94304V629.07776c-4.59776-0.20864-9.25184-0.64-13.89952-0.57344-5.48736 0.08064-10.62016-0.91008-8.6592-7.67744 0.81536-2.81984 5.52064-6.33088 8.53632-6.40256 21.824-0.54528 43.6608-0.28928 65.49504-0.28928l91.9104-0.00128zM879.48032 769.21856c2.68288 10.01344 0.8576 14.39744-9.23264 14.12224-20.48768-0.56064-40.99328-0.1664-61.8496-0.1664v-14.38336c19.36384 4.18048 29.43872-8.13568 39.63264-20.54912 10.2464-12.47744 20.71168-24.77568 31.25504-37.00736 4.99456-5.79584 5.36448-11.232 0.45952-17.29408-12.9472-15.98464-25.04064-32.72832-38.84672-47.91808-6.67776-7.3408-16.62464-11.64032-24.69632-17.83424-2.34624-1.80096-4.45952-5.3504-4.53504-8.16128-0.05248-1.90976 3.5968-5.6064 5.63456-5.6384 24.6528-0.36992 49.31968-0.55552 73.94944 0.28928 2.8096 0.09472 5.39776 6.69568 8.22656 10.47424-3.77216 2.08512-4.416 2.65344-5.15072 2.81472-5.28384 1.15072-10.58688 2.21696-15.8848 3.31264 2.51136 5.1648 4.39808 10.76736 7.68128 15.38432 4.65408 6.54336 10.58304 12.17024 15.51616 18.53312 4.75392 6.1376 9.09056 5.76384 13.7152 0.19456 8.72064-10.5024 17.408-21.03296 27.6864-33.4592-5.24672-1.408-8.76288-3.32672-12.07552-3.02336-5.92384 0.54016-10.12736 0.0896-10.66368-7.05152-0.60672-8.10368 4.78208-7.8144 10.30912-7.79648 19.29216 0.06656 38.58176 0.02816 58.37184 0.02816v14.22592c-21.50656-3.53536-31.648 11.24096-42.624 24.768-8.86656 10.9184-17.87648 21.72928-27.71456 33.6768 20.416 25.14688 40.20224 50.61504 61.41952 74.82624 4.86784 5.5552 14.65856 6.7968 24.29696 10.93376 0.99072 4.06656 3.616 10.79168-8.11264 10.73024-26.97088-0.1472-53.94176-0.04736-81.66144-0.04736v-12.33664c0.92032-0.5824 1.5168-1.18528 2.21696-1.36064 5.61664-1.38368 11.2512-2.688 16.88064-4.0192-2.98496-5.02912-5.52576-10.40256-9.05088-15.02848-8.7488-11.49312-17.94688-22.6432-27.82848-35.008-12.34944 14.67776-23.84256 28.11264-34.99904 41.82272-1.80096 2.21824-3.49312 6.19008-2.66368 8.37504 0.72448 1.90464 4.99072 3.01312 7.84384 3.43168 3.90656 0.56576 7.95904 0.13952 12.49408 0.13952zM453.7536 628.94848c-7.9936-0.38016-14.33216-0.68224-21.34784-1.02016v-13.87648h64.01536c4.44544 0 8.9216 0.34176 13.32736-0.0704 10.54976-0.98176 12.80128 3.8336 9.62176 13.94304-6.70976 0.31744-13.42464 0.63488-21.6192 1.01888-0.33152 3.78624-0.95232 7.61984-0.95744 11.45344-0.04992 38.78656 0.32 77.57184-0.19968 116.352-0.13056 9.88032 3.28192 12.62464 12.5376 12.11776 11.68384-0.64 23.42784-0.33152 35.13728-0.128 17.34016 0.29696 33.77664-11.6352 31.03616-31.59168-0.4352-3.17184 0.24704-6.49344-0.12288-9.68192-1.14688-9.89952 2.79168-13.64352 13.45024-10.51648v64.64256H432.75648c-0.35072-1.94688-0.88448-3.76704-0.95232-5.6064-0.0704-1.92 0.30848-3.8592 0.45952-5.44128 1.3312-0.66688 2.00832-1.28384 2.72-1.3312 20.78208-1.28512 20.74624-1.27488 20.73984-22.02752-0.00768-25.04704 0.28288-50.10304-0.00768-75.14496-0.16384-14.01216-1.24544-28.01536-1.96224-43.0912z" fill="" p-id="4715"></path><path d="M266.7264 697.89824c0.55168-20.20352 4.82048-40.0704 19.71712-55.97952 18.97856-20.2688 50.51264-18.65728 67.88736 3.05792 21.67168 27.08864 22.0032 77.40032 0.69376 105.248-19.90016 26.0032-54.5536 25.3312-73.54112-1.3888-10.6752-15.01952-14.52288-31.99104-14.75712-50.9376zM516.3648 492.75776c12.29312 2.42432 24.73344 4.30848 36.77184 7.6416 3.05664 0.84608 7.488 7.5136 6.63424 9.39008-1.72928 3.808-6.32064 8.14208-10.2976 8.78208-15.54944 2.50752-31.392 5.45024-46.97344 4.75392-13.08544-0.58752-25.98272-5.89952-38.8736-9.45408-1.18912-0.3264-2.67136-3.30368-2.32576-4.59648 0.4736-1.76768 2.29504-3.60576 4.01536-4.53504 15.82976-8.54272 32.59392-12.49536 50.78912-8.82944 0.0832-1.04832 0.17024-2.10048 0.25984-3.15264zM82.42432 627.6352c16.90112 0.896 32.67584 0.23808 47.85536 2.93888 16.36608 2.90944 23.24608 15.50592 21.48736 33.3312-1.13536 11.51104-13.6384 22.29248-27.45216 22.99904-10.43968 0.53504-20.92032 0.20864-31.37664 0.4544-7.67232 0.18048-10.7904-3.22304-10.61632-10.98112 0.3456-15.29728 0.1024-30.60992 0.1024-48.7424z" fill="#FFFFFF" p-id="4716"></path></svg>