<?xml version="1.0" standalone="no"?><!DOCTYPE svg PUBLIC "-//W3C//DTD SVG 1.1//EN" "http://www.w3.org/Graphics/SVG/1.1/DTD/svg11.dtd"><svg t="1529328143895" class="icon" style="" viewBox="0 0 1024 1024" version="1.1" xmlns="http://www.w3.org/2000/svg" p-id="2619" xmlns:xlink="http://www.w3.org/1999/xlink" width="200" height="200"><defs><style type="text/css"></style></defs><path d="M849.749706 286.747522h-96.67193c-4.644381 0-8.428691 3.78431-8.428692 8.428692v433.647572c0 4.644381 3.78431 8.428691 8.428692 8.428692H849.749706c4.644381 0 8.428691-3.78431 8.428691-8.428692V295.176214c-0.172014-4.644381-3.956325-8.428691-8.428691-8.428692zM464.266084 459.449689h-96.67193c-4.644381 0-8.428691 3.78431-8.428691 8.428692v261.117419c0 4.644381 3.78431 8.428691 8.428691 8.428692h96.67193c4.644381 0 8.428691-3.78431 8.428692-8.428692V467.706367c0-4.644381-3.78431-8.256677-8.428692-8.256678z" fill="#EE892F" p-id="2620"></path><path d="M547.692928 286.747522h-373.27062c-4.644381 0-8.428691 3.78431-8.428691 8.428692v433.647572c0 4.644381 3.78431 8.428691 8.428691 8.428692h96.67193c4.644381 0 8.428691-3.78431 8.428692-8.428692V391.504116c1.548127-5.84848 8.084663-4.816395 8.084663-4.816396h209.341172c44.723669 6.536536 54.700487 42.659499 56.936671 56.248615v279.006887c0 8.428691 6.880564 15.309256 15.309256 15.309256H651.933479c8.428691 0 15.309256-6.880564 15.309256-15.309256v-318.226105c-21.845792-117.657652-119.549807-116.969595-119.549807-116.969595z" fill="#EE892F" p-id="2621"></path></svg>