<?xml version="1.0" standalone="no"?><!DOCTYPE svg PUBLIC "-//W3C//DTD SVG 1.1//EN" "http://www.w3.org/Graphics/SVG/1.1/DTD/svg11.dtd"><svg t="1529377987141" class="icon" style="" viewBox="0 0 1024 1024" version="1.1" xmlns="http://www.w3.org/2000/svg" p-id="7959" xmlns:xlink="http://www.w3.org/1999/xlink" width="200" height="200"><defs><style type="text/css"></style></defs><path d="M18.752853 17.145173h468.42368l-0.018773 468.425387H18.773333V17.145173h-0.02048z m0 0" fill="#F25022" p-id="7960"></path><path d="M534.99904 17.145173h468.421973c0 156.141227 0.022187 312.282453-0.02048 468.425387H535.038293c-0.059733-156.161707-0.039253-312.28416-0.039253-468.425387z m0 0" fill="#80BA01" p-id="7961"></path><path d="M18.752853 533.352107c156.141227 0.058027 312.282453-0.018773 468.42368 0.058026V1001.796267H18.752853V533.352107z m0 0" fill="#02A4EF" p-id="7962"></path><path d="M535.017813 533.410133c156.12416-0.058027 312.2432-0.018773 468.38272-0.018773V1001.813333H534.99904c0.018773-156.163413-0.02048-312.280747 0.018773-468.4032z m0 0" fill="#FFB902" p-id="7963"></path></svg>