<?xml version="1.0" standalone="no"?><!DOCTYPE svg PUBLIC "-//W3C//DTD SVG 1.1//EN" "http://www.w3.org/Graphics/SVG/1.1/DTD/svg11.dtd"><svg t="1529377110576" class="icon" style="" viewBox="0 0 1024 1024" version="1.1" xmlns="http://www.w3.org/2000/svg" p-id="2158" xmlns:xlink="http://www.w3.org/1999/xlink" width="200" height="200"><defs><style type="text/css"></style></defs><path d="M505.8304 334.3872c5.9904 10.3424 14.1056 12.3136 26.0864 10.3168 73.6-12.1856 147.9424-17.6128 222.2336-24.3968 39.2704-3.584 79.3856-2.5088 117.7856-14.208-3.6096-38.9632-10.88-45.9008-55.3984-39.8336-104.1152 14.2848-208.9984 23.3728-312.448 42.5728-9.472 1.7664-19.1488 2.3552-28.7488 3.4816-41.8304 18.2016-87.5776 21.12-131.2 32.4864-55.0912 14.3872-111.0272 25.7536-165.4016 43.2384-9.984 3.2256-19.8656 7.552-31.4112 3.2768 3.584-13.4656 15.36-19.2768 24.5248-27.3664 4.8896-21.5552 24.8576-22.0672 40.3456-28.8512l6.5024-5.5808c-1.408-6.0672 7.2192-13.3888-2.3296-18.4832-50.176 26.1376-91.648 64.1792-135.5008 98.9696-7.3472 5.8112-11.6736 13.2864-6.5536 22.784 5.3248 9.856 14.976 8.9344 23.0656 6.4512 112.1792-34.0736 227.3536-55.4496 341.4784-81.2544 20.096-13.9776 37.3504-36.4032 66.9696-23.6032z" fill="#080404" p-id="2159"></path><path d="M331.9552 595.6096c40.832-53.5808 19.8912-116.0704-45.2608-133.7856-34.048-9.2416-67.1488-3.5328-98.1248 13.3888-12.4416 6.784-23.9616 15.616-21.7856 31.1296 2.8416 20.5056 21.4272 7.04 32.9472 11.3664-2.0224 3.7888-3.0976 6.3744-4.6336 8.6272-49.408 72.2432-77.056 153.216-93.6448 238.2848-2.944 15.0528-9.2672 39.2704 8.3712 44.416 20.0448 5.8624 25.2672-18.304 32.2304-33.6896 0.8192-1.7408 0.9472-3.712 1.7152-5.5552 17.536-41.9072 35.0976-83.7376 52.6848-125.6448 10.3936-41.088 28.9536-79.8976 35.4304-122.1376 0.9216-5.9904 2.0224-11.5968 9.9584-11.4432 20.1216 0.3584 38.4768 5.6064 51.968 21.3248 13.1584 15.3088 11.136 32.384 2.0224 48.64-14.9504 26.9056-40.7552 40.1664-67.584 51.8912-8.7296 3.7888-17.3568 7.9872-26.0352 12.0064 4.4544 7.9872 11.8272 9.2416 19.9936 8.4224 44.2112-4.5056 82.304-21.1968 109.7472-57.2416z" fill="#030303" p-id="2160"></path><path d="M293.9648 288.1792c-0.0256 0-0.0256 0 0 0-9.728 18.9952-27.7504 24.8064-46.5664 29.3376l-11.6224 17.7152h0.0256c14.208-0.8704 19.7888 4.0704 11.9808 17.9712 15.0784-0.8192 29.952-2.432 44.7232-4.7872 20.096-4.9152 40.2688-9.6512 60.3904-14.2592 9.5488-3.0464 18.9952-6.4 28.3648-10.1376l-0.256-0.5632c-20.3008-8.8832-36.7104-33.6896-63.9232-15.1296-3.072 2.1248-7.3984-1.2288-8.7808-5.3248-1.8176-5.4272 1.1776-9.7024 5.0944-12.4928 34.7904-24.7808 48.896-64.384 72.6272-96.9984 14.1824-19.4816 30.2592-56.7552 70.528-39.296 5.7856 2.5344 13.0816 0.4352 18.2784-5.6576 3.6096-4.1984 9.6256-10.6752 13.184-9.9072 39.3472 8.6016 67.584-27.7504 105.3952-25.216 9.7024 0.64 17.6128-6.9888 25.9072-12.032 14.3872-8.704 31.4112-8.2688 37.248 7.4496 7.5008 20.0704 15.1552 44.5696 9.9584 63.7184-6.7072 24.8576 8.6528 28.0064 21.3248 32.256 24.1152 8.1152 49.4848 12.544 77.6192 19.2768-51.8912 42.88-113.2544 45.568-170.9568 58.3168-20.2496 4.4544-41.2928 9.4464-62.4128 0.8192-17.6128-7.1936-24.1664 12.3648-37.2736 17.1264-27.8016 10.1632-52.8128-1.9712-78.464-7.296-15.0784-3.1488-26.2656-6.144-21.5296 14.976 1.9968 8.96-4.6848 9.3952-9.2928 11.5968 0.1024 1.3568 0.256 2.7392 0.4352 4.1728 22.016 0.1024 42.9056-8.96 64.5632-11.8272 9.8816-2.2784 19.7632-4.5312 29.6448-6.8608 106.4192-21.1456 214.3488-31.3088 321.5872-45.9776 14.4384-1.9456 28.9792-3.5072 43.4432-1.0752 27.3152 4.6336 35.5072 19.7376 26.5984 47.9232 12.3136 2.688 24.2176 0.0512 35.5584-4.2752 14.7456-5.6576 21.4528-14.9248 9.3952-29.6192-26.8544-23.7568-62.2336-28.0576-94.0544-40.2432-33.9968-13.0816-69.1968-23.1936-103.9872-34.4064-24.8832-8.0128-41.472-20.6592-41.3184-50.8928 0.1024-18.6624-7.5776-37.4016-11.776-56.0896v-0.0256c-9.8304-6.2208-12.1344-20.8896-25.7792-22.7328-16.0512 28.2624-47.1552 28.5184-72.8064 36.7616-34.7648 11.1616-69.2992 26.2912-106.1376 28.1856-53.0944 2.7136-78.5664 41.5488-107.904 76.2368l-0.0256 0.0512c-4.9152 15.6416-7.68 32.4864-23.424 42.112 2.4576 26.1888-23.7056 24.7552-35.584 37.12zM247.4496 317.4656z" fill="#C50403" p-id="2161"></path><path d="M845.312 258.176c-14.464-2.432-29.0048-0.8704-43.4432 1.0752-107.2384 14.6688-215.168 24.832-321.5872 45.9776l-29.6448 6.8608c8.0896-1.0752 16.3072-1.28 24.704 0.2304 9.6-1.1264 19.2512-1.6896 28.7488-3.4816 103.4496-19.2 208.2816-28.2624 312.448-42.5728 44.5184-6.0928 51.7888 0.8448 55.3984 39.8336 8.8576-28.1856 0.6912-43.2896-26.624-47.9232zM292.5056 348.4416a408.96 408.96 0 0 0 60.3904-14.2592c-20.1216 4.608-40.2944 9.344-60.3904 14.2592z" fill="#C50403" p-id="2162"></path><path d="M356.2752 804.1984c19.1488-6.5024 37.8368-14.4384 61.2096-23.552-2.56 18.2272-4.7872 31.4112-6.1696 44.672-1.4592 13.7728-2.5088 29.6704 14.8736 33.024 16.3584 3.0976 24.4224-11.8016 28.7232-24.0896 13.3376-38.2976 8.6016-84.3776 58.3168-114.0992-43.5968 18.3552-30.2592-6.0928-28.1856-20.48 2.3552-16.3328 5.8624-32.4352 8.576-48.6656 0.9728-5.6832 1.9968-12.2624-4.3264-15.4624-7.9616-4.0448-12.8256 1.8432-16.6912 7.4752-11.648 16.7168-22.6304 34.3296-26.7008 54.3744-6.9632 34.1248-23.3984 55.6544-61.2864 54.3744-6.2976-0.2304-12.4416 5.8624-20.352 0.4352 10.4192-29.6448 21.4272-59.4944 26.0096-91.1104 1.1008-7.6032 4.4288-17.408-4.5056-20.6592-8.192-2.9952-13.2096 5.9136-17.9456 11.8528-15.872 19.8144-26.9824 42.496-37.7856 65.2544-13.4656 28.4928-22.6048 61.184-65.2288 57.088-6.528-0.5888-14.8992 5.1456-14.72 15.104 0.128 7.4496 3.0208 14.72 10.7008 15.2064 33.2288 1.8432 25.3184 22.0416 20.0192 42.112-2.7136 10.24-5.3248 20.8896-5.2992 31.4624 0 14.7456-3.968 34.6624 15.6928 38.784 21.5296 4.5312 30.3616-13.6192 35.6096-30.8736 6.1952-20.3776 10.5984-41.2416 15.8208-61.952 2.1248-8.3712 3.1488-16.6656 13.6448-20.2752z" fill="#040404" p-id="2163"></path><path d="M719.6416 580.8128c-67.6096 18.304-130.9952-17.3824-197.6576-8.4992 26.8544-32.1024 60.1088-54.912 81.024-89.2928 5.6064-9.2672 12.9024-17.5872 6.1952-29.056-6.0416-10.3424-16.7936-8.7296-26.112-8.448-29.952 0.9472-59.8784 2.944-89.856 4.2496-9.7024 0.4352-21.2992-1.1776-22.9632 11.7248-1.8432 14.1312 10.3936 17.1264 20.736 19.584 18.8672 4.4544 38.016-0.384 64.1792-0.512-29.056 24.832-52.8896 44.416-75.776 65.0752-15.0272 13.568-30.5664 27.0848-39.8336 45.7472-4.5824 9.216-5.5808 18.688 1.4336 27.264 7.04 8.6016 15.4368 5.4272 23.7824 2.048 12.7488-5.0944 26.24-6.0928 39.7568-7.7312 53.1712-6.2976 106.5728 0.7424 159.6928-3.1488 21.8624-1.536 42.2656-7.68 55.3984-29.0048z" fill="#050505" p-id="2164"></path><path d="M710.2208 836.1216c-4.5312-10.624-16.8448-4.3776-25.6512-5.4784-18.048-2.304-34.7904 9.5488-53.1456 5.3504l-28.3648 5.9904c-31.6928 16.8704-65.152 29.44-99.1488 40.8576-18.304 10.4448-36.8128 20.352-58.24 22.8096-29.3888 13.3888-58.7008 27.1104-88.2688 40.1408-12.3392 5.504-18.2016 13.5936-15.232 27.2384 3.072 14.208 13.3888 17.792 25.9328 18.1504 13.9008 0.512 26.752-4.1984 39.1424-9.6256 96.5632-41.9584 192.9984-84.1728 289.5104-126.3104 1.4848-8.7552 17.5872-9.4976 13.4656-19.1232z" fill="#C40403" p-id="2165"></path><path d="M777.9072 532.0192c-1.6384-8.192-8.9856-5.7856-14.1824-5.0688-23.5008 3.3024-45.7984-4.3264-76.1344-6.7072 24.96-25.344 45.2608-45.5424 64.9984-66.2784 8.704-9.1392 18.304-20.3776 12.6976-33.28-6.1952-14.1568-21.504-15.4368-35.3536-14.1312-27.904 2.6368-55.68 6.7072-83.584 9.088-11.776 1.024-24.6016-1.4336-24.2944 16.1536 0.2816 15.36 11.2128 18.7904 23.8336 19.3024 16.4864 0.64 33.2544-1.664 52.5568 4.4032-21.9904 18.5088-41.2672 34.5344-60.3392 50.7904-11.8528 10.0864-23.296 20.864-28.6976 35.8144-4.5312 12.3648-1.1776 23.2704 14.208 19.3024 25.2928-6.5536 49.9968-1.3056 75.0336-0.5376 24.576 0.768 48.2304-3.328 69.8368-15.7952 4.5568-2.7648 10.7264-6.2976 9.4208-13.056z" fill="#060606" p-id="2166"></path><path d="M959.0784 484.2752c-35.4816-2.4064-31.1808-23.3984-22.4768-46.6688 8.7552-23.3472 5.0176-36.7104-11.4432-32.64-67.3536 4.8384-112.6912 24.96-138.1632 76.1088-16.128 32.2816 3.2256 56.9344 38.6304 52.4288a85.76 85.76 0 0 0 42.496-17.792c13.7472-10.6752 26.0608-14.592 43.4944-6.2464 15.4624 7.3728 32.4352 0.5632 47.6416-6.5024 4.1728-1.9712 9.088-4.1216 9.4208-9.856 0.384-6.6304-5.8368-8.576-9.6-8.832z m-112.5376-1.3056c-4.096 0.2816-8.3712-3.4816-6.7584-7.2704 8.4992-19.5072 26.8032-24.5248 48.2048-32.5632-5.9136 26.8544-19.6096 38.272-41.4464 39.8336z" fill="#050505" p-id="2167"></path><path d="M655.36 673.4592c-13.2352-4.3008-18.5856 8.1408-22.9376 17.536-15.5392 33.408-44.416 51.712-75.2128 70.912-2.3296-18.0224 5.0432-33.024 1.1008-48.6144-5.0432-19.7632-23.2448-30.4384-42.1376-24.2176-5.0688 1.664-11.1616 6.1696-7.5776 9.1136 24.5248 20.5312 4.9152 40.704 0.6656 60.8-3.6352 17.2544-9.0624 34.9952 8.7552 47.616 18.5344 13.184 35.9424 3.2768 50.6624-7.1168 15.8208-11.2128 29.184-25.9584 43.8784-39.3472 6.912 12.9792 3.0208 28.7488 17.9456 35.9424 6.2976 3.0208 8.4992 13.7984 18.688 9.7536 10.752-4.2496 5.504-13.2608 5.248-19.9424-0.9984-29.2096 3.712-57.9584 6.6048-86.8608 0.896-8.7296 6.7072-21.504-5.6832-25.5744zM714.496 805.9904c9.6768-28.2624 20.608-56.192 28.6464-84.9152 8.192-29.1328 23.296-47.4368 54.0928-56.4736 26.5472-7.8592 54.0928-16.8448 75.7504-38.9376-30.8992 4.8128-61.7984 9.7024-95.2064 14.9504 4.3008-11.3664 7.7568-20.0192 10.9568-28.8 2.9184-8.1408 2.2016-15.6928-6.6048-19.5584-7.6032-3.3024-12.7488 1.2032-16.8448 7.3472-4.8128 7.2448-10.0096 14.3104-14.4384 21.76-12.288 20.3008-24.576 39.9616-53.76 34.304-9.6-1.8176-20.8896-1.8432-22.784 11.2128-1.92 13.696 9.472 15.6928 19.1232 16.0512 18.944 0.6656 18.8928 10.24 13.9008 24.4736-7.3984 20.9664-14.0032 42.2912-13.1072 65.0496 0.5376 10.4192 0.3584 21.0176 1.7408 31.4112 3.2 23.296 11.3664 9.7536 18.5344 2.1248z" fill="#070707" p-id="2168"></path><path d="M683.648 139.6992c2.6624 31.3856 20.0448 45.5168 47.6416 53.5296 53.6832 15.5648 106.1376 34.7392 158.5152 53.9648 12.1344 4.4288 27.4944 6.4768 26.9824 25.0112 1.9456-0.3584 3.9936-0.3584 5.7856-1.0752 10.1376-4.2496 25.216 13.184 30.4128-3.4816 5.248-16.896-13.696-18.6368-24.0128-23.3728-59.904-27.5712-120.3968-54.1952-184.96-68.7104-28.9024-6.528-45.0048-20.608-51.84-49.3568-5.2224-21.8624-10.752-44.6464-29.696-68.5312 1.5616 16 2.4064 24.448 3.2 32.8704v0.0256c19.2 11.392 16.512 32.2304 17.9712 49.1264z" fill="#250809" p-id="2169"></path><path d="M718.7968 197.5808c34.7392 11.2128 69.9392 21.3248 103.9872 34.4064 31.7952 12.1856 67.2 16.4864 94.0032 40.2432 0.5376-18.5344-14.848-20.5824-26.9824-25.0112-52.4032-19.2256-104.8832-38.4-158.5152-53.9648-27.5968-8.0128-45.0048-22.1696-47.6416-53.5296-1.4592-16.896 1.2288-37.7344-17.9456-49.1264 4.1984 18.688 11.8784 37.4272 11.776 56.0896-0.1536 30.2336 16.4096 42.8544 41.3184 50.8928z" fill="#250809" p-id="2170"></path><path d="M452.1472 126.4896c64.9472-10.1632 128.4096-28.9024 187.776-58.6752-13.312-6.3744-26.5216-3.0464-39.5776 0.6912-51.1488 14.6176-101.4528 34.2016-153.5744 42.8288-54.016 8.9344-77.8752 43.0848-96.5888 87.0912-2.2528 5.3504-3.7376 8.576 2.8928 10.5984l0.0256-0.0256c20.1472-42.9056 47.0272-74.3424 99.0464-82.5088z" fill="#1A0707" p-id="2171"></path><path d="M461.0304 132.7616c36.8128-1.8944 71.3216-17.0496 106.1376-28.1856 25.6768-8.2432 56.7552-8.4736 72.8064-36.7616-59.392 29.7728-122.8288 48.512-187.776 58.6752-52.0704 8.1664-78.9504 39.6032-99.072 82.5088 29.3376-34.7136 54.8096-73.5232 107.904-76.2368z" fill="#1A0707" p-id="2172"></path><path d="M447.0016 460.8c-3.584-10.4448-10.6752-11.6736-16.3072-2.048-17.6128 29.952-41.5232 56.2176-54.144 89.088-7.4496 19.3792-10.624 39.3472-0.1536 59.0848 3.4048 6.4256 8.7808 10.5728 15.9488 10.9824 8.9344 0.5376 10.6752-6.6048 12.2624-13.3632 5.9648-25.8304 19.6096-48.2816 31.9232-71.1936 8.4224-15.6928 12.6464-32.2048 14.4896-52.6336-0.896-4.864-1.536-12.7232-4.0192-19.9168z" fill="#080808" p-id="2173"></path><path d="M869.0944 782.848l0.0768-0.0512h-0.0768c-51.5072 7.7568-103.0144 15.488-154.5984 23.1936 1.8944 9.8304-3.3536 14.6432-12.1088 14.7456-9.1392 0.1024-9.6512-7.296-9.1648-14.3104 0.6656-11.2896-0.6144-22.7584 1.0496-34.0224-1.2288 11.5968-2.3808 23.2448-3.6352 34.8928-0.0512 18.0224-16.5376 10.9568-25.0624 15.6672-1.4592 0.7936-2.9696 1.4592-4.5056 2.1504 8.0384-1.6128 16.1792-2.8416 24.5248-2.4832 11.1872 0.5376 25.1648-2.0736 29.5168 11.52 4.608 14.2592-12.6464 13.44-18.4832 21.0432 58.1376-19.8144 116.2496-39.7056 174.3872-59.5712 2.2272-4.6336 12.9792-10.624-1.92-12.7744z" fill="#B31214" p-id="2174"></path><path d="M715.2128 834.2528c-4.352-13.5936-18.432-10.9824-29.5424-11.4944a96.0512 96.0512 0 0 0-24.5248 2.4576c-9.4208 4.4032-19.7632 7.1936-29.6704 10.8288 18.3552 4.1728 35.0976-7.6288 53.1456-5.3504 8.8064 1.1008 21.0944-5.1456 25.6512 5.4784 4.1472 9.6256-12.0064 10.3424-13.5168 19.1744 5.7344-7.6288 22.9888-6.8352 18.4576-21.0944zM693.2224 806.4768c-0.4864 6.9632 0.0256 14.3872 9.1648 14.336 8.7552-0.1024 14.0032-4.9408 12.1088-14.7456-7.168 7.6032-15.4112 21.0944-18.5088-2.2016-1.408-10.3424-1.2032-20.9408-1.7152-31.4112-1.664 11.2896-0.384 22.7072-1.0496 34.0224z" fill="#B31214" p-id="2175"></path><path d="M422.784 399.9232c-1.792 7.5264-1.5104 15.6672 5.4016 21.0176 5.8112 4.5056 14.3616 5.2992 18.7648 0.6912 22.5024-23.3472 48.3584-44.9024 51.3792-80.7424-19.7888 2.688-35.8912 13.8752-52.7872 23.1936-8.5248 11.3664-19.3792 21.4016-22.7584 35.84z" fill="#0B0B0B" p-id="2176"></path><path d="M222.8736 329.0624c-0.0512 0.128-0.1536 0.2304-0.2304 0.3584 7.552-1.3824 12.4672-9.1648 19.712-11.3664l0.896-0.9984c1.9712-1.7664 4.1216-3.2768 6.4-4.6336l5.9904-2.944a97.3312 97.3312 0 0 1 29.2352-18.1248c2.1248-1.8688 4.224-3.84 6.1184-6.016 11.7504-12.6976 29.7216-18.3296 38.6816-34.1504a459.7248 459.7248 0 0 0-113.3824 59.8784c15.6928 1.024 8.5504 10.4448 6.5792 17.9968z" fill="#2D0A0C" p-id="2177"></path><path d="M218.624 329.5232a12.3392 12.3392 0 0 0 4.0192-0.128c0.0768-0.1024 0.1792-0.2304 0.2304-0.3584 1.9712-7.5264 9.1136-16.9472-6.5792-17.9968 9.5232 5.0944 0.896 12.416 2.3296 18.4832zM290.9696 285.3376a67.6864 67.6864 0 0 1-6.1184 6.016 102.656 102.656 0 0 1 9.088-3.1488l0.0256-0.0256c11.8528-12.3648 38.016-10.9568 35.6864-37.0176-8.96 15.8208-26.9056 21.4784-38.6816 34.176zM247.4496 317.4656a114.176 114.176 0 0 1 8.1664-7.9872l-5.9904 2.944a40.2944 40.2944 0 0 0-6.4 4.6336 35.072 35.072 0 0 0-0.896 0.9984 12.032 12.032 0 0 1 5.12-0.5888z" fill="#2D0A0C" p-id="2178"></path><path d="M869.1712 782.7968c4.9664-0.9472 11.648-4.224 13.056 3.6096 1.28 7.296-8.2688 5.0176-11.1872 9.3184 11.392 0.4864 21.1968-3.0976 34.9952-13.4656-16.0256-3.8656-26.3424-4.7872-36.864 0.5376z" fill="#A43B3C" p-id="2179"></path><path d="M882.2272 786.4064c-1.408-7.8336-8.064-4.5568-13.056-3.6096l-0.0768 0.0512c14.8992 2.1504 4.1472 8.1408 1.9456 12.8768 2.9184-4.3008 12.4672-2.0224 11.1872-9.3184z" fill="#A43B3C" p-id="2180"></path><path d="M386.304 326.6304l-0.3072-2.7136c-1.408 0-2.8416 0-4.2752-0.0768l0.0256 0.0256a3.072 3.072 0 0 0-0.512 0.2048c0.5376 1.0752 1.0752 2.176 1.536 3.3536l3.5328-0.7936zM247.1424 353.4336l-47.0784 16.1536c-5.7088-12.3136 5.248-15.3344 7.2192-22.1696l-1.4592-1.792v0.0256l-23.1936 12.4928a42.6752 42.6752 0 0 0-9.3952 11.9552c-2.6624 3.9424-6.784 6.8096-9.344 14.1824a1668.0704 1668.0704 0 0 1 91.264-26.3168l-0.256 0.0256a13.8752 13.8752 0 0 1-7.7568-4.5568z" fill="#881B21" p-id="2181"></path><path d="M386.304 326.6304c-1.152 0.256-2.3296 0.5376-3.5072 0.768-40.9856 16.8448-84.1216 24.5504-127.6416 30.5408a1691.136 1691.136 0 0 0-91.264 26.3168c2.5856-7.3728 6.6816-10.2144 9.344-14.1824 2.5088-4.8128 5.76-8.6528 9.3952-11.9552-3.6352 1.92-7.2192 3.8912-10.8544 5.8368-9.1648 8.0896-20.9152 13.9008-24.5248 27.3664 11.5456 4.2752 21.4272-0.0512 31.4112-3.2768 54.3744-17.4848 110.3104-28.8512 165.4016-43.2384 43.6224-11.3664 89.3696-14.2848 131.2-32.4864-29.8496 3.6608-58.8288 12.7232-88.9088 14.7968a1.024 1.024 0 0 0-0.0512-0.4864z" fill="#881B21" p-id="2182"></path><path d="M450.5856 312.064c-21.6832 2.8672-42.5728 11.9296-64.5632 11.8272l0.3072 2.7136c21.4528-4.8128 42.8544-9.6512 64.256-14.5408zM381.2864 324.0448c-9.3696 3.7632-18.816 7.1168-28.3648 10.1376l29.9008-6.8096a78.2848 78.2848 0 0 0-1.536-3.328zM254.8992 357.9648l0.256-0.0256c12.416-3.2512 24.8832-6.4256 37.3504-9.4976-14.7456 2.3296-29.6192 3.968-44.7232 4.7872l-0.64 0.2048c1.92 2.1248 4.3008 3.84 7.7568 4.5312z" fill="#881B21" p-id="2183"></path><path d="M450.5856 312.064c-21.4016 4.8896-42.8032 9.7024-64.2816 14.5408a2.816 2.816 0 0 1 0.0512 0.4864c30.08-2.0736 59.0592-11.136 88.9088-14.7968a79.872 79.872 0 0 0-24.6784-0.2304zM382.8224 327.3984c-9.9584 2.2528-19.9424 4.5056-29.9008 6.8096-19.7888 6.2976-39.936 11.0336-60.3904 14.2592-12.4672 3.0464-24.9344 6.2464-37.3504 9.4976 43.4944-5.9904 86.656-13.7216 127.6416-30.5664zM207.872 347.1616l27.392-11.6992a11.008 11.008 0 0 1-0.1536-7.3984c-3.584 3.2256-7.68 5.2992-13.5936 2.8672a30.8736 30.8736 0 0 1-7.1168 7.7056c-2.1504 1.28-4.3776 2.5088-6.6048 3.6864a171.2128 171.2128 0 0 1-1.7152 2.8928 8.1152 8.1152 0 0 1 1.792 1.9456z" fill="#881B21" p-id="2184"></path><path d="M214.4 338.6624c2.8416-2.1504 5.1712-4.7616 7.1168-7.7056a16.8192 16.8192 0 0 1-2.8928-1.4336l-6.5024 5.5808-4.3264 7.2192c2.2272-1.1776 4.4544-2.4064 6.6048-3.6608zM247.4496 317.4656c-4.8384 1.8176-8.2688 6.9632-12.3392 10.5984a11.1616 11.1616 0 0 0 0.1536 7.3984l0.512-0.2304 11.6224-17.7152h-0.0256l0.0768-0.0512zM235.1104 328.064c1.2544-3.7376 4.3008-6.8864 7.2192-10.0608-7.2192 2.2016-12.1344 9.984-19.712 11.3664-0.3328 0.5632-0.7424 1.0496-1.1008 1.5616 5.9136 2.432 9.984 0.384 13.5936-2.8672z" fill="#881B21" p-id="2185"></path><path d="M222.6176 329.3952a12.288 12.288 0 0 1-4.0192 0.128 20.1728 20.1728 0 0 0 2.8928 1.4336c0.384-0.512 0.8192-0.9984 1.1264-1.5616zM247.4496 317.4656l-0.0512 0.0512zM247.4496 317.4656a12.9536 12.9536 0 0 0-5.12 0.5376c-2.9184 3.1744-5.9648 6.3232-7.2192 10.0608 4.0448-3.6096 7.5008-8.7552 12.3392-10.5984zM206.0544 345.216l-0.2304 0.4096 1.4592 1.8176 0.5888-0.2816a7.7312 7.7312 0 0 0-1.8176-1.9456z" fill="#881B21" p-id="2186"></path><path d="M205.6192 343.4752l-1.3056 0.7168a10.752 10.752 0 0 1 1.4336 0.7424c-0.0768-0.4864-0.1536-0.9728-0.128-1.4592z" fill="#2D0A0C" p-id="2187"></path><path d="M204.0576 344.0384l0.256 0.1536 1.3056-0.7168c0.2816-3.8912 4.4544-5.4784 6.4768-8.3712-15.488 6.784-35.4304 7.296-40.3456 28.8512 8.0896-10.9568 18.4064-18.3552 32.3072-19.9168z" fill="#2D0A0C" p-id="2188"></path><path d="M205.824 345.6256c-0.0768-0.256-0.0512-0.4352-0.0768-0.6656a8.4224 8.4224 0 0 0-1.4336-0.7424c-7.68 4.0448-15.3344 8.1152-21.6832 13.9264l23.1936-12.5184z" fill="#2D0A0C" p-id="2189"></path><path d="M204.3136 344.192a2.2528 2.2528 0 0 0-0.256-0.1536c-13.9008 1.536-24.2176 8.96-32.2816 19.9168l10.8544-5.8368c6.3488-5.7856 14.0032-9.8816 21.6832-13.9264zM205.7472 344.96l0.3328 0.2816 1.7152-2.8928-2.1504 1.152c-0.0512 0.4608 0.0256 0.9472 0.1024 1.4592zM205.6192 343.4752c0.7168-0.384 1.4592-0.7424 2.1504-1.152l4.3264-7.2192c-1.9968 2.8928-6.1952 4.48-6.4768 8.3712z" fill="#2D0A0C" p-id="2190"></path><path d="M205.7472 344.96c0.0256 0.2304 0 0.4352 0.0768 0.6656l0.2304-0.4096-0.3072-0.256z" fill="#2D0A0C" p-id="2191"></path><path d="M381.7472 323.8144c0.512-2.0992 1.9968-3.2256 3.8144-4.096-2.4832-29.8496 8.8832-40.7296 37.888-32.5376 32.3328 9.088 62.08 12.928 91.2384-8.1408 6.9888-5.0944 16.8704-2.6368 25.6-1.7664 40.192 3.8912 78.8992-4.9152 116.992-15.8208 13.0048-3.712 25.5232-8.6272 39.1936-9.9328 17.792-1.6896 33.5872-8.0896 46.72-24.2688-19.5328-6.4512-39.1936-7.0656-56.8832-14.72-18.2016-7.8592-32.4096-18.1504-27.7504-41.3952 1.152-5.76-0.1536-11.5712-0.9984-17.3312-7.6032-50.8928-7.2448-49.8176-56.192-35.5072-43.904 12.8512-87.3472 35.2256-131.1488 37.9648-55.936 3.5072-74.9312 39.5008-98.432 76.3648-14.0288 22.0416-27.2384 44.5184-53.0944 64.256 30.5664-3.2256 51.0208 3.6096 62.2336 26.5216l0.8192 0.4096z" fill="#CE0000" p-id="2192"></path><path d="M318.7968 296.96c25.8304-19.7376 39.0656-42.2144 53.0944-64.256 23.5008-36.864 42.496-72.8576 98.432-76.3648 43.8016-2.7392 87.2192-25.1136 131.1488-37.9648 48.9728-14.336 48.6144-15.3856 56.2176 35.5072 0.8448 5.76 2.1504 11.5712 0.9984 17.3312-4.6848 23.2448 9.5488 33.536 27.7504 41.3952 17.6128 7.6544 37.3504 8.2432 56.8576 14.72-13.1584 16.1536-28.9024 22.5536-46.72 24.2688-13.6704 1.3056-26.1632 6.2208-39.168 9.9328-38.0928 10.9056-76.8 19.712-116.992 15.8208-8.7552-0.8704-18.6624-3.328-25.6256 1.7664-29.1584 21.0944-58.9312 17.2288-91.2384 8.1408-29.0048-8.192-40.3968 2.688-37.888 32.5376 4.608-2.2016 11.264-2.6624 9.2928-11.5968-4.736-21.12 6.4512-18.1248 21.5296-14.976 25.6256 5.3248 50.6624 17.4848 78.464 7.296 13.0816-4.8128 19.6352-24.3456 37.2736-17.1264 21.0944 8.6016 42.1376 3.6352 62.4128-0.8192 57.7024-12.7488 119.04-15.4368 170.9568-58.3168-28.16-6.7328-53.504-11.1616-77.5936-19.2768-12.672-4.2752-28.0576-7.3984-21.3248-32.256 5.1968-19.1488-2.4832-43.648-9.984-63.7184-5.8624-15.7184-22.8352-16.1536-37.248-7.4496-8.2688 5.0176-16.2048 12.672-25.9072 12.032-37.8112-2.5344-65.9968 33.8176-105.3696 25.216-3.5584-0.7936-9.5744 5.7088-13.184 9.9072-5.1968 6.0928-12.4928 8.1664-18.2784 5.6576-40.2944-17.4592-56.3712 19.8144-70.528 39.296-23.7312 32.6144-37.8368 72.2176-72.6272 96.9984-3.8912 2.7648-6.912 7.0656-5.0944 12.4928 1.3824 4.096 5.7088 7.4496 8.7808 5.3248 27.2128-18.5856 43.6224 6.2464 63.9232 15.1296-11.3408-23.04-31.8208-29.8752-62.3616-26.6496zM208.3328 347.8784c0.256 0.4864 0.4864 0.9984 0.6656 1.536 0.4864 8.064 5.3248 8.192 11.4944 6.3744 8.576-2.6112 17.2288-4.7104 26.24-2.7392-3.968-4.6592-5.8368-11.2384-10.5728-15.2064-0.3584-0.6912-0.5376-1.3568-0.7936-2.0224-6.7072 9.3696-13.9008 17.6896-27.0336 12.0576z" fill="#CE0000" p-id="2193"></path><path d="M236.1856 337.8176c4.736 3.968 6.6048 10.5472 10.5728 15.2064 0.3584 0.0512 0.6912 0.0768 1.0496 0.2048 7.808-13.9008 2.2272-18.8416-11.9808-17.9712h-0.0256a4.096 4.096 0 0 1-0.384 0.5376c0.2048 0.6656 0.384 1.3056 0.768 2.0224zM220.4928 355.7632c-6.1696 1.8432-11.008 1.7152-11.4944-6.3744a10.2912 10.2912 0 0 0-0.6656-1.536l-1.0496-0.4352c-1.9712 6.8352-12.928 9.8304-7.2192 22.1696l47.0784-16.1536-0.4096-0.4096c-9.0112-1.9712-17.664 0.128-26.24 2.7392z" fill="#CE0000" p-id="2194"></path><path d="M247.1424 353.4336l0.64-0.2048a7.6032 7.6032 0 0 0-1.0496-0.2048l0.4096 0.4096zM208.3328 347.8784c13.1584 5.632 20.3264-2.688 27.0592-12.0832l-0.128-0.3328-27.392 11.6992a17.4848 17.4848 0 0 1 0.4608 0.7168z" fill="#CE0000" p-id="2195"></path><path d="M235.392 335.7952l0.384-0.5376-0.512 0.2304a1.5616 1.5616 0 0 0 0.128 0.3072zM207.872 347.1616a4.1728 4.1728 0 0 0-0.5888 0.2816l1.0496 0.4352-0.4608-0.7168z" fill="#CE0000" p-id="2196"></path><path d="M247.424 317.5168c18.816-4.5312 36.8128-10.3424 46.5664-29.3376l-0.0256 0.0256c-14.08 12.0576-31.0272 19.5328-46.5408 29.312zM255.616 309.4784c10.3424-5.0944 20.5312-10.4704 29.2352-18.1248a97.3312 97.3312 0 0 0-29.2352 18.1248z" fill="#881B21" p-id="2197"></path><path d="M247.4496 317.4656s0 0.0256 0 0c15.488-9.7536 32.4352-17.2032 46.5152-29.2864a99.84 99.84 0 0 0-9.088 3.1488c-8.704 7.6544-18.8928 13.0304-29.2352 18.1248a120.832 120.832 0 0 0-8.192 8.0128zM247.3984 317.5168h0.0256zM247.3984 317.4912h0.0512z" fill="#881B21" p-id="2198"></path></svg>