<?xml version="1.0" standalone="no"?><!DOCTYPE svg PUBLIC "-//W3C//DTD SVG 1.1//EN" "http://www.w3.org/Graphics/SVG/1.1/DTD/svg11.dtd"><svg t="1529362907617" class="icon" style="" viewBox="0 0 1038 1024" version="1.1" xmlns="http://www.w3.org/2000/svg" p-id="1998" xmlns:xlink="http://www.w3.org/1999/xlink" width="202.734375" height="200"><defs><style type="text/css"></style></defs><path d="M503.873016 503.873016m-487.619048 0a487.619048 487.619048 0 1 0 975.238095 0 487.619048 487.619048 0 1 0-975.238095 0Z" fill="#D8D8D8" p-id="1999"></path><path d="M1005.940035 503.873016c0 278.123457-225.749559 503.873016-503.873016 503.873016C223.943563 1007.746032-1.805996 781.996473-1.805996 503.873016-1.805996 225.749559 223.943563 0 502.067019 0c278.123457 0 503.873016 225.749559 503.873016 503.873016" fill="#FFFFFF" p-id="2000"></path><path d="M480.395062 438.857143c0 3.611993-1.805996 7.223986 1.805996 9.029982 12.641975-1.805996 34.313933 7.223986 39.731923-7.223986-5.417989-5.417989-12.641975-7.223986-19.865962-7.223986-7.223986-1.805996-14.447972 1.805996-21.671957 5.41799zM460.529101 469.559083l1.805996 7.223986c14.447972 9.029982 19.865961 27.089947 39.731922 25.28395 18.059965 1.805996 30.70194-16.253968 39.731923-28.895943-25.283951-5.417989-54.179894 0-81.269841-3.611993z m400.931216-52.373898c37.925926 10.835979 77.657848 52.373898 117.389771 25.283951-36.119929-57.791887-88.493827-111.971781-74.045855-189.62963 1.805996-5.417989-1.805996-10.835979-7.223986-10.835979-23.477954 9.029982-41.537919 32.507937-50.567901 54.179895-3.611993 12.641975-5.417989 27.089947-10.835979 39.731922-27.089947-14.447972-55.985891-28.895944-90.299824-25.283951-12.641975 1.805996-28.895944 1.805996-32.507936 14.447972 37.925926 19.865961 68.627866 54.179894 92.10582 90.299824 19.865961-3.611993 39.731922-1.805996 55.98589 1.805996z m-128.225749-216.719577c-27.089947-1.805996-50.567901 14.447972-75.851852 21.671958-1.805996-21.671958 14.447972-45.149912 18.059965-66.821869-41.537919 1.805996-74.045855 27.089947-108.359789 46.955908-9.029982-18.059965-16.253968-37.925926-23.477954-55.985891l45.149912-43.343915 1.805997-5.417989-61.403881-3.611993c-10.835979-18.059965-14.447972-39.731922-27.089947-57.791888-10.835979 19.865961-16.253968 39.731922-27.089947 57.791888l-61.40388 3.611993v3.611992l46.955909 41.537919c-5.417989 21.671958-10.835979 45.149912-25.283951 61.40388-27.089947-16.253968-54.179894-34.313933-83.075838-45.149911-7.223986-1.805996-18.059965-5.417989-23.477954-1.805997 9.029982 19.865961 21.671958 43.343915 19.865961 65.015873-12.641975-1.805996-21.671958-10.835979-34.313933-14.447972-14.447972-3.611993-30.70194-10.835979-43.343915-7.223986 23.477954 30.70194 41.537919 65.015873 46.955908 102.941799 74.045855-36.119929 162.539683-55.985891 252.839506-39.731922 43.343915 7.223986 81.269841 23.477954 119.195768 37.925926 1.805996-37.925926 27.089947-68.627866 43.343915-101.135803z m-164.345679 158.92769h-3.611993c-7.223986 5.417989-30.70194 1.805996-21.671958 19.865961 14.447972-10.835979 34.313933-3.611993 48.761905 1.805997 5.417989-1.805996 3.611993-7.223986 3.611993-12.641976-5.417989-9.029982-16.253968-9.029982-27.089947-9.029982z m23.477954-37.925926c-10.835979-23.477954-34.313933-32.507937-55.985891-37.925926-10.835979-1.805996-21.671958-1.805996-32.507936-1.805996h-5.41799c-30.70194 0-59.597884 9.029982-77.657848 34.313933-1.805996 7.223986-14.447972 18.059965-3.611993 23.477954 23.477954-1.805996 50.567901-3.611993 66.82187 16.253968 0 18.059965 10.835979 41.537919-7.223986 50.567901-16.253968-14.447972-36.119929 7.223986-52.373898-5.417989-9.029982-5.417989-12.641975 0-16.253968 7.223986-5.417989 46.955908 19.865961 97.52381 63.209876 122.80776 18.059965 7.223986 41.537919 12.641975 59.597884 3.611993 45.149912-19.865961 63.209877-68.627866 70.433862-111.971781-3.611993-7.223986-3.611993-23.477954-16.253968-23.477955-12.641975 9.029982-32.507937 3.611993-46.955908 0-9.029982 1.805996-9.029982 14.447972-18.059965 16.253969l-5.417989-5.41799c-5.417989-19.865961-7.223986-50.567901 10.835979-63.209876 21.671958-9.029982 46.955908-12.641975 68.627866-5.41799 5.417989-7.223986 0-12.641975-1.805997-19.865961z m-184.21164 48.761905c0 5.417989 0 12.641975 7.223986 10.835979 10.835979-16.253968 32.507937-3.611993 45.149912-1.805997v-5.417989c-7.223986-10.835979-21.671958-16.253968-36.11993-16.253968-3.611993 0-7.223986 0-10.835979 1.805996-3.611993 0-7.223986 5.417989-5.417989 10.835979zM288.959436 319.661376c-39.731922-25.283951-88.493827-1.805996-124.613757 12.641975-3.611993-34.313933-18.059965-65.015873-46.955908-88.493827l-10.835979-5.41799c-1.805996 0-3.611993 0-5.41799 3.611993 12.641975 81.269841-39.731922 137.255732-75.851851 198.659612 12.641975 10.835979 32.507937 9.029982 46.955908 5.41799 39.731922-16.253968 77.657848-43.343915 124.613757-34.313933 14.447972-23.477954 37.925926-46.955908 55.98589-65.015873 10.835979-9.029982 27.089947-16.253968 36.11993-27.089947z m707.950617 209.49559c0 12.641975 1.805996 23.477954-3.611993 36.11993-52.373898 14.447972-84.881834-39.731922-135.449735-30.70194l5.417989 28.895943c46.955908 1.805996 75.851852 45.149912 122.80776 43.343916-7.223986 12.641975 3.611993 48.761905-27.089947 34.313933-30.70194-7.223986-54.179894-34.313933-88.493827-34.313933-3.611993 7.223986-1.805996 18.059965-1.805997 27.089947 36.119929 5.417989 61.40388 36.119929 97.52381 41.537919-3.611993 12.641975-7.223986 27.089947-16.253968 34.313933-28.895944-7.223986-52.373898-32.507937-83.075838-32.507937l-5.41799 25.283951c28.895944 0 48.761905 27.089947 75.851852 34.313933 0 10.835979-9.029982 19.865961-14.447971 30.70194-23.477954-7.223986-41.537919-27.089947-68.627866-25.283951 0-10.835979 5.417989-21.671958 3.611993-32.507936-30.70194 9.029982-50.567901-19.865961-74.045856-36.11993 0-55.985891-59.597884-92.10582-61.40388-142.673721 0-10.835979 1.805996-21.671958 5.417989-32.507937 19.865961-43.343915 12.641975-101.135802-7.223985-142.673721-7.223986-10.835979-18.059965-19.865961-28.895944-25.283951 16.253968 32.507937 34.313933 70.433862 25.283951 111.971782-1.805996 30.70194-19.865961 61.40388-19.865962 90.299823 0 10.835979 1.805996 21.671958 9.029983 32.507937 25.283951 43.343915 68.627866 84.881834 52.373898 140.867725-5.417989 16.253968-18.059965 30.70194-21.671958 46.955908 28.895944 23.477954 55.985891 50.567901 93.911816 52.373898 12.641975-9.029982 5.417989-46.955908 34.313933-28.895944l41.537919 19.865961c-3.611993 10.835979-12.641975 19.865961-19.865961 28.895944-16.253968-7.223986-30.70194-16.253968-50.567901-16.253968-5.417989 5.417989-10.835979 12.641975-10.835979 21.671957 12.641975 1.805996 25.283951 7.223986 37.925926 16.253969-5.417989 10.835979-16.253968 18.059965-25.283951 27.089947l-30.70194-10.835979c-5.417989 7.223986-16.253968 16.253968-12.641975 23.477954 7.223986 3.611993 14.447972 7.223986 19.865961 12.641975-14.447972 14.447972-30.70194 25.283951-48.761905 34.313933-14.447972-46.955908-63.209877-81.269841-57.791887-135.449735l-1.805996-1.805997c-10.835979 12.641975-7.223986 32.507937-7.223986 48.761905 14.447972 34.313933 45.149912 61.40388 50.567901 99.329806-5.417989 9.029982-18.059965 10.835979-28.895943 16.253968 1.805996-68.627866-102.941799-119.195767-36.11993-189.629629 21.671958-34.313933 59.597884-66.821869 46.955908-111.971781-12.641975-45.149912-61.40388-72.239859-61.40388-122.807761v-3.611993c10.835979-52.373898 43.343915-108.359788 16.253969-164.345679-7.223986-21.671958-25.283951-48.761905-46.955909-57.791887 34.313933 39.731922 46.955908 102.941799 28.895944 155.315697-9.029982 21.671958-23.477954 45.149912-25.283951 70.433862 0 12.641975 1.805996 25.283951 10.835979 37.925926 25.283951 41.537919 70.433862 88.493827 45.149912 142.673722-28.895944 43.343915-81.269841 88.493827-52.373898 146.285714 19.865961 34.313933 52.373898 68.627866 43.343916 111.971781l-36.11993 1.805997c21.671958-79.463845-88.493827-126.419753-41.537919-204.077602 28.895944-41.537919 79.463845-81.269841 50.567901-139.061728-18.059965-34.313933-52.373898-55.985891-52.373897-99.329806l1.805996-7.223986c10.835979-61.40388 59.597884-121.001764 25.283951-186.017637-9.029982-19.865961-25.283951-39.731922-45.149912-50.567901l-1.805996 1.805997c37.925926 37.925926 50.567901 97.52381 28.895943 148.09171-9.029982 28.895944-30.70194 57.791887-34.313933 88.493827-1.805996 14.447972 0 28.895944 7.223986 45.149912 25.283951 37.925926 66.821869 79.463845 39.731922 130.031746-28.895944 41.537919-75.851852 81.269841-55.98589 135.449736 19.865961 46.955908 63.209877 92.10582 39.731922 149.897707l-30.70194 5.417989c27.089947-55.985891-14.447972-111.971781-37.925926-162.539682-28.895944-70.433862 63.209877-104.747795 65.015873-167.957672 0-41.537919-45.149912-65.015873-54.179894-102.941799-19.865961-16.253968-39.731922 7.223986-61.40388 1.805996-16.253968 3.611993-43.343915-23.477954-52.373898 5.41799-12.641975 41.537919-66.821869 74.045855-43.343915 122.80776 23.477954 45.149912 77.657848 77.657848 59.597884 135.449735-16.253968 54.179894-70.433862 104.747795-37.925926 167.957672-14.447972-3.611993-39.731922 3.611993-39.731923-18.059964-21.671958-75.851852 70.433862-119.195767 41.537919-195.047619-12.641975-46.955908-72.239859-72.239859-59.597884-126.419753 9.029982-45.149912 61.40388-77.657848 54.179895-128.22575 0-3.611993-1.805996-9.029982-3.611993-12.641975-19.865961-54.179894-57.791887-108.359788-34.313933-171.569665 7.223986-18.059965 19.865961-32.507937 30.70194-48.761905-37.925926 19.865961-55.985891 61.40388-55.985891 104.747795-1.805996 46.955908 32.507937 86.687831 37.925926 128.22575 1.805996 18.059965 0 34.313933-12.641975 54.179894-25.283951 32.507937-55.985891 68.627866-41.537919 111.971782 14.447972 43.343915 68.627866 70.433862 65.015873 121.001763 0 59.597884-70.433862 97.52381-50.567901 166.151676l-34.313933-10.835979c-14.447972-59.597884 50.567901-90.299824 50.567901-146.285714 9.029982-63.209877-72.239859-86.687831-66.82187-149.897708 0-46.955908 41.537919-77.657848 59.597884-117.38977 3.611993-9.029982 3.611993-18.059965 3.611993-27.089948-1.805996-43.343915-41.537919-77.657848-36.11993-128.225749 1.805996-36.119929 14.447972-68.627866 37.925926-95.717813-32.507937 12.641975-46.955908 50.567901-55.98589 81.269841-16.253968 50.567901 21.671958 95.717813 25.28395 140.867725 1.805996 19.865961-3.611993 39.731922-21.671957 59.597884-27.089947 32.507937-54.179894 72.239859-34.313933 115.583774 19.865961 46.955908 86.687831 83.075838 57.791887 142.673721-16.253968 37.925926-52.373898 65.015873-50.567901 108.359789-9.029982-3.611993-19.865961-9.029982-28.895944-16.253969 0-55.985891 79.463845-90.299824 41.537919-149.897707-3.611993 10.835979-3.611993 27.089947-7.223986 39.731922-12.641975 34.313933-41.537919 61.40388-52.373898 97.52381-18.059965-7.223986-36.119929-21.671958-50.567901-36.119929l19.865961-12.641976c-1.805996-7.223986-9.029982-14.447972-12.641975-19.865961-12.641975-1.805996-21.671958 7.223986-32.507937 10.835979-9.029982-9.029982-18.059965-16.253968-25.28395-25.283951 7.223986-19.865961 59.597884-3.611993 32.507936-34.313933-18.059965-10.835979-36.119929 5.417989-52.373897 12.641976l-21.671958-27.089948c18.059965-10.835979 36.119929-27.089947 59.597884-21.671957 5.417989 10.835979 5.417989 25.283951 16.253968 30.70194 37.925926 0 66.821869-30.70194 95.717813-52.373898-19.865961-30.70194-37.925926-72.239859-19.865961-110.165785 14.447972-37.925926 52.373898-68.627866 54.179894-110.165785 0-9.029982-1.805996-19.865961-5.41799-30.70194-19.865961-52.373898-27.089947-122.80776 10.835979-167.957672-21.671958 5.417989-34.313933 32.507937-41.537919 52.373898-23.477954 50.567901 5.417989 97.52381 7.223986 146.285714 0 9.029982 0 18.059965-1.805996 27.089948-19.865961 39.731922-52.373898 75.851852-57.791887 121.001763-23.477954 14.447972-41.537919 39.731922-74.045856 30.70194-1.805996 9.029982 1.805996 21.671958 3.611993 30.70194-25.283951-1.805996-43.343915 18.059965-65.015873 27.089947-10.835979-3.611993-14.447972-18.059965-19.865961-28.895943 25.283951-9.029982 43.343915-34.313933 74.045855-34.313933 3.611993-9.029982-1.805996-18.059965-3.611992-27.089947-36.119929-16.253968-93.911817 79.463845-99.329806-3.611993 36.119929-1.805996 59.597884-36.119929 95.717813-39.731923l1.805996-27.089947c-41.537919-3.611993-66.821869 37.925926-108.359788 34.313933l-9.029983-36.119929c46.955908 3.611993 75.851852-39.731922 121.001764-41.537919 5.417989-7.223986 7.223986-19.865961 7.223986-30.70194-45.149912-5.417989-79.463845 48.761905-131.837743 32.507936 0 0-1.805996-23.477954-3.611993-36.119929v-9.029982c46.955908 18.059965 88.493827-16.253968 128.22575-32.507937 10.835979-3.611993 25.283951 1.805996 30.70194-9.029982 0-9.029982 16.253968-18.059965 1.805996-25.283951-57.791887-7.223986-97.52381 61.40388-157.121693 30.70194l-3.611993-9.029982C16.253968 305.213404 111.971781 140.867725 272.705467 61.40388c65.015873-36.119929 144.479718-55.985891 225.749559-55.985891 97.52381 0 195.047619 25.283951 269.093475 75.851852 70.433862 43.343915 139.061728 115.583774 175.181658 187.823633 36.119929 63.209877 52.373898 135.449735 55.98589 211.301588-61.40388 46.955908-102.941799-43.343915-166.151675-23.477954 3.611993 9.029982 5.417989 19.865961 12.641975 28.895943 55.985891 0 93.911817 57.791887 151.703704 34.313933v9.029982zM498.455026 178.793651c18.059965 10.835979 36.119929 23.477954 50.567902 37.925926l-5.41799 5.417989c-28.895944-3.611993-57.791887 0-84.881834 1.805997-3.611993-3.611993-9.029982-7.223986-3.611993-10.835979l43.343915-34.313933z" fill="#106E33" p-id="2001"></path><path d="M460.529101 460.529101h83.075837v-34.313933h-83.075837z" fill="#FFFFFF" p-id="2002"></path><path d="M474.977072 444.275132c10.835979 1.805996 12.641975 5.417989 21.671958 7.223986 9.029982 0 7.223986-1.805996 23.477954-7.223986 1.805996 0 1.805996-1.805996 0-3.611993-9.029982-9.029982-16.253968-3.611993-21.671958-1.805996-7.223986 0-16.253968-7.223986-23.477954 1.805996-1.805996 0-1.805996 1.805996 0 3.611993" fill="#106E33" p-id="2003"></path></svg>