<?xml version="1.0" standalone="no"?><!DOCTYPE svg PUBLIC "-//W3C//DTD SVG 1.1//EN" "http://www.w3.org/Graphics/SVG/1.1/DTD/svg11.dtd"><svg t="1529328514946" class="icon" style="" viewBox="0 0 1538 1024" version="1.1" xmlns="http://www.w3.org/2000/svg" p-id="2567" xmlns:xlink="http://www.w3.org/1999/xlink" width="300.390625" height="200"><defs><style type="text/css"></style></defs><path d="M1529.758 831.466h-67.05c-2.084-11.116-5.312-18.946-9.724-23.354-7.172-7.172-19.412-10.87-36.304-10.87-16.648 0-28.2 2.764-34.664 8.322-4.87 4.166-7.42 9.94-7.42 17.114 0 10.158 14.128 18.26 42.084 24.504 31.924 6.928 54.816 12.948 68.914 17.796 3.7 1.398 6.928 2.548 9.254 3.698 28.45 13.416 42.548 33.786 42.548 61.06 0 33.29-13.88 57.576-41.398 72.828a140.344 140.344 0 0 1-10.404 5.094c-17.796 7.638-38.606 11.554-61.96 11.554-34.91 0-63.138-6.244-84.63-18.51-13.524-7.858-23.63-17.74-30.364-29.652-6.736-11.912-10.104-25.82-10.104-41.784h70.286c0 12.022 4.406 21.52 12.948 27.986 8.57 6.708 23.136 10.184 43.7 10.184 15.496 0 27.05-3.258 34.688-9.72 6.024-5.092 8.79-10.652 8.79-17.112 0-10.87-13.854-19.412-41.4-25.436-41.148-8.788-67.05-15.96-77.676-21.054-28.2-13.17-42.08-33.51-42.08-61.74 0-22.644 7.172-41.838 21.96-57.554 18.508-19.66 46.244-29.38 83.014-29.38 30.282 0 54.568 4.41 72.83 12.952 1.616 0.684 3.016 1.396 4.408 2.328 13.17 7.146 23.106 16.646 29.762 28.448 6.652 11.77 9.992 25.894 9.992 42.298zM1493.918 667.762c0-1.396-0.22-2.546-0.932-3.476-0.684-1.15-1.614-1.864-2.984-2.3-0.93-0.25-2.33-0.468-4.408-0.714H1474.97v12.95h10.624c3.014-0.22 5.092-0.684 6.242-1.834 1.396-1.178 2.08-2.79 2.08-4.626z m5.558-6.954a10.144 10.144 0 0 1 2.08 6.244c0 3.23-1.15 6.022-3.476 8.322-2.304 2.328-5.312 3.724-9.008 3.94 1.614 0.684 2.764 1.4 3.696 2.304l6.46 8.568 5.09 8.544h-8.322l-3.94-6.928c-2.52-4.38-4.602-7.64-6.462-9.254a3.026 3.026 0 0 0-0.93-0.684l-5.532-1.616h-4.164v18.48h-6.954V655.28h15.03c0.932 0 1.862 0.22 2.548 0.22 3.7 0 6.46 0.464 8.322 1.148 2.304 0.712 4.166 2.08 5.56 4.162z" fill="#000000" p-id="2568"></path><path d="M1519.134 676.552c0-6.024-1.396-11.554-4.406-16.894a32.586 32.586 0 0 0-12.488-12.484c-5.308-2.768-10.868-4.384-16.426-4.384h-0.22c-5.558 0-11.088 1.616-16.4 4.384a32.438 32.438 0 0 0-12.51 12.484c-2.984 5.34-4.602 10.87-4.602 16.894 0 5.776 1.618 11.308 4.6 16.646 2.794 5.068 6.956 9.256 12.266 12.24 5.31 3.014 10.872 4.408 16.646 4.408h0.22c5.804 0 11.334-1.396 16.674-4.408 5.31-2.984 9.472-7.172 12.24-12.24 3.01-5.34 4.406-10.87 4.406-16.646z m6.708 0c0 6.708-1.642 13.416-5.34 19.878-3.448 6.46-8.322 11.338-14.78 14.784-6.49 3.724-12.952 5.34-19.908 5.34h-0.22c-6.928 0-13.414-1.616-19.878-5.34-6.488-3.45-11.334-8.322-14.812-14.784-3.696-6.46-5.308-13.17-5.308-19.88 0-7.172 1.614-13.876 5.308-20.366 3.696-6.46 8.57-11.308 15.032-14.784 6.488-3.48 12.948-5.094 19.658-5.31h0.22c6.708 0 13.196 1.834 19.658 5.31 6.488 3.48 11.58 8.322 15.032 14.784 3.696 6.486 5.34 13.192 5.34 20.368zM1132.506 349.83l189.85 316.318H1017.374l-181.28-302.218-137.338-228.674 137.338-82.55L922.558 0.686l209.948 349.144zM1270.334 885.788v129.724H1207.2v-14.344a135.05 135.05 0 0 1-73.984 21.984h-0.712c-75.376-0.466-136.652-61.988-136.652-137.364 0-75.374 61.276-136.868 136.652-137.338h0.712a135.236 135.236 0 0 1 73.984 21.962v-15.032h63.136v130.408z m-63.136 14.346v-28.666c-6.708-34.69-37.456-61.056-73.984-61.056h-0.712c-41.37 0.246-74.91 34.004-74.91 75.372 0 41.4 33.54 75.158 74.91 75.624h0.712c36.528 0.002 67.276-26.584 73.984-61.274zM973.896 885.788v129.724h-63.11v-14.344c-21.52 13.88-46.714 21.984-74.008 21.984h-0.684c-75.376-0.466-136.652-61.988-136.652-137.364 0-75.374 61.276-136.868 136.652-137.338h0.684c27.298 0 52.486 8.108 74.008 21.962v-104.264h63.11v219.64z m-63.11 14.346v-28.666c-6.708-34.69-37.484-61.056-74.008-61.056h-0.684c-41.4 0.246-74.912 34.004-74.912 75.372 0 41.4 33.514 75.158 74.912 75.624h0.684c36.524 0.002 67.3-26.584 74.008-61.274zM836.094 541.732l74.444 124.416H605.774L436.544 384.52l-7.392-12.266 7.392-4.38 216.656-130.438 182.896 304.296zM606.022 748.448h68.668v267.062h-68.668zM606.022 667.516h68.668v60.344h-68.668zM574.562 885.788v129.724h-63.11v-14.344c-21.492 13.88-46.928 21.984-74.226 21.984h-0.684c-75.376-0.466-136.652-61.988-136.652-137.364 0-75.374 61.276-136.868 136.652-137.338h0.684c27.298 0 52.734 8.108 74.226 21.962v-104.264h63.11v219.64z m-63.11 14.346v-28.666c-6.708-34.69-37.454-61.056-74.226-61.056h-0.684c-41.4 0.246-74.912 34.004-74.912 75.372 0 41.4 33.514 75.158 74.912 75.624h0.684c36.772 0.002 67.52-26.584 74.226-61.274zM436.54 562.078l62.428 104.07H193.986L159.76 609.03l224.048-134.568 52.734 87.616zM275.14 885.788v129.724h-63.112v-14.344c-21.52 13.88-46.956 21.984-74.226 21.984h-0.712C61.96 1022.686 0.684 961.164 0.684 885.788c0-75.374 61.276-136.868 136.406-137.338h0.712c27.27 0 52.706 8.108 74.226 21.962v-15.032h63.11v130.408z m-63.112 14.346v-28.666c-6.708-34.69-37.456-61.056-74.226-61.056h-0.712c-41.152 0.246-74.664 34.004-74.664 75.372 0 41.4 33.512 75.158 74.664 75.624h0.712c36.77 0.002 67.52-26.584 74.226-61.274z" fill="#000000" p-id="2569"></path></svg>