<?xml version="1.0" standalone="no"?><!DOCTYPE svg PUBLIC "-//W3C//DTD SVG 1.1//EN" "http://www.w3.org/Graphics/SVG/1.1/DTD/svg11.dtd"><svg t="1530445329052" class="icon" style="" viewBox="0 0 1541 1024" version="1.1" xmlns="http://www.w3.org/2000/svg" p-id="2598" xmlns:xlink="http://www.w3.org/1999/xlink" width="300.9765625" height="200"><defs><style type="text/css"></style></defs><path d="M6.289964 1017.717791h1519.038037V7.53865H6.289964v1010.179141z m1521.550921 2.512884v-3.769325 3.769325z m-1527.833129 3.769325V0h1531.602454V1022.743558H0.007756z" fill="#353636" p-id="2599"></path><path d="M2.520639 680.991411h1525.320246v339.239264H2.520639z" fill="#231815" p-id="2600"></path><path d="M2.520639 343.008589h1525.320246v339.239264H2.520639z" fill="#FFFFFF" p-id="2601"></path><path d="M2.520639 3.769325h1525.320246v339.239264H2.520639z" fill="#CC303C" p-id="2602"></path><path d="M765.180762 626.964417h-3.769325c-12.564417 0-51.51411 0-64.078528-5.025767l-6.282208-1.256441c-6.282209 0-12.564417 3.769325-12.564418 11.307975h1.256442v-1.256442h-1.256442l-3.769325 3.769325-7.53865 3.769326v2.512883l6.282209 5.025767 5.025766 6.282209v-1.256442h-1.256441v3.769325l7.53865 7.53865c18.846626 3.769325 81.668712 6.282209 81.668712 6.282209v-2.512884s-62.822086-1.256442-80.41227-6.282208l-5.025767-5.025767v-5.025767H679.742725l-2.512883-5.025767-10.051534-6.282208v2.512883l8.795092-3.769325 2.512883-2.512884h2.512884V633.246626l10.051534-8.795092 5.025766 1.256441c13.820859 3.769325 52.770552 5.025767 65.33497 5.025767h3.769325v-3.769325z" fill="#FAD400" p-id="2603"></path><path d="M765.180762 629.477301h3.769325c12.564417 0 51.51411 0 65.334969-5.025767l5.025767-1.256442 10.051534 8.795092v1.256442h2.512883l2.512884 2.512883 8.795092 3.769325v-2.512883l-7.53865 7.53865-2.512884 5.025767h-1.256442v5.025767l-5.025766 5.025767c-17.590184 3.769325-80.41227 6.282209-80.41227 6.282208v2.512884s62.822086-1.256442 81.668711-6.282209l7.538651-7.53865v-3.769325h-1.256442v1.256442l5.025767-6.282209 6.282208-5.025767v-2.512883l-10.051533-2.512884-3.769326-3.769325h-1.256441v1.256442h1.256441c0-7.53865-6.282209-11.307975-12.564417-11.307976l-6.282208 1.256442c-12.564417 3.769325-52.770552 5.025767-64.078528 5.025767h-3.769325v1.256442z" fill="#FAD400" p-id="2604"></path><path d="M770.206529 650.83681h1.256442-1.256442z m-8.795092 1.256442h-2.512884l5.025767-1.256442-2.512883 1.256442z m7.53865 0h-3.769325v-3.769326l-7.53865 1.256442-3.769326 1.256442-1.256441-2.512884-2.512884 2.512884-1.256441-1.256442-1.256442-2.512883v1.256441l1.256442 2.512884-1.256442 2.512883-6.282209 1.256442 2.512884 2.512883 2.512883 1.256442 3.769325-3.769325 3.769325-1.256442 5.025767 1.256442h6.282209l3.769325-1.256442h5.025767l-1.256442-5.025767-3.769325 3.769326z m22.615951 3.769325l-2.512883 2.512883H792.82248l1.256441-1.256442h-2.512883v-1.256441z m41.462577-5.025767l2.512883 1.256442 1.256442-2.512884-2.512884-1.256442-1.256441 2.512884z m-7.538651-5.025767h1.256442-1.256442z m-8.795092 7.53865l-2.512883-1.256441 2.512883 1.256441z m-1.256441-7.53865l-1.256442 2.512883 1.256442-2.512883z m-5.025767 2.512883z m27.641718-6.282208l1.256441 2.512883-3.769325 1.256442-7.53865 1.256442h-3.769325l-2.512884 1.256441-3.769325 2.512884v5.025767l-3.769325-3.769325-2.512883 1.256441-1.256442 1.256442-2.512884 2.512883-5.025767-1.256441h5.025767l3.769326-2.512884-3.769326-7.53865 2.512884 2.512883 2.512883-2.512883 1.256442-3.769325 2.512883 1.256442-1.256441 3.769325 7.53865-2.512884 2.512883-3.769325 2.512884 3.769325 6.282208-1.256441H830.515731l3.769325-2.512884 3.769326 1.256442z m-37.693252 7.53865l1.256442 1.256442-1.256442 2.512883-3.769325 2.512884h-2.512884l5.025767 1.256441 3.769325-5.025766-2.512883-6.282209v3.769325z m-16.333742 0h-1.256442l2.512883-1.256442-1.256441 1.256442z m8.795092-2.512883l-1.256442 2.512883 1.256442 2.512884h-6.282209l-1.256442-7.538651-1.256441 3.769325-3.769325 1.256442v2.512884l3.769325-1.256442 1.256441 3.769325h5.025767l3.769325-1.256442v-3.769325l-1.256441-2.512883z m-60.309203 0v6.282208l1.256442-3.769325-1.256442-8.795092v6.282209z m-30.154601 2.512883l-1.256442-1.256442v2.512884l1.256442 1.256442v-2.512884l1.256442 1.256442 1.256441-1.256442-1.256441-1.256442-1.256442 1.256442z m3.769325 2.512884l2.512884 1.256441 1.256441-2.512883-2.512883-1.256442-1.256442 2.512884z m-11.307975-18.846626l1.256441 1.256441 1.256442-1.256441-1.256442-1.256442-1.256441 1.256442-2.512884-1.256442v1.256442l1.256442 1.256441 1.256442-1.256441z m27.641718 13.820859V645.811043v1.256442z m7.53865-3.769325l1.256442-2.512884-2.512884-2.512883-1.256442 1.256441 2.512884 3.769326v6.282208l-5.025767-1.256442v-3.769325h-5.025767l1.256442 2.512884h-2.512884l-1.256441-2.512884v1.256442l1.256441 2.512883v2.512884h-6.282208l3.769325 3.769325 3.769325-3.769325 3.769325-1.256442 8.795092 2.512884V645.811043l-2.512883-2.512883z m52.770552-1.256442l-1.256442 1.256442-1.256441-1.256442h2.512883l2.512883-1.256442-2.512883 1.256442z m-87.95092-1.256442l-1.256442-1.256442 1.256442-1.256441v2.512883z m13.820859 1.256442l1.256441 2.512883v5.025767l-10.051533-2.512883-5.025767-5.025767h-3.769325v-2.512884l2.512883-2.512883 1.256442-2.512884 1.256441 7.538651 6.282209 2.512883-1.256442-2.512883 1.256442-2.512884 1.256442 3.769326 1.256441 1.256441h2.512884l-1.256442-2.512883h2.512884zM877.004075 620.682209c1.256442 0-5.025767-136.952147-6.282209-183.440491 0-15.077301-7.53865-20.103067-16.333742-20.103068-8.795092 0-18.846626 5.025767-26.385276 10.051534-7.53865 3.769325-15.077301 5.025767-22.615951 5.025767-12.564417 0-25.128834-3.769325-40.206135-3.769325-13.820859 0-27.641718 3.769325-40.206135 3.769325-7.53865 0-15.077301-1.256442-21.359509-5.025767-8.795092-5.025767-18.846626-10.051534-26.385276-10.051534-8.795092 0-16.333742 6.282209-16.333743 20.103068-2.512883 46.488344-8.795092 183.440491-8.795092 183.440491v1.256441l224.903068-1.256441-224.903068-1.256442v1.256442h1.256442s6.282209-136.952147 7.53865-183.440491c1.256442-13.820859 6.282209-18.846626 15.077301-18.846626 7.53865 0 17.590184 3.769325 26.385276 10.051534 7.53865 3.769325 15.077301 6.282209 22.615951 6.282208 12.564417 0 26.385276-3.769325 40.206135-3.769325s27.641718 3.769325 40.206135 3.769325c7.53865 0 15.077301-1.256442 22.615951-6.282208 8.795092-5.025767 18.846626-10.051534 26.385276-10.051534 7.53865 0 13.820859 3.769325 13.820859 18.846626 2.512883 46.488344 7.53865 183.440491 8.795092 183.440491z" fill="#FAD400" p-id="2605"></path><path d="M782.770946 435.985276l16.333742 3.769325s-16.333742-23.872393-12.564417-42.719018c6.282209-26.385276 0-36.43681-11.307975-38.949693-8.795092-2.512883-12.564417-1.256442-16.333743 0l-8.795092 6.282208-10.051533-3.769325c-3.769325-1.256442-10.051534 0-10.051534 8.795092l1.256442-1.256442 10.051533 3.769325c2.512883 2.512883 6.282209 12.564417 7.538651 21.35951 2.512883 18.846626-18.846626 45.231902-18.846626 45.231902l16.333742-3.769326-6.282208 7.538651c7.53865-1.256442 17.590184-10.051534 17.590184-10.051534l6.282208 8.795092 6.282209-8.795092s10.051534 8.795092 17.590184 10.051534l-5.025767-6.282209z" fill="#FFFFFF" p-id="2606"></path><path d="M782.770946 435.985276l16.333742 5.025767h2.512884l-1.256442-2.512883s-12.564417-17.590184-12.564417-35.180369v-6.282208c1.256442-6.282209 2.512883-12.564417 2.512883-17.590184 0-13.820859-6.282209-20.103067-15.0773-22.615951l-7.538651-1.256442-8.795092 1.256442-8.795092 6.282208-10.051533-3.769325h-2.512884c-3.769325 0-8.795092 2.512883-8.795092 10.051534v2.512883l2.512884-2.512883 10.051533 3.769325c2.512883 1.256442 6.282209 11.307975 6.282209 20.103068v3.769325c0 17.590184-18.846626 41.462577-18.846626 41.462577l-2.512883 2.512883 16.333742-3.769325-3.769325 5.025767v2.512883h2.512883c8.795092-1.256442 18.846626-10.051534 18.846626-10.051534l-1.256442-1.256441h-1.256441l6.282208 8.795092 1.256442 1.256441 7.53865-10.051533h-1.256441l-1.256442 1.256441s10.051534 8.795092 18.846626 10.051534h2.512883l-8.795092-8.795092 5.025767 8.795092 1.256442-1.256442v-1.256441c-7.53865-1.256442-17.590184-10.051534-17.590184-10.051534l-6.282209 8.795092-5.025767-7.53865-1.256442-1.256442h-1.256441s-10.051534 8.795092-17.590184 10.051534v1.256441l1.256441 1.256442 6.282209-7.53865 2.512883-2.512884-20.103067 3.769326v1.256441l1.256442 1.256442s18.846626-22.615951 20.103067-42.719018V394.522699c-1.256442-8.795092-5.025767-18.846626-7.53865-22.615951l-10.051534-5.025766-3.769325 2.512883 1.256442 1.256442h1.256441c0-7.53865 3.769325-7.53865 7.538651-8.795092h2.512883l10.051534 3.769325 8.795092-6.282209 7.53865-1.256441 7.53865 1.256441c7.53865 2.512883 12.564417 7.53865 12.564418 20.103068l-2.512884 17.590184-1.256442 7.53865c0 17.590184 13.820859 36.43681 13.820859 36.43681h1.256442v-1.256442l-17.590184-3.769325-2.512883-1.256442 2.512883 1.256442z" fill="#FAD400" p-id="2607"></path><path d="M786.540271 366.880982l-8.795092-7.538651h-18.846626l-7.53865 6.282209 8.795092 2.512883 8.795092-1.256441 7.53865-3.769326z" fill="#FAD400" p-id="2608"></path><path d="M786.540271 366.880982l1.256442-1.256442-8.795092-7.53865h-20.103068l-8.795092 6.282208-1.256441 1.256442 11.307975 3.769325 8.795092-1.256442 7.53865-3.769325 10.051534 2.512884 1.256442-1.256442-1.256442 1.256442v-1.256442l-10.051534-3.769325-7.53865 5.025767-8.795092 1.256441-6.282209-3.769325 5.025767-3.769325h18.846626l8.795092 6.282209v-1.256442z" fill="#FAD400" p-id="2609"></path><path d="M763.92432 364.368098l-1.256441 1.256442-2.512884-1.256442 2.512884-1.256442z" fill="#FFFFFF" p-id="2610"></path><path d="M731.256836 368.137423s7.53865-2.512883 15.0773 2.512884c7.53865 3.769325 11.307975 10.051534 11.307976 10.051533l-6.282209-1.256441-2.512883 10.051534-5.025767-12.564418-12.564417-8.795092z" fill="#FCD000" p-id="2611"></path><path d="M746.334136 437.241718s11.307975-13.820859 8.795092-27.641718l-8.795092 27.641718z" fill="#FFFFFF" p-id="2612"></path><path d="M746.334136 438.49816s8.795092-11.307975 8.795092-23.872393v-5.025767h-2.512883v3.769325c0 12.564417-8.795092 22.615951-8.795092 22.615951l2.512883 2.512884z" fill="#FAD400" p-id="2613"></path><path d="M784.027388 437.241718s-11.307975-13.820859-8.795092-27.641718l8.795092 27.641718z" fill="#FFFFFF" p-id="2614"></path><path d="M785.283829 437.241718s-8.795092-10.051534-8.795092-22.615951v-3.769325h-2.512883v5.025767c0 12.564417 8.795092 23.872393 8.795092 23.872392l2.512883-2.512883zM758.898553 434.728834c1.256442-1.256442 5.025767-10.051534 5.025767-20.103067v-5.025767h-2.512883v5.025767c0 8.795092-3.769325 17.590184-3.769325 18.846626l1.256441 1.256441zM772.719412 433.472393s-3.769325-10.051534-3.769325-18.846626v-5.025767h-2.512883v5.025767c0 10.051534 3.769325 18.846626 5.025767 20.103067l1.256441-1.256441zM728.743952 544.039264l-11.307975 12.564417 5.025767-91.720245 11.307975-1.256442zM664.665425 606.86135l-11.307976 12.564417 7.53865-184.696933 11.307976-5.025767zM682.255609 590.527607l-11.307976 12.564418 7.53865-169.619632 11.307976 11.307975zM699.845793 574.193865l-11.307976 12.564417 6.282209-139.46503 10.051533 8.795092zM714.923093 559.116564l-12.564417 12.564418 6.282209-113.079755 10.051533 5.025767zM801.617572 544.039264l11.307975 12.564417-5.025767-91.720245-11.307975-1.256442zM865.696099 606.86135l11.307976 12.564417-7.53865-184.696933-11.307976-5.025767zM848.105915 590.527607l11.307976 12.564418-7.538651-169.619632-11.307975 11.307975zM830.515731 574.193865l11.307976 12.564417-6.282209-139.46503-10.051534 8.795092zM815.438431 559.116564l11.307975 12.564418-5.025767-113.079755-10.051533 5.025767zM767.693645 544.039264l3.769326 67.847853-6.282209 8.795092-6.282209-8.795092 3.769326-67.847853z" fill="#FAD400" p-id="2615"></path><path d="M770.206529 544.039264l20.103067 64.078527-5.025767 10.051534-8.795092-6.282208-11.307975-65.33497zM760.154995 544.039264L740.051928 608.117791l5.025766 10.051534 8.795092-6.282208 11.307976-65.33497z" fill="#FAD400" p-id="2616"></path><path d="M733.769719 629.477301L692.307142 614.4l35.180368-99.258896 35.180369 22.615951z" fill="#FFFFFF" p-id="2617"></path><path d="M733.769719 629.477301v-1.256442l-40.206135-13.820859 33.923926-96.746012 33.923927 20.103067-28.89816 91.720246h1.256442v-1.256442 1.256442h1.256442l28.898159-91.720246-36.43681-22.615951-1.256441-1.256441-35.180368 101.771779 42.719018 15.0773 1.256442-1.256441z" fill="#FAD400" p-id="2618"></path><path d="M717.435977 544.039264l3.769325 10.051534 11.307975-10.051534z" fill="#FFFFFF" p-id="2619"></path><path d="M716.179535 544.039264l3.769325 11.307975 1.256442 1.256442 11.307975-12.564417-1.256441-1.256442-10.051534 10.051534-2.512884-10.051534z" fill="#FAD400" p-id="2620"></path><path d="M730.000394 526.44908l5.025767 36.43681 12.564417-15.077301z" fill="#FFFFFF" p-id="2621"></path><path d="M728.743952 526.44908l5.025767 37.693251 1.256442 2.512884 12.564417-18.846626-1.256442-1.256442-10.051534 13.820859-5.025766-35.180368-2.512884 1.256442z" fill="#FAD400" p-id="2622"></path><path d="M745.077694 552.834356l7.538651 15.0773-7.538651-15.0773z" fill="#FFFFFF" p-id="2623"></path><path d="M743.821253 552.834356l7.53865 15.0773 2.512883-1.256441-8.795092-15.077301z" fill="#FAD400" p-id="2624"></path><path d="M707.384443 570.42454l11.307975-6.282209 3.769326 15.077301 8.795092-12.564417 5.025766 22.615951 12.564418-10.051534z" fill="#FFFFFF" p-id="2625"></path><path d="M708.640885 571.680982l10.051533-6.282209 3.769326 13.820859v2.512883l8.795092-12.564417 3.769325 20.103068v1.256441l13.820859-10.051533-1.256442-1.256442-11.307976 7.53865-3.769325-20.103067-1.256441-2.512884-7.538651 12.564417-3.769325-12.564417v-1.256441l-12.564417 6.282208 1.256442 2.512884z" fill="#FAD400" p-id="2626"></path><path d="M703.615118 584.245399l5.025767 16.333742 12.564417-11.307975 3.769325 16.333742 12.564417-12.564417 2.512884 15.0773z" fill="#FFFFFF" p-id="2627"></path><path d="M702.358676 585.50184l6.282209 15.077301v1.256442l11.307975-10.051534 3.769325 13.820859v2.512883l12.564417-12.564417 2.512884 12.564417h2.512883l-3.769325-15.0773v-2.512884l-12.564417 13.820859-2.512883-15.0773-1.256442-2.512884-11.307976 11.307976-6.282208-13.820859z" fill="#FAD400" p-id="2628"></path><path d="M694.820026 615.656442l12.564417-11.307976 3.769325 15.077301 11.307976-8.795092 2.512883 13.820859 13.820859-12.564417z" fill="#FFFFFF" p-id="2629"></path><path d="M694.820026 616.912883l12.564417-10.051533 2.512883 12.564417v1.256442l12.564418-7.538651 1.256441 11.307976v2.512883l16.333743-15.0773-1.256442-1.256442-12.564417 12.564417-2.512884-12.564417v-1.256442l-11.307975 8.795092-3.769325-13.820859v-1.256441l-15.077301 11.307975 1.256442 2.512883z" fill="#FAD400" p-id="2630"></path><path d="M796.591805 629.477301l41.462577-13.820859-35.180369-100.515338-35.180368 22.615951z" fill="#FFFFFF" p-id="2631"></path><path d="M796.591805 629.477301v1.256441l42.719018-15.0773-35.180368-101.771779-36.43681 23.872392h-1.256441l30.154601 92.976687v-1.256441h1.256442l-28.89816-90.463804 33.923926-21.359509 33.923927 96.746012-40.206135 13.820859v1.256442h1.256442z" fill="#FAD400" p-id="2632"></path><path d="M812.925547 544.039264l-3.769325 11.307975-11.307975-11.307975z" fill="#FFFFFF" p-id="2633"></path><path d="M811.669106 544.039264l-2.512884 8.795092-10.051534-10.051534-1.256441 2.512884 11.307975 10.051533 1.256442 1.256442 3.769325-12.564417z" fill="#FAD400" p-id="2634"></path><path d="M800.36113 526.44908l-5.025767 37.693251-12.564417-16.333742z" fill="#FFFFFF" p-id="2635"></path><path d="M799.104688 526.44908l-5.025767 35.180368-10.051533-13.820859-1.256442 1.256442 11.307975 15.0773 1.256442 2.512884 5.025767-40.206135h-1.256442z" fill="#FAD400" p-id="2636"></path><path d="M785.283829 552.834356l-7.53865 15.0773 7.53865-15.0773z" fill="#FFFFFF" p-id="2637"></path><path d="M785.283829 551.577914l-8.795092 15.077301 2.512884 1.256441 7.53865-15.0773z" fill="#FAD400" p-id="2638"></path><path d="M822.977081 570.42454l-12.564417-6.282209-2.512884 15.077301-8.795092-12.564417-5.025767 22.615951-12.564417-8.795092z" fill="#FFFFFF" p-id="2639"></path><path d="M822.977081 570.42454l-11.307975-6.282209-1.256442-1.256441-3.769325 13.820858-6.282209-10.051533-1.256442-2.512884-6.282208 22.615951-10.051534-7.53865-1.256442 1.256442 12.564417 10.051533 5.025767-21.359509 7.538651 10.051534 1.256441 2.512883 3.769326-16.333742 10.051533 6.282209z" fill="#FAD400" p-id="2640"></path><path d="M826.746406 585.50184l-6.282208 15.077301-11.307976-11.307975-3.769325 16.333742-12.564417-12.564417-2.512884 15.0773z" fill="#FFFFFF" p-id="2641"></path><path d="M825.489964 584.245399l-5.025766 13.820859-10.051534-8.795092-1.256442-1.256442-3.769325 16.333742-11.307976-11.307975-1.256441-1.256442-3.769325 16.333742h2.512883l2.512883-12.564417 11.307976 11.307976 1.256442 1.256441 3.769325-16.333742 10.051534 8.795092 1.256441 1.256442 6.282209-16.333743z" fill="#FAD400" p-id="2642"></path><path d="M835.541498 615.656442l-12.564417-11.307976-3.769325 15.077301-11.307976-8.795092-2.512883 13.820859-13.820859-12.564417z" fill="#FFFFFF" p-id="2643"></path><path d="M836.79794 615.656442l-13.820859-11.307976-1.256442-1.256441-3.769325 15.0773-10.051534-7.53865-1.256441-1.256442-2.512884 13.820859-12.564417-12.564417-1.256442 2.512883 13.820859 12.564417 2.512884 1.256442 1.256441-13.820859 10.051534 7.538651 1.256442 1.256441 3.769325-15.0773 12.564417 10.051533z" fill="#FAD400" p-id="2644"></path><path d="M809.156222 620.682209c-10.051534 1.256442-22.615951 2.512883-31.411043 1.256441-5.025767 0-8.795092 8.795092 1.256442 10.051534 8.795092 1.256442 23.872393 0 31.411043-1.256442 6.282209-1.256442 20.103067-3.769325 30.154601-6.282208 8.795092-3.769325 2.512883-11.307975-2.512883-10.051534-8.795092 2.512883-18.846626 5.025767-28.89816 6.282209z" fill="#FFFFFF" p-id="2645"></path><path d="M809.156222 620.682209h-30.154601l-6.282209 6.282208 7.538651 6.282209h8.795092c7.53865 0 16.333742-1.256442 22.615951-1.256442 6.282209-1.256442 20.103067-3.769325 30.154601-6.282209l5.025767-6.282208-7.538651-6.282209h-1.256441c-8.795092 2.512883-18.846626 5.025767-28.89816 7.538651 10.051534 0 21.359509-2.512883 28.89816-5.025767h1.256441l5.025767 3.769325-3.769325 3.769325c-8.795092 2.512883-22.615951 5.025767-28.898159 6.282209-5.025767 1.256442-13.820859 1.256442-21.35951 1.256441h-8.795092l-5.025767-3.769325 3.769326-3.769325h7.53865c5.025767 0 13.820859-1.256442 21.359509-2.512883z" fill="#FAD400" p-id="2646"></path><path d="M809.156222 620.682209c0-1.256442-16.333742 0-26.385276 0h-3.769325l-6.282209 6.282208 7.538651 6.282209h6.282208c10.051534 0 25.128834-1.256442 25.128835-1.256442s21.359509-2.512883 30.154601-6.282209l5.025767-6.282208-7.538651-6.282209h-1.256441c-8.795092 2.512883-30.154601 6.282209-28.89816 7.538651 0 1.256442 20.103067-3.769325 28.89816-5.025767h1.256441l5.025767 5.025767-3.769325 3.769325c-8.795092 2.512883-28.89816 6.282209-28.898159 6.282208s-13.820859 1.256442-23.872393 1.256442h-6.282209l-5.025767-3.769325 3.769326-3.769325h3.769325c7.53865-1.256442 25.128834-2.512883 25.128834-3.769325z" fill="#FAD400" p-id="2647"></path><path d="M815.438431 629.477301l-3.769325 10.051533-6.282209-10.051533 3.769325-6.282209z" fill="#FFFFFF" p-id="2648"></path><path d="M815.438431 629.477301l-1.256442-1.256442-2.512883 8.795092-5.025767-7.53865 2.512883-5.025767 5.025767 5.025767h1.256442l-1.256442-1.256442 1.256442 1.256442v-1.256442l-5.025767-5.025767-1.256442-1.256442-5.025767 7.538651 6.282209 11.307975 1.256442 1.256442 3.769325-12.564417 1.256441-1.256442h-1.256441z" fill="#FAD400" p-id="2649"></path><path d="M777.745179 631.990184c0 3.769325-3.769325 1.256442-6.282208 8.795092l-3.769326-10.051534 5.025767-5.025767 5.025767 6.282209z" fill="#FFFFFF" p-id="2650"></path><path d="M777.745179 631.990184c-1.256442 2.512883-3.769325 1.256442-7.53865 8.795092h2.512883l-2.512883-10.051534 3.769325-3.769325 3.769325 5.025767-2.512883-7.53865-1.256442-1.256442-6.282209 6.282209 3.769326 11.307975 1.256441 2.512884 1.256442-2.512884c1.256442-6.282209 3.769325-3.769325 3.769325-8.795092z" fill="#FAD400" p-id="2651"></path><path d="M840.567265 624.451534l8.795092 6.282208v-11.307975l-7.53865-2.512884z" fill="#FFFFFF" p-id="2652"></path><path d="M840.567265 624.451534l-1.256442 1.256441 10.051534 5.025767 1.256442 1.256442-1.256442-12.564417-7.53865-3.769325-1.256442-1.256442-1.256442 10.051534v1.256441l1.256442-1.256441h1.256442v-6.282209l6.282208 2.512884v7.53865l-7.53865-5.025767v1.256442h1.256442zM784.027388 625.707975h7.53865v2.512884h-7.53865zM795.335363 628.220859h6.282209v-2.512884h-7.538651zM817.71259 622.592l6.131436-1.382086 0.552834 2.450061-6.131435 1.382086zM827.877204 621.310429l6.131435-1.344392 0.527706 2.462626-6.131436 1.331828z" fill="#FAD400" p-id="2653"></path><path d="M722.461744 620.682209c10.051534 1.256442 22.615951 2.512883 31.411042 1.256441 5.025767 0 8.795092 8.795092-1.256441 10.051534-8.795092 1.256442-23.872393 0-31.411043-1.256442-6.282209-1.256442-20.103067-3.769325-30.154601-6.282208-8.795092-3.769325-2.512883-11.307975 2.512883-10.051534 7.53865 2.512883 18.846626 5.025767 28.89816 6.282209z" fill="#FFFFFF" p-id="2654"></path><path d="M722.461744 620.682209c7.53865 2.512883 15.077301 2.512883 22.61595 2.512883h8.795092l3.769326 3.769325-5.025767 3.769325h-8.795092c-7.53865 0-16.333742-1.256442-21.359509-1.256441-6.282209-1.256442-20.103067-3.769325-30.154602-6.282209l-3.769325-3.769325 5.025767-3.769325h1.256442c6.282209 1.256442 16.333742 3.769325 27.641718 5.025767-10.051534-2.512883-20.103067-5.025767-27.641718-7.538651h-1.256442l-7.53865 6.282209 5.025767 6.282208c8.795092 2.512883 23.872393 5.025767 30.154601 6.282209 5.025767 1.256442 13.820859 1.256442 22.615951 1.256442h8.795092l7.53865-6.282209-7.53865-6.282208h-30.154601z" fill="#FAD400" p-id="2655"></path><path d="M722.461744 620.682209c0 1.256442 16.333742 2.512883 26.385276 2.512883h3.769325l3.769325 3.769325-5.025767 3.769325h-6.282209c-10.051534 0-23.872393-1.256442-23.872392-1.256441s-21.359509-2.512883-28.89816-6.282209l-3.769325-3.769325 5.025767-5.025767h1.256442c6.282209 2.512883 26.385276 7.53865 27.641718 6.282209 0-1.256442-20.103067-5.025767-27.641718-7.538651h-1.256442l-7.53865 6.282209 5.025767 6.282208c8.795092 3.769325 30.154601 6.282209 30.154601 6.282209s13.820859 1.256442 25.128834 1.256442h6.282209l7.53865-6.282209-7.53865-6.282208h-3.769325c-10.051534 0-26.385276-1.256442-26.385276 0z" fill="#FAD400" p-id="2656"></path><path d="M716.179535 629.477301l2.512883 10.051533 6.282209-10.051533-3.769325-6.282209z" fill="#FFFFFF" p-id="2657"></path><path d="M716.179535 629.477301h-1.256442l2.512884 11.307975 1.256441 1.256442 7.538651-11.307976v-1.256441l-3.769325-6.282209-1.256442-1.256442-6.282209 6.282209v1.256442h1.256442l5.025767-5.025767 2.512883 5.025767-3.769325 7.53865-3.769325-8.795092v1.256442z" fill="#FAD400" p-id="2658"></path><path d="M752.616345 631.990184c0 3.769325 3.769325 1.256442 6.282208 8.795092l3.769326-10.051534-6.282209-5.025767-3.769325 6.282209z" fill="#FFFFFF" p-id="2659"></path><path d="M752.616345 631.990184c0 5.025767 2.512883 2.512883 5.025767 8.795092l1.256441 2.512884 3.769326-12.564418v-1.256441l-6.282209-6.282209-1.256442-1.256442-2.512883 10.051534 3.769325-5.025767 3.769325 3.769325-2.512883 10.051534h2.512883c-3.769325-7.53865-6.282209-6.282209-7.53865-8.795092z" fill="#FAD400" p-id="2660"></path><path d="M689.794259 624.451534l-8.795092 6.282208 1.256442-11.307975 7.53865-2.512884z" fill="#FFFFFF" p-id="2661"></path><path d="M689.794259 624.451534v-1.256442l-7.53865 5.025767 1.256441-7.53865 5.025767-2.512884 1.256442 6.282209v-1.256442 1.256442h1.256442l-1.256442-7.538651v-2.512883l-8.795092 3.769325v1.256442l-1.256442 11.307975v1.256442l11.307976-6.282209v-1.256441zM740.051928 625.707975h6.282208v2.512884h-6.282208zM736.282602 625.707975H730.000394v2.512884h6.282208zM713.666652 623.195092l-6.282209-1.256442-1.256442 2.512884 6.282209 1.256441zM703.615118 620.682209l-6.282209-1.256442-1.256442 2.512883 6.282209 1.256442z" fill="#FAD400" p-id="2662"></path><path d="M765.180762 449.806135c12.564417 10.051534 30.154601 15.077301 49.001227 13.820859-1.256442 45.231902-13.820859 75.386503-49.001227 99.258896-35.180368-22.615951-47.744785-54.026994-49.001227-99.258896 20.103067 2.512883 36.43681-2.512883 49.001227-13.820859z" fill="#FFFFFF" p-id="2663"></path><path d="M765.180762 449.806135c11.307975 10.051534 26.385276 15.077301 43.97546 15.077301h5.025767v-1.256442h-1.256442c-1.256442 45.231902-13.820859 75.386503-49.001227 98.002454v1.256442-1.256442c-33.923926-22.615951-47.744785-52.770552-49.001227-98.002454h-1.256441v1.256442h5.025766c20.103067 1.256442 35.180368-3.769325 46.488344-15.077301-12.564417 8.795092-26.385276 13.820859-43.97546 13.820859h-6.282209v1.256442c1.256442 45.231902 13.820859 76.642945 49.001227 100.515337 35.180368-23.872393 47.744785-55.283436 49.001227-100.515337v-1.256442h-6.282208c-13.820859 0-28.89816-5.025767-41.462577-13.820859v-1.256442 1.256442z" fill="#FAD400" p-id="2664"></path><path d="M780.258063 463.626994l-13.820859-7.53865-15.077301 8.795092c-8.795092 2.512883-18.846626 5.025767-30.154601 5.025766 2.512883 32.667485 12.564417 59.052761 30.154601 76.642945l15.077301 13.820859 13.820859-12.564417c17.590184-18.846626 28.89816-45.231902 30.154601-77.899387-11.307975-1.256442-21.359509-3.769325-30.154601-6.282208z" fill="#FAD400" p-id="2665"></path><path d="M780.258063 463.626994l-13.820859-8.795092-16.333743 8.795092c-8.795092 2.512883-18.846626 3.769325-28.898159 3.769325h-1.256442v1.256442c2.512883 32.667485 12.564417 59.052761 30.154601 77.899386l15.077301 13.820859 1.256442 1.256442 15.0773-12.564417c18.846626-18.846626 28.89816-45.231902 30.154602-79.155829v-1.256441h-1.256442c-11.307975-1.256442-21.359509-3.769325-30.154601-5.025767 8.795092 5.025767 18.846626 6.282209 30.154601 6.282208v-1.256441h-1.256442c-1.256442 32.667485-11.307975 59.052761-28.898159 77.899386l-13.820859 11.307976-15.077301-12.564417c-17.590184-17.590184-27.641718-43.97546-28.898159-76.642945h-1.256442v1.256441c11.307975 0 21.359509-1.256442 30.154601-5.025766l15.077301-7.538651 13.820859 6.282209z" fill="#FAD400" p-id="2666"></path><path d="M766.437204 454.831902l-16.333743 8.795092V545.295706l16.333743 12.564417 13.820859-11.307976v-82.925153z" fill="#FFFFFF" p-id="2667"></path><path d="M721.205302 468.652761c2.512883 32.667485 12.564417 59.052761 30.154601 76.642945v-81.668712c-10.051534 2.512883-20.103067 5.025767-30.154601 5.025767zM780.258063 463.626994v82.925153c17.590184-18.846626 28.89816-45.231902 30.154601-77.899386-11.307975 0-21.359509-2.512883-30.154601-5.025767z" fill="#FAD400" p-id="2668"></path></svg>