<?xml version="1.0" standalone="no"?><!DOCTYPE svg PUBLIC "-//W3C//DTD SVG 1.1//EN" "http://www.w3.org/Graphics/SVG/1.1/DTD/svg11.dtd"><svg t="1530409636393" class="icon" style="" viewBox="0 0 1541 1024" version="1.1" xmlns="http://www.w3.org/2000/svg" p-id="1432" xmlns:xlink="http://www.w3.org/1999/xlink" width="300.9765625" height="200"><defs><style type="text/css"></style></defs><path d="M6.271532 1017.740831h1513.466993V11.266504H6.271532v1006.474327z m1515.970661 3.755502v-3.755502 3.755502z m-1522.229829 2.503667V5.007335h1525.98533v1018.992665H0.012364z" fill="#353636" p-id="1433"></path><path d="M2.516031 8.762836h1519.726162v1012.733497H2.516031z" fill="#009A4C" p-id="1434"></path><path d="M155.239748 514.503667l607.139364 388.06846 607.139364-388.06846-607.139364-388.068459z" fill="#F5C800" p-id="1435"></path><path d="M762.379112 254.122249c143.96088 0 260.381418 116.420538 260.381418 260.381418s-116.420538 260.381418-260.381418 260.381419S501.997694 658.464548 501.997694 514.503667s116.420538-260.381418 260.381418-260.381418z" fill="#383782" p-id="1436"></path><path d="M1021.508696 540.792176c-113.91687-91.383863-259.129584-142.709046-415.608802-137.701711-27.540342 1.251834-55.080685 3.755501-81.369193 8.762836-5.007335 12.518337-10.01467 26.288509-13.770171 40.058679 31.295844-6.259169 63.843521-10.01467 96.391198-11.266503 155.227384-5.007335 297.93643 48.821516 406.845966 141.457212 3.755501-12.518337 6.259169-27.540342 7.511002-41.310513z" fill="#FFFFFF" p-id="1437"></path><path d="M535.797205 428.127139l2.503667 6.259169 5.007335 1.251834 5.007335-2.503668 1.251834-6.259168-2.503667-6.259169-5.007335-1.251834-5.007335 2.503668-1.251834 6.259168z m-5.007335 1.251834v-6.259169l1.251834-3.755501 2.503667-2.503667 5.007335-1.251834 8.762836 2.503667 5.007335 8.762837-2.503667 10.01467-8.762836 5.007335-6.259169-3.755502-5.007335-8.762836zM570.84855 421.867971h3.755501l5.007335-1.251834 1.251834-1.251834v-2.503667l-1.251834-2.503668h-10.01467l1.251834 7.511003z m-3.755502 15.022005l-2.503667-25.036675 11.266504-1.251834h6.259168l2.503668 2.503667 1.251833 3.755502-1.251833 5.007335-5.007335 2.503667 2.503667 2.503668 3.755501 3.755501 3.755502 5.007335h-6.259169l-3.755501-5.007335-2.503668-3.755501-2.503667-1.251834H570.84855l1.251833 10.01467-5.007335 1.251834zM602.144393 413.105134v16.273839h6.259169l2.503667-1.251834 1.251834-2.503667v-10.01467l-1.251834-2.503668H602.144393z m-5.007335-3.755501H612.159063l3.755501 2.503668 2.503668 3.755501 1.251834 6.259169-1.251834 5.007335-2.503668 5.007335-3.755501 2.503667-5.007335 1.251834h-10.01467v-26.288509zM629.684735 433.134474v-25.036674h18.777507v5.007334h-13.770172v5.007335h12.518338v5.007335l-12.518338-1.251833v7.511002h13.770172v5.007335zM658.476911 434.386308l2.503668-25.036675h7.511002l3.755502 17.525673 5.007335-16.273839h7.511002l-1.251834 25.036675h-5.007335l1.251834-20.02934-6.259169 20.02934-5.007335-1.251834-3.755501-20.02934-1.251834 20.02934zM709.802095 439.393643l3.755501-25.036675 18.777506 2.503668-1.251834 3.755501-12.518337-1.251834-1.251834 5.007335 12.518338 2.503668-1.251834 3.755501-12.518337-2.503668-1.251834 7.511003 15.022005 2.503667-1.251834 3.755502zM763.630946 426.875306l-1.251834 7.511002h6.259169l2.503667-1.251834 1.251834-1.251833v-2.503668l-1.251834-1.251834-3.755501-1.251833h-3.755501z m-10.01467 20.029339l6.259168-25.036674 7.511003 1.251833 6.259169 1.251834 2.503667 3.755501v5.007335l-1.251834 5.007335-2.503667 2.503668h-2.503668l-5.007335-1.251834-3.755501-1.251834-2.503667 8.762836h-5.007335zM791.171288 440.645477l3.755501 1.251834 5.007335 1.251833h1.251834l1.251834-1.251833v-2.503668l-1.251834-1.251834-3.755501-1.251833-3.755502-1.251834-2.503667 5.007335z m-8.762836 12.518337l7.511002-25.036675 10.01467 2.503668 5.007335 2.503667 2.503668 3.755502v3.755501l-2.503668 3.755501-5.007335 1.251834 2.503668 2.503667 1.251833 5.007335 1.251834 6.259169-6.259169-1.251834-2.503667-6.259169-1.251834-3.755501-1.251834-1.251834-2.503667-1.251833H789.919454l-2.503667 10.01467-5.007335-2.503668zM821.215298 451.91198v6.259169l3.755501 3.755501h5.007335l3.755501-5.007335V450.660147l-3.755501-3.755502h-5.007335l-3.755501 5.007335z m-5.007335-1.251833l3.755501-6.259169 3.755501-2.503667 3.755501-1.251834 5.007335 1.251834 7.511003 6.259168v10.01467l-6.259169 7.511003h-10.01467l-7.511002-6.259169V450.660147zM858.77031 469.437653l1.251834-3.755501 10.01467 3.755501-3.755502 10.01467h-5.007335l-6.259168-1.251834-5.007335-3.755501-2.503668-6.259169 1.251834-6.259169 3.755501-6.259168 6.259169-2.503668 6.259169 1.251834 6.259168 5.007335 1.251834 6.259169-5.007335-1.251834-1.251834-3.755501-2.503667-2.503668h-6.259169l-3.755501 5.007335-1.251834 7.511003 3.755502 3.755501 3.755501 1.251834 2.503667-1.251834 1.251834-2.503668zM886.310652 475.696822l3.755502 1.251833 3.755501 1.251834h1.251833l1.251834-1.251834v-2.503667l-1.251834-1.251834-3.755501-1.251834-3.755501-1.251833-1.251834 5.007335z m-11.266503 11.266503l11.266503-22.533007 10.01467 5.007335 5.007335 3.755501 1.251834 2.503668-1.251834 3.755501-3.755501 3.755501h-5.007335l1.251834 2.503667 1.251833 5.007335v6.259169l-5.007334-2.503667-1.251834-6.259169-1.251834-5.007335-1.251834-1.251834-2.503667-1.251834h-1.251834l-5.007335 10.01467-2.503667-3.755501zM903.836325 500.733496l11.266503-22.533007 17.525673 8.762836-2.503668 3.755501-12.518337-6.259168-2.503668 5.007335 11.266504 6.259168-2.503667 3.755502-11.266504-6.259169-2.503668 6.259169 12.518338 6.259168-2.503668 3.755502zM932.628501 506.992665l3.755501 2.503668v3.755501l2.503667 2.503667 3.755502 1.251834 2.503667-1.251834v-1.251834l-1.251834-2.503667-2.503667-2.503667-3.755501-5.007335 1.251833-6.259169 2.503668-2.503668h3.755501l5.007335 1.251834 5.007335 6.259169-1.251834 6.259169-3.755501-2.503668v-3.755501l-2.503667-2.503668-3.755502-1.251833-1.251833 1.251833v1.251834l3.755501 3.755501 3.755501 5.007335v3.755501l-1.251834 3.755502-2.503667 3.755501h-5.007335l-5.007335-2.503668-5.007335-5.007335zM957.665176 523.266504l5.007334 1.251833-1.251833 5.007335 2.503667 2.503668 3.755501 1.251834 2.503668-1.251834V528.273839l-3.755501-2.503668-2.503668-6.259169v-5.007335l3.755501-2.503667h3.755502l5.007335 1.251834 3.755501 6.259168v6.259169l-5.007335-2.503667v-3.755502l-1.251834-2.503667-3.755501-1.251834-1.251834 1.251834v1.251834l2.503668 5.007335 3.755501 3.755501v3.755501l-1.251834 3.755501-2.503667 3.755502h-5.007335l-5.007335-2.503668-5.007335-6.259169zM988.961019 539.540342l-2.503667 6.259169 3.755501 5.007335 5.007335 1.251834 5.007335-3.755502 2.503667-6.259168-2.503667-5.007335-5.007335-1.251834-6.259169 3.755501z m-3.755501-3.755501l5.007335-5.007335 3.755501-1.251834h3.755501l5.007335 2.503668 5.007335 8.762836-2.503667 10.01467-8.762837 6.259169-8.762836-2.503668-5.007335-8.762836 2.503668-10.01467z" fill="#009A4C" p-id="1438"></path><path d="M845.000139 415.608802l2.503667 7.511002h7.511003l-6.259169 5.007335 2.503668 7.511003-6.259169-5.007335-6.259169 5.007335 2.503668-7.511003-6.259169-5.007335h7.511002zM763.630946 625.91687l2.503667 7.511003h7.511003l-6.259169 5.007335 2.503667 7.511002-6.259168-5.007335-6.259169 5.007335 2.503667-7.511002-6.259168-5.007335h7.511002zM947.650506 599.628362l2.503667 8.762836h8.762836l-7.511002 3.755501 2.503667 7.511003-6.259168-5.007335-6.259169 5.007335 2.503667-7.511003-6.259168-3.755501h7.511002zM983.953684 605.887531l2.503668 5.007335h5.007335l-5.007335 3.755501 2.503667 3.755501-5.007335-2.503668-3.755501 2.503668 1.251834-3.755501-3.755502-3.755501h5.007335zM958.917009 624.665037l1.251834 7.511002h7.511002l-6.259168 3.755501 2.503667 6.259169-5.007335-3.755501-6.259168 3.755501 2.503667-6.259169-5.007335-3.755501h6.259169zM942.643171 645.94621l1.251833 7.511003h7.511003l-5.007335 3.755501 1.251834 6.259169-5.007335-3.755502-6.259169 3.755502 2.503667-6.259169-5.007335-3.755501h6.259169zM921.361997 662.220049l1.251834 5.007335h5.007335l-3.755501 2.503667 1.251833 5.007335-3.755501-2.503667-3.755501 2.503667 1.251834-5.007335-3.755502-2.503667h5.007335zM893.821655 657.212714l2.503667 5.007335h5.007335l-5.007335 2.503667 2.503668 5.007335-5.007335-3.755501-3.755501 3.755501 1.251833-5.007335-3.755501-2.503667h5.007335zM865.029479 665.97555l1.251833 5.007335h5.007335l-3.755501 3.755501 1.251834 5.007335-3.755501-3.755501-5.007335 3.755501 1.251833-5.007335-3.755501-3.755501h5.007335zM895.073488 708.537897l1.251834 5.007335h5.007335l-3.755501 3.755501 1.251834 3.755502-3.755502-2.503668-5.007334 2.503668 2.503667-3.755502-5.007335-3.755501h5.007335zM841.244638 686.00489l2.503667 6.259169h7.511003l-6.259169 5.007335 2.503667 6.259168-6.259168-3.755501-5.007335 3.755501 1.251833-6.259168-5.007335-5.007335h6.259169zM821.215298 658.464548l1.251834 5.007335h6.259168l-5.007335 3.755501 1.251834 5.007335-3.755501-2.503668-5.007335 2.503668 2.503667-5.007335-5.007335-3.755501h6.259169zM895.073488 679.745721l2.503668 7.511003h6.259169l-5.007335 3.755501 2.503667 6.259169-6.259169-3.755502-5.007334 3.755502 2.503667-6.259169-6.259169-3.755501h7.511003zM763.630946 722.308068v2.503668h2.503667l-1.251834 1.251834v2.503667l-1.251833-1.251834-2.503668 1.251834 1.251834-2.503667-2.503668-1.251834h2.503668zM832.481801 494.474328l1.251834 6.259168h6.259169l-5.007335 2.503668 1.251834 6.259169-3.755502-3.755502-5.007335 3.755502 1.251834-6.259169-3.755501-2.503668h5.007335zM763.630946 552.05868l1.251833 6.259168h6.259169l-5.007335 3.755502 2.503668 5.007335-5.007335-3.755502-5.007335 3.755502 1.251833-5.007335-3.755501-3.755502h5.007335zM793.674955 575.843521l2.503668 6.259168h6.259169l-5.007335 3.755502 1.251833 6.259168-5.007335-3.755501-5.007334 3.755501 2.503667-6.259168-6.259169-3.755502h7.511003zM737.342437 577.095355l1.251834 5.007334h5.007335l-3.755501 2.503668 1.251833 5.007335-3.755501-3.755501-5.007335 3.755501 2.503668-5.007335-5.007335-2.503668h5.007335zM749.860775 598.376528v3.755501h3.755501l-2.503668 1.251834 1.251834 3.755501-2.503667-2.503667-3.755502 2.503667 1.251834-3.755501-2.503667-1.251834h3.755501zM547.063709 460.674817l2.503667 7.511002h7.511002l-6.259168 5.007335 2.503667 7.511002-6.259168-5.007334-6.259169 5.007334 2.503667-7.511002-6.259168-5.007335h7.511002zM660.980579 520.762836l2.503667 5.007335h6.259169l-5.007335 3.755501 1.251834 6.259169-5.007335-3.755501-5.007335 3.755501 2.503667-6.259169-6.259168-3.755501h7.511002zM570.84855 572.08802l2.503667 7.511002h7.511003l-6.259169 3.755501 2.503667 7.511003-6.259168-5.007335-6.259169 5.007335 2.503667-7.511003-6.259168-3.755501h7.511002zM595.885224 560.821516l1.251834 3.755501h3.755501l-2.503667 2.503668 1.251834 3.755501-3.755502-2.503668-2.503667 2.503668 1.251834-3.755501-3.755502-2.503668h3.755502zM625.929234 599.628362l2.503668 6.259169h6.259168l-5.007335 3.755501 1.251834 6.259168-5.007335-3.755501-5.007335 3.755501 1.251834-6.259168-5.007335-3.755501h6.259169zM657.225078 648.449878l2.503667 6.259168h7.511003l-6.259169 5.007335 2.503667 7.511003-6.259168-5.007335-6.259169 5.007335 2.503668-7.511003-6.259169-5.007335h7.511002zM617.166398 625.91687l2.503668 6.259169h6.259168l-5.007335 3.755501 2.503668 6.259169-6.259169-3.755501-5.007335 3.755501 2.503668-6.259169-6.259169-3.755501h7.511002zM538.300872 598.376528l1.251834 5.007335h5.007335l-3.755501 2.503668 1.251834 5.007335-3.755502-2.503668-3.755501 2.503668 1.251834-5.007335-3.755501-2.503668h5.007335z" fill="#FFFFFF" p-id="1439"></path></svg>