<?xml version="1.0" standalone="no"?><!DOCTYPE svg PUBLIC "-//W3C//DTD SVG 1.1//EN" "http://www.w3.org/Graphics/SVG/1.1/DTD/svg11.dtd"><svg t="1530161182768" class="icon" style="" viewBox="0 0 1024 1024" version="1.1" xmlns="http://www.w3.org/2000/svg" p-id="10492" xmlns:xlink="http://www.w3.org/1999/xlink" width="200" height="200"><defs><style type="text/css"></style></defs><path d="M492.679245 985.358491H338.113208v38.641509h347.773584v-38.641509h-154.566037v-154.566038h-38.64151v154.566038z" fill="#2c2c2c" p-id="10493"></path><path d="M782.490566 540.981132c0 149.388075-121.102491 270.490566-270.490566 270.490566S241.509434 690.369208 241.509434 540.981132H202.867925c0 170.737509 138.394566 309.132075 309.132075 309.132076s309.132075-138.394566 309.132075-309.132076h-38.641509z" fill="#2c2c2c" p-id="10494"></path><path d="M512 38.641509a173.886792 173.886792 0 0 0-173.886792 173.886793v347.773585a173.886792 173.886792 0 0 0 173.886792 173.886792 173.886792 173.886792 0 0 0 173.886792-173.886792V212.528302a173.886792 173.886792 0 0 0-173.886792-173.886793z m0-38.641509c117.373585 0 212.528302 95.154717 212.528302 212.528302v347.773585c0 117.373585-95.154717 212.528302-212.528302 212.528302S299.471698 677.675472 299.471698 560.301887V212.528302C299.471698 95.154717 394.626415 0 512 0z" fill="#2c2c2c" p-id="10495"></path></svg>