<?xml version="1.0" standalone="no"?><!DOCTYPE svg PUBLIC "-//W3C//DTD SVG 1.1//EN" "http://www.w3.org/Graphics/SVG/1.1/DTD/svg11.dtd"><svg t="1529303296565" class="icon" style="" viewBox="0 0 1024 1024" version="1.1" xmlns="http://www.w3.org/2000/svg" p-id="5758" xmlns:xlink="http://www.w3.org/1999/xlink" width="200" height="200"><defs><style type="text/css"></style></defs><path d="M533.333333 832h85.333334s-20.010667-86.656-20.010667-150.656C598.656 633.621333 597.333333 362.666667 597.333333 362.666667l-64 469.333333z" fill="#B57E02" p-id="5759"></path><path d="M362.666667 960l42.666666-128h213.333334l42.666666 128s0 21.333333-21.333333 21.333333H384c-21.333333 0-21.333333-21.333333-21.333333-21.333333z" fill="#5EC08F" p-id="5760"></path><path d="M512 256m-213.333333 0a213.333333 213.333333 0 1 0 426.666666 0 213.333333 213.333333 0 1 0-426.666666 0Z" fill="#DD9F05" p-id="5761"></path><path d="M469.333333 832s149.333333-405.333333 213.333334-405.333333c-42.666667 106.666667-64 320-128 405.333333h-85.333334z" fill="#DD9F05" p-id="5762"></path><path d="M632.874667 874.666667L618.666667 832H405.333333l-14.208 42.666667z" fill="#398E5F" p-id="5763"></path><path d="M341.333333 298.666667c0-117.824 95.530667-213.333333 213.333334-213.333334a212.266667 212.266667 0 0 1 127.829333 42.837334C643.584 76.330667 581.781333 42.666667 512 42.666667c-117.802667 0-213.333333 95.509333-213.333333 213.333333 0 69.781333 33.685333 131.584 85.504 170.496A212.181333 212.181333 0 0 1 341.333333 298.666667z" fill="#FFC107" p-id="5764"></path><path d="M277.333333 320s106.666667 128 128 213.333333 21.333333 128 0 298.666667h128s-28.522667-507.712-97.344-473.322667C399.552 390.250667 341.333333 405.333333 277.333333 320z" fill="#FFC107" p-id="5765"></path><path d="M490.666667 336a80 64 90 1 0 128 0 80 64 90 1 0-128 0Z" fill="#B57E02" p-id="5766"></path><path d="M576 426.666667c52.416 0 88.661333-72.362667 108.864-128.234667L704 234.666667s-64 128-128 149.333333c-50.709333 16.896-107.712-68.138667-129.237333-104.256C477.802667 337.557333 507.989333 426.666667 576 426.666667zM386.666667 265.770667l-0.106667-0.192c5.162667 21.141333 14.101333 70.72-13.952 75.605333-21.717333 0.234667-49.514667-12.288-73.941333-63.274667l-21.162667 42.304c0.384 0.469333 4.586667 5.568 11.328 14.101334 58.304 67.776 110.848 54.506667 145.152 25.962666a1346.453333 1346.453333 0 0 0-47.317333-94.506666z" fill="#B57E02" p-id="5767"></path><path d="M725.333333 213.333333a21.333333 21.333333 0 0 0-21.333333 21.333334s-42.666667 192-128 192-111.104-140.437333-153.770667-183.104A20.992 20.992 0 0 0 405.333333 234.666667a21.333333 21.333333 0 0 0-21.333333 21.333333c0 1.941333 0.618667 3.690667 1.109333 5.461333l-0.661333 0.32 1.130667 2.026667c0.277333 0.704 0.725333 1.28 1.088 1.941333C401.258667 292.032 490.666667 456.704 490.666667 554.666667c0 106.666667-85.333333 277.333333-85.333334 277.333333h64c42.666667-64 277.333333-469.333333 277.333334-597.333333a21.333333 21.333333 0 0 0-21.333334-21.333334z" fill="#FFE082" p-id="5768"></path><path d="M533.333333 330.666667a53.333333 42.666667 90 1 0 85.333334 0 53.333333 42.666667 90 1 0-85.333334 0Z" fill="#FFE082" p-id="5769"></path></svg>