<?xml version="1.0" standalone="no"?><!DOCTYPE svg PUBLIC "-//W3C//DTD SVG 1.1//EN" "http://www.w3.org/Graphics/SVG/1.1/DTD/svg11.dtd"><svg t="1529304237099" class="icon" style="" viewBox="0 0 1024 1024" version="1.1" xmlns="http://www.w3.org/2000/svg" p-id="30428" xmlns:xlink="http://www.w3.org/1999/xlink" width="200" height="200"><defs><style type="text/css"></style></defs><path d="M1006.272 931.712l-220.352-200.128c127.04-169.152 107.328-407.424-54.336-554.24C556.608 18.368 281.728 26.88 117.568 196.352s-155.328 435.776 19.648 594.816c161.536 146.752 408.256 150.848 574.4 17.152l220.224 200.192a55.616 55.616 0 0 0 76.864-2.432 51.52 51.52 0 0 0-2.432-74.368zM187.328 739.392a342.272 342.272 0 0 1-16.32-494.464c136.448-140.928 364.992-147.968 510.4-15.808 145.408 132.224 152.768 353.536 16.256 494.528-136.32 140.864-364.864 147.84-510.336 15.744z m0 0" fill="#333333" p-id="30429"></path><path d="M283.584 324.544a27.84 27.84 0 0 0-39.296 0 198.528 198.528 0 0 0-59.008 141.696 198.4 198.4 0 0 0 59.008 141.696 27.584 27.584 0 0 0 19.648 8.064 27.52 27.52 0 0 0 19.648-47.232c-27.456-27.392-42.624-63.808-42.624-102.528s15.168-75.136 42.688-102.528a27.52 27.52 0 0 0-0.064-39.168z m0 0" fill="#1CAF9A" p-id="30430"></path></svg>