<?xml version="1.0" standalone="no"?><!DOCTYPE svg PUBLIC "-//W3C//DTD SVG 1.1//EN" "http://www.w3.org/Graphics/SVG/1.1/DTD/svg11.dtd"><svg t="1529304556513" class="icon" style="" viewBox="0 0 1024 1024" version="1.1" xmlns="http://www.w3.org/2000/svg" p-id="2660" xmlns:xlink="http://www.w3.org/1999/xlink" width="200" height="200"><defs><style type="text/css"></style></defs><path d="M900.4 187l-370.6 52.8V690l-6.4 0.8c-6.3 1.2-11.6 2.9-16.2 5v-1.3h-19.1l-0.2 29.5h0.2c0 1.1 0 2.1 0.1 3.2 2.3 13.3 15.3 25.7 46.4 22.3 0 0 48.3-6.5 60.6-8.7 14.3-2.4 25.4-4.3 33-5.6l283.1-40.3c18.9-2.7 32.9-18.8 32.9-37.9V224.9c-0.1-23.3-20.7-41.2-43.8-37.9z" fill="#D32F2F" p-id="2661"></path><path d="M944.1 444.4V657c0 19-14 35.2-32.9 37.9l-283.1 40.3c-7.5 1.3-18.6 3.2-33 5.6-12.4 2.1-60.6 8.7-60.6 8.7-31.1 3.4-44.2-8.9-46.4-22.3-0.1-1.1-0.1-2.1-0.1-3.2h-0.2l0.2-29.5h19.1v1.3c4.6-2.1 9.9-3.8 16.2-5l6.4-0.8V507.6l414.4-63.2z" fill="#1565C0" p-id="2662"></path><path d="M900.4 187l-370.6 52.8v154.5l414.3-59.1V224.9c0-23.3-20.6-41.2-43.7-37.9z" fill="#D32F2F" p-id="2663"></path><path d="M529.8 690v59.9c1.5-0.1 3.1-0.2 4.7-0.4 0 0 48.3-6.5 60.6-8.6 14.3-2.4 25.4-4.3 33-5.6L911.2 695c18.9-2.7 32.9-18.8 32.9-37.9V335.3l-414.3 59.1V690z" fill="#E2A803" p-id="2664"></path><path d="M944.1 335.3l-414.3 59.1v167.2L944.1 505v152z" fill="#E2A803" p-id="2665"></path><path d="M529.8 561.6V690l-6.4 0.8c-6.3 1.2-11.6 2.9-16.2 5v-1.3h-19.1l-0.2 29.5h0.2c0 1.1 0 2.1 0.1 3.2 2.1 12.7 14 24.4 41.7 22.6 1.5-0.1 3.1-0.2 4.7-0.4 0 0 48.3-6.5 60.6-8.6 14.3-2.4 25.4-4.3 33-5.6l283.1-40.3c18.9-2.7 32.9-18.8 32.9-37.9V505l-414.4 56.6z" fill="#1565C0" p-id="2666"></path><path d="M630.3 225.5l-100.5 14.4v154.5l47.9-6.8z" fill="#D32F2F" p-id="2667"></path><path d="M943.9 335.3V224.9c0-23.3-20.6-41.2-43.7-37.9l-270.1 38.5 102.7 139.9 211.1-30.1z" fill="#D32F2F" p-id="2668"></path><path d="M845.2 518.5l98.7-13.5V335.3l-211 30.1z" fill="#FFB300" p-id="2669"></path><path d="M529.8 394.4v140.7l47.9-147.5z" fill="#E2A803" p-id="2670"></path><path d="M494.9 740.3l-4.3-5.9c1 2.1 2.5 4.1 4.3 5.9z" fill="#1565C0" p-id="2671"></path><path d="M943.9 653.1V505l-98.7 13.5z" fill="#1976D2" p-id="2672"></path><path d="M630.4 225.5h-0.1 0.1z" fill="#9E9E9E" p-id="2673"></path><path d="M733 365.4L630.4 225.5h-0.1l-52.6 162.1z" fill="#C62828" p-id="2674"></path><path d="M845.4 518.5L733.1 365.4l-155.3 22.2-47.9 147.5v26.5z" fill="#FFA000" p-id="2675"></path><path d="M529.7 750.2c1.5-0.1 3.1-0.2 4.7-0.4 0 0 48.3-6.6 60.6-8.8 14.3-2.5 25.4-4.4 33-5.7l283.1-41c18.9-2.7 32.9-19.1 32.9-38.5v1.2-4l-98.7-134.5L530 561.6v127.7l-6.5 0.8c-6.4 1.2-11.8 2.9-16.5 5v-1.3h-19l-0.2 30h0.2c0 1.1 0 2.1 0.1 3.3 0.4 2.5 1.2 5 2.4 7.3l4.3 6c6.3 6.6 17.4 10.9 34.9 9.8z" fill="#1565C0" p-id="2676"></path><path d="M630.9 576.5V141.3c0-0.8 0.1-1.6 0-2.4-2.7-18.1-17.1-28-43.8-26l-7.9 1.1h-0.4l-89.9 12.5v0.1l-278 39v517l356-50v34.8l64-8.3v-82.6z" fill="#F44336" p-id="2677"></path><path d="M630.9 614.9V300.4c0-0.8 0.1-1.6 0-2.4-2.7-18.1-17-28.1-43.5-26.1l-7.8 1.1h0.5-0.3l-89.9 12.5v0.1l-278 39V615h419z" fill="#FFCA28" p-id="2678"></path><path d="M630.9 479.9c-2.7-18.1-17.1-28-43.8-26l-7.9 1.1h-0.4l-89.9 12.5v0.1l-278 39v176l356-50v33.9l64-8.3V482.3c0-0.8 0.1-1.6 0-2.4z" fill="#2196F3" p-id="2679"></path><path d="M591.2 689.4s-48.3 6.2-60.8 7.4c-29.1 2.7-42.4 17.9-42.4 17.9l0.8-71.2 97.9-13.6c26.5-2 40.8 8 43.5 26 1.3 13.4-8 28.7-39 33.5z" fill="#0D47A1" p-id="2680"></path><path d="M180.8 82.7h57.4v880.4h-57.4z" fill="#CFD8DC" p-id="2681"></path><path d="M310.3 991.8H108.6c-15.9 0-28.7-12.9-28.7-28.7s12.9-28.7 28.7-28.7h201.7c15.9 0 28.7 12.9 28.7 28.7s-12.8 28.7-28.7 28.7z" fill="#CFD8DC" p-id="2682"></path><path d="M209.9 99.9m-67 0a67 67 0 1 0 134 0 67 67 0 1 0-134 0Z" fill="#546E7A" p-id="2683"></path></svg>