<?xml version="1.0" standalone="no"?><!DOCTYPE svg PUBLIC "-//W3C//DTD SVG 1.1//EN" "http://www.w3.org/Graphics/SVG/1.1/DTD/svg11.dtd"><svg class="icon" width="200px" height="199.03px" viewBox="0 0 1029 1024" version="1.1" xmlns="http://www.w3.org/2000/svg"><path d="M1011.995078 370.01202c18.500367 55.501102 22.671359 123.851549 12.664342 181.269961-3.649618 21.494063-4.608273 41.47446-5.045554 63.33853-2.102314 102.004297-62.009867 202.81448-137.306362 269.09625-19.593571 17.10443-41.087634 32.274732-62.413511 47.091844-64.129 43.728141-137.693188 78.727472-216.033834 85.77443-11.150676 0.958655-22.267715 2.287318-33.41839 3.649617-144.134679 17.474438-307.190188-26.657347-410.523149-131.688977-15.136664-15.355305-29.365128-31.484261-43.946781-47.428214-42.449933-45.864092-58.192064-92.182284-82.007082-147.077919-42.819941-97.951035-47.091844-241.211151-1.681852-339.734016 9.367913-20.350404 16.482145-40.90263 23.394556-62.228508C82.923456 208.386084 185.095938 106.415424 263.049758 67.278738c14.413468-7.299236 29.196943-14.009824 43.610411-21.292241C392.300051 1.686527 518.859381-12.861489 611.983502 12.282192c25.37914 6.929228 50.320999 15.002116 75.46468 21.86407 60.883027 16.902608 102.172482 42.836759 149.802519 82.982556 80.728875 68.367266 141.140983 152.459844 174.744377 252.933657z" fill="#282727" /><path d="M336.613946 119.416137c-25.732329 5.953755-43.223585 12.882983-61.656679 31.955179-14.766657 15.355305-28.793299 31.484261-42.231292 48.016862-12.109331 14.95166-15.927134 23.545922-7.48424 41.457641 16.515782 34.982513 34.948875 68.955914 54.340624 102.592946 11.772961 20.552226 20.73723 27.851462 44.922256 25.950969 24.790492-1.950948 49.564166-3.868259 74.136016-5.970573 19.778574-1.530485 30.273328-6.727406 42.83676-22.082711 35.890712-44.333607 71.798243-88.919492 107.722592-133.286736 25.143681-31.282439 24.773674-35.100242 1.345482-68.148625-22.671359-31.95518-24.386848-33.031565-63.775812-34.56205A579.751052 579.751052 0 0 0 336.613946 119.416137zM21.872244 474.488639a453.662641 453.662641 0 0 0 5.045555 128.846648 1.950948 1.950948 0 0 0 3.85144-0.151367c1.934129-25.227773 4.406451-33.822035 0.588648-61.454856a523.055836 523.055836 0 0 1-5.600566-66.988148 1.934129 1.934129 0 0 0-3.834621-0.252277zM981.250832 587.424971c18.063086-11.890691 20.552226-18.063086 24.403666-39.557149 5.566929-32.241094 5.365106-65.676304 2.690962-98.321042-2.102314-27.262814-9.603372-44.737252-24.403666-67.946803-21.679067-33.805216-47.613218-69.359558-79.047023-94.50324-18.618097-14.95166-19.778574-17.491256-40.700808-5.348288-17.659441 10.091109-16.498964 11.10022-15.136664 31.652447 4.591455 70.486399 0 141.948272-8.27471 211.795567-1.530485 11.941146-1.530485 19.980397 5.583747 29.785591 11.318861 15.758949 22.452718 31.702902 33.014746 48.016863 14.598472 22.671359 16.128956 22.09953 41.289456 15.338486 21.695885-5.920118 42.046289-18.399456 60.664386-30.912432zM528.109565 994.365775c100.255172 17.070793 199.534869-24.033659 281.155126-79.702945 13.82482-9.620191 16.128956-9.620191 4.204629-18.500367-24.941859-18.231271-32.442917-23.983203-56.627943-16.482146-27.296451 8.409258-54.744268 15.742131-82.578911 21.662248-17.642623 3.85144-28.810117 9.031543-42.634937 20.972689-31.484261 27.044173-66.063129 50.87601-103.887972 68.350448zM245.003491 892.193293c-7.097414-40.515804-4.776458-81.031608 1.345481-121.547413 2.875966-18.819919 1.143659-25.227773-9.586554-40.90263a793.648934 793.648934 0 0 1-49.950991-82.225722c-9.586554-18.231271-16.128956-24.000022-35.890712-30.946069-9.031543-3.044151-93.14094-34.10795-97.093291-31.282439-4.42327 3.262792-4.608273 35.705709-4.42327 40.717626 0.403644 17.491256 3.868259 27.632821 11.520683 43.425407 33.822035 69.847295 74.707846 136.717714 123.296539 197.213915 8.257891 9.939743 9.216547 11.520683 21.124055 16.31396 3.077788 1.328663 41.272637 16.818516 39.742153 9.199728zM682.268079 52.797996c-26.674166-7.282417-37.253012-9.40155-62.228508 0.588648-11.150676 4.440088-66.634959 31.686083-69.325921 45.157715-1.530485 6.878773 11.907509 24.773674 15.557127 29.920139 25.345503 35.756164 28.591477 39.775789 71.075047 53.02878a843.482196 843.482196 0 0 1 182.026795 82.410726c16.31396 9.788376 18.500367 10.780669 34.948875 0.958656 20.350404-11.890691 17.659441-14.800294 11.318861-37.253012-13.236172-46.284555-56.442938-114.365906-99.649705-139.408676a366.946374 366.946374 0 0 0-83.739389-35.318883zM478.528581 720.509885c20.182219-3.06097 25.345503-6.542403 33.973401-24.941858 13.656635-29.213762 28.053284-58.00706 42.634937-86.598537 7.686062-14.817112 7.686062-24.773674-0.756833-39.388964A1596.34623 1596.34623 0 0 0 443.562887 403.649051c-13.454813-17.659441-21.510881-22.620904-43.593593-20.922234-24.773674 1.934129-49.345525 4.053262-74.136017 5.953755-23.209552 1.917311-32.442917 7.871065-44.148603 28.053284-32.644739 56.846583-61.06803 116.552313-82.192086 178.780821-5.785569 17.474438-4.036444 26.674166 4.591455 43.004945a791.849353 791.849353 0 0 0 47.848677 79.131116c11.318861 16.330779 19.963578 19.004923 39.557148 18.8031a1247.47976 1247.47976 0 0 0 187.038713-15.943953zM751.207175 861.112676c14.581653-4.591455 22.284533-10.19202 30.172417-23.243189 32.611102-53.93698 62.598515-110.413555 85.623063-169.16063 9.620191-24.403666 10.208839-33.233387-4.42327-55.686105-10.091109-15.573945-20.720411-30.946069-31.484261-45.897729-5.751932-8.089706-13.25299-8.409258-22.452718-6.727406-66.836781 13.269809-134.430395 24.033659-201.822188 33.822034-18.248089 2.7246-25.917333 7.282417-34.360227 23.815019-14.800294 28.591477-29.011939 57.418412-42.634938 86.632174-7.887884 16.818516-7.299236 22.082711 3.6328 37.236193 31.686083 44.165422 64.902652 87.456281 100.440175 128.49346 11.33568 13.25299 19.593571 15.742131 36.496179 12.092512 27.262814-5.970573 54.340624-13.101624 80.829786-21.342696zM280.154189 80.733551c-2.875966 1.160478-6.542403 3.06097-7.887884 3.649617-71.61324 35.823438-166.09966 128.762556-195.279785 206.396824-0.773652 1.681852 1.681852 3.363703 3.06097 2.068678a469.741142 469.741142 0 0 1 91.980462-67.98044 160.953195 160.953195 0 0 0 46.11637-38.41349Q238.545181 161.462426 260.695166 138.06787c16.330779-16.818516 24.01684-31.652446 22.082711-55.686105zM216.5802 911.753227c46.671381 34.965694 99.868346 59.958008 155.739454 75.330131a1.917311 1.917311 0 0 0 1.160478-3.649618c-37.824842-13.454813-73.160543-33.065202-106.763937-58.175245-17.272616-12.91662-28.591477-10.780669-48.420507-16.734423-1.900492-0.79047-3.245974 2.102314-1.681851 3.229155z" fill="#FFFFFF" /></svg>